<svg width="24" height="24" viewBox="0 0 24 24" fill="none" xmlns="http://www.w3.org/2000/svg">
<path d="M0.0057391 7.92382C-0.0920299 8.99285 1.08212 10.1817 1.7922 10.7954L1.84683 10.8413C1.95219 10.5882 2.08242 10.3462 2.23561 10.1188C1.30106 9.28845 0.77458 8.49942 0.821399 7.99405C0.893004 7.22704 1.41077 7.05354 2.13508 6.89518L1.95332 6.12817C1.31805 6.26725 0.137475 6.52568 0.0057391 7.92382Z" fill="white"/>
<path d="M13.6834 8.86068C11.5733 7.92485 9.39167 7.15938 7.15945 6.5716C4.92454 6.01069 3.17296 5.86197 1.95337 6.1282L2.13697 6.8952C3.21151 6.66019 4.87772 6.8112 6.95657 7.33264C9.03829 7.87982 11.0747 8.5868 13.0476 9.44729C13.2744 9.24763 13.5066 9.0576 13.7361 8.88179L13.6866 8.86022" fill="white"/>
<path d="M18.6006 11.3086C17.5334 10.7 16.3555 10.0899 15.1121 9.50562C14.8536 9.66573 14.6056 9.84235 14.3699 10.0344C15.8749 10.7205 17.3438 11.4831 18.7709 12.3193C18.7709 12.2799 18.7709 12.2459 18.7709 12.2174V12.2087C18.7568 11.9024 18.7006 11.5995 18.6038 11.3086" fill="white"/>
<path d="M16.1068 8.87182C16.1404 8.86906 16.1734 8.86769 16.2065 8.86677H16.3235H16.3694L16.4304 8.86998L16.4763 8.87411L16.5374 8.88054L16.5856 8.88697L16.6425 8.89569L16.6912 8.90441L16.7467 8.91588L16.7926 8.9269L16.8472 8.94067L16.8931 8.95444L16.9464 8.97142L16.9923 8.98749L17.0451 9.00723L17.091 9.02559L17.1433 9.04808L17.1892 9.06873L17.2415 9.09444L17.2851 9.11693L17.337 9.14631L17.3792 9.17063L17.4315 9.20322L17.4719 9.22893C17.4903 9.24132 17.5082 9.25371 17.5261 9.26657L17.5628 9.29227C17.5826 9.30696 17.6023 9.32257 17.622 9.33817L17.6523 9.36112C17.6817 9.38499 17.7111 9.40932 17.74 9.43456C18.3223 9.99252 18.73 10.7075 18.9137 11.4928C18.9752 11.7259 19.0103 11.9651 19.0183 12.2061V12.2157C19.0183 12.2772 19.0183 12.3653 19.0183 12.4727C19.011 12.904 18.9214 13.33 18.7544 13.7277C18.666 13.9298 18.5488 14.1181 18.4065 14.2868C18.6565 14.4153 18.9013 14.5391 19.1409 14.6581C19.2868 14.4656 19.41 14.2569 19.5081 14.0361C19.6571 13.6932 19.7558 13.3305 19.801 12.9593C19.8319 12.7093 19.8443 12.4574 19.8381 12.2056V12.1978C19.8381 12.1487 19.8349 12.0977 19.8317 12.0459C19.7196 10.8322 19.1735 9.69964 18.2936 8.85621C18.2544 8.82225 18.2149 8.7892 18.1751 8.75707L18.1347 8.72631C18.1077 8.7052 18.081 8.68454 18.0535 8.66435C18.0374 8.65287 18.0209 8.64185 18.0044 8.63038C17.9791 8.61294 17.9544 8.59504 17.9291 8.57851C17.9112 8.56704 17.8933 8.55602 17.8759 8.54454C17.8584 8.53307 17.8272 8.51379 17.802 8.49864L17.7455 8.46651C17.7212 8.45274 17.6969 8.43897 17.6721 8.42612C17.6473 8.41327 17.6331 8.40592 17.6138 8.39628C17.5945 8.38665 17.5647 8.3715 17.5399 8.36002L17.4797 8.33294C17.455 8.32193 17.4302 8.31091 17.4054 8.30081L17.3439 8.27648C17.3186 8.26684 17.2938 8.25766 17.2681 8.24848L17.2053 8.22737L17.1341 8.20212L17.0703 8.18422L16.9923 8.16403C16.9707 8.15898 16.9496 8.15347 16.928 8.14888C16.9064 8.14429 16.8752 8.13786 16.8491 8.13281L16.7839 8.12088C16.7573 8.11629 16.7302 8.11262 16.7036 8.10849L16.6384 8.09976L16.5558 8.0915L16.4915 8.08462C16.4635 8.08462 16.435 8.0814 16.407 8.08049C16.379 8.07957 16.3639 8.08049 16.3428 8.08049C16.3134 8.08049 16.284 8.08049 16.2546 8.08049C16.234 8.08049 16.2133 8.08049 16.1922 8.08049C16.1463 8.08049 16.0958 8.08416 16.0472 8.08737C14.4948 8.20075 12.7822 9.98033 11.4066 11.4106C11.1771 11.6474 10.9632 11.8696 10.7598 12.0762C10.2425 12.5971 9.76563 13.0401 9.32544 13.4201C9.61003 13.5233 9.89936 13.6249 10.1934 13.7249C10.564 13.392 10.9497 13.0234 11.3506 12.6192C11.5585 12.4103 11.7761 12.184 12.0061 11.9449C13.2169 10.6858 14.8753 8.96133 16.1068 8.87182Z" fill="white"/>
<path d="M23.9996 15.9675C23.9964 15.9224 23.9904 15.8774 23.9817 15.833C23.9757 15.8018 23.9683 15.7697 23.9592 15.7371C23.95 15.7045 23.9394 15.671 23.9275 15.6366C23.9156 15.6021 23.9013 15.5673 23.8853 15.531C23.8692 15.4947 23.8518 15.458 23.8325 15.4204C23.8132 15.3827 23.7916 15.3446 23.7682 15.3052C23.7171 15.2204 23.6613 15.1386 23.6011 15.06C23.5529 14.9967 23.5002 14.9315 23.4442 14.8659C22.4566 13.8302 21.3305 12.936 20.098 12.2087C20.1053 12.5104 20.0864 12.8122 20.0415 13.1106C21.0475 13.7284 21.9685 14.4747 22.7813 15.3309C22.8378 15.3965 22.8915 15.4612 22.9392 15.5246C23.1908 15.8555 23.2004 16.0446 23.1688 16.1038C23.1642 16.1112 23.1588 16.118 23.1527 16.124L23.1486 16.1272C23.1415 16.1342 23.1338 16.1405 23.1256 16.1461L23.1201 16.1497C23.1104 16.1563 23.1002 16.1623 23.0898 16.1676H23.0857C23.0747 16.1731 23.0623 16.1782 23.0494 16.1832H23.0448C23.0298 16.1886 23.0145 16.1932 22.9989 16.197L22.9897 16.1998C22.9741 16.2039 22.9576 16.2076 22.9402 16.2108H22.9314C22.9131 16.214 22.8943 16.2168 22.8745 16.219C22.8543 16.219 22.8337 16.2223 22.8121 16.2232H22.8043C22.7726 16.2232 22.7405 16.2232 22.7061 16.2232C21.8799 16.1722 20.5368 15.6168 18.9844 14.8461C18.7396 14.7237 18.4885 14.5968 18.2312 14.4652C17.203 13.9359 16.1092 13.3388 15.0278 12.7485L14.5206 12.4731L14.2979 12.3519C13.7747 12.0673 13.2606 11.7891 12.7593 11.5225C12.5592 11.7263 12.3687 11.9241 12.1925 12.1072L12.186 12.1141C12.7754 12.4272 13.3515 12.7402 13.894 13.0358L14.1166 13.157L14.6215 13.4324C15.5855 13.958 16.5306 14.4748 17.4307 14.9471C17.7303 15.1038 18.0242 15.2548 18.3124 15.4002C20.0961 16.298 21.6347 16.9452 22.6519 17.0067C22.6836 17.0067 22.7143 17.0099 22.7437 17.0104C22.7731 17.0108 22.8048 17.0104 22.8355 17.0104C22.8663 17.0104 22.8952 17.0076 22.9241 17.0053C23.0353 16.9969 23.1453 16.9768 23.2523 16.9452C23.5146 16.8785 23.7408 16.7124 23.883 16.4821C23.9146 16.4269 23.9402 16.3684 23.9592 16.3076C23.9661 16.2861 23.972 16.2617 23.9775 16.2402C23.983 16.2186 23.9872 16.1943 23.9908 16.1681C23.9964 16.1295 23.9995 16.0905 24 16.0515C24 16.0382 24 16.024 24 16.0102C24 15.9964 24 15.9822 24 15.968" fill="white"/>
<path d="M5.36595 8.67529H5.34116C4.98626 8.68468 4.63444 8.74385 4.296 8.85109C3.98881 8.94938 3.69694 9.09029 3.42893 9.26971C3.21659 9.41185 3.02035 9.57668 2.84369 9.76131C2.73996 9.86975 2.64293 9.98441 2.55314 10.1046C2.50953 10.1629 2.46822 10.2231 2.42829 10.2832C2.14912 10.7055 1.955 11.1783 1.85682 11.6749C1.69085 12.5085 1.80544 13.3736 2.18272 14.1352C2.39279 14.551 2.67985 14.9231 3.02867 15.2318C3.1165 15.3101 3.2083 15.3846 3.30408 15.4553C3.35182 15.4908 3.40078 15.5254 3.45096 15.5591C3.60298 15.6609 3.76136 15.7529 3.92512 15.8345C4.0362 15.8902 4.1508 15.9419 4.26892 15.9896L4.58609 15.2644C3.90256 15.0203 3.33077 14.5365 2.97684 13.9028C2.6229 13.2692 2.51085 12.5286 2.66147 11.8186C2.68029 11.7227 2.70415 11.6249 2.73353 11.5267C2.80829 11.2784 2.91294 11.0401 3.0452 10.817L3.06539 10.7849C3.11824 10.6975 3.1757 10.6129 3.23752 10.5315C3.3325 10.4065 3.43783 10.2896 3.5524 10.1822C3.61055 10.1278 3.67175 10.0756 3.73601 10.0257C3.76661 10.0009 3.79935 9.97674 3.83424 9.95317C3.97148 9.85626 4.11783 9.77294 4.27121 9.70439C4.61742 9.55288 4.98997 9.4707 5.36779 9.46249H5.38615C6.62547 9.43082 8.80393 10.3833 10.9778 11.4904L11.2124 11.2467H11.2146C11.3244 11.1324 11.4368 11.0172 11.5506 10.8983C8.96229 9.56944 6.77695 8.64224 5.36411 8.67805" fill="white"/>
<path d="M5.55479 16.222C6.57516 16.1898 7.71213 15.6872 9.03867 14.6829C8.73113 14.5727 8.4291 14.4617 8.13488 14.3506C6.27451 15.6468 5.24541 15.5344 4.5872 15.2686L4.27002 15.9938C4.67752 16.1599 5.11546 16.2381 5.55525 16.2233" fill="white"/>
<path d="M17.0973 15.0551C16.7568 15.136 16.4081 15.1768 16.0581 15.1767C15.9741 15.1767 15.8897 15.1767 15.802 15.1767L15.7749 15.9607C15.8626 15.9635 15.947 15.9639 16.0306 15.9635C16.0893 15.9635 16.1481 15.9635 16.205 15.9607C16.8425 15.9558 17.4715 15.815 18.0502 15.5476C17.7387 15.3897 17.4208 15.2251 17.0964 15.0537" fill="white"/>
<path d="M3.2725 10.9328C3.13222 11.1675 3.02546 11.4208 2.95532 11.6851C3.75574 12.2301 4.61 12.6916 5.50466 13.0621C5.58361 13.0942 5.6621 13.1259 5.74105 13.1567L6.04583 12.4264C5.9678 12.3961 5.88885 12.364 5.8099 12.3318C4.91649 11.957 4.06583 11.4875 3.2725 10.9314" fill="white"/>
<path d="M15.24 15.1431C15.0508 15.1281 14.8605 15.1087 14.6689 15.0848C14.3813 15.0496 14.092 15.0054 13.801 14.9521C12.8163 14.7667 11.8442 14.5199 10.8904 14.2131C10.6991 14.1519 10.5091 14.0907 10.3203 14.0295C10.2058 13.9916 10.0922 13.953 9.97924 13.9139C9.68395 13.8126 9.39324 13.7096 9.10713 13.6049C8.32681 13.3204 7.58643 13.0303 6.91352 12.7668C6.61379 12.6493 6.32415 12.5373 6.04737 12.429L5.74121 13.156L6.16396 13.3199L6.60369 13.492C7.1545 13.7078 7.75121 13.9414 8.37638 14.175C8.66831 14.284 8.96652 14.3926 9.27099 14.5009C9.91912 14.7304 10.5911 14.9535 11.2741 15.1532C11.4733 15.2113 11.6731 15.2673 11.8736 15.3212C12.074 15.375 12.2751 15.4263 12.4767 15.4749C12.6784 15.5233 12.88 15.5692 13.0817 15.6126C13.2833 15.6561 13.485 15.6954 13.6867 15.7306C14.3765 15.8575 15.0747 15.9342 15.7756 15.9601L15.8022 15.1738C15.6162 15.168 15.4286 15.1575 15.2395 15.1422" fill="white"/>
</svg>
