<svg width="223" height="38" viewBox="0 0 223 38" fill="none" xmlns="http://www.w3.org/2000/svg">
<path d="M1.41873 18.7328C1.58555 17.7318 2.22899 16.576 3.34906 15.2653C4.46912 13.9546 5.85133 13.2873 7.49568 13.2635C8.32978 13.2635 9.09237 13.478 9.78348 13.9069C10.4746 14.3359 10.987 14.8721 11.3206 15.5155C12.3215 14.0142 13.525 13.2635 14.931 13.2635C15.8128 13.2635 16.5754 13.5256 17.2188 14.0499C17.8623 14.5742 18.1959 15.2772 18.2197 16.159C18.2197 16.8501 18.0529 17.4101 17.7193 17.8391C17.3856 18.268 17.0639 18.5302 16.7541 18.6255C16.4443 18.7208 16.1702 18.7685 15.9319 18.7685C15.4791 18.7685 15.1097 18.6374 14.8238 18.3753C14.5378 18.1131 14.3948 17.7676 14.3948 17.3386C14.3948 16.2424 14.9906 15.4917 16.1822 15.0866C15.92 14.7768 15.4434 14.6219 14.7523 14.6219C14.4425 14.6219 14.2161 14.6457 14.0731 14.6934C13.1675 15.0747 12.5002 15.8611 12.0713 17.0527C10.6414 22.3193 9.92647 25.3936 9.92647 26.2753C9.92647 26.9426 10.1171 27.4192 10.4984 27.7052C10.8797 27.9912 11.2968 28.1342 11.7496 28.1342C12.6313 28.1342 13.5011 27.7409 14.3591 26.9545C15.217 26.1681 15.8009 25.2029 16.1107 24.059C16.1822 23.8207 16.2536 23.6896 16.3251 23.6658C16.3966 23.642 16.5873 23.6181 16.8971 23.5943H17.0401C17.3975 23.5943 17.5763 23.6896 17.5763 23.8803C17.5763 23.9041 17.5524 24.0352 17.5048 24.2735C17.1235 25.6319 16.3847 26.8354 15.2885 27.8839C14.1922 28.9325 12.9173 29.4568 11.4636 29.4568C9.79539 29.4568 8.53234 28.7061 7.67442 27.2047C6.69734 28.6823 5.57727 29.421 4.31422 29.421H4.09974C2.93201 29.421 2.09792 29.1112 1.59746 28.4916C1.09701 27.872 0.834866 27.2167 0.811035 26.5256C0.811035 25.763 1.03743 25.1433 1.49022 24.6667C1.94302 24.1901 2.47922 23.9518 3.09883 23.9518C4.12357 23.9518 4.63594 24.4522 4.63594 25.4531C4.63594 25.9298 4.49295 26.3468 4.20698 26.7043C3.92101 27.0618 3.64695 27.3001 3.3848 27.4192C3.12266 27.5384 2.96776 27.598 2.9201 27.598L2.81286 27.6337C2.81286 27.6575 2.88435 27.7052 3.02734 27.7767C3.17032 27.8482 3.36097 27.9316 3.59928 28.0269C3.8376 28.1222 4.06399 28.158 4.27847 28.1342C5.1364 28.1342 5.87516 27.598 6.49477 26.5256C6.70925 26.1443 6.98331 25.334 7.31695 24.0948C7.65059 22.8555 7.98422 21.5687 8.31786 20.2341C8.6515 18.8996 8.84215 18.1131 8.88981 17.8748C9.00896 17.2314 9.06854 16.7667 9.06854 16.4807C9.06854 15.8134 8.88981 15.3368 8.53234 15.0508C8.17487 14.7649 7.76974 14.6219 7.31695 14.6219C6.3637 14.6219 5.47003 15.0032 4.63594 15.7658C3.80185 16.5284 3.21799 17.5054 2.88435 18.697C2.83669 18.9115 2.77711 19.0306 2.70561 19.0545C2.63412 19.0783 2.44347 19.1021 2.13367 19.126H1.63321C1.49022 18.983 1.41873 18.8519 1.41873 18.7328Z" fill="white"/>
<path d="M22.0024 13.2427C21.9013 13.2427 21.6738 13.1921 21.32 13.091C20.9662 12.9899 20.7808 12.8889 20.764 12.7878C20.764 12.6698 21.2273 10.7154 22.154 6.92443C23.0807 3.13348 23.5946 1.15377 23.6956 0.985281C23.9484 0.446124 24.3864 0.176546 25.0098 0.176546C25.3468 0.176546 25.7006 0.302911 26.0713 0.55564C26.442 0.808371 26.6273 1.17904 26.6273 1.66765C26.6273 1.75189 26.6105 1.87826 26.5768 2.04675C26.5599 2.16469 25.827 4.04331 24.378 7.68262C22.929 11.3219 22.1793 13.1584 22.1287 13.1921C22.0782 13.2258 22.0361 13.2427 22.0024 13.2427Z" fill="white"/>
<path d="M42.4561 16.6593C42.4561 16.3495 42.6229 16.1112 42.9565 15.9443H65.7272C66.0847 16.135 66.2634 16.3733 66.2634 16.6593C66.2634 16.9214 66.0966 17.1478 65.763 17.3385L54.3955 17.3742H43.028C42.6467 17.255 42.4561 17.0167 42.4561 16.6593ZM42.4561 23.5941C42.4561 23.2367 42.6467 22.9984 43.028 22.8792H65.763C66.0966 23.1175 66.2634 23.3558 66.2634 23.5941C66.2634 23.904 66.0847 24.1423 65.7272 24.3091H42.9565C42.6229 24.1423 42.4561 23.904 42.4561 23.5941Z" fill="white"/>
<path d="M79.3468 20.1622C78.8702 20.1622 78.6319 20.0549 78.6319 19.8404C78.6319 19.4353 78.8106 18.8872 79.1681 18.1961C79.5256 17.505 80.0022 16.7781 80.598 16.0155C81.1937 15.2529 81.9444 14.6214 82.85 14.121C83.7556 13.6205 84.6731 13.3464 85.6025 13.2988C86.246 13.2988 86.6392 13.3107 86.7822 13.3345C87.9261 13.5967 88.8674 14.2401 89.6062 15.2649C90.3449 16.2896 90.9765 17.8505 91.5007 19.9477C91.8344 21.3776 92.0012 22.3904 92.0012 22.9862C92.0012 23.0815 92.0131 23.1292 92.0369 23.1292L92.4659 22.164C92.9425 20.9486 93.4787 19.6736 94.0745 18.3391C94.6703 17.0045 95.1827 15.9202 95.6116 15.0861C96.0406 14.252 96.3027 13.7873 96.3981 13.692C96.4457 13.6682 96.6364 13.6563 96.97 13.6563H97.4347C97.5777 13.7992 97.6492 13.9065 97.6492 13.978C97.6492 14.0733 97.399 14.5976 96.8985 15.5508C96.3981 16.5041 95.695 18.0174 94.7894 20.0907C93.8839 22.164 93.0259 24.3088 92.2157 26.5251C92.0727 26.9064 91.9178 27.6809 91.751 28.8486C91.5841 30.0164 91.3339 31.2794 91.0003 32.6378C90.619 34.1868 90.2973 35.2592 90.0351 35.855C89.773 36.4508 89.4513 36.7606 89.07 36.7844C88.6648 36.7844 88.4623 36.4508 88.4623 35.7835C88.4623 34.592 89.1057 31.9705 90.3926 27.9192L90.6071 27.24L90.6428 26.5966C90.6666 26.3583 90.6786 25.9889 90.6786 25.4884C90.6786 21.7469 89.9994 19.1613 88.641 17.7314C87.6877 16.8258 86.5558 16.373 85.2451 16.373C84.1012 16.373 83.0526 16.6828 82.0993 17.3024C81.1461 17.922 80.4669 18.7442 80.0618 19.769C80.0141 19.9834 79.9664 20.0907 79.9188 20.0907C79.8711 20.1383 79.6805 20.1622 79.3468 20.1622Z" fill="white"/>
<path d="M106.979 20.1266C106.979 18.4823 107.098 16.9213 107.337 15.4438C107.575 13.9662 107.849 12.6913 108.159 11.6189C108.469 10.5465 108.909 9.4979 109.481 8.47315C110.053 7.44841 110.506 6.65007 110.84 6.07812C111.173 5.50617 111.674 4.88656 112.341 4.21929C113.008 3.55201 113.402 3.14688 113.521 3.00389C113.64 2.86091 113.938 2.61068 114.414 2.25321H114.879H115.022C115.356 2.25321 115.523 2.36045 115.523 2.57494C115.523 2.64643 115.32 2.89666 114.915 3.32562C114.51 3.75458 114.021 4.3861 113.449 5.2202C112.877 6.05429 112.293 7.07903 111.698 8.29442C111.102 9.50981 110.601 11.1542 110.196 13.2275C109.791 15.3008 109.589 17.6005 109.589 20.1266C109.589 22.6527 109.791 24.9405 110.196 26.99C110.601 29.0395 111.09 30.6957 111.662 31.9588C112.234 33.2218 112.818 34.2466 113.413 35.033C114.009 35.8194 114.51 36.451 114.915 36.9276C115.32 37.4042 115.523 37.6544 115.523 37.6783C115.523 37.8928 115.344 38 114.986 38H114.879H114.414L113.413 37.1421C111.173 35.1164 109.541 32.5903 108.516 29.5638C107.491 26.5372 106.979 23.3915 106.979 20.1266Z" fill="white"/>
<path d="M119.383 18.7324C119.55 17.7315 120.193 16.5757 121.313 15.2649C122.434 13.9542 123.816 13.287 125.46 13.2631C126.294 13.2631 127.057 13.4776 127.748 13.9066C128.439 14.3355 128.951 14.8717 129.285 15.5152C130.286 14.0138 131.489 13.2631 132.895 13.2631C133.777 13.2631 134.54 13.5253 135.183 14.0496C135.827 14.5738 136.16 15.2769 136.184 16.1586C136.184 16.8497 136.017 17.4098 135.684 17.8387C135.35 18.2677 135.028 18.5298 134.719 18.6251C134.409 18.7205 134.135 18.7681 133.896 18.7681C133.444 18.7681 133.074 18.6371 132.788 18.3749C132.502 18.1128 132.359 17.7672 132.359 17.3383C132.359 16.242 132.955 15.4913 134.147 15.0862C133.884 14.7764 133.408 14.6215 132.717 14.6215C132.407 14.6215 132.18 14.6453 132.038 14.693C131.132 15.0743 130.465 15.8607 130.036 17.0523C128.606 22.319 127.891 25.3932 127.891 26.275C127.891 26.9422 128.082 27.4189 128.463 27.7048C128.844 27.9908 129.261 28.1338 129.714 28.1338C130.596 28.1338 131.466 27.7406 132.323 26.9541C133.181 26.1677 133.765 25.2026 134.075 24.0587C134.147 23.8203 134.218 23.6893 134.29 23.6654C134.361 23.6416 134.552 23.6178 134.862 23.5939H135.004C135.362 23.5939 135.541 23.6893 135.541 23.8799C135.541 23.9038 135.517 24.0348 135.469 24.2731C135.088 25.6315 134.349 26.835 133.253 27.8836C132.157 28.9321 130.882 29.4564 129.428 29.4564C127.76 29.4564 126.497 28.7057 125.639 27.2044C124.662 28.6819 123.542 29.4207 122.279 29.4207H122.064C120.896 29.4207 120.062 29.1109 119.562 28.4913C119.061 27.8716 118.799 27.2163 118.775 26.5252C118.775 25.7626 119.002 25.143 119.455 24.6664C119.907 24.1897 120.444 23.9514 121.063 23.9514C122.088 23.9514 122.6 24.4519 122.6 25.4528C122.6 25.9294 122.457 26.3465 122.171 26.7039C121.885 27.0614 121.611 27.2997 121.349 27.4189C121.087 27.538 120.932 27.5976 120.885 27.5976L120.777 27.6333C120.777 27.6572 120.849 27.7048 120.992 27.7763C121.135 27.8478 121.325 27.9312 121.564 28.0265C121.802 28.1219 122.028 28.1576 122.243 28.1338C123.101 28.1338 123.84 27.5976 124.459 26.5252C124.674 26.1439 124.948 25.3336 125.281 24.0944C125.615 22.8552 125.949 21.5683 126.282 20.2338C126.616 18.8992 126.807 18.1128 126.854 17.8745C126.973 17.231 127.033 16.7663 127.033 16.4803C127.033 15.8131 126.854 15.3364 126.497 15.0505C126.139 14.7645 125.734 14.6215 125.281 14.6215C124.328 14.6215 123.434 15.0028 122.6 15.7654C121.766 16.528 121.182 17.5051 120.849 18.6966C120.801 18.9111 120.742 19.0303 120.67 19.0541C120.599 19.0779 120.408 19.1018 120.098 19.1256H119.598C119.455 18.9826 119.383 18.8515 119.383 18.7324Z" fill="white"/>
<path d="M148.91 20.5913C148.91 20.5913 148.91 20.4364 148.91 20.1266C148.91 19.8168 149.077 19.5785 149.41 19.4117H170.179C170.537 19.6023 170.716 19.8406 170.716 20.1266C170.716 20.4126 170.537 20.6509 170.179 20.8416H149.41C149.077 20.6747 148.91 20.4364 148.91 20.1266V20.5913Z" fill="white"/>
<path d="M187.874 15.4794C187.874 14.8836 187.648 14.5858 187.195 14.5858C186.623 14.5858 186.027 14.9313 185.407 15.6224C184.788 16.3135 184.275 17.374 183.87 18.8039C183.847 18.8277 183.823 18.8635 183.799 18.9111C183.775 18.9588 183.763 18.9945 183.763 19.0184C183.763 19.0422 183.739 19.066 183.692 19.0899C183.644 19.1137 183.608 19.1256 183.584 19.1256C183.561 19.1256 183.513 19.1256 183.441 19.1256C183.37 19.1256 183.275 19.1256 183.155 19.1256H182.655C182.512 18.9826 182.44 18.8754 182.44 18.8039C182.44 18.6371 182.536 18.2915 182.726 17.7672C182.917 17.2429 183.203 16.6233 183.584 15.9084C183.966 15.1935 184.49 14.5858 185.157 14.0853C185.825 13.5848 186.575 13.3227 187.409 13.2989C188.41 13.2989 189.185 13.5848 189.733 14.1568C190.281 14.7287 190.567 15.396 190.591 16.1586C190.591 16.5637 190.555 16.8736 190.484 17.088C190.484 17.231 190.305 17.7553 189.947 18.6609C189.59 19.5665 189.22 20.627 188.839 21.8424C188.458 23.0577 188.243 24.1182 188.196 25.0238C188.196 25.6673 188.255 26.1915 188.374 26.5967C188.684 27.6214 189.435 28.1338 190.627 28.1338C191.508 28.1338 192.33 27.7287 193.093 26.9184C193.856 26.1081 194.451 25.1668 194.88 24.0944C195.309 23.022 195.655 22.033 195.917 21.1274C196.179 20.2218 196.31 19.5665 196.31 19.1613C196.31 18.6132 196.215 18.1366 196.024 17.7315C195.834 17.3263 195.619 17.0165 195.381 16.8021C195.143 16.5876 194.928 16.3731 194.737 16.1586C194.547 15.9441 194.451 15.682 194.451 15.3722C194.451 14.8479 194.678 14.3594 195.131 13.9066C195.583 13.4538 196.072 13.2274 196.596 13.2274C197.049 13.2274 197.454 13.4419 197.812 13.8708C198.169 14.2998 198.36 14.9909 198.384 15.9441C198.384 16.5876 198.241 17.5766 197.955 18.9111C197.669 20.2457 197.228 21.7351 196.632 23.3795C196.036 25.0238 195.19 26.4418 194.094 27.6333C192.998 28.8249 191.735 29.4326 190.305 29.4564C188.78 29.4564 187.564 29.0632 186.659 28.2768C185.777 27.5142 185.336 26.3822 185.336 24.8808C185.336 24.1421 185.431 23.3795 185.622 22.593C185.813 21.8066 186.301 20.4125 187.088 18.4107C187.612 16.8855 187.874 15.9084 187.874 15.4794Z" fill="white"/>
<path d="M199.956 15.3007C199.79 15.1339 199.706 15.0147 199.706 14.9432C199.706 14.8479 199.742 14.6573 199.813 14.3713C199.885 14.0853 199.945 13.9185 199.992 13.8708C200.04 13.7517 200.147 13.6921 200.314 13.6921C200.481 13.6921 201.088 13.6802 202.137 13.6563H204.032L204.711 10.7966C204.782 10.5345 204.866 10.1889 204.961 9.75994C205.056 9.33098 205.14 9.02118 205.211 8.83052C205.283 8.63988 205.354 8.40156 205.426 8.11559C205.497 7.82961 205.593 7.62705 205.712 7.50789C205.831 7.38874 205.95 7.24575 206.069 7.07893C206.188 6.91211 206.355 6.80487 206.57 6.75721C206.784 6.70955 206.999 6.68572 207.213 6.68572C207.642 6.70955 207.94 6.84062 208.107 7.07893C208.274 7.31724 208.357 7.54364 208.357 7.75812C208.357 7.92494 208.25 8.48497 208.035 9.43822C207.821 10.3915 207.582 11.3328 207.32 12.2622L206.963 13.5848C206.963 13.6325 207.559 13.6563 208.75 13.6563H210.573C210.74 13.8232 210.823 13.9542 210.823 14.0496C210.823 14.5738 210.669 14.9909 210.359 15.3007H206.534L205.247 20.484C204.318 24.297 203.853 26.3465 203.853 26.6324C203.853 27.6333 204.175 28.1338 204.818 28.1338C205.652 28.1338 206.462 27.7287 207.249 26.9184C208.035 26.1081 208.667 25.1072 209.143 23.9157C209.191 23.7727 209.251 23.6893 209.322 23.6654C209.394 23.6416 209.572 23.6178 209.858 23.5939H210.001C210.359 23.5939 210.538 23.6893 210.538 23.8799C210.538 23.9514 210.502 24.0944 210.43 24.3089C210.311 24.6902 210.097 25.143 209.787 25.6673C209.477 26.1915 209.072 26.7516 208.571 27.3474C208.071 27.9431 207.463 28.4436 206.748 28.8487C206.033 29.2539 205.307 29.4564 204.568 29.4564C203.853 29.4564 203.174 29.2777 202.53 28.9202C201.887 28.5628 201.422 27.9431 201.136 27.0614C201.088 26.8707 201.065 26.549 201.065 26.0962V25.4528L202.316 20.4482C203.15 17.088 203.579 15.396 203.603 15.3722C203.603 15.3245 202.995 15.3007 201.78 15.3007H199.956Z" fill="white"/>
<path d="M214.112 2.28896L214.255 2.25321C214.374 2.25321 214.493 2.25321 214.613 2.25321H215.041L216.042 3.11114C218.283 5.13679 219.915 7.66289 220.94 10.6895C221.964 13.716 222.477 16.8617 222.477 20.1266C222.477 21.7471 222.358 23.3081 222.119 24.8094C221.881 26.3108 221.607 27.5858 221.297 28.6343C220.987 29.6829 220.547 30.7315 219.975 31.7801C219.403 32.8286 218.95 33.627 218.616 34.1751C218.283 34.7232 217.794 35.3309 217.151 35.9982C216.507 36.6655 216.126 37.0587 216.007 37.1778C215.888 37.297 215.613 37.5234 215.184 37.857C215.113 37.9285 215.065 37.9762 215.041 38H214.613C214.422 38 214.291 38 214.219 38C214.148 38 214.088 37.9643 214.041 37.8928C213.993 37.8213 213.957 37.714 213.933 37.571C213.957 37.5472 214.088 37.3923 214.327 37.1063C218.02 33.2695 219.867 27.6096 219.867 20.1266C219.867 12.6436 218.02 6.98371 214.327 3.14688C214.088 2.86091 213.957 2.70601 213.933 2.68217C213.933 2.49152 213.993 2.36045 214.112 2.28896Z" fill="white"/>
</svg>
