<svg width="64" height="25" viewBox="0 0 64 25" fill="none" xmlns="http://www.w3.org/2000/svg">
<path d="M14.8656 24C12.8648 24 11.1195 23.6334 9.6295 22.9003C8.16083 22.1671 7.02208 21.1321 6.21325 19.7951C5.40442 18.4367 5 16.841 5 15.0081V0.485175H11.2578V15.0081C11.2578 16.2588 11.5664 17.2291 12.1837 17.9191C12.801 18.5876 13.695 18.9218 14.8656 18.9218C16.0576 18.9218 16.9622 18.5876 17.5795 17.9191C18.1967 17.2291 18.5054 16.2588 18.5054 15.0081V0.485175H24.7632V15.0081C24.7632 16.841 24.3588 18.4367 23.5499 19.7951C22.7411 21.1321 21.5917 22.1671 20.1018 22.9003C18.6331 23.6334 16.8877 24 14.8656 24Z" fill="#F500FF"/>
<path d="M34.7022 24C32.3182 24 30.2642 23.5148 28.5401 22.5445C26.816 21.5741 25.4964 20.1941 24.5811 18.4043C23.6659 16.6146 23.2082 14.4906 23.2082 12.0323C23.2082 9.57412 23.6659 7.45013 24.5811 5.66038C25.4964 3.84906 26.816 2.45822 28.5401 1.48787C30.2642 0.495957 32.3182 0 34.7022 0C37.1074 0 39.1614 0.495957 40.8642 1.48787C42.5883 2.45822 43.908 3.84906 44.8232 5.66038C45.7385 7.45013 46.1961 9.57412 46.1961 12.0323C46.1961 14.4906 45.7385 16.6146 44.8232 18.4043C43.908 20.1941 42.5883 21.5741 40.8642 22.5445C39.1614 23.5148 37.1074 24 34.7022 24ZM34.7022 18.9218C35.7664 18.9218 36.671 18.6523 37.416 18.1132C38.1823 17.5741 38.7676 16.7978 39.172 15.7844C39.5764 14.7493 39.7787 13.4987 39.7787 12.0323C39.7787 10.566 39.5764 9.31536 39.172 8.28032C38.7676 7.24528 38.1823 6.45822 37.416 5.91914C36.671 5.35849 35.7664 5.07817 34.7022 5.07817C33.6379 5.07817 32.7227 5.35849 31.9564 5.91914C31.2114 6.45822 30.6367 7.24528 30.2323 8.28032C29.8279 9.31536 29.6257 10.566 29.6257 12.0323C29.6257 13.4987 29.8279 14.7493 30.2323 15.7844C30.6367 16.7978 31.2114 17.5741 31.9564 18.1132C32.7227 18.6523 33.6379 18.9218 34.7022 18.9218Z" fill="#F500FF"/>
<path d="M44.5561 23.4825V0.517519H55.3795C57.0824 0.517519 58.5617 0.797843 59.8175 1.35849C61.0946 1.91914 62.0737 2.7062 62.7548 3.71968C63.4572 4.73315 63.8084 5.92992 63.8084 7.30997C63.8084 8.38814 63.6062 9.34771 63.2018 10.1887C62.7974 11.0081 62.2121 11.6873 61.4458 12.2264C60.6795 12.7655 59.7536 13.1321 58.6681 13.3261L58.6042 13.0027C60.2006 13.0027 61.3926 13.3477 62.1801 14.0377C62.9677 14.7062 63.404 15.6981 63.4892 17.0135L64 23.4825H57.6145L57.2952 18.1132C57.2526 17.2722 57.0291 16.6577 56.6247 16.2695C56.2203 15.8598 55.5073 15.655 54.4856 15.655H50.8139V23.4825H44.5561ZM50.8139 10.5768H54.2302C55.2731 10.5768 56.0607 10.3612 56.5928 9.92992C57.1462 9.47709 57.4229 8.85175 57.4229 8.05391C57.4229 7.2345 57.1462 6.61995 56.5928 6.21024C56.0607 5.80054 55.2731 5.59569 54.2302 5.59569H50.8139V10.5768Z" fill="#F500FF"/>
<path d="M9.86563 25C7.86483 25 6.11946 24.6334 4.6295 23.9003C3.16083 23.1671 2.02208 22.1321 1.21325 20.7951C0.404416 19.4367 0 17.841 0 16.0081V1.48517H6.25781V16.0081C6.25781 17.2588 6.56644 18.2291 7.18371 18.9191C7.80098 19.5876 8.69495 19.9218 9.86563 19.9218C11.0576 19.9218 11.9622 19.5876 12.5795 18.9191C13.1967 18.2291 13.5054 17.2588 13.5054 16.0081V1.48517H19.7632V16.0081C19.7632 17.841 19.3588 19.4367 18.5499 20.7951C17.7411 22.1321 16.5917 23.1671 15.1018 23.9003C13.6331 24.6334 11.8877 25 9.86563 25Z" fill="#01EEFF"/>
<path d="M29.7022 25C27.3182 25 25.2642 24.5148 23.5401 23.5445C21.816 22.5741 20.4964 21.1941 19.5811 19.4043C18.6659 17.6146 18.2082 15.4906 18.2082 13.0323C18.2082 10.5741 18.6659 8.45013 19.5811 6.66038C20.4964 4.84906 21.816 3.45822 23.5401 2.48787C25.2642 1.49596 27.3182 1 29.7022 1C32.1074 1 34.1614 1.49596 35.8642 2.48787C37.5883 3.45822 38.908 4.84906 39.8232 6.66038C40.7385 8.45013 41.1961 10.5741 41.1961 13.0323C41.1961 15.4906 40.7385 17.6146 39.8232 19.4043C38.908 21.1941 37.5883 22.5741 35.8642 23.5445C34.1614 24.5148 32.1074 25 29.7022 25ZM29.7022 19.9218C30.7664 19.9218 31.671 19.6523 32.416 19.1132C33.1823 18.5741 33.7676 17.7978 34.172 16.7844C34.5764 15.7493 34.7787 14.4987 34.7787 13.0323C34.7787 11.566 34.5764 10.3154 34.172 9.28032C33.7676 8.24528 33.1823 7.45822 32.416 6.91914C31.671 6.35849 30.7664 6.07817 29.7022 6.07817C28.6379 6.07817 27.7227 6.35849 26.9564 6.91914C26.2114 7.45822 25.6367 8.24528 25.2323 9.28032C24.8279 10.3154 24.6257 11.566 24.6257 13.0323C24.6257 14.4987 24.8279 15.7493 25.2323 16.7844C25.6367 17.7978 26.2114 18.5741 26.9564 19.1132C27.7227 19.6523 28.6379 19.9218 29.7022 19.9218Z" fill="#01EEFF"/>
<path d="M39.5561 24.4825V1.51752H50.3795C52.0824 1.51752 53.5617 1.79784 54.8175 2.35849C56.0946 2.91914 57.0737 3.7062 57.7548 4.71968C58.4572 5.73315 58.8084 6.92992 58.8084 8.30997C58.8084 9.38814 58.6062 10.3477 58.2018 11.1887C57.7974 12.0081 57.2121 12.6873 56.4458 13.2264C55.6795 13.7655 54.7536 14.1321 53.6681 14.3261L53.6042 14.0027C55.2006 14.0027 56.3926 14.3477 57.1801 15.0377C57.9677 15.7062 58.404 16.6981 58.4892 18.0135L59 24.4825H52.6145L52.2952 19.1132C52.2526 18.2722 52.0291 17.6577 51.6247 17.2695C51.2203 16.8598 50.5073 16.655 49.4856 16.655H45.8139V24.4825H39.5561ZM45.8139 11.5768H49.2302C50.2731 11.5768 51.0607 11.3612 51.5928 10.9299C52.1462 10.4771 52.4229 9.85175 52.4229 9.05391C52.4229 8.2345 52.1462 7.61995 51.5928 7.21024C51.0607 6.80054 50.2731 6.59569 49.2302 6.59569H45.8139V11.5768Z" fill="#01EEFF"/>
<path d="M11.8656 24C9.86483 24 8.11946 23.6334 6.6295 22.9003C5.16083 22.1671 4.02208 21.1321 3.21325 19.7951C2.40442 18.4367 2 16.841 2 15.0081V0.485175H8.25781V15.0081C8.25781 16.2588 8.56644 17.2291 9.18371 17.9191C9.80098 18.5876 10.695 18.9218 11.8656 18.9218C13.0576 18.9218 13.9622 18.5876 14.5795 17.9191C15.1967 17.2291 15.5054 16.2588 15.5054 15.0081V0.485175H21.7632V15.0081C21.7632 16.841 21.3588 18.4367 20.5499 19.7951C19.7411 21.1321 18.5917 22.1671 17.1018 22.9003C15.6331 23.6334 13.8877 24 11.8656 24Z" fill="white"/>
<path d="M31.7022 24C29.3182 24 27.2642 23.5148 25.5401 22.5445C23.816 21.5741 22.4964 20.1941 21.5811 18.4043C20.6659 16.6146 20.2082 14.4906 20.2082 12.0323C20.2082 9.57412 20.6659 7.45013 21.5811 5.66038C22.4964 3.84906 23.816 2.45822 25.5401 1.48787C27.2642 0.495957 29.3182 0 31.7022 0C34.1074 0 36.1614 0.495957 37.8642 1.48787C39.5883 2.45822 40.908 3.84906 41.8232 5.66038C42.7385 7.45013 43.1961 9.57412 43.1961 12.0323C43.1961 14.4906 42.7385 16.6146 41.8232 18.4043C40.908 20.1941 39.5883 21.5741 37.8642 22.5445C36.1614 23.5148 34.1074 24 31.7022 24ZM31.7022 18.9218C32.7664 18.9218 33.671 18.6523 34.416 18.1132C35.1823 17.5741 35.7676 16.7978 36.172 15.7844C36.5764 14.7493 36.7787 13.4987 36.7787 12.0323C36.7787 10.566 36.5764 9.31536 36.172 8.28032C35.7676 7.24528 35.1823 6.45822 34.416 5.91914C33.671 5.35849 32.7664 5.07817 31.7022 5.07817C30.6379 5.07817 29.7227 5.35849 28.9564 5.91914C28.2114 6.45822 27.6367 7.24528 27.2323 8.28032C26.8279 9.31536 26.6257 10.566 26.6257 12.0323C26.6257 13.4987 26.8279 14.7493 27.2323 15.7844C27.6367 16.7978 28.2114 17.5741 28.9564 18.1132C29.7227 18.6523 30.6379 18.9218 31.7022 18.9218Z" fill="white"/>
<path d="M41.5561 23.4825V0.517519H52.3795C54.0824 0.517519 55.5617 0.797843 56.8175 1.35849C58.0946 1.91914 59.0737 2.7062 59.7548 3.71968C60.4572 4.73315 60.8084 5.92992 60.8084 7.30997C60.8084 8.38814 60.6062 9.34771 60.2018 10.1887C59.7974 11.0081 59.2121 11.6873 58.4458 12.2264C57.6795 12.7655 56.7536 13.1321 55.6681 13.3261L55.6042 13.0027C57.2006 13.0027 58.3926 13.3477 59.1801 14.0377C59.9677 14.7062 60.404 15.6981 60.4892 17.0135L61 23.4825H54.6145L54.2952 18.1132C54.2526 17.2722 54.0291 16.6577 53.6247 16.2695C53.2203 15.8598 52.5073 15.655 51.4856 15.655H47.8139V23.4825H41.5561ZM47.8139 10.5768H51.2302C52.2731 10.5768 53.0607 10.3612 53.5928 9.92992C54.1462 9.47709 54.4229 8.85175 54.4229 8.05391C54.4229 7.2345 54.1462 6.61995 53.5928 6.21024C53.0607 5.80054 52.2731 5.59569 51.2302 5.59569H47.8139V10.5768Z" fill="white"/>
</svg>
