<svg width="482" height="49" viewBox="0 0 482 49" fill="none" xmlns="http://www.w3.org/2000/svg">
<path d="M8.34052 40V7.34H31.0645V13.228H15.3325V20.726H30.5125V26.522H15.3325V34.112H31.4325V40H8.34052ZM34.2752 40L43.0612 27.488L34.5052 15.344H41.8192L47.1092 23.256L52.2152 15.344H59.7132L51.2032 27.534L59.9432 40H52.6292L47.2012 31.628L41.7272 40H34.2752ZM63.1815 46.9V15.344H69.8055L69.9435 20.542L69.3915 20.312C70.0048 18.5333 71.0015 17.1687 72.3815 16.218C73.7615 15.2673 75.3715 14.792 77.2115 14.792C79.5115 14.792 81.4282 15.3593 82.9615 16.494C84.4948 17.6287 85.6448 19.1773 86.4115 21.14C87.2088 23.072 87.6075 25.2493 87.6075 27.672C87.6075 30.064 87.2088 32.2413 86.4115 34.204C85.6448 36.1667 84.4795 37.7153 82.9155 38.85C81.3822 39.9847 79.4655 40.552 77.1655 40.552C75.9695 40.552 74.8502 40.3373 73.8075 39.908C72.7648 39.448 71.8602 38.8193 71.0935 38.022C70.3575 37.2247 69.8208 36.274 69.4835 35.17L70.0815 34.802V46.9H63.1815ZM75.2795 35.262C76.9048 35.262 78.1775 34.5873 79.0975 33.238C80.0482 31.8887 80.5235 30.0333 80.5235 27.672C80.5235 25.3107 80.0482 23.4553 79.0975 22.106C78.1775 20.7567 76.9048 20.082 75.2795 20.082C74.2062 20.082 73.2708 20.3733 72.4735 20.956C71.7068 21.508 71.1088 22.3513 70.6795 23.486C70.2808 24.6207 70.0815 26.016 70.0815 27.672C70.0815 29.328 70.2808 30.7233 70.6795 31.858C71.1088 32.9927 71.7068 33.8513 72.4735 34.434C73.2708 34.986 74.2062 35.262 75.2795 35.262ZM98.5512 40C96.5272 40 94.9479 39.494 93.8132 38.482C92.6785 37.47 92.1112 35.8293 92.1112 33.56V7.34H99.0112V32.824C99.0112 33.56 99.1799 34.0813 99.5172 34.388C99.8545 34.6947 100.345 34.848 100.989 34.848H102.645V40H98.5512ZM117.26 40.552C114.745 40.552 112.553 40.0307 110.682 38.988C108.811 37.9147 107.355 36.412 106.312 34.48C105.269 32.548 104.748 30.2787 104.748 27.672C104.748 25.0653 105.269 22.8113 106.312 20.91C107.355 18.978 108.811 17.4753 110.682 16.402C112.553 15.3287 114.745 14.792 117.26 14.792C119.775 14.792 121.967 15.3287 123.838 16.402C125.709 17.4753 127.165 18.978 128.208 20.91C129.251 22.8113 129.772 25.0653 129.772 27.672C129.772 30.2787 129.251 32.548 128.208 34.48C127.165 36.412 125.709 37.9147 123.838 38.988C121.967 40.0307 119.775 40.552 117.26 40.552ZM117.26 35.262C118.977 35.262 120.311 34.6027 121.262 33.284C122.213 31.9347 122.688 30.064 122.688 27.672C122.688 25.28 122.213 23.4247 121.262 22.106C120.311 20.7567 118.977 20.082 117.26 20.082C115.543 20.082 114.209 20.7567 113.258 22.106C112.307 23.4247 111.832 25.28 111.832 27.672C111.832 30.064 112.307 31.9347 113.258 33.284C114.209 34.6027 115.543 35.262 117.26 35.262ZM134.068 40V15.344H140.6L140.83 22.52L140.324 22.382C140.723 19.898 141.428 18.104 142.44 17C143.452 15.896 144.848 15.344 146.626 15.344H148.88V21.048H146.626C145.338 21.048 144.28 21.2167 143.452 21.554C142.624 21.8913 141.996 22.428 141.566 23.164C141.168 23.9 140.968 24.8967 140.968 26.154V40H134.068ZM159.351 40.552C156.806 40.552 154.72 39.9693 153.095 38.804C151.5 37.608 150.703 35.952 150.703 33.836C150.703 31.6587 151.378 29.9873 152.727 28.822C154.107 27.626 156.131 26.752 158.799 26.2L166.757 24.636C166.757 23.0413 166.389 21.8453 165.653 21.048C164.948 20.22 163.92 19.806 162.571 19.806C161.252 19.806 160.225 20.1127 159.489 20.726C158.753 21.3087 158.278 22.1827 158.063 23.348L151.117 23.026C151.577 20.3273 152.788 18.288 154.751 16.908C156.744 15.4973 159.351 14.792 162.571 14.792C166.251 14.792 169.011 15.666 170.851 17.414C172.722 19.162 173.657 21.7227 173.657 25.096V33.514C173.657 34.2193 173.764 34.6947 173.979 34.94C174.224 35.1547 174.577 35.262 175.037 35.262H175.727V40C175.512 40.0613 175.16 40.1227 174.669 40.184C174.209 40.2453 173.749 40.276 173.289 40.276C172.308 40.276 171.388 40.1073 170.529 39.77C169.701 39.4327 169.026 38.8653 168.505 38.068C167.984 37.24 167.723 36.0747 167.723 34.572L168.321 35.032C168.014 36.136 167.462 37.102 166.665 37.93C165.898 38.758 164.886 39.402 163.629 39.862C162.402 40.322 160.976 40.552 159.351 40.552ZM161.007 35.814C162.142 35.814 163.138 35.5993 163.997 35.17C164.856 34.71 165.53 34.0507 166.021 33.192C166.512 32.3333 166.757 31.3213 166.757 30.156V28.96L161.145 30.156C160.041 30.3707 159.198 30.7387 158.615 31.26C158.063 31.7507 157.787 32.3947 157.787 33.192C157.787 34.02 158.063 34.664 158.615 35.124C159.167 35.584 159.964 35.814 161.007 35.814ZM193.158 40.552C191.441 40.552 189.938 40.184 188.65 39.448C187.393 38.712 186.411 37.6847 185.706 36.366L185.568 40H178.99V7.34H185.89V18.84C186.534 17.7053 187.485 16.7547 188.742 15.988C189.999 15.1907 191.471 14.792 193.158 14.792C195.243 14.792 197.053 15.3287 198.586 16.402C200.119 17.4447 201.3 18.932 202.128 20.864C202.987 22.796 203.416 25.0653 203.416 27.672C203.416 30.2787 202.987 32.548 202.128 34.48C201.3 36.412 200.119 37.9147 198.586 38.988C197.053 40.0307 195.243 40.552 193.158 40.552ZM191.226 35.262C192.759 35.262 193.986 34.6027 194.906 33.284C195.857 31.9347 196.332 30.064 196.332 27.672C196.332 25.28 195.872 23.4247 194.952 22.106C194.032 20.7567 192.805 20.082 191.272 20.082C190.137 20.082 189.156 20.3887 188.328 21.002C187.531 21.5847 186.917 22.4433 186.488 23.578C186.089 24.7127 185.89 26.0773 185.89 27.672C185.89 29.236 186.089 30.5853 186.488 31.72C186.917 32.8547 187.531 33.7287 188.328 34.342C189.156 34.9553 190.122 35.262 191.226 35.262ZM214.36 40C212.336 40 210.756 39.494 209.622 38.482C208.487 37.47 207.92 35.8293 207.92 33.56V7.34H214.82V32.824C214.82 33.56 214.988 34.0813 215.326 34.388C215.663 34.6947 216.154 34.848 216.798 34.848H218.454V40H214.36ZM232.976 40.552C230.462 40.552 228.269 40.0307 226.398 38.988C224.558 37.9147 223.117 36.412 222.074 34.48C221.062 32.548 220.556 30.2787 220.556 27.672C220.556 25.0653 221.062 22.8113 222.074 20.91C223.117 18.978 224.558 17.4753 226.398 16.402C228.238 15.3287 230.416 14.792 232.93 14.792C235.384 14.792 237.515 15.3287 239.324 16.402C241.134 17.4753 242.529 19.0087 243.51 21.002C244.522 22.9953 245.028 25.372 245.028 28.132V29.512H227.686C227.778 31.4747 228.3 32.9313 229.25 33.882C230.232 34.8327 231.52 35.308 233.114 35.308C234.28 35.308 235.246 35.0627 236.012 34.572C236.81 34.0813 237.377 33.33 237.714 32.318L244.66 32.732C244.016 35.1853 242.652 37.102 240.566 38.482C238.481 39.862 235.951 40.552 232.976 40.552ZM227.686 25.28H237.944C237.852 23.4707 237.346 22.1213 236.426 21.232C235.537 20.3427 234.372 19.898 232.93 19.898C231.489 19.898 230.293 20.3733 229.342 21.324C228.422 22.244 227.87 23.5627 227.686 25.28ZM273.365 40.736C270.605 40.736 268.213 40.23 266.189 39.218C264.196 38.206 262.647 36.7647 261.543 34.894C260.439 32.9927 259.887 30.7693 259.887 28.224V7.294H266.879V28.224C266.879 30.34 267.431 31.9807 268.535 33.146C269.67 34.2807 271.28 34.848 273.365 34.848C275.45 34.848 277.045 34.2807 278.149 33.146C279.253 31.9807 279.805 30.34 279.805 28.224V7.294H286.797V28.224C286.797 30.7693 286.245 32.9927 285.141 34.894C284.068 36.7647 282.519 38.206 280.495 39.218C278.471 40.23 276.094 40.736 273.365 40.736ZM292.553 40V15.344H298.763L299.039 22.566L298.165 22.336C298.41 20.496 298.901 19.024 299.637 17.92C300.403 16.816 301.354 16.0187 302.489 15.528C303.623 15.0373 304.865 14.792 306.215 14.792C307.993 14.792 309.496 15.1753 310.723 15.942C311.98 16.7087 312.931 17.7973 313.575 19.208C314.249 20.588 314.587 22.2287 314.587 24.13V40H307.687V26.43C307.687 25.1113 307.579 23.992 307.365 23.072C307.15 22.152 306.767 21.462 306.215 21.002C305.663 20.5113 304.896 20.266 303.915 20.266C302.473 20.266 301.369 20.8027 300.603 21.876C299.836 22.9187 299.453 24.4367 299.453 26.43V40H292.553ZM320.269 40V15.344H327.169V40H320.269ZM320.131 12.308V6.788H327.261V12.308H320.131ZM339.704 40L330.688 15.344H337.91L343.752 33.054L349.548 15.344H356.77L347.708 40H339.704ZM370.572 40.552C368.058 40.552 365.865 40.0307 363.994 38.988C362.154 37.9147 360.713 36.412 359.67 34.48C358.658 32.548 358.152 30.2787 358.152 27.672C358.152 25.0653 358.658 22.8113 359.67 20.91C360.713 18.978 362.154 17.4753 363.994 16.402C365.834 15.3287 368.012 14.792 370.526 14.792C372.98 14.792 375.111 15.3287 376.92 16.402C378.73 17.4753 380.125 19.0087 381.106 21.002C382.118 22.9953 382.624 25.372 382.624 28.132V29.512H365.282C365.374 31.4747 365.896 32.9313 366.846 33.882C367.828 34.8327 369.116 35.308 370.71 35.308C371.876 35.308 372.842 35.0627 373.608 34.572C374.406 34.0813 374.973 33.33 375.31 32.318L382.256 32.732C381.612 35.1853 380.248 37.102 378.162 38.482C376.077 39.862 373.547 40.552 370.572 40.552ZM365.282 25.28H375.54C375.448 23.4707 374.942 22.1213 374.022 21.232C373.133 20.3427 371.968 19.898 370.526 19.898C369.085 19.898 367.889 20.3733 366.938 21.324C366.018 22.244 365.466 23.5627 365.282 25.28ZM386.889 40V15.344H393.421L393.651 22.52L393.145 22.382C393.543 19.898 394.249 18.104 395.261 17C396.273 15.896 397.668 15.344 399.447 15.344H401.701V21.048H399.447C398.159 21.048 397.101 21.2167 396.273 21.554C395.445 21.8913 394.816 22.428 394.387 23.164C393.988 23.9 393.789 24.8967 393.789 26.154V40H386.889ZM415.122 40.552C412.576 40.552 410.445 40.1993 408.728 39.494C407.01 38.758 405.692 37.7767 404.772 36.55C403.882 35.2927 403.376 33.8513 403.254 32.226L410.246 31.996C410.46 33.1613 410.951 34.066 411.718 34.71C412.484 35.354 413.619 35.676 415.122 35.676C416.348 35.676 417.299 35.4767 417.974 35.078C418.679 34.6793 419.032 34.066 419.032 33.238C419.032 32.7167 418.909 32.2873 418.664 31.95C418.418 31.582 417.928 31.2753 417.192 31.03C416.486 30.754 415.428 30.5087 414.018 30.294C411.411 29.834 409.372 29.2973 407.9 28.684C406.428 28.0707 405.385 27.2733 404.772 26.292C404.158 25.3107 403.852 24.1147 403.852 22.704C403.852 20.3427 404.756 18.4413 406.566 17C408.406 15.528 411.15 14.792 414.8 14.792C417.13 14.792 419.078 15.16 420.642 15.896C422.236 16.632 423.463 17.644 424.322 18.932C425.211 20.1893 425.763 21.6307 425.978 23.256L419.032 23.532C418.94 22.7347 418.694 22.06 418.296 21.508C417.928 20.9253 417.452 20.4807 416.87 20.174C416.287 19.8367 415.582 19.668 414.754 19.668C413.527 19.668 412.576 19.9287 411.902 20.45C411.258 20.9407 410.936 21.6 410.936 22.428C410.936 23.0413 411.074 23.5473 411.35 23.946C411.656 24.314 412.147 24.6207 412.822 24.866C413.496 25.1113 414.401 25.3107 415.536 25.464C418.173 25.832 420.258 26.3533 421.792 27.028C423.356 27.672 424.475 28.4847 425.15 29.466C425.824 30.4473 426.162 31.6587 426.162 33.1C426.162 34.6947 425.702 36.044 424.782 37.148C423.862 38.252 422.574 39.0953 420.918 39.678C419.292 40.2607 417.36 40.552 415.122 40.552ZM441.504 40.552C438.989 40.552 436.797 40.0307 434.926 38.988C433.086 37.9147 431.645 36.412 430.602 34.48C429.59 32.548 429.084 30.2787 429.084 27.672C429.084 25.0653 429.59 22.8113 430.602 20.91C431.645 18.978 433.086 17.4753 434.926 16.402C436.766 15.3287 438.943 14.792 441.458 14.792C443.911 14.792 446.043 15.3287 447.852 16.402C449.661 17.4753 451.057 19.0087 452.038 21.002C453.05 22.9953 453.556 25.372 453.556 28.132V29.512H436.214C436.306 31.4747 436.827 32.9313 437.778 33.882C438.759 34.8327 440.047 35.308 441.642 35.308C442.807 35.308 443.773 35.0627 444.54 34.572C445.337 34.0813 445.905 33.33 446.242 32.318L453.188 32.732C452.544 35.1853 451.179 37.102 449.094 38.482C447.009 39.862 444.479 40.552 441.504 40.552ZM436.214 25.28H446.472C446.38 23.4707 445.874 22.1213 444.954 21.232C444.065 20.3427 442.899 19.898 441.458 19.898C440.017 19.898 438.821 20.3733 437.87 21.324C436.95 22.244 436.398 23.5627 436.214 25.28ZM468.354 40.552C465.809 40.552 463.678 40.1993 461.96 39.494C460.243 38.758 458.924 37.7767 458.004 36.55C457.115 35.2927 456.609 33.8513 456.486 32.226L463.478 31.996C463.693 33.1613 464.184 34.066 464.95 34.71C465.717 35.354 466.852 35.676 468.354 35.676C469.581 35.676 470.532 35.4767 471.206 35.078C471.912 34.6793 472.264 34.066 472.264 33.238C472.264 32.7167 472.142 32.2873 471.896 31.95C471.651 31.582 471.16 31.2753 470.424 31.03C469.719 30.754 468.661 30.5087 467.25 30.294C464.644 29.834 462.604 29.2973 461.132 28.684C459.66 28.0707 458.618 27.2733 458.004 26.292C457.391 25.3107 457.084 24.1147 457.084 22.704C457.084 20.3427 457.989 18.4413 459.798 17C461.638 15.528 464.383 14.792 468.032 14.792C470.363 14.792 472.31 15.16 473.874 15.896C475.469 16.632 476.696 17.644 477.554 18.932C478.444 20.1893 478.996 21.6307 479.21 23.256L472.264 23.532C472.172 22.7347 471.927 22.06 471.528 21.508C471.16 20.9253 470.685 20.4807 470.102 20.174C469.52 19.8367 468.814 19.668 467.986 19.668C466.76 19.668 465.809 19.9287 465.134 20.45C464.49 20.9407 464.168 21.6 464.168 22.428C464.168 23.0413 464.306 23.5473 464.582 23.946C464.889 24.314 465.38 24.6207 466.054 24.866C466.729 25.1113 467.634 25.3107 468.768 25.464C471.406 25.832 473.491 26.3533 475.024 27.028C476.588 27.672 477.708 28.4847 478.382 29.466C479.057 30.4473 479.394 31.6587 479.394 33.1C479.394 34.6947 478.934 36.044 478.014 37.148C477.094 38.252 475.806 39.0953 474.15 39.678C472.525 40.2607 470.593 40.552 468.354 40.552Z" fill="#F500FF"/>
<path d="M4.34052 41V8.34H27.0645V14.228H11.3325V21.726H26.5125V27.522H11.3325V35.112H27.4325V41H4.34052ZM30.2752 41L39.0612 28.488L30.5052 16.344H37.8192L43.1092 24.256L48.2152 16.344H55.7132L47.2032 28.534L55.9432 41H48.6292L43.2012 32.628L37.7272 41H30.2752ZM59.1815 47.9V16.344H65.8055L65.9435 21.542L65.3915 21.312C66.0048 19.5333 67.0015 18.1687 68.3815 17.218C69.7615 16.2673 71.3715 15.792 73.2115 15.792C75.5115 15.792 77.4282 16.3593 78.9615 17.494C80.4948 18.6287 81.6448 20.1773 82.4115 22.14C83.2088 24.072 83.6075 26.2493 83.6075 28.672C83.6075 31.064 83.2088 33.2413 82.4115 35.204C81.6448 37.1667 80.4795 38.7153 78.9155 39.85C77.3822 40.9847 75.4655 41.552 73.1655 41.552C71.9695 41.552 70.8502 41.3373 69.8075 40.908C68.7648 40.448 67.8602 39.8193 67.0935 39.022C66.3575 38.2247 65.8208 37.274 65.4835 36.17L66.0815 35.802V47.9H59.1815ZM71.2795 36.262C72.9048 36.262 74.1775 35.5873 75.0975 34.238C76.0482 32.8887 76.5235 31.0333 76.5235 28.672C76.5235 26.3107 76.0482 24.4553 75.0975 23.106C74.1775 21.7567 72.9048 21.082 71.2795 21.082C70.2062 21.082 69.2708 21.3733 68.4735 21.956C67.7068 22.508 67.1088 23.3513 66.6795 24.486C66.2808 25.6207 66.0815 27.016 66.0815 28.672C66.0815 30.328 66.2808 31.7233 66.6795 32.858C67.1088 33.9927 67.7068 34.8513 68.4735 35.434C69.2708 35.986 70.2062 36.262 71.2795 36.262ZM94.5512 41C92.5272 41 90.9479 40.494 89.8132 39.482C88.6785 38.47 88.1112 36.8293 88.1112 34.56V8.34H95.0112V33.824C95.0112 34.56 95.1799 35.0813 95.5172 35.388C95.8545 35.6947 96.3452 35.848 96.9892 35.848H98.6452V41H94.5512ZM113.26 41.552C110.745 41.552 108.553 41.0307 106.682 39.988C104.811 38.9147 103.355 37.412 102.312 35.48C101.269 33.548 100.748 31.2787 100.748 28.672C100.748 26.0653 101.269 23.8113 102.312 21.91C103.355 19.978 104.811 18.4753 106.682 17.402C108.553 16.3287 110.745 15.792 113.26 15.792C115.775 15.792 117.967 16.3287 119.838 17.402C121.709 18.4753 123.165 19.978 124.208 21.91C125.251 23.8113 125.772 26.0653 125.772 28.672C125.772 31.2787 125.251 33.548 124.208 35.48C123.165 37.412 121.709 38.9147 119.838 39.988C117.967 41.0307 115.775 41.552 113.26 41.552ZM113.26 36.262C114.977 36.262 116.311 35.6027 117.262 34.284C118.213 32.9347 118.688 31.064 118.688 28.672C118.688 26.28 118.213 24.4247 117.262 23.106C116.311 21.7567 114.977 21.082 113.26 21.082C111.543 21.082 110.209 21.7567 109.258 23.106C108.307 24.4247 107.832 26.28 107.832 28.672C107.832 31.064 108.307 32.9347 109.258 34.284C110.209 35.6027 111.543 36.262 113.26 36.262ZM130.068 41V16.344H136.6L136.83 23.52L136.324 23.382C136.723 20.898 137.428 19.104 138.44 18C139.452 16.896 140.848 16.344 142.626 16.344H144.88V22.048H142.626C141.338 22.048 140.28 22.2167 139.452 22.554C138.624 22.8913 137.996 23.428 137.566 24.164C137.168 24.9 136.968 25.8967 136.968 27.154V41H130.068ZM155.351 41.552C152.806 41.552 150.72 40.9693 149.095 39.804C147.5 38.608 146.703 36.952 146.703 34.836C146.703 32.6587 147.378 30.9873 148.727 29.822C150.107 28.626 152.131 27.752 154.799 27.2L162.757 25.636C162.757 24.0413 162.389 22.8453 161.653 22.048C160.948 21.22 159.92 20.806 158.571 20.806C157.252 20.806 156.225 21.1127 155.489 21.726C154.753 22.3087 154.278 23.1827 154.063 24.348L147.117 24.026C147.577 21.3273 148.788 19.288 150.751 17.908C152.744 16.4973 155.351 15.792 158.571 15.792C162.251 15.792 165.011 16.666 166.851 18.414C168.722 20.162 169.657 22.7227 169.657 26.096V34.514C169.657 35.2193 169.764 35.6947 169.979 35.94C170.224 36.1547 170.577 36.262 171.037 36.262H171.727V41C171.512 41.0613 171.16 41.1227 170.669 41.184C170.209 41.2453 169.749 41.276 169.289 41.276C168.308 41.276 167.388 41.1073 166.529 40.77C165.701 40.4327 165.026 39.8653 164.505 39.068C163.984 38.24 163.723 37.0747 163.723 35.572L164.321 36.032C164.014 37.136 163.462 38.102 162.665 38.93C161.898 39.758 160.886 40.402 159.629 40.862C158.402 41.322 156.976 41.552 155.351 41.552ZM157.007 36.814C158.142 36.814 159.138 36.5993 159.997 36.17C160.856 35.71 161.53 35.0507 162.021 34.192C162.512 33.3333 162.757 32.3213 162.757 31.156V29.96L157.145 31.156C156.041 31.3707 155.198 31.7387 154.615 32.26C154.063 32.7507 153.787 33.3947 153.787 34.192C153.787 35.02 154.063 35.664 154.615 36.124C155.167 36.584 155.964 36.814 157.007 36.814ZM189.158 41.552C187.441 41.552 185.938 41.184 184.65 40.448C183.393 39.712 182.411 38.6847 181.706 37.366L181.568 41H174.99V8.34H181.89V19.84C182.534 18.7053 183.485 17.7547 184.742 16.988C185.999 16.1907 187.471 15.792 189.158 15.792C191.243 15.792 193.053 16.3287 194.586 17.402C196.119 18.4447 197.3 19.932 198.128 21.864C198.987 23.796 199.416 26.0653 199.416 28.672C199.416 31.2787 198.987 33.548 198.128 35.48C197.3 37.412 196.119 38.9147 194.586 39.988C193.053 41.0307 191.243 41.552 189.158 41.552ZM187.226 36.262C188.759 36.262 189.986 35.6027 190.906 34.284C191.857 32.9347 192.332 31.064 192.332 28.672C192.332 26.28 191.872 24.4247 190.952 23.106C190.032 21.7567 188.805 21.082 187.272 21.082C186.137 21.082 185.156 21.3887 184.328 22.002C183.531 22.5847 182.917 23.4433 182.488 24.578C182.089 25.7127 181.89 27.0773 181.89 28.672C181.89 30.236 182.089 31.5853 182.488 32.72C182.917 33.8547 183.531 34.7287 184.328 35.342C185.156 35.9553 186.122 36.262 187.226 36.262ZM210.36 41C208.336 41 206.756 40.494 205.622 39.482C204.487 38.47 203.92 36.8293 203.92 34.56V8.34H210.82V33.824C210.82 34.56 210.988 35.0813 211.326 35.388C211.663 35.6947 212.154 35.848 212.798 35.848H214.454V41H210.36ZM228.976 41.552C226.462 41.552 224.269 41.0307 222.398 39.988C220.558 38.9147 219.117 37.412 218.074 35.48C217.062 33.548 216.556 31.2787 216.556 28.672C216.556 26.0653 217.062 23.8113 218.074 21.91C219.117 19.978 220.558 18.4753 222.398 17.402C224.238 16.3287 226.416 15.792 228.93 15.792C231.384 15.792 233.515 16.3287 235.324 17.402C237.134 18.4753 238.529 20.0087 239.51 22.002C240.522 23.9953 241.028 26.372 241.028 29.132V30.512H223.686C223.778 32.4747 224.3 33.9313 225.25 34.882C226.232 35.8327 227.52 36.308 229.114 36.308C230.28 36.308 231.246 36.0627 232.012 35.572C232.81 35.0813 233.377 34.33 233.714 33.318L240.66 33.732C240.016 36.1853 238.652 38.102 236.566 39.482C234.481 40.862 231.951 41.552 228.976 41.552ZM223.686 26.28H233.944C233.852 24.4707 233.346 23.1213 232.426 22.232C231.537 21.3427 230.372 20.898 228.93 20.898C227.489 20.898 226.293 21.3733 225.342 22.324C224.422 23.244 223.87 24.5627 223.686 26.28ZM269.365 41.736C266.605 41.736 264.213 41.23 262.189 40.218C260.196 39.206 258.647 37.7647 257.543 35.894C256.439 33.9927 255.887 31.7693 255.887 29.224V8.294H262.879V29.224C262.879 31.34 263.431 32.9807 264.535 34.146C265.67 35.2807 267.28 35.848 269.365 35.848C271.45 35.848 273.045 35.2807 274.149 34.146C275.253 32.9807 275.805 31.34 275.805 29.224V8.294H282.797V29.224C282.797 31.7693 282.245 33.9927 281.141 35.894C280.068 37.7647 278.519 39.206 276.495 40.218C274.471 41.23 272.094 41.736 269.365 41.736ZM288.553 41V16.344H294.763L295.039 23.566L294.165 23.336C294.41 21.496 294.901 20.024 295.637 18.92C296.403 17.816 297.354 17.0187 298.489 16.528C299.623 16.0373 300.865 15.792 302.215 15.792C303.993 15.792 305.496 16.1753 306.723 16.942C307.98 17.7087 308.931 18.7973 309.575 20.208C310.249 21.588 310.587 23.2287 310.587 25.13V41H303.687V27.43C303.687 26.1113 303.579 24.992 303.365 24.072C303.15 23.152 302.767 22.462 302.215 22.002C301.663 21.5113 300.896 21.266 299.915 21.266C298.473 21.266 297.369 21.8027 296.603 22.876C295.836 23.9187 295.453 25.4367 295.453 27.43V41H288.553ZM316.269 41V16.344H323.169V41H316.269ZM316.131 13.308V7.788H323.261V13.308H316.131ZM335.704 41L326.688 16.344H333.91L339.752 34.054L345.548 16.344H352.77L343.708 41H335.704ZM366.572 41.552C364.058 41.552 361.865 41.0307 359.994 39.988C358.154 38.9147 356.713 37.412 355.67 35.48C354.658 33.548 354.152 31.2787 354.152 28.672C354.152 26.0653 354.658 23.8113 355.67 21.91C356.713 19.978 358.154 18.4753 359.994 17.402C361.834 16.3287 364.012 15.792 366.526 15.792C368.98 15.792 371.111 16.3287 372.92 17.402C374.73 18.4753 376.125 20.0087 377.106 22.002C378.118 23.9953 378.624 26.372 378.624 29.132V30.512H361.282C361.374 32.4747 361.896 33.9313 362.846 34.882C363.828 35.8327 365.116 36.308 366.71 36.308C367.876 36.308 368.842 36.0627 369.608 35.572C370.406 35.0813 370.973 34.33 371.31 33.318L378.256 33.732C377.612 36.1853 376.248 38.102 374.162 39.482C372.077 40.862 369.547 41.552 366.572 41.552ZM361.282 26.28H371.54C371.448 24.4707 370.942 23.1213 370.022 22.232C369.133 21.3427 367.968 20.898 366.526 20.898C365.085 20.898 363.889 21.3733 362.938 22.324C362.018 23.244 361.466 24.5627 361.282 26.28ZM382.889 41V16.344H389.421L389.651 23.52L389.145 23.382C389.543 20.898 390.249 19.104 391.261 18C392.273 16.896 393.668 16.344 395.447 16.344H397.701V22.048H395.447C394.159 22.048 393.101 22.2167 392.273 22.554C391.445 22.8913 390.816 23.428 390.387 24.164C389.988 24.9 389.789 25.8967 389.789 27.154V41H382.889ZM411.122 41.552C408.576 41.552 406.445 41.1993 404.728 40.494C403.01 39.758 401.692 38.7767 400.772 37.55C399.882 36.2927 399.376 34.8513 399.254 33.226L406.246 32.996C406.46 34.1613 406.951 35.066 407.718 35.71C408.484 36.354 409.619 36.676 411.122 36.676C412.348 36.676 413.299 36.4767 413.974 36.078C414.679 35.6793 415.032 35.066 415.032 34.238C415.032 33.7167 414.909 33.2873 414.664 32.95C414.418 32.582 413.928 32.2753 413.192 32.03C412.486 31.754 411.428 31.5087 410.018 31.294C407.411 30.834 405.372 30.2973 403.9 29.684C402.428 29.0707 401.385 28.2733 400.772 27.292C400.158 26.3107 399.852 25.1147 399.852 23.704C399.852 21.3427 400.756 19.4413 402.566 18C404.406 16.528 407.15 15.792 410.8 15.792C413.13 15.792 415.078 16.16 416.642 16.896C418.236 17.632 419.463 18.644 420.322 19.932C421.211 21.1893 421.763 22.6307 421.978 24.256L415.032 24.532C414.94 23.7347 414.694 23.06 414.296 22.508C413.928 21.9253 413.452 21.4807 412.87 21.174C412.287 20.8367 411.582 20.668 410.754 20.668C409.527 20.668 408.576 20.9287 407.902 21.45C407.258 21.9407 406.936 22.6 406.936 23.428C406.936 24.0413 407.074 24.5473 407.35 24.946C407.656 25.314 408.147 25.6207 408.822 25.866C409.496 26.1113 410.401 26.3107 411.536 26.464C414.173 26.832 416.258 27.3533 417.792 28.028C419.356 28.672 420.475 29.4847 421.15 30.466C421.824 31.4473 422.162 32.6587 422.162 34.1C422.162 35.6947 421.702 37.044 420.782 38.148C419.862 39.252 418.574 40.0953 416.918 40.678C415.292 41.2607 413.36 41.552 411.122 41.552ZM437.504 41.552C434.989 41.552 432.797 41.0307 430.926 39.988C429.086 38.9147 427.645 37.412 426.602 35.48C425.59 33.548 425.084 31.2787 425.084 28.672C425.084 26.0653 425.59 23.8113 426.602 21.91C427.645 19.978 429.086 18.4753 430.926 17.402C432.766 16.3287 434.943 15.792 437.458 15.792C439.911 15.792 442.043 16.3287 443.852 17.402C445.661 18.4753 447.057 20.0087 448.038 22.002C449.05 23.9953 449.556 26.372 449.556 29.132V30.512H432.214C432.306 32.4747 432.827 33.9313 433.778 34.882C434.759 35.8327 436.047 36.308 437.642 36.308C438.807 36.308 439.773 36.0627 440.54 35.572C441.337 35.0813 441.905 34.33 442.242 33.318L449.188 33.732C448.544 36.1853 447.179 38.102 445.094 39.482C443.009 40.862 440.479 41.552 437.504 41.552ZM432.214 26.28H442.472C442.38 24.4707 441.874 23.1213 440.954 22.232C440.065 21.3427 438.899 20.898 437.458 20.898C436.017 20.898 434.821 21.3733 433.87 22.324C432.95 23.244 432.398 24.5627 432.214 26.28ZM464.354 41.552C461.809 41.552 459.678 41.1993 457.96 40.494C456.243 39.758 454.924 38.7767 454.004 37.55C453.115 36.2927 452.609 34.8513 452.486 33.226L459.478 32.996C459.693 34.1613 460.184 35.066 460.95 35.71C461.717 36.354 462.852 36.676 464.354 36.676C465.581 36.676 466.532 36.4767 467.206 36.078C467.912 35.6793 468.264 35.066 468.264 34.238C468.264 33.7167 468.142 33.2873 467.896 32.95C467.651 32.582 467.16 32.2753 466.424 32.03C465.719 31.754 464.661 31.5087 463.25 31.294C460.644 30.834 458.604 30.2973 457.132 29.684C455.66 29.0707 454.618 28.2733 454.004 27.292C453.391 26.3107 453.084 25.1147 453.084 23.704C453.084 21.3427 453.989 19.4413 455.798 18C457.638 16.528 460.383 15.792 464.032 15.792C466.363 15.792 468.31 16.16 469.874 16.896C471.469 17.632 472.696 18.644 473.554 19.932C474.444 21.1893 474.996 22.6307 475.21 24.256L468.264 24.532C468.172 23.7347 467.927 23.06 467.528 22.508C467.16 21.9253 466.685 21.4807 466.102 21.174C465.52 20.8367 464.814 20.668 463.986 20.668C462.76 20.668 461.809 20.9287 461.134 21.45C460.49 21.9407 460.168 22.6 460.168 23.428C460.168 24.0413 460.306 24.5473 460.582 24.946C460.889 25.314 461.38 25.6207 462.054 25.866C462.729 26.1113 463.634 26.3107 464.768 26.464C467.406 26.832 469.491 27.3533 471.024 28.028C472.588 28.672 473.708 29.4847 474.382 30.466C475.057 31.4473 475.394 32.6587 475.394 34.1C475.394 35.6947 474.934 37.044 474.014 38.148C473.094 39.252 471.806 40.0953 470.15 40.678C468.525 41.2607 466.593 41.552 464.354 41.552Z" fill="#01EEFF"/>
<path d="M6.34052 40V7.34H29.0645V13.228H13.3325V20.726H28.5125V26.522H13.3325V34.112H29.4325V40H6.34052ZM32.2752 40L41.0612 27.488L32.5052 15.344H39.8192L45.1092 23.256L50.2152 15.344H57.7132L49.2032 27.534L57.9432 40H50.6292L45.2012 31.628L39.7272 40H32.2752ZM61.1815 46.9V15.344H67.8055L67.9435 20.542L67.3915 20.312C68.0048 18.5333 69.0015 17.1687 70.3815 16.218C71.7615 15.2673 73.3715 14.792 75.2115 14.792C77.5115 14.792 79.4282 15.3593 80.9615 16.494C82.4948 17.6287 83.6448 19.1773 84.4115 21.14C85.2088 23.072 85.6075 25.2493 85.6075 27.672C85.6075 30.064 85.2088 32.2413 84.4115 34.204C83.6448 36.1667 82.4795 37.7153 80.9155 38.85C79.3822 39.9847 77.4655 40.552 75.1655 40.552C73.9695 40.552 72.8502 40.3373 71.8075 39.908C70.7648 39.448 69.8602 38.8193 69.0935 38.022C68.3575 37.2247 67.8208 36.274 67.4835 35.17L68.0815 34.802V46.9H61.1815ZM73.2795 35.262C74.9048 35.262 76.1775 34.5873 77.0975 33.238C78.0482 31.8887 78.5235 30.0333 78.5235 27.672C78.5235 25.3107 78.0482 23.4553 77.0975 22.106C76.1775 20.7567 74.9048 20.082 73.2795 20.082C72.2062 20.082 71.2708 20.3733 70.4735 20.956C69.7068 21.508 69.1088 22.3513 68.6795 23.486C68.2808 24.6207 68.0815 26.016 68.0815 27.672C68.0815 29.328 68.2808 30.7233 68.6795 31.858C69.1088 32.9927 69.7068 33.8513 70.4735 34.434C71.2708 34.986 72.2062 35.262 73.2795 35.262ZM96.5512 40C94.5272 40 92.9479 39.494 91.8132 38.482C90.6785 37.47 90.1112 35.8293 90.1112 33.56V7.34H97.0112V32.824C97.0112 33.56 97.1799 34.0813 97.5172 34.388C97.8545 34.6947 98.3452 34.848 98.9892 34.848H100.645V40H96.5512ZM115.26 40.552C112.745 40.552 110.553 40.0307 108.682 38.988C106.811 37.9147 105.355 36.412 104.312 34.48C103.269 32.548 102.748 30.2787 102.748 27.672C102.748 25.0653 103.269 22.8113 104.312 20.91C105.355 18.978 106.811 17.4753 108.682 16.402C110.553 15.3287 112.745 14.792 115.26 14.792C117.775 14.792 119.967 15.3287 121.838 16.402C123.709 17.4753 125.165 18.978 126.208 20.91C127.251 22.8113 127.772 25.0653 127.772 27.672C127.772 30.2787 127.251 32.548 126.208 34.48C125.165 36.412 123.709 37.9147 121.838 38.988C119.967 40.0307 117.775 40.552 115.26 40.552ZM115.26 35.262C116.977 35.262 118.311 34.6027 119.262 33.284C120.213 31.9347 120.688 30.064 120.688 27.672C120.688 25.28 120.213 23.4247 119.262 22.106C118.311 20.7567 116.977 20.082 115.26 20.082C113.543 20.082 112.209 20.7567 111.258 22.106C110.307 23.4247 109.832 25.28 109.832 27.672C109.832 30.064 110.307 31.9347 111.258 33.284C112.209 34.6027 113.543 35.262 115.26 35.262ZM132.068 40V15.344H138.6L138.83 22.52L138.324 22.382C138.723 19.898 139.428 18.104 140.44 17C141.452 15.896 142.848 15.344 144.626 15.344H146.88V21.048H144.626C143.338 21.048 142.28 21.2167 141.452 21.554C140.624 21.8913 139.996 22.428 139.566 23.164C139.168 23.9 138.968 24.8967 138.968 26.154V40H132.068ZM157.351 40.552C154.806 40.552 152.72 39.9693 151.095 38.804C149.5 37.608 148.703 35.952 148.703 33.836C148.703 31.6587 149.378 29.9873 150.727 28.822C152.107 27.626 154.131 26.752 156.799 26.2L164.757 24.636C164.757 23.0413 164.389 21.8453 163.653 21.048C162.948 20.22 161.92 19.806 160.571 19.806C159.252 19.806 158.225 20.1127 157.489 20.726C156.753 21.3087 156.278 22.1827 156.063 23.348L149.117 23.026C149.577 20.3273 150.788 18.288 152.751 16.908C154.744 15.4973 157.351 14.792 160.571 14.792C164.251 14.792 167.011 15.666 168.851 17.414C170.722 19.162 171.657 21.7227 171.657 25.096V33.514C171.657 34.2193 171.764 34.6947 171.979 34.94C172.224 35.1547 172.577 35.262 173.037 35.262H173.727V40C173.512 40.0613 173.16 40.1227 172.669 40.184C172.209 40.2453 171.749 40.276 171.289 40.276C170.308 40.276 169.388 40.1073 168.529 39.77C167.701 39.4327 167.026 38.8653 166.505 38.068C165.984 37.24 165.723 36.0747 165.723 34.572L166.321 35.032C166.014 36.136 165.462 37.102 164.665 37.93C163.898 38.758 162.886 39.402 161.629 39.862C160.402 40.322 158.976 40.552 157.351 40.552ZM159.007 35.814C160.142 35.814 161.138 35.5993 161.997 35.17C162.856 34.71 163.53 34.0507 164.021 33.192C164.512 32.3333 164.757 31.3213 164.757 30.156V28.96L159.145 30.156C158.041 30.3707 157.198 30.7387 156.615 31.26C156.063 31.7507 155.787 32.3947 155.787 33.192C155.787 34.02 156.063 34.664 156.615 35.124C157.167 35.584 157.964 35.814 159.007 35.814ZM191.158 40.552C189.441 40.552 187.938 40.184 186.65 39.448C185.393 38.712 184.411 37.6847 183.706 36.366L183.568 40H176.99V7.34H183.89V18.84C184.534 17.7053 185.485 16.7547 186.742 15.988C187.999 15.1907 189.471 14.792 191.158 14.792C193.243 14.792 195.053 15.3287 196.586 16.402C198.119 17.4447 199.3 18.932 200.128 20.864C200.987 22.796 201.416 25.0653 201.416 27.672C201.416 30.2787 200.987 32.548 200.128 34.48C199.3 36.412 198.119 37.9147 196.586 38.988C195.053 40.0307 193.243 40.552 191.158 40.552ZM189.226 35.262C190.759 35.262 191.986 34.6027 192.906 33.284C193.857 31.9347 194.332 30.064 194.332 27.672C194.332 25.28 193.872 23.4247 192.952 22.106C192.032 20.7567 190.805 20.082 189.272 20.082C188.137 20.082 187.156 20.3887 186.328 21.002C185.531 21.5847 184.917 22.4433 184.488 23.578C184.089 24.7127 183.89 26.0773 183.89 27.672C183.89 29.236 184.089 30.5853 184.488 31.72C184.917 32.8547 185.531 33.7287 186.328 34.342C187.156 34.9553 188.122 35.262 189.226 35.262ZM212.36 40C210.336 40 208.756 39.494 207.622 38.482C206.487 37.47 205.92 35.8293 205.92 33.56V7.34H212.82V32.824C212.82 33.56 212.988 34.0813 213.326 34.388C213.663 34.6947 214.154 34.848 214.798 34.848H216.454V40H212.36ZM230.976 40.552C228.462 40.552 226.269 40.0307 224.398 38.988C222.558 37.9147 221.117 36.412 220.074 34.48C219.062 32.548 218.556 30.2787 218.556 27.672C218.556 25.0653 219.062 22.8113 220.074 20.91C221.117 18.978 222.558 17.4753 224.398 16.402C226.238 15.3287 228.416 14.792 230.93 14.792C233.384 14.792 235.515 15.3287 237.324 16.402C239.134 17.4753 240.529 19.0087 241.51 21.002C242.522 22.9953 243.028 25.372 243.028 28.132V29.512H225.686C225.778 31.4747 226.3 32.9313 227.25 33.882C228.232 34.8327 229.52 35.308 231.114 35.308C232.28 35.308 233.246 35.0627 234.012 34.572C234.81 34.0813 235.377 33.33 235.714 32.318L242.66 32.732C242.016 35.1853 240.652 37.102 238.566 38.482C236.481 39.862 233.951 40.552 230.976 40.552ZM225.686 25.28H235.944C235.852 23.4707 235.346 22.1213 234.426 21.232C233.537 20.3427 232.372 19.898 230.93 19.898C229.489 19.898 228.293 20.3733 227.342 21.324C226.422 22.244 225.87 23.5627 225.686 25.28ZM271.365 40.736C268.605 40.736 266.213 40.23 264.189 39.218C262.196 38.206 260.647 36.7647 259.543 34.894C258.439 32.9927 257.887 30.7693 257.887 28.224V7.294H264.879V28.224C264.879 30.34 265.431 31.9807 266.535 33.146C267.67 34.2807 269.28 34.848 271.365 34.848C273.45 34.848 275.045 34.2807 276.149 33.146C277.253 31.9807 277.805 30.34 277.805 28.224V7.294H284.797V28.224C284.797 30.7693 284.245 32.9927 283.141 34.894C282.068 36.7647 280.519 38.206 278.495 39.218C276.471 40.23 274.094 40.736 271.365 40.736ZM290.553 40V15.344H296.763L297.039 22.566L296.165 22.336C296.41 20.496 296.901 19.024 297.637 17.92C298.403 16.816 299.354 16.0187 300.489 15.528C301.623 15.0373 302.865 14.792 304.215 14.792C305.993 14.792 307.496 15.1753 308.723 15.942C309.98 16.7087 310.931 17.7973 311.575 19.208C312.249 20.588 312.587 22.2287 312.587 24.13V40H305.687V26.43C305.687 25.1113 305.579 23.992 305.365 23.072C305.15 22.152 304.767 21.462 304.215 21.002C303.663 20.5113 302.896 20.266 301.915 20.266C300.473 20.266 299.369 20.8027 298.603 21.876C297.836 22.9187 297.453 24.4367 297.453 26.43V40H290.553ZM318.269 40V15.344H325.169V40H318.269ZM318.131 12.308V6.788H325.261V12.308H318.131ZM337.704 40L328.688 15.344H335.91L341.752 33.054L347.548 15.344H354.77L345.708 40H337.704ZM368.572 40.552C366.058 40.552 363.865 40.0307 361.994 38.988C360.154 37.9147 358.713 36.412 357.67 34.48C356.658 32.548 356.152 30.2787 356.152 27.672C356.152 25.0653 356.658 22.8113 357.67 20.91C358.713 18.978 360.154 17.4753 361.994 16.402C363.834 15.3287 366.012 14.792 368.526 14.792C370.98 14.792 373.111 15.3287 374.92 16.402C376.73 17.4753 378.125 19.0087 379.106 21.002C380.118 22.9953 380.624 25.372 380.624 28.132V29.512H363.282C363.374 31.4747 363.896 32.9313 364.846 33.882C365.828 34.8327 367.116 35.308 368.71 35.308C369.876 35.308 370.842 35.0627 371.608 34.572C372.406 34.0813 372.973 33.33 373.31 32.318L380.256 32.732C379.612 35.1853 378.248 37.102 376.162 38.482C374.077 39.862 371.547 40.552 368.572 40.552ZM363.282 25.28H373.54C373.448 23.4707 372.942 22.1213 372.022 21.232C371.133 20.3427 369.968 19.898 368.526 19.898C367.085 19.898 365.889 20.3733 364.938 21.324C364.018 22.244 363.466 23.5627 363.282 25.28ZM384.889 40V15.344H391.421L391.651 22.52L391.145 22.382C391.543 19.898 392.249 18.104 393.261 17C394.273 15.896 395.668 15.344 397.447 15.344H399.701V21.048H397.447C396.159 21.048 395.101 21.2167 394.273 21.554C393.445 21.8913 392.816 22.428 392.387 23.164C391.988 23.9 391.789 24.8967 391.789 26.154V40H384.889ZM413.122 40.552C410.576 40.552 408.445 40.1993 406.728 39.494C405.01 38.758 403.692 37.7767 402.772 36.55C401.882 35.2927 401.376 33.8513 401.254 32.226L408.246 31.996C408.46 33.1613 408.951 34.066 409.718 34.71C410.484 35.354 411.619 35.676 413.122 35.676C414.348 35.676 415.299 35.4767 415.974 35.078C416.679 34.6793 417.032 34.066 417.032 33.238C417.032 32.7167 416.909 32.2873 416.664 31.95C416.418 31.582 415.928 31.2753 415.192 31.03C414.486 30.754 413.428 30.5087 412.018 30.294C409.411 29.834 407.372 29.2973 405.9 28.684C404.428 28.0707 403.385 27.2733 402.772 26.292C402.158 25.3107 401.852 24.1147 401.852 22.704C401.852 20.3427 402.756 18.4413 404.566 17C406.406 15.528 409.15 14.792 412.8 14.792C415.13 14.792 417.078 15.16 418.642 15.896C420.236 16.632 421.463 17.644 422.322 18.932C423.211 20.1893 423.763 21.6307 423.978 23.256L417.032 23.532C416.94 22.7347 416.694 22.06 416.296 21.508C415.928 20.9253 415.452 20.4807 414.87 20.174C414.287 19.8367 413.582 19.668 412.754 19.668C411.527 19.668 410.576 19.9287 409.902 20.45C409.258 20.9407 408.936 21.6 408.936 22.428C408.936 23.0413 409.074 23.5473 409.35 23.946C409.656 24.314 410.147 24.6207 410.822 24.866C411.496 25.1113 412.401 25.3107 413.536 25.464C416.173 25.832 418.258 26.3533 419.792 27.028C421.356 27.672 422.475 28.4847 423.15 29.466C423.824 30.4473 424.162 31.6587 424.162 33.1C424.162 34.6947 423.702 36.044 422.782 37.148C421.862 38.252 420.574 39.0953 418.918 39.678C417.292 40.2607 415.36 40.552 413.122 40.552ZM439.504 40.552C436.989 40.552 434.797 40.0307 432.926 38.988C431.086 37.9147 429.645 36.412 428.602 34.48C427.59 32.548 427.084 30.2787 427.084 27.672C427.084 25.0653 427.59 22.8113 428.602 20.91C429.645 18.978 431.086 17.4753 432.926 16.402C434.766 15.3287 436.943 14.792 439.458 14.792C441.911 14.792 444.043 15.3287 445.852 16.402C447.661 17.4753 449.057 19.0087 450.038 21.002C451.05 22.9953 451.556 25.372 451.556 28.132V29.512H434.214C434.306 31.4747 434.827 32.9313 435.778 33.882C436.759 34.8327 438.047 35.308 439.642 35.308C440.807 35.308 441.773 35.0627 442.54 34.572C443.337 34.0813 443.905 33.33 444.242 32.318L451.188 32.732C450.544 35.1853 449.179 37.102 447.094 38.482C445.009 39.862 442.479 40.552 439.504 40.552ZM434.214 25.28H444.472C444.38 23.4707 443.874 22.1213 442.954 21.232C442.065 20.3427 440.899 19.898 439.458 19.898C438.017 19.898 436.821 20.3733 435.87 21.324C434.95 22.244 434.398 23.5627 434.214 25.28ZM466.354 40.552C463.809 40.552 461.678 40.1993 459.96 39.494C458.243 38.758 456.924 37.7767 456.004 36.55C455.115 35.2927 454.609 33.8513 454.486 32.226L461.478 31.996C461.693 33.1613 462.184 34.066 462.95 34.71C463.717 35.354 464.852 35.676 466.354 35.676C467.581 35.676 468.532 35.4767 469.206 35.078C469.912 34.6793 470.264 34.066 470.264 33.238C470.264 32.7167 470.142 32.2873 469.896 31.95C469.651 31.582 469.16 31.2753 468.424 31.03C467.719 30.754 466.661 30.5087 465.25 30.294C462.644 29.834 460.604 29.2973 459.132 28.684C457.66 28.0707 456.618 27.2733 456.004 26.292C455.391 25.3107 455.084 24.1147 455.084 22.704C455.084 20.3427 455.989 18.4413 457.798 17C459.638 15.528 462.383 14.792 466.032 14.792C468.363 14.792 470.31 15.16 471.874 15.896C473.469 16.632 474.696 17.644 475.554 18.932C476.444 20.1893 476.996 21.6307 477.21 23.256L470.264 23.532C470.172 22.7347 469.927 22.06 469.528 21.508C469.16 20.9253 468.685 20.4807 468.102 20.174C467.52 19.8367 466.814 19.668 465.986 19.668C464.76 19.668 463.809 19.9287 463.134 20.45C462.49 20.9407 462.168 21.6 462.168 22.428C462.168 23.0413 462.306 23.5473 462.582 23.946C462.889 24.314 463.38 24.6207 464.054 24.866C464.729 25.1113 465.634 25.3107 466.768 25.464C469.406 25.832 471.491 26.3533 473.024 27.028C474.588 27.672 475.708 28.4847 476.382 29.466C477.057 30.4473 477.394 31.6587 477.394 33.1C477.394 34.6947 476.934 36.044 476.014 37.148C475.094 38.252 473.806 39.0953 472.15 39.678C470.525 40.2607 468.593 40.552 466.354 40.552Z" fill="white"/>
</svg>
