<svg width="907" height="49" viewBox="0 0 907 49" fill="none" xmlns="http://www.w3.org/2000/svg">
<path d="M17.5017 40V7.34H26.8397L35.1657 31.122L43.4457 7.34H52.7837V40H45.7917V18.84L38.1097 39.908H32.1297L24.4937 18.84V40H17.5017ZM66.0902 40.552C63.5449 40.552 61.4596 39.9693 59.8342 38.804C58.2396 37.608 57.4422 35.952 57.4422 33.836C57.4422 31.6587 58.1169 29.9873 59.4662 28.822C60.8462 27.626 62.8702 26.752 65.5382 26.2L73.4962 24.636C73.4962 23.0413 73.1282 21.8453 72.3922 21.048C71.6869 20.22 70.6596 19.806 69.3102 19.806C67.9916 19.806 66.9642 20.1127 66.2282 20.726C65.4922 21.3087 65.0169 22.1827 64.8022 23.348L57.8562 23.026C58.3162 20.3273 59.5276 18.288 61.4902 16.908C63.4836 15.4973 66.0902 14.792 69.3102 14.792C72.9902 14.792 75.7502 15.666 77.5902 17.414C79.4609 19.162 80.3962 21.7227 80.3962 25.096V33.514C80.3962 34.2193 80.5036 34.6947 80.7182 34.94C80.9636 35.1547 81.3162 35.262 81.7762 35.262H82.4662V40C82.2516 40.0613 81.8989 40.1227 81.4082 40.184C80.9482 40.2453 80.4882 40.276 80.0282 40.276C79.0469 40.276 78.1269 40.1073 77.2682 39.77C76.4402 39.4327 75.7656 38.8653 75.2442 38.068C74.7229 37.24 74.4622 36.0747 74.4622 34.572L75.0602 35.032C74.7536 36.136 74.2016 37.102 73.4042 37.93C72.6376 38.758 71.6256 39.402 70.3682 39.862C69.1416 40.322 67.7156 40.552 66.0902 40.552ZM67.7462 35.814C68.8809 35.814 69.8776 35.5993 70.7362 35.17C71.5949 34.71 72.2696 34.0507 72.7602 33.192C73.2509 32.3333 73.4962 31.3213 73.4962 30.156V28.96L67.8842 30.156C66.7802 30.3707 65.9369 30.7387 65.3542 31.26C64.8022 31.7507 64.5262 32.3947 64.5262 33.192C64.5262 34.02 64.8022 34.664 65.3542 35.124C65.9062 35.584 66.7036 35.814 67.7462 35.814ZM94.9531 40C92.4077 40 90.5371 39.4173 89.3411 38.252C88.1451 37.056 87.5471 35.17 87.5471 32.594V9.548H94.4471V31.766C94.4471 32.962 94.6924 33.7747 95.1831 34.204C95.7044 34.6333 96.4711 34.848 97.4831 34.848H100.933V40H94.9531ZM83.5911 20.496V15.344H100.933V20.496H83.5911ZM105.001 40V7.34H111.901V21.094H110.981C111.226 19.6527 111.702 18.472 112.407 17.552C113.143 16.632 114.048 15.942 115.121 15.482C116.225 15.022 117.421 14.792 118.709 14.792C120.549 14.792 122.082 15.1907 123.309 15.988C124.536 16.7853 125.456 17.8893 126.069 19.3C126.713 20.7107 127.035 22.3207 127.035 24.13V40H120.135V25.786C120.135 23.946 119.844 22.566 119.261 21.646C118.709 20.726 117.758 20.266 116.409 20.266C114.998 20.266 113.894 20.7413 113.097 21.692C112.3 22.6427 111.901 24.0687 111.901 25.97V40H105.001ZM143.072 40.552C140.527 40.552 138.395 40.1993 136.678 39.494C134.961 38.758 133.642 37.7767 132.722 36.55C131.833 35.2927 131.327 33.8513 131.204 32.226L138.196 31.996C138.411 33.1613 138.901 34.066 139.668 34.71C140.435 35.354 141.569 35.676 143.072 35.676C144.299 35.676 145.249 35.4767 145.924 35.078C146.629 34.6793 146.982 34.066 146.982 33.238C146.982 32.7167 146.859 32.2873 146.614 31.95C146.369 31.582 145.878 31.2753 145.142 31.03C144.437 30.754 143.379 30.5087 141.968 30.294C139.361 29.834 137.322 29.2973 135.85 28.684C134.378 28.0707 133.335 27.2733 132.722 26.292C132.109 25.3107 131.802 24.1147 131.802 22.704C131.802 20.3427 132.707 18.4413 134.516 17C136.356 15.528 139.101 14.792 142.75 14.792C145.081 14.792 147.028 15.16 148.592 15.896C150.187 16.632 151.413 17.644 152.272 18.932C153.161 20.1893 153.713 21.6307 153.928 23.256L146.982 23.532C146.89 22.7347 146.645 22.06 146.246 21.508C145.878 20.9253 145.403 20.4807 144.82 20.174C144.237 19.8367 143.532 19.668 142.704 19.668C141.477 19.668 140.527 19.9287 139.852 20.45C139.208 20.9407 138.886 21.6 138.886 22.428C138.886 23.0413 139.024 23.5473 139.3 23.946C139.607 24.314 140.097 24.6207 140.772 24.866C141.447 25.1113 142.351 25.3107 143.486 25.464C146.123 25.832 148.209 26.3533 149.742 27.028C151.306 27.672 152.425 28.4847 153.1 29.466C153.775 30.4473 154.112 31.6587 154.112 33.1C154.112 34.6947 153.652 36.044 152.732 37.148C151.812 38.252 150.524 39.0953 148.868 39.678C147.243 40.2607 145.311 40.552 143.072 40.552ZM158.368 46.9V15.344H164.992L165.13 20.542L164.578 20.312C165.191 18.5333 166.188 17.1687 167.568 16.218C168.948 15.2673 170.558 14.792 172.398 14.792C174.698 14.792 176.615 15.3593 178.148 16.494C179.681 17.6287 180.831 19.1773 181.598 21.14C182.395 23.072 182.794 25.2493 182.794 27.672C182.794 30.064 182.395 32.2413 181.598 34.204C180.831 36.1667 179.666 37.7153 178.102 38.85C176.569 39.9847 174.652 40.552 172.352 40.552C171.156 40.552 170.037 40.3373 168.994 39.908C167.951 39.448 167.047 38.8193 166.28 38.022C165.544 37.2247 165.007 36.274 164.67 35.17L165.268 34.802V46.9H158.368ZM170.466 35.262C172.091 35.262 173.364 34.5873 174.284 33.238C175.235 31.8887 175.71 30.0333 175.71 27.672C175.71 25.3107 175.235 23.4553 174.284 22.106C173.364 20.7567 172.091 20.082 170.466 20.082C169.393 20.082 168.457 20.3733 167.66 20.956C166.893 21.508 166.295 22.3513 165.866 23.486C165.467 24.6207 165.268 26.016 165.268 27.672C165.268 29.328 165.467 30.7233 165.866 31.858C166.295 32.9927 166.893 33.8513 167.66 34.434C168.457 34.986 169.393 35.262 170.466 35.262ZM193.738 40C191.714 40 190.134 39.494 189 38.482C187.865 37.47 187.298 35.8293 187.298 33.56V7.34H194.198V32.824C194.198 33.56 194.366 34.0813 194.704 34.388C195.041 34.6947 195.532 34.848 196.176 34.848H197.832V40H193.738ZM208.942 40.552C206.396 40.552 204.311 39.9693 202.686 38.804C201.091 37.608 200.294 35.952 200.294 33.836C200.294 31.6587 200.968 29.9873 202.318 28.822C203.698 27.626 205.722 26.752 208.39 26.2L216.348 24.636C216.348 23.0413 215.98 21.8453 215.244 21.048C214.538 20.22 213.511 19.806 212.162 19.806C210.843 19.806 209.816 20.1127 209.08 20.726C208.344 21.3087 207.868 22.1827 207.654 23.348L200.708 23.026C201.168 20.3273 202.379 18.288 204.342 16.908C206.335 15.4973 208.942 14.792 212.162 14.792C215.842 14.792 218.602 15.666 220.442 17.414C222.312 19.162 223.248 21.7227 223.248 25.096V33.514C223.248 34.2193 223.355 34.6947 223.57 34.94C223.815 35.1547 224.168 35.262 224.628 35.262H225.318V40C225.103 40.0613 224.75 40.1227 224.26 40.184C223.8 40.2453 223.34 40.276 222.88 40.276C221.898 40.276 220.978 40.1073 220.12 39.77C219.292 39.4327 218.617 38.8653 218.096 38.068C217.574 37.24 217.314 36.0747 217.314 34.572L217.912 35.032C217.605 36.136 217.053 37.102 216.256 37.93C215.489 38.758 214.477 39.402 213.22 39.862C211.993 40.322 210.567 40.552 208.942 40.552ZM210.598 35.814C211.732 35.814 212.729 35.5993 213.588 35.17C214.446 34.71 215.121 34.0507 215.612 33.192C216.102 32.3333 216.348 31.3213 216.348 30.156V28.96L210.736 30.156C209.632 30.3707 208.788 30.7387 208.206 31.26C207.654 31.7507 207.378 32.3947 207.378 33.192C207.378 34.02 207.654 34.664 208.206 35.124C208.758 35.584 209.555 35.814 210.598 35.814ZM228.581 40V15.344H235.481V40H228.581ZM228.443 12.308V6.788H235.573V12.308H228.443ZM241.833 40V15.344H248.043L248.319 22.566L247.445 22.336C247.69 20.496 248.181 19.024 248.917 17.92C249.684 16.816 250.634 16.0187 251.769 15.528C252.904 15.0373 254.146 14.792 255.495 14.792C257.274 14.792 258.776 15.1753 260.003 15.942C261.26 16.7087 262.211 17.7973 262.855 19.208C263.53 20.588 263.867 22.2287 263.867 24.13V40H256.967V26.43C256.967 25.1113 256.86 23.992 256.645 23.072C256.43 22.152 256.047 21.462 255.495 21.002C254.943 20.5113 254.176 20.266 253.195 20.266C251.754 20.266 250.65 20.8027 249.883 21.876C249.116 22.9187 248.733 24.4367 248.733 26.43V40H241.833ZM269.55 40V15.344H276.45V40H269.55ZM269.412 12.308V6.788H276.542V12.308H269.412ZM282.802 40V15.344H289.012L289.288 22.566L288.414 22.336C288.659 20.496 289.15 19.024 289.886 17.92C290.652 16.816 291.603 16.0187 292.738 15.528C293.872 15.0373 295.114 14.792 296.464 14.792C298.242 14.792 299.745 15.1753 300.972 15.942C302.229 16.7087 303.18 17.7973 303.824 19.208C304.498 20.588 304.836 22.2287 304.836 24.13V40H297.936V26.43C297.936 25.1113 297.828 23.992 297.614 23.072C297.399 22.152 297.016 21.462 296.464 21.002C295.912 20.5113 295.145 20.266 294.164 20.266C292.722 20.266 291.618 20.8027 290.852 21.876C290.085 22.9187 289.702 24.4367 289.702 26.43V40H282.802ZM321.379 47.452C319.017 47.452 317.039 47.1607 315.445 46.578C313.881 45.9953 312.623 45.1827 311.673 44.14C310.753 43.0973 310.109 41.9013 309.741 40.552L316.825 40.046C317.07 40.8433 317.53 41.472 318.205 41.932C318.91 42.392 319.968 42.622 321.379 42.622C323.035 42.622 324.292 42.2233 325.151 41.426C326.04 40.6593 326.485 39.4173 326.485 37.7V35.078C325.902 36.2127 324.967 37.1327 323.679 37.838C322.391 38.5127 320.949 38.85 319.355 38.85C317.331 38.85 315.537 38.3593 313.973 37.378C312.409 36.366 311.182 34.9707 310.293 33.192C309.434 31.3827 309.005 29.2667 309.005 26.844C309.005 24.4827 309.434 22.3973 310.293 20.588C311.182 18.7787 312.393 17.368 313.927 16.356C315.491 15.3133 317.269 14.792 319.263 14.792C321.072 14.792 322.59 15.1907 323.817 15.988C325.074 16.7853 326.025 17.8433 326.669 19.162V15.344H333.431V37.562C333.431 39.77 332.925 41.5947 331.913 43.036C330.901 44.508 329.49 45.612 327.681 46.348C325.871 47.084 323.771 47.452 321.379 47.452ZM321.333 33.744C322.927 33.744 324.185 33.1307 325.105 31.904C326.055 30.6773 326.531 28.9753 326.531 26.798C326.531 25.3567 326.316 24.1147 325.887 23.072C325.488 22.0293 324.89 21.232 324.093 20.68C323.326 20.128 322.406 19.852 321.333 19.852C319.677 19.852 318.389 20.4807 317.469 21.738C316.549 22.9953 316.089 24.682 316.089 26.798C316.089 28.9447 316.564 30.6467 317.515 31.904C318.465 33.1307 319.738 33.744 321.333 33.744ZM357.182 40V13.228H347.43V7.34H374.018V13.228H364.22V40H357.182ZM376.643 40V7.34H383.543V21.094H382.623C382.869 19.6527 383.344 18.472 384.049 17.552C384.785 16.632 385.69 15.942 386.763 15.482C387.867 15.022 389.063 14.792 390.351 14.792C392.191 14.792 393.725 15.1907 394.951 15.988C396.178 16.7853 397.098 17.8893 397.711 19.3C398.355 20.7107 398.677 22.3207 398.677 24.13V40H391.777V25.786C391.777 23.946 391.486 22.566 390.903 21.646C390.351 20.726 389.401 20.266 388.051 20.266C386.641 20.266 385.537 20.7413 384.739 21.692C383.942 22.6427 383.543 24.0687 383.543 25.97V40H376.643ZM415.267 40.552C412.752 40.552 410.559 40.0307 408.689 38.988C406.849 37.9147 405.407 36.412 404.365 34.48C403.353 32.548 402.847 30.2787 402.847 27.672C402.847 25.0653 403.353 22.8113 404.365 20.91C405.407 18.978 406.849 17.4753 408.689 16.402C410.529 15.3287 412.706 14.792 415.221 14.792C417.674 14.792 419.805 15.3287 421.615 16.402C423.424 17.4753 424.819 19.0087 425.801 21.002C426.813 22.9953 427.319 25.372 427.319 28.132V29.512H409.977C410.069 31.4747 410.59 32.9313 411.541 33.882C412.522 34.8327 413.81 35.308 415.405 35.308C416.57 35.308 417.536 35.0627 418.303 34.572C419.1 34.0813 419.667 33.33 420.005 32.318L426.951 32.732C426.307 35.1853 424.942 37.102 422.857 38.482C420.771 39.862 418.241 40.552 415.267 40.552ZM409.977 25.28H420.235C420.143 23.4707 419.637 22.1213 418.717 21.232C417.827 20.3427 416.662 19.898 415.221 19.898C413.779 19.898 412.583 20.3733 411.633 21.324C410.713 22.244 410.161 23.5627 409.977 25.28ZM440.337 40L452.113 7.34H460.393L472.169 40H464.901L462.509 33.054H449.951L447.559 40H440.337ZM451.929 27.304H460.577L456.253 14.7L451.929 27.304ZM489.1 40.552C487.383 40.552 485.88 40.184 484.592 39.448C483.335 38.712 482.354 37.6847 481.648 36.366L481.51 40H474.932V7.34H481.832V18.84C482.476 17.7053 483.427 16.7547 484.684 15.988C485.942 15.1907 487.414 14.792 489.1 14.792C491.186 14.792 492.995 15.3287 494.528 16.402C496.062 17.4447 497.242 18.932 498.07 20.864C498.929 22.796 499.358 25.0653 499.358 27.672C499.358 30.2787 498.929 32.548 498.07 34.48C497.242 36.412 496.062 37.9147 494.528 38.988C492.995 40.0307 491.186 40.552 489.1 40.552ZM487.168 35.262C488.702 35.262 489.928 34.6027 490.848 33.284C491.799 31.9347 492.274 30.064 492.274 27.672C492.274 25.28 491.814 23.4247 490.894 22.106C489.974 20.7567 488.748 20.082 487.214 20.082C486.08 20.082 485.098 20.3887 484.27 21.002C483.473 21.5847 482.86 22.4433 482.43 23.578C482.032 24.7127 481.832 26.0773 481.832 27.672C481.832 29.236 482.032 30.5853 482.43 31.72C482.86 32.8547 483.473 33.7287 484.27 34.342C485.098 34.9553 486.064 35.262 487.168 35.262ZM511.734 40.552C509.188 40.552 507.195 39.7393 505.754 38.114C504.343 36.458 503.638 34.158 503.638 31.214V15.344H510.538V29.604C510.538 31.5053 510.829 32.9007 511.412 33.79C511.994 34.6487 512.914 35.078 514.172 35.078C515.582 35.078 516.671 34.6027 517.438 33.652C518.235 32.6707 518.634 31.214 518.634 29.282V15.344H525.534V40H519.232L519.048 32.916L519.922 33.1C519.554 35.5533 518.68 37.4087 517.3 38.666C515.92 39.9233 514.064 40.552 511.734 40.552ZM531.579 40V15.344H537.789L538.065 22.566L537.191 22.336C537.436 20.496 537.927 19.024 538.663 17.92C539.43 16.816 540.38 16.0187 541.515 15.528C542.65 15.0373 543.892 14.792 545.241 14.792C547.02 14.792 548.522 15.1753 549.749 15.942C551.006 16.7087 551.957 17.7973 552.601 19.208C553.276 20.588 553.613 22.2287 553.613 24.13V40H546.713V26.43C546.713 25.1113 546.606 23.992 546.391 23.072C546.176 22.152 545.793 21.462 545.241 21.002C544.689 20.5113 543.922 20.266 542.941 20.266C541.5 20.266 540.396 20.8027 539.629 21.876C538.862 22.9187 538.479 24.4367 538.479 26.43V40H531.579ZM567.902 40.552C565.817 40.552 564.007 40.0307 562.474 38.988C560.971 37.9147 559.806 36.4273 558.978 34.526C558.181 32.594 557.782 30.3093 557.782 27.672C557.782 25.0347 558.196 22.7653 559.024 20.864C559.852 18.932 561.017 17.4447 562.52 16.402C564.053 15.3287 565.847 14.792 567.902 14.792C569.65 14.792 571.153 15.16 572.41 15.896C573.698 16.6013 574.664 17.5827 575.308 18.84V7.34H582.208V40H575.63L575.492 36.366C574.817 37.6847 573.805 38.712 572.456 39.448C571.137 40.184 569.619 40.552 567.902 40.552ZM570.156 35.262C571.26 35.262 572.195 34.9707 572.962 34.388C573.729 33.8053 574.311 32.962 574.71 31.858C575.109 30.7233 575.308 29.328 575.308 27.672C575.308 25.9853 575.109 24.59 574.71 23.486C574.311 22.3513 573.729 21.508 572.962 20.956C572.195 20.3733 571.26 20.082 570.156 20.082C568.531 20.082 567.243 20.772 566.292 22.152C565.341 23.5013 564.866 25.3413 564.866 27.672C564.866 29.972 565.341 31.812 566.292 33.192C567.273 34.572 568.561 35.262 570.156 35.262ZM595.135 40.552C592.59 40.552 590.504 39.9693 588.879 38.804C587.284 37.608 586.487 35.952 586.487 33.836C586.487 31.6587 587.162 29.9873 588.511 28.822C589.891 27.626 591.915 26.752 594.583 26.2L602.541 24.636C602.541 23.0413 602.173 21.8453 601.437 21.048C600.732 20.22 599.704 19.806 598.355 19.806C597.036 19.806 596.009 20.1127 595.273 20.726C594.537 21.3087 594.062 22.1827 593.847 23.348L586.901 23.026C587.361 20.3273 588.572 18.288 590.535 16.908C592.528 15.4973 595.135 14.792 598.355 14.792C602.035 14.792 604.795 15.666 606.635 17.414C608.506 19.162 609.441 21.7227 609.441 25.096V33.514C609.441 34.2193 609.548 34.6947 609.763 34.94C610.008 35.1547 610.361 35.262 610.821 35.262H611.511V40C611.296 40.0613 610.944 40.1227 610.453 40.184C609.993 40.2453 609.533 40.276 609.073 40.276C608.092 40.276 607.172 40.1073 606.313 39.77C605.485 39.4327 604.81 38.8653 604.289 38.068C603.768 37.24 603.507 36.0747 603.507 34.572L604.105 35.032C603.798 36.136 603.246 37.102 602.449 37.93C601.682 38.758 600.67 39.402 599.413 39.862C598.186 40.322 596.76 40.552 595.135 40.552ZM596.791 35.814C597.926 35.814 598.922 35.5993 599.781 35.17C600.64 34.71 601.314 34.0507 601.805 33.192C602.296 32.3333 602.541 31.3213 602.541 30.156V28.96L596.929 30.156C595.825 30.3707 594.982 30.7387 594.399 31.26C593.847 31.7507 593.571 32.3947 593.571 33.192C593.571 34.02 593.847 34.664 594.399 35.124C594.951 35.584 595.748 35.814 596.791 35.814ZM615.134 40V15.344H621.344L621.62 22.566L620.746 22.336C620.991 20.496 621.482 19.024 622.218 17.92C622.984 16.816 623.935 16.0187 625.07 15.528C626.204 15.0373 627.446 14.792 628.796 14.792C630.574 14.792 632.077 15.1753 633.304 15.942C634.561 16.7087 635.512 17.7973 636.156 19.208C636.83 20.588 637.168 22.2287 637.168 24.13V40H630.268V26.43C630.268 25.1113 630.16 23.992 629.946 23.072C629.731 22.152 629.348 21.462 628.796 21.002C628.244 20.5113 627.477 20.266 626.496 20.266C625.054 20.266 623.95 20.8027 623.184 21.876C622.417 22.9187 622.034 24.4367 622.034 26.43V40H615.134ZM653.849 40.552C651.334 40.552 649.141 40.0307 647.271 38.988C645.4 37.9147 643.943 36.412 642.901 34.48C641.858 32.548 641.337 30.2787 641.337 27.672C641.337 25.0653 641.858 22.8113 642.901 20.91C643.943 18.978 645.4 17.4753 647.271 16.402C649.141 15.3287 651.334 14.792 653.849 14.792C656.026 14.792 657.973 15.1753 659.691 15.942C661.439 16.7087 662.849 17.8127 663.923 19.254C664.996 20.6953 665.655 22.428 665.901 24.452L658.771 24.774C658.556 23.2407 658.004 22.0907 657.115 21.324C656.256 20.5267 655.167 20.128 653.849 20.128C652.131 20.128 650.797 20.7873 649.847 22.106C648.896 23.4247 648.421 25.28 648.421 27.672C648.421 30.064 648.896 31.9347 649.847 33.284C650.797 34.6027 652.131 35.262 653.849 35.262C655.167 35.262 656.271 34.8633 657.161 34.066C658.05 33.238 658.587 31.996 658.771 30.34L665.901 30.616C665.686 32.64 665.042 34.4033 663.969 35.906C662.926 37.378 661.531 38.528 659.783 39.356C658.065 40.1533 656.087 40.552 653.849 40.552ZM680.8 40.552C678.285 40.552 676.092 40.0307 674.222 38.988C672.382 37.9147 670.94 36.412 669.898 34.48C668.886 32.548 668.38 30.2787 668.38 27.672C668.38 25.0653 668.886 22.8113 669.898 20.91C670.94 18.978 672.382 17.4753 674.222 16.402C676.062 15.3287 678.239 14.792 680.754 14.792C683.207 14.792 685.338 15.3287 687.148 16.402C688.957 17.4753 690.352 19.0087 691.334 21.002C692.346 22.9953 692.852 25.372 692.852 28.132V29.512H675.51C675.602 31.4747 676.123 32.9313 677.074 33.882C678.055 34.8327 679.343 35.308 680.938 35.308C682.103 35.308 683.069 35.0627 683.836 34.572C684.633 34.0813 685.2 33.33 685.538 32.318L692.484 32.732C691.84 35.1853 690.475 37.102 688.39 38.482C686.304 39.862 683.774 40.552 680.8 40.552ZM675.51 25.28H685.768C685.676 23.4707 685.17 22.1213 684.25 21.232C683.36 20.3427 682.195 19.898 680.754 19.898C679.312 19.898 678.116 20.3733 677.166 21.324C676.246 22.244 675.694 23.5627 675.51 25.28ZM708.4 40V7.34H717.738L726.064 31.122L734.344 7.34H743.682V40H736.69V18.84L729.008 39.908H723.028L715.392 18.84V40H708.4ZM756.989 40.552C754.443 40.552 752.358 39.9693 750.733 38.804C749.138 37.608 748.341 35.952 748.341 33.836C748.341 31.6587 749.015 29.9873 750.365 28.822C751.745 27.626 753.769 26.752 756.437 26.2L764.395 24.636C764.395 23.0413 764.027 21.8453 763.291 21.048C762.585 20.22 761.558 19.806 760.209 19.806C758.89 19.806 757.863 20.1127 757.127 20.726C756.391 21.3087 755.915 22.1827 755.701 23.348L748.755 23.026C749.215 20.3273 750.426 18.288 752.389 16.908C754.382 15.4973 756.989 14.792 760.209 14.792C763.889 14.792 766.649 15.666 768.489 17.414C770.359 19.162 771.295 21.7227 771.295 25.096V33.514C771.295 34.2193 771.402 34.6947 771.617 34.94C771.862 35.1547 772.215 35.262 772.675 35.262H773.365V40C773.15 40.0613 772.797 40.1227 772.307 40.184C771.847 40.2453 771.387 40.276 770.927 40.276C769.945 40.276 769.025 40.1073 768.167 39.77C767.339 39.4327 766.664 38.8653 766.143 38.068C765.621 37.24 765.361 36.0747 765.361 34.572L765.959 35.032C765.652 36.136 765.1 37.102 764.303 37.93C763.536 38.758 762.524 39.402 761.267 39.862C760.04 40.322 758.614 40.552 756.989 40.552ZM758.645 35.814C759.779 35.814 760.776 35.5993 761.635 35.17C762.493 34.71 763.168 34.0507 763.659 33.192C764.149 32.3333 764.395 31.3213 764.395 30.156V28.96L758.783 30.156C757.679 30.3707 756.835 30.7387 756.253 31.26C755.701 31.7507 755.425 32.3947 755.425 33.192C755.425 34.02 755.701 34.664 756.253 35.124C756.805 35.584 757.602 35.814 758.645 35.814ZM787.716 40.552C785.201 40.552 783.009 40.0307 781.138 38.988C779.267 37.9147 777.811 36.412 776.768 34.48C775.725 32.548 775.204 30.2787 775.204 27.672C775.204 25.0653 775.725 22.8113 776.768 20.91C777.811 18.978 779.267 17.4753 781.138 16.402C783.009 15.3287 785.201 14.792 787.716 14.792C789.893 14.792 791.841 15.1753 793.558 15.942C795.306 16.7087 796.717 17.8127 797.79 19.254C798.863 20.6953 799.523 22.428 799.768 24.452L792.638 24.774C792.423 23.2407 791.871 22.0907 790.982 21.324C790.123 20.5267 789.035 20.128 787.716 20.128C785.999 20.128 784.665 20.7873 783.714 22.106C782.763 23.4247 782.288 25.28 782.288 27.672C782.288 30.064 782.763 31.9347 783.714 33.284C784.665 34.6027 785.999 35.262 787.716 35.262C789.035 35.262 790.139 34.8633 791.028 34.066C791.917 33.238 792.454 31.996 792.638 30.34L799.768 30.616C799.553 32.64 798.909 34.4033 797.836 35.906C796.793 37.378 795.398 38.528 793.65 39.356C791.933 40.1533 789.955 40.552 787.716 40.552ZM803.581 40V7.34H810.481V21.094H809.561C809.806 19.6527 810.282 18.472 810.987 17.552C811.723 16.632 812.628 15.942 813.701 15.482C814.805 15.022 816.001 14.792 817.289 14.792C819.129 14.792 820.662 15.1907 821.889 15.988C823.116 16.7853 824.036 17.8893 824.649 19.3C825.293 20.7107 825.615 22.3207 825.615 24.13V40H818.715V25.786C818.715 23.946 818.424 22.566 817.841 21.646C817.289 20.726 816.338 20.266 814.989 20.266C813.578 20.266 812.474 20.7413 811.677 21.692C810.88 22.6427 810.481 24.0687 810.481 25.97V40H803.581ZM831.298 40V15.344H838.198V40H831.298ZM831.16 12.308V6.788H838.29V12.308H831.16ZM844.55 40V15.344H850.76L851.036 22.566L850.162 22.336C850.407 20.496 850.898 19.024 851.634 17.92C852.4 16.816 853.351 16.0187 854.486 15.528C855.62 15.0373 856.862 14.792 858.212 14.792C859.99 14.792 861.493 15.1753 862.72 15.942C863.977 16.7087 864.928 17.7973 865.572 19.208C866.246 20.588 866.584 22.2287 866.584 24.13V40H859.684V26.43C859.684 25.1113 859.576 23.992 859.362 23.072C859.147 22.152 858.764 21.462 858.212 21.002C857.66 20.5113 856.893 20.266 855.912 20.266C854.47 20.266 853.366 20.8027 852.6 21.876C851.833 22.9187 851.45 24.4367 851.45 26.43V40H844.55ZM883.173 40.552C880.658 40.552 878.465 40.0307 876.595 38.988C874.755 37.9147 873.313 36.412 872.271 34.48C871.259 32.548 870.753 30.2787 870.753 27.672C870.753 25.0653 871.259 22.8113 872.271 20.91C873.313 18.978 874.755 17.4753 876.595 16.402C878.435 15.3287 880.612 14.792 883.127 14.792C885.58 14.792 887.711 15.3287 889.521 16.402C891.33 17.4753 892.725 19.0087 893.707 21.002C894.719 22.9953 895.225 25.372 895.225 28.132V29.512H877.883C877.975 31.4747 878.496 32.9313 879.447 33.882C880.428 34.8327 881.716 35.308 883.311 35.308C884.476 35.308 885.442 35.0627 886.209 34.572C887.006 34.0813 887.573 33.33 887.911 32.318L894.857 32.732C894.213 35.1853 892.848 37.102 890.763 38.482C888.677 39.862 886.147 40.552 883.173 40.552ZM877.883 25.28H888.141C888.049 23.4707 887.543 22.1213 886.623 21.232C885.733 20.3427 884.568 19.898 883.127 19.898C881.685 19.898 880.489 20.3733 879.539 21.324C878.619 22.244 878.067 23.5627 877.883 25.28Z" fill="#F500FF"/>
<path d="M13.5017 41V8.34H22.8397L31.1657 32.122L39.4457 8.34H48.7837V41H41.7917V19.84L34.1097 40.908H28.1297L20.4937 19.84V41H13.5017ZM62.0902 41.552C59.5449 41.552 57.4596 40.9693 55.8342 39.804C54.2396 38.608 53.4422 36.952 53.4422 34.836C53.4422 32.6587 54.1169 30.9873 55.4662 29.822C56.8462 28.626 58.8702 27.752 61.5382 27.2L69.4962 25.636C69.4962 24.0413 69.1282 22.8453 68.3922 22.048C67.6869 21.22 66.6596 20.806 65.3102 20.806C63.9916 20.806 62.9642 21.1127 62.2282 21.726C61.4922 22.3087 61.0169 23.1827 60.8022 24.348L53.8562 24.026C54.3162 21.3273 55.5276 19.288 57.4902 17.908C59.4836 16.4973 62.0902 15.792 65.3102 15.792C68.9902 15.792 71.7502 16.666 73.5902 18.414C75.4609 20.162 76.3962 22.7227 76.3962 26.096V34.514C76.3962 35.2193 76.5036 35.6947 76.7182 35.94C76.9636 36.1547 77.3162 36.262 77.7762 36.262H78.4662V41C78.2516 41.0613 77.8989 41.1227 77.4082 41.184C76.9482 41.2453 76.4882 41.276 76.0282 41.276C75.0469 41.276 74.1269 41.1073 73.2682 40.77C72.4402 40.4327 71.7656 39.8653 71.2442 39.068C70.7229 38.24 70.4622 37.0747 70.4622 35.572L71.0602 36.032C70.7536 37.136 70.2016 38.102 69.4042 38.93C68.6376 39.758 67.6256 40.402 66.3682 40.862C65.1416 41.322 63.7156 41.552 62.0902 41.552ZM63.7462 36.814C64.8809 36.814 65.8776 36.5993 66.7362 36.17C67.5949 35.71 68.2696 35.0507 68.7602 34.192C69.2509 33.3333 69.4962 32.3213 69.4962 31.156V29.96L63.8842 31.156C62.7802 31.3707 61.9369 31.7387 61.3542 32.26C60.8022 32.7507 60.5262 33.3947 60.5262 34.192C60.5262 35.02 60.8022 35.664 61.3542 36.124C61.9062 36.584 62.7036 36.814 63.7462 36.814ZM90.9531 41C88.4077 41 86.5371 40.4173 85.3411 39.252C84.1451 38.056 83.5471 36.17 83.5471 33.594V10.548H90.4471V32.766C90.4471 33.962 90.6924 34.7747 91.1831 35.204C91.7044 35.6333 92.4711 35.848 93.4831 35.848H96.9331V41H90.9531ZM79.5911 21.496V16.344H96.9331V21.496H79.5911ZM101.001 41V8.34H107.901V22.094H106.981C107.226 20.6527 107.702 19.472 108.407 18.552C109.143 17.632 110.048 16.942 111.121 16.482C112.225 16.022 113.421 15.792 114.709 15.792C116.549 15.792 118.082 16.1907 119.309 16.988C120.536 17.7853 121.456 18.8893 122.069 20.3C122.713 21.7107 123.035 23.3207 123.035 25.13V41H116.135V26.786C116.135 24.946 115.844 23.566 115.261 22.646C114.709 21.726 113.758 21.266 112.409 21.266C110.998 21.266 109.894 21.7413 109.097 22.692C108.3 23.6427 107.901 25.0687 107.901 26.97V41H101.001ZM139.072 41.552C136.527 41.552 134.395 41.1993 132.678 40.494C130.961 39.758 129.642 38.7767 128.722 37.55C127.833 36.2927 127.327 34.8513 127.204 33.226L134.196 32.996C134.411 34.1613 134.901 35.066 135.668 35.71C136.435 36.354 137.569 36.676 139.072 36.676C140.299 36.676 141.249 36.4767 141.924 36.078C142.629 35.6793 142.982 35.066 142.982 34.238C142.982 33.7167 142.859 33.2873 142.614 32.95C142.369 32.582 141.878 32.2753 141.142 32.03C140.437 31.754 139.379 31.5087 137.968 31.294C135.361 30.834 133.322 30.2973 131.85 29.684C130.378 29.0707 129.335 28.2733 128.722 27.292C128.109 26.3107 127.802 25.1147 127.802 23.704C127.802 21.3427 128.707 19.4413 130.516 18C132.356 16.528 135.101 15.792 138.75 15.792C141.081 15.792 143.028 16.16 144.592 16.896C146.187 17.632 147.413 18.644 148.272 19.932C149.161 21.1893 149.713 22.6307 149.928 24.256L142.982 24.532C142.89 23.7347 142.645 23.06 142.246 22.508C141.878 21.9253 141.403 21.4807 140.82 21.174C140.237 20.8367 139.532 20.668 138.704 20.668C137.477 20.668 136.527 20.9287 135.852 21.45C135.208 21.9407 134.886 22.6 134.886 23.428C134.886 24.0413 135.024 24.5473 135.3 24.946C135.607 25.314 136.097 25.6207 136.772 25.866C137.447 26.1113 138.351 26.3107 139.486 26.464C142.123 26.832 144.209 27.3533 145.742 28.028C147.306 28.672 148.425 29.4847 149.1 30.466C149.775 31.4473 150.112 32.6587 150.112 34.1C150.112 35.6947 149.652 37.044 148.732 38.148C147.812 39.252 146.524 40.0953 144.868 40.678C143.243 41.2607 141.311 41.552 139.072 41.552ZM154.368 47.9V16.344H160.992L161.13 21.542L160.578 21.312C161.191 19.5333 162.188 18.1687 163.568 17.218C164.948 16.2673 166.558 15.792 168.398 15.792C170.698 15.792 172.615 16.3593 174.148 17.494C175.681 18.6287 176.831 20.1773 177.598 22.14C178.395 24.072 178.794 26.2493 178.794 28.672C178.794 31.064 178.395 33.2413 177.598 35.204C176.831 37.1667 175.666 38.7153 174.102 39.85C172.569 40.9847 170.652 41.552 168.352 41.552C167.156 41.552 166.037 41.3373 164.994 40.908C163.951 40.448 163.047 39.8193 162.28 39.022C161.544 38.2247 161.007 37.274 160.67 36.17L161.268 35.802V47.9H154.368ZM166.466 36.262C168.091 36.262 169.364 35.5873 170.284 34.238C171.235 32.8887 171.71 31.0333 171.71 28.672C171.71 26.3107 171.235 24.4553 170.284 23.106C169.364 21.7567 168.091 21.082 166.466 21.082C165.393 21.082 164.457 21.3733 163.66 21.956C162.893 22.508 162.295 23.3513 161.866 24.486C161.467 25.6207 161.268 27.016 161.268 28.672C161.268 30.328 161.467 31.7233 161.866 32.858C162.295 33.9927 162.893 34.8513 163.66 35.434C164.457 35.986 165.393 36.262 166.466 36.262ZM189.738 41C187.714 41 186.134 40.494 185 39.482C183.865 38.47 183.298 36.8293 183.298 34.56V8.34H190.198V33.824C190.198 34.56 190.366 35.0813 190.704 35.388C191.041 35.6947 191.532 35.848 192.176 35.848H193.832V41H189.738ZM204.942 41.552C202.396 41.552 200.311 40.9693 198.686 39.804C197.091 38.608 196.294 36.952 196.294 34.836C196.294 32.6587 196.968 30.9873 198.318 29.822C199.698 28.626 201.722 27.752 204.39 27.2L212.348 25.636C212.348 24.0413 211.98 22.8453 211.244 22.048C210.538 21.22 209.511 20.806 208.162 20.806C206.843 20.806 205.816 21.1127 205.08 21.726C204.344 22.3087 203.868 23.1827 203.654 24.348L196.708 24.026C197.168 21.3273 198.379 19.288 200.342 17.908C202.335 16.4973 204.942 15.792 208.162 15.792C211.842 15.792 214.602 16.666 216.442 18.414C218.312 20.162 219.248 22.7227 219.248 26.096V34.514C219.248 35.2193 219.355 35.6947 219.57 35.94C219.815 36.1547 220.168 36.262 220.628 36.262H221.318V41C221.103 41.0613 220.75 41.1227 220.26 41.184C219.8 41.2453 219.34 41.276 218.88 41.276C217.898 41.276 216.978 41.1073 216.12 40.77C215.292 40.4327 214.617 39.8653 214.096 39.068C213.574 38.24 213.314 37.0747 213.314 35.572L213.912 36.032C213.605 37.136 213.053 38.102 212.256 38.93C211.489 39.758 210.477 40.402 209.22 40.862C207.993 41.322 206.567 41.552 204.942 41.552ZM206.598 36.814C207.732 36.814 208.729 36.5993 209.588 36.17C210.446 35.71 211.121 35.0507 211.612 34.192C212.102 33.3333 212.348 32.3213 212.348 31.156V29.96L206.736 31.156C205.632 31.3707 204.788 31.7387 204.206 32.26C203.654 32.7507 203.378 33.3947 203.378 34.192C203.378 35.02 203.654 35.664 204.206 36.124C204.758 36.584 205.555 36.814 206.598 36.814ZM224.581 41V16.344H231.481V41H224.581ZM224.443 13.308V7.788H231.573V13.308H224.443ZM237.833 41V16.344H244.043L244.319 23.566L243.445 23.336C243.69 21.496 244.181 20.024 244.917 18.92C245.684 17.816 246.634 17.0187 247.769 16.528C248.904 16.0373 250.146 15.792 251.495 15.792C253.274 15.792 254.776 16.1753 256.003 16.942C257.26 17.7087 258.211 18.7973 258.855 20.208C259.53 21.588 259.867 23.2287 259.867 25.13V41H252.967V27.43C252.967 26.1113 252.86 24.992 252.645 24.072C252.43 23.152 252.047 22.462 251.495 22.002C250.943 21.5113 250.176 21.266 249.195 21.266C247.754 21.266 246.65 21.8027 245.883 22.876C245.116 23.9187 244.733 25.4367 244.733 27.43V41H237.833ZM265.55 41V16.344H272.45V41H265.55ZM265.412 13.308V7.788H272.542V13.308H265.412ZM278.802 41V16.344H285.012L285.288 23.566L284.414 23.336C284.659 21.496 285.15 20.024 285.886 18.92C286.652 17.816 287.603 17.0187 288.738 16.528C289.872 16.0373 291.114 15.792 292.464 15.792C294.242 15.792 295.745 16.1753 296.972 16.942C298.229 17.7087 299.18 18.7973 299.824 20.208C300.498 21.588 300.836 23.2287 300.836 25.13V41H293.936V27.43C293.936 26.1113 293.828 24.992 293.614 24.072C293.399 23.152 293.016 22.462 292.464 22.002C291.912 21.5113 291.145 21.266 290.164 21.266C288.722 21.266 287.618 21.8027 286.852 22.876C286.085 23.9187 285.702 25.4367 285.702 27.43V41H278.802ZM317.379 48.452C315.017 48.452 313.039 48.1607 311.445 47.578C309.881 46.9953 308.623 46.1827 307.673 45.14C306.753 44.0973 306.109 42.9013 305.741 41.552L312.825 41.046C313.07 41.8433 313.53 42.472 314.205 42.932C314.91 43.392 315.968 43.622 317.379 43.622C319.035 43.622 320.292 43.2233 321.151 42.426C322.04 41.6593 322.485 40.4173 322.485 38.7V36.078C321.902 37.2127 320.967 38.1327 319.679 38.838C318.391 39.5127 316.949 39.85 315.355 39.85C313.331 39.85 311.537 39.3593 309.973 38.378C308.409 37.366 307.182 35.9707 306.293 34.192C305.434 32.3827 305.005 30.2667 305.005 27.844C305.005 25.4827 305.434 23.3973 306.293 21.588C307.182 19.7787 308.393 18.368 309.927 17.356C311.491 16.3133 313.269 15.792 315.263 15.792C317.072 15.792 318.59 16.1907 319.817 16.988C321.074 17.7853 322.025 18.8433 322.669 20.162V16.344H329.431V38.562C329.431 40.77 328.925 42.5947 327.913 44.036C326.901 45.508 325.49 46.612 323.681 47.348C321.871 48.084 319.771 48.452 317.379 48.452ZM317.333 34.744C318.927 34.744 320.185 34.1307 321.105 32.904C322.055 31.6773 322.531 29.9753 322.531 27.798C322.531 26.3567 322.316 25.1147 321.887 24.072C321.488 23.0293 320.89 22.232 320.093 21.68C319.326 21.128 318.406 20.852 317.333 20.852C315.677 20.852 314.389 21.4807 313.469 22.738C312.549 23.9953 312.089 25.682 312.089 27.798C312.089 29.9447 312.564 31.6467 313.515 32.904C314.465 34.1307 315.738 34.744 317.333 34.744ZM353.182 41V14.228H343.43V8.34H370.018V14.228H360.22V41H353.182ZM372.643 41V8.34H379.543V22.094H378.623C378.869 20.6527 379.344 19.472 380.049 18.552C380.785 17.632 381.69 16.942 382.763 16.482C383.867 16.022 385.063 15.792 386.351 15.792C388.191 15.792 389.725 16.1907 390.951 16.988C392.178 17.7853 393.098 18.8893 393.711 20.3C394.355 21.7107 394.677 23.3207 394.677 25.13V41H387.777V26.786C387.777 24.946 387.486 23.566 386.903 22.646C386.351 21.726 385.401 21.266 384.051 21.266C382.641 21.266 381.537 21.7413 380.739 22.692C379.942 23.6427 379.543 25.0687 379.543 26.97V41H372.643ZM411.267 41.552C408.752 41.552 406.559 41.0307 404.689 39.988C402.849 38.9147 401.407 37.412 400.365 35.48C399.353 33.548 398.847 31.2787 398.847 28.672C398.847 26.0653 399.353 23.8113 400.365 21.91C401.407 19.978 402.849 18.4753 404.689 17.402C406.529 16.3287 408.706 15.792 411.221 15.792C413.674 15.792 415.805 16.3287 417.615 17.402C419.424 18.4753 420.819 20.0087 421.801 22.002C422.813 23.9953 423.319 26.372 423.319 29.132V30.512H405.977C406.069 32.4747 406.59 33.9313 407.541 34.882C408.522 35.8327 409.81 36.308 411.405 36.308C412.57 36.308 413.536 36.0627 414.303 35.572C415.1 35.0813 415.667 34.33 416.005 33.318L422.951 33.732C422.307 36.1853 420.942 38.102 418.857 39.482C416.771 40.862 414.241 41.552 411.267 41.552ZM405.977 26.28H416.235C416.143 24.4707 415.637 23.1213 414.717 22.232C413.827 21.3427 412.662 20.898 411.221 20.898C409.779 20.898 408.583 21.3733 407.633 22.324C406.713 23.244 406.161 24.5627 405.977 26.28ZM436.337 41L448.113 8.34H456.393L468.169 41H460.901L458.509 34.054H445.951L443.559 41H436.337ZM447.929 28.304H456.577L452.253 15.7L447.929 28.304ZM485.1 41.552C483.383 41.552 481.88 41.184 480.592 40.448C479.335 39.712 478.354 38.6847 477.648 37.366L477.51 41H470.932V8.34H477.832V19.84C478.476 18.7053 479.427 17.7547 480.684 16.988C481.942 16.1907 483.414 15.792 485.1 15.792C487.186 15.792 488.995 16.3287 490.528 17.402C492.062 18.4447 493.242 19.932 494.07 21.864C494.929 23.796 495.358 26.0653 495.358 28.672C495.358 31.2787 494.929 33.548 494.07 35.48C493.242 37.412 492.062 38.9147 490.528 39.988C488.995 41.0307 487.186 41.552 485.1 41.552ZM483.168 36.262C484.702 36.262 485.928 35.6027 486.848 34.284C487.799 32.9347 488.274 31.064 488.274 28.672C488.274 26.28 487.814 24.4247 486.894 23.106C485.974 21.7567 484.748 21.082 483.214 21.082C482.08 21.082 481.098 21.3887 480.27 22.002C479.473 22.5847 478.86 23.4433 478.43 24.578C478.032 25.7127 477.832 27.0773 477.832 28.672C477.832 30.236 478.032 31.5853 478.43 32.72C478.86 33.8547 479.473 34.7287 480.27 35.342C481.098 35.9553 482.064 36.262 483.168 36.262ZM507.734 41.552C505.188 41.552 503.195 40.7393 501.754 39.114C500.343 37.458 499.638 35.158 499.638 32.214V16.344H506.538V30.604C506.538 32.5053 506.829 33.9007 507.412 34.79C507.994 35.6487 508.914 36.078 510.172 36.078C511.582 36.078 512.671 35.6027 513.438 34.652C514.235 33.6707 514.634 32.214 514.634 30.282V16.344H521.534V41H515.232L515.048 33.916L515.922 34.1C515.554 36.5533 514.68 38.4087 513.3 39.666C511.92 40.9233 510.064 41.552 507.734 41.552ZM527.579 41V16.344H533.789L534.065 23.566L533.191 23.336C533.436 21.496 533.927 20.024 534.663 18.92C535.43 17.816 536.38 17.0187 537.515 16.528C538.65 16.0373 539.892 15.792 541.241 15.792C543.02 15.792 544.522 16.1753 545.749 16.942C547.006 17.7087 547.957 18.7973 548.601 20.208C549.276 21.588 549.613 23.2287 549.613 25.13V41H542.713V27.43C542.713 26.1113 542.606 24.992 542.391 24.072C542.176 23.152 541.793 22.462 541.241 22.002C540.689 21.5113 539.922 21.266 538.941 21.266C537.5 21.266 536.396 21.8027 535.629 22.876C534.862 23.9187 534.479 25.4367 534.479 27.43V41H527.579ZM563.902 41.552C561.817 41.552 560.007 41.0307 558.474 39.988C556.971 38.9147 555.806 37.4273 554.978 35.526C554.181 33.594 553.782 31.3093 553.782 28.672C553.782 26.0347 554.196 23.7653 555.024 21.864C555.852 19.932 557.017 18.4447 558.52 17.402C560.053 16.3287 561.847 15.792 563.902 15.792C565.65 15.792 567.153 16.16 568.41 16.896C569.698 17.6013 570.664 18.5827 571.308 19.84V8.34H578.208V41H571.63L571.492 37.366C570.817 38.6847 569.805 39.712 568.456 40.448C567.137 41.184 565.619 41.552 563.902 41.552ZM566.156 36.262C567.26 36.262 568.195 35.9707 568.962 35.388C569.729 34.8053 570.311 33.962 570.71 32.858C571.109 31.7233 571.308 30.328 571.308 28.672C571.308 26.9853 571.109 25.59 570.71 24.486C570.311 23.3513 569.729 22.508 568.962 21.956C568.195 21.3733 567.26 21.082 566.156 21.082C564.531 21.082 563.243 21.772 562.292 23.152C561.341 24.5013 560.866 26.3413 560.866 28.672C560.866 30.972 561.341 32.812 562.292 34.192C563.273 35.572 564.561 36.262 566.156 36.262ZM591.135 41.552C588.59 41.552 586.504 40.9693 584.879 39.804C583.284 38.608 582.487 36.952 582.487 34.836C582.487 32.6587 583.162 30.9873 584.511 29.822C585.891 28.626 587.915 27.752 590.583 27.2L598.541 25.636C598.541 24.0413 598.173 22.8453 597.437 22.048C596.732 21.22 595.704 20.806 594.355 20.806C593.036 20.806 592.009 21.1127 591.273 21.726C590.537 22.3087 590.062 23.1827 589.847 24.348L582.901 24.026C583.361 21.3273 584.572 19.288 586.535 17.908C588.528 16.4973 591.135 15.792 594.355 15.792C598.035 15.792 600.795 16.666 602.635 18.414C604.506 20.162 605.441 22.7227 605.441 26.096V34.514C605.441 35.2193 605.548 35.6947 605.763 35.94C606.008 36.1547 606.361 36.262 606.821 36.262H607.511V41C607.296 41.0613 606.944 41.1227 606.453 41.184C605.993 41.2453 605.533 41.276 605.073 41.276C604.092 41.276 603.172 41.1073 602.313 40.77C601.485 40.4327 600.81 39.8653 600.289 39.068C599.768 38.24 599.507 37.0747 599.507 35.572L600.105 36.032C599.798 37.136 599.246 38.102 598.449 38.93C597.682 39.758 596.67 40.402 595.413 40.862C594.186 41.322 592.76 41.552 591.135 41.552ZM592.791 36.814C593.926 36.814 594.922 36.5993 595.781 36.17C596.64 35.71 597.314 35.0507 597.805 34.192C598.296 33.3333 598.541 32.3213 598.541 31.156V29.96L592.929 31.156C591.825 31.3707 590.982 31.7387 590.399 32.26C589.847 32.7507 589.571 33.3947 589.571 34.192C589.571 35.02 589.847 35.664 590.399 36.124C590.951 36.584 591.748 36.814 592.791 36.814ZM611.134 41V16.344H617.344L617.62 23.566L616.746 23.336C616.991 21.496 617.482 20.024 618.218 18.92C618.984 17.816 619.935 17.0187 621.07 16.528C622.204 16.0373 623.446 15.792 624.796 15.792C626.574 15.792 628.077 16.1753 629.304 16.942C630.561 17.7087 631.512 18.7973 632.156 20.208C632.83 21.588 633.168 23.2287 633.168 25.13V41H626.268V27.43C626.268 26.1113 626.16 24.992 625.946 24.072C625.731 23.152 625.348 22.462 624.796 22.002C624.244 21.5113 623.477 21.266 622.496 21.266C621.054 21.266 619.95 21.8027 619.184 22.876C618.417 23.9187 618.034 25.4367 618.034 27.43V41H611.134ZM649.849 41.552C647.334 41.552 645.141 41.0307 643.271 39.988C641.4 38.9147 639.943 37.412 638.901 35.48C637.858 33.548 637.337 31.2787 637.337 28.672C637.337 26.0653 637.858 23.8113 638.901 21.91C639.943 19.978 641.4 18.4753 643.271 17.402C645.141 16.3287 647.334 15.792 649.849 15.792C652.026 15.792 653.973 16.1753 655.691 16.942C657.439 17.7087 658.849 18.8127 659.923 20.254C660.996 21.6953 661.655 23.428 661.901 25.452L654.771 25.774C654.556 24.2407 654.004 23.0907 653.115 22.324C652.256 21.5267 651.167 21.128 649.849 21.128C648.131 21.128 646.797 21.7873 645.847 23.106C644.896 24.4247 644.421 26.28 644.421 28.672C644.421 31.064 644.896 32.9347 645.847 34.284C646.797 35.6027 648.131 36.262 649.849 36.262C651.167 36.262 652.271 35.8633 653.161 35.066C654.05 34.238 654.587 32.996 654.771 31.34L661.901 31.616C661.686 33.64 661.042 35.4033 659.969 36.906C658.926 38.378 657.531 39.528 655.783 40.356C654.065 41.1533 652.087 41.552 649.849 41.552ZM676.8 41.552C674.285 41.552 672.092 41.0307 670.222 39.988C668.382 38.9147 666.94 37.412 665.898 35.48C664.886 33.548 664.38 31.2787 664.38 28.672C664.38 26.0653 664.886 23.8113 665.898 21.91C666.94 19.978 668.382 18.4753 670.222 17.402C672.062 16.3287 674.239 15.792 676.754 15.792C679.207 15.792 681.338 16.3287 683.148 17.402C684.957 18.4753 686.352 20.0087 687.334 22.002C688.346 23.9953 688.852 26.372 688.852 29.132V30.512H671.51C671.602 32.4747 672.123 33.9313 673.074 34.882C674.055 35.8327 675.343 36.308 676.938 36.308C678.103 36.308 679.069 36.0627 679.836 35.572C680.633 35.0813 681.2 34.33 681.538 33.318L688.484 33.732C687.84 36.1853 686.475 38.102 684.39 39.482C682.304 40.862 679.774 41.552 676.8 41.552ZM671.51 26.28H681.768C681.676 24.4707 681.17 23.1213 680.25 22.232C679.36 21.3427 678.195 20.898 676.754 20.898C675.312 20.898 674.116 21.3733 673.166 22.324C672.246 23.244 671.694 24.5627 671.51 26.28ZM704.4 41V8.34H713.738L722.064 32.122L730.344 8.34H739.682V41H732.69V19.84L725.008 40.908H719.028L711.392 19.84V41H704.4ZM752.989 41.552C750.443 41.552 748.358 40.9693 746.733 39.804C745.138 38.608 744.341 36.952 744.341 34.836C744.341 32.6587 745.015 30.9873 746.365 29.822C747.745 28.626 749.769 27.752 752.437 27.2L760.395 25.636C760.395 24.0413 760.027 22.8453 759.291 22.048C758.585 21.22 757.558 20.806 756.209 20.806C754.89 20.806 753.863 21.1127 753.127 21.726C752.391 22.3087 751.915 23.1827 751.701 24.348L744.755 24.026C745.215 21.3273 746.426 19.288 748.389 17.908C750.382 16.4973 752.989 15.792 756.209 15.792C759.889 15.792 762.649 16.666 764.489 18.414C766.359 20.162 767.295 22.7227 767.295 26.096V34.514C767.295 35.2193 767.402 35.6947 767.617 35.94C767.862 36.1547 768.215 36.262 768.675 36.262H769.365V41C769.15 41.0613 768.797 41.1227 768.307 41.184C767.847 41.2453 767.387 41.276 766.927 41.276C765.945 41.276 765.025 41.1073 764.167 40.77C763.339 40.4327 762.664 39.8653 762.143 39.068C761.621 38.24 761.361 37.0747 761.361 35.572L761.959 36.032C761.652 37.136 761.1 38.102 760.303 38.93C759.536 39.758 758.524 40.402 757.267 40.862C756.04 41.322 754.614 41.552 752.989 41.552ZM754.645 36.814C755.779 36.814 756.776 36.5993 757.635 36.17C758.493 35.71 759.168 35.0507 759.659 34.192C760.149 33.3333 760.395 32.3213 760.395 31.156V29.96L754.783 31.156C753.679 31.3707 752.835 31.7387 752.253 32.26C751.701 32.7507 751.425 33.3947 751.425 34.192C751.425 35.02 751.701 35.664 752.253 36.124C752.805 36.584 753.602 36.814 754.645 36.814ZM783.716 41.552C781.201 41.552 779.009 41.0307 777.138 39.988C775.267 38.9147 773.811 37.412 772.768 35.48C771.725 33.548 771.204 31.2787 771.204 28.672C771.204 26.0653 771.725 23.8113 772.768 21.91C773.811 19.978 775.267 18.4753 777.138 17.402C779.009 16.3287 781.201 15.792 783.716 15.792C785.893 15.792 787.841 16.1753 789.558 16.942C791.306 17.7087 792.717 18.8127 793.79 20.254C794.863 21.6953 795.523 23.428 795.768 25.452L788.638 25.774C788.423 24.2407 787.871 23.0907 786.982 22.324C786.123 21.5267 785.035 21.128 783.716 21.128C781.999 21.128 780.665 21.7873 779.714 23.106C778.763 24.4247 778.288 26.28 778.288 28.672C778.288 31.064 778.763 32.9347 779.714 34.284C780.665 35.6027 781.999 36.262 783.716 36.262C785.035 36.262 786.139 35.8633 787.028 35.066C787.917 34.238 788.454 32.996 788.638 31.34L795.768 31.616C795.553 33.64 794.909 35.4033 793.836 36.906C792.793 38.378 791.398 39.528 789.65 40.356C787.933 41.1533 785.955 41.552 783.716 41.552ZM799.581 41V8.34H806.481V22.094H805.561C805.806 20.6527 806.282 19.472 806.987 18.552C807.723 17.632 808.628 16.942 809.701 16.482C810.805 16.022 812.001 15.792 813.289 15.792C815.129 15.792 816.662 16.1907 817.889 16.988C819.116 17.7853 820.036 18.8893 820.649 20.3C821.293 21.7107 821.615 23.3207 821.615 25.13V41H814.715V26.786C814.715 24.946 814.424 23.566 813.841 22.646C813.289 21.726 812.338 21.266 810.989 21.266C809.578 21.266 808.474 21.7413 807.677 22.692C806.88 23.6427 806.481 25.0687 806.481 26.97V41H799.581ZM827.298 41V16.344H834.198V41H827.298ZM827.16 13.308V7.788H834.29V13.308H827.16ZM840.55 41V16.344H846.76L847.036 23.566L846.162 23.336C846.407 21.496 846.898 20.024 847.634 18.92C848.4 17.816 849.351 17.0187 850.486 16.528C851.62 16.0373 852.862 15.792 854.212 15.792C855.99 15.792 857.493 16.1753 858.72 16.942C859.977 17.7087 860.928 18.7973 861.572 20.208C862.246 21.588 862.584 23.2287 862.584 25.13V41H855.684V27.43C855.684 26.1113 855.576 24.992 855.362 24.072C855.147 23.152 854.764 22.462 854.212 22.002C853.66 21.5113 852.893 21.266 851.912 21.266C850.47 21.266 849.366 21.8027 848.6 22.876C847.833 23.9187 847.45 25.4367 847.45 27.43V41H840.55ZM879.173 41.552C876.658 41.552 874.465 41.0307 872.595 39.988C870.755 38.9147 869.313 37.412 868.271 35.48C867.259 33.548 866.753 31.2787 866.753 28.672C866.753 26.0653 867.259 23.8113 868.271 21.91C869.313 19.978 870.755 18.4753 872.595 17.402C874.435 16.3287 876.612 15.792 879.127 15.792C881.58 15.792 883.711 16.3287 885.521 17.402C887.33 18.4753 888.725 20.0087 889.707 22.002C890.719 23.9953 891.225 26.372 891.225 29.132V30.512H873.883C873.975 32.4747 874.496 33.9313 875.447 34.882C876.428 35.8327 877.716 36.308 879.311 36.308C880.476 36.308 881.442 36.0627 882.209 35.572C883.006 35.0813 883.573 34.33 883.911 33.318L890.857 33.732C890.213 36.1853 888.848 38.102 886.763 39.482C884.677 40.862 882.147 41.552 879.173 41.552ZM873.883 26.28H884.141C884.049 24.4707 883.543 23.1213 882.623 22.232C881.733 21.3427 880.568 20.898 879.127 20.898C877.685 20.898 876.489 21.3733 875.539 22.324C874.619 23.244 874.067 24.5627 873.883 26.28Z" fill="#01EEFF"/>
<path d="M15.5017 40V7.34H24.8397L33.1657 31.122L41.4457 7.34H50.7837V40H43.7917V18.84L36.1097 39.908H30.1297L22.4937 18.84V40H15.5017ZM64.0902 40.552C61.5449 40.552 59.4596 39.9693 57.8342 38.804C56.2396 37.608 55.4422 35.952 55.4422 33.836C55.4422 31.6587 56.1169 29.9873 57.4662 28.822C58.8462 27.626 60.8702 26.752 63.5382 26.2L71.4962 24.636C71.4962 23.0413 71.1282 21.8453 70.3922 21.048C69.6869 20.22 68.6596 19.806 67.3102 19.806C65.9916 19.806 64.9642 20.1127 64.2282 20.726C63.4922 21.3087 63.0169 22.1827 62.8022 23.348L55.8562 23.026C56.3162 20.3273 57.5276 18.288 59.4902 16.908C61.4836 15.4973 64.0902 14.792 67.3102 14.792C70.9902 14.792 73.7502 15.666 75.5902 17.414C77.4609 19.162 78.3962 21.7227 78.3962 25.096V33.514C78.3962 34.2193 78.5036 34.6947 78.7182 34.94C78.9636 35.1547 79.3162 35.262 79.7762 35.262H80.4662V40C80.2516 40.0613 79.8989 40.1227 79.4082 40.184C78.9482 40.2453 78.4882 40.276 78.0282 40.276C77.0469 40.276 76.1269 40.1073 75.2682 39.77C74.4402 39.4327 73.7656 38.8653 73.2442 38.068C72.7229 37.24 72.4622 36.0747 72.4622 34.572L73.0602 35.032C72.7536 36.136 72.2016 37.102 71.4042 37.93C70.6376 38.758 69.6256 39.402 68.3682 39.862C67.1416 40.322 65.7156 40.552 64.0902 40.552ZM65.7462 35.814C66.8809 35.814 67.8776 35.5993 68.7362 35.17C69.5949 34.71 70.2696 34.0507 70.7602 33.192C71.2509 32.3333 71.4962 31.3213 71.4962 30.156V28.96L65.8842 30.156C64.7802 30.3707 63.9369 30.7387 63.3542 31.26C62.8022 31.7507 62.5262 32.3947 62.5262 33.192C62.5262 34.02 62.8022 34.664 63.3542 35.124C63.9062 35.584 64.7036 35.814 65.7462 35.814ZM92.9531 40C90.4077 40 88.5371 39.4173 87.3411 38.252C86.1451 37.056 85.5471 35.17 85.5471 32.594V9.548H92.4471V31.766C92.4471 32.962 92.6924 33.7747 93.1831 34.204C93.7044 34.6333 94.4711 34.848 95.4831 34.848H98.9331V40H92.9531ZM81.5911 20.496V15.344H98.9331V20.496H81.5911ZM103.001 40V7.34H109.901V21.094H108.981C109.226 19.6527 109.702 18.472 110.407 17.552C111.143 16.632 112.048 15.942 113.121 15.482C114.225 15.022 115.421 14.792 116.709 14.792C118.549 14.792 120.082 15.1907 121.309 15.988C122.536 16.7853 123.456 17.8893 124.069 19.3C124.713 20.7107 125.035 22.3207 125.035 24.13V40H118.135V25.786C118.135 23.946 117.844 22.566 117.261 21.646C116.709 20.726 115.758 20.266 114.409 20.266C112.998 20.266 111.894 20.7413 111.097 21.692C110.3 22.6427 109.901 24.0687 109.901 25.97V40H103.001ZM141.072 40.552C138.527 40.552 136.395 40.1993 134.678 39.494C132.961 38.758 131.642 37.7767 130.722 36.55C129.833 35.2927 129.327 33.8513 129.204 32.226L136.196 31.996C136.411 33.1613 136.901 34.066 137.668 34.71C138.435 35.354 139.569 35.676 141.072 35.676C142.299 35.676 143.249 35.4767 143.924 35.078C144.629 34.6793 144.982 34.066 144.982 33.238C144.982 32.7167 144.859 32.2873 144.614 31.95C144.369 31.582 143.878 31.2753 143.142 31.03C142.437 30.754 141.379 30.5087 139.968 30.294C137.361 29.834 135.322 29.2973 133.85 28.684C132.378 28.0707 131.335 27.2733 130.722 26.292C130.109 25.3107 129.802 24.1147 129.802 22.704C129.802 20.3427 130.707 18.4413 132.516 17C134.356 15.528 137.101 14.792 140.75 14.792C143.081 14.792 145.028 15.16 146.592 15.896C148.187 16.632 149.413 17.644 150.272 18.932C151.161 20.1893 151.713 21.6307 151.928 23.256L144.982 23.532C144.89 22.7347 144.645 22.06 144.246 21.508C143.878 20.9253 143.403 20.4807 142.82 20.174C142.237 19.8367 141.532 19.668 140.704 19.668C139.477 19.668 138.527 19.9287 137.852 20.45C137.208 20.9407 136.886 21.6 136.886 22.428C136.886 23.0413 137.024 23.5473 137.3 23.946C137.607 24.314 138.097 24.6207 138.772 24.866C139.447 25.1113 140.351 25.3107 141.486 25.464C144.123 25.832 146.209 26.3533 147.742 27.028C149.306 27.672 150.425 28.4847 151.1 29.466C151.775 30.4473 152.112 31.6587 152.112 33.1C152.112 34.6947 151.652 36.044 150.732 37.148C149.812 38.252 148.524 39.0953 146.868 39.678C145.243 40.2607 143.311 40.552 141.072 40.552ZM156.368 46.9V15.344H162.992L163.13 20.542L162.578 20.312C163.191 18.5333 164.188 17.1687 165.568 16.218C166.948 15.2673 168.558 14.792 170.398 14.792C172.698 14.792 174.615 15.3593 176.148 16.494C177.681 17.6287 178.831 19.1773 179.598 21.14C180.395 23.072 180.794 25.2493 180.794 27.672C180.794 30.064 180.395 32.2413 179.598 34.204C178.831 36.1667 177.666 37.7153 176.102 38.85C174.569 39.9847 172.652 40.552 170.352 40.552C169.156 40.552 168.037 40.3373 166.994 39.908C165.951 39.448 165.047 38.8193 164.28 38.022C163.544 37.2247 163.007 36.274 162.67 35.17L163.268 34.802V46.9H156.368ZM168.466 35.262C170.091 35.262 171.364 34.5873 172.284 33.238C173.235 31.8887 173.71 30.0333 173.71 27.672C173.71 25.3107 173.235 23.4553 172.284 22.106C171.364 20.7567 170.091 20.082 168.466 20.082C167.393 20.082 166.457 20.3733 165.66 20.956C164.893 21.508 164.295 22.3513 163.866 23.486C163.467 24.6207 163.268 26.016 163.268 27.672C163.268 29.328 163.467 30.7233 163.866 31.858C164.295 32.9927 164.893 33.8513 165.66 34.434C166.457 34.986 167.393 35.262 168.466 35.262ZM191.738 40C189.714 40 188.134 39.494 187 38.482C185.865 37.47 185.298 35.8293 185.298 33.56V7.34H192.198V32.824C192.198 33.56 192.366 34.0813 192.704 34.388C193.041 34.6947 193.532 34.848 194.176 34.848H195.832V40H191.738ZM206.942 40.552C204.396 40.552 202.311 39.9693 200.686 38.804C199.091 37.608 198.294 35.952 198.294 33.836C198.294 31.6587 198.968 29.9873 200.318 28.822C201.698 27.626 203.722 26.752 206.39 26.2L214.348 24.636C214.348 23.0413 213.98 21.8453 213.244 21.048C212.538 20.22 211.511 19.806 210.162 19.806C208.843 19.806 207.816 20.1127 207.08 20.726C206.344 21.3087 205.868 22.1827 205.654 23.348L198.708 23.026C199.168 20.3273 200.379 18.288 202.342 16.908C204.335 15.4973 206.942 14.792 210.162 14.792C213.842 14.792 216.602 15.666 218.442 17.414C220.312 19.162 221.248 21.7227 221.248 25.096V33.514C221.248 34.2193 221.355 34.6947 221.57 34.94C221.815 35.1547 222.168 35.262 222.628 35.262H223.318V40C223.103 40.0613 222.75 40.1227 222.26 40.184C221.8 40.2453 221.34 40.276 220.88 40.276C219.898 40.276 218.978 40.1073 218.12 39.77C217.292 39.4327 216.617 38.8653 216.096 38.068C215.574 37.24 215.314 36.0747 215.314 34.572L215.912 35.032C215.605 36.136 215.053 37.102 214.256 37.93C213.489 38.758 212.477 39.402 211.22 39.862C209.993 40.322 208.567 40.552 206.942 40.552ZM208.598 35.814C209.732 35.814 210.729 35.5993 211.588 35.17C212.446 34.71 213.121 34.0507 213.612 33.192C214.102 32.3333 214.348 31.3213 214.348 30.156V28.96L208.736 30.156C207.632 30.3707 206.788 30.7387 206.206 31.26C205.654 31.7507 205.378 32.3947 205.378 33.192C205.378 34.02 205.654 34.664 206.206 35.124C206.758 35.584 207.555 35.814 208.598 35.814ZM226.581 40V15.344H233.481V40H226.581ZM226.443 12.308V6.788H233.573V12.308H226.443ZM239.833 40V15.344H246.043L246.319 22.566L245.445 22.336C245.69 20.496 246.181 19.024 246.917 17.92C247.684 16.816 248.634 16.0187 249.769 15.528C250.904 15.0373 252.146 14.792 253.495 14.792C255.274 14.792 256.776 15.1753 258.003 15.942C259.26 16.7087 260.211 17.7973 260.855 19.208C261.53 20.588 261.867 22.2287 261.867 24.13V40H254.967V26.43C254.967 25.1113 254.86 23.992 254.645 23.072C254.43 22.152 254.047 21.462 253.495 21.002C252.943 20.5113 252.176 20.266 251.195 20.266C249.754 20.266 248.65 20.8027 247.883 21.876C247.116 22.9187 246.733 24.4367 246.733 26.43V40H239.833ZM267.55 40V15.344H274.45V40H267.55ZM267.412 12.308V6.788H274.542V12.308H267.412ZM280.802 40V15.344H287.012L287.288 22.566L286.414 22.336C286.659 20.496 287.15 19.024 287.886 17.92C288.652 16.816 289.603 16.0187 290.738 15.528C291.872 15.0373 293.114 14.792 294.464 14.792C296.242 14.792 297.745 15.1753 298.972 15.942C300.229 16.7087 301.18 17.7973 301.824 19.208C302.498 20.588 302.836 22.2287 302.836 24.13V40H295.936V26.43C295.936 25.1113 295.828 23.992 295.614 23.072C295.399 22.152 295.016 21.462 294.464 21.002C293.912 20.5113 293.145 20.266 292.164 20.266C290.722 20.266 289.618 20.8027 288.852 21.876C288.085 22.9187 287.702 24.4367 287.702 26.43V40H280.802ZM319.379 47.452C317.017 47.452 315.039 47.1607 313.445 46.578C311.881 45.9953 310.623 45.1827 309.673 44.14C308.753 43.0973 308.109 41.9013 307.741 40.552L314.825 40.046C315.07 40.8433 315.53 41.472 316.205 41.932C316.91 42.392 317.968 42.622 319.379 42.622C321.035 42.622 322.292 42.2233 323.151 41.426C324.04 40.6593 324.485 39.4173 324.485 37.7V35.078C323.902 36.2127 322.967 37.1327 321.679 37.838C320.391 38.5127 318.949 38.85 317.355 38.85C315.331 38.85 313.537 38.3593 311.973 37.378C310.409 36.366 309.182 34.9707 308.293 33.192C307.434 31.3827 307.005 29.2667 307.005 26.844C307.005 24.4827 307.434 22.3973 308.293 20.588C309.182 18.7787 310.393 17.368 311.927 16.356C313.491 15.3133 315.269 14.792 317.263 14.792C319.072 14.792 320.59 15.1907 321.817 15.988C323.074 16.7853 324.025 17.8433 324.669 19.162V15.344H331.431V37.562C331.431 39.77 330.925 41.5947 329.913 43.036C328.901 44.508 327.49 45.612 325.681 46.348C323.871 47.084 321.771 47.452 319.379 47.452ZM319.333 33.744C320.927 33.744 322.185 33.1307 323.105 31.904C324.055 30.6773 324.531 28.9753 324.531 26.798C324.531 25.3567 324.316 24.1147 323.887 23.072C323.488 22.0293 322.89 21.232 322.093 20.68C321.326 20.128 320.406 19.852 319.333 19.852C317.677 19.852 316.389 20.4807 315.469 21.738C314.549 22.9953 314.089 24.682 314.089 26.798C314.089 28.9447 314.564 30.6467 315.515 31.904C316.465 33.1307 317.738 33.744 319.333 33.744ZM355.182 40V13.228H345.43V7.34H372.018V13.228H362.22V40H355.182ZM374.643 40V7.34H381.543V21.094H380.623C380.869 19.6527 381.344 18.472 382.049 17.552C382.785 16.632 383.69 15.942 384.763 15.482C385.867 15.022 387.063 14.792 388.351 14.792C390.191 14.792 391.725 15.1907 392.951 15.988C394.178 16.7853 395.098 17.8893 395.711 19.3C396.355 20.7107 396.677 22.3207 396.677 24.13V40H389.777V25.786C389.777 23.946 389.486 22.566 388.903 21.646C388.351 20.726 387.401 20.266 386.051 20.266C384.641 20.266 383.537 20.7413 382.739 21.692C381.942 22.6427 381.543 24.0687 381.543 25.97V40H374.643ZM413.267 40.552C410.752 40.552 408.559 40.0307 406.689 38.988C404.849 37.9147 403.407 36.412 402.365 34.48C401.353 32.548 400.847 30.2787 400.847 27.672C400.847 25.0653 401.353 22.8113 402.365 20.91C403.407 18.978 404.849 17.4753 406.689 16.402C408.529 15.3287 410.706 14.792 413.221 14.792C415.674 14.792 417.805 15.3287 419.615 16.402C421.424 17.4753 422.819 19.0087 423.801 21.002C424.813 22.9953 425.319 25.372 425.319 28.132V29.512H407.977C408.069 31.4747 408.59 32.9313 409.541 33.882C410.522 34.8327 411.81 35.308 413.405 35.308C414.57 35.308 415.536 35.0627 416.303 34.572C417.1 34.0813 417.667 33.33 418.005 32.318L424.951 32.732C424.307 35.1853 422.942 37.102 420.857 38.482C418.771 39.862 416.241 40.552 413.267 40.552ZM407.977 25.28H418.235C418.143 23.4707 417.637 22.1213 416.717 21.232C415.827 20.3427 414.662 19.898 413.221 19.898C411.779 19.898 410.583 20.3733 409.633 21.324C408.713 22.244 408.161 23.5627 407.977 25.28ZM438.337 40L450.113 7.34H458.393L470.169 40H462.901L460.509 33.054H447.951L445.559 40H438.337ZM449.929 27.304H458.577L454.253 14.7L449.929 27.304ZM487.1 40.552C485.383 40.552 483.88 40.184 482.592 39.448C481.335 38.712 480.354 37.6847 479.648 36.366L479.51 40H472.932V7.34H479.832V18.84C480.476 17.7053 481.427 16.7547 482.684 15.988C483.942 15.1907 485.414 14.792 487.1 14.792C489.186 14.792 490.995 15.3287 492.528 16.402C494.062 17.4447 495.242 18.932 496.07 20.864C496.929 22.796 497.358 25.0653 497.358 27.672C497.358 30.2787 496.929 32.548 496.07 34.48C495.242 36.412 494.062 37.9147 492.528 38.988C490.995 40.0307 489.186 40.552 487.1 40.552ZM485.168 35.262C486.702 35.262 487.928 34.6027 488.848 33.284C489.799 31.9347 490.274 30.064 490.274 27.672C490.274 25.28 489.814 23.4247 488.894 22.106C487.974 20.7567 486.748 20.082 485.214 20.082C484.08 20.082 483.098 20.3887 482.27 21.002C481.473 21.5847 480.86 22.4433 480.43 23.578C480.032 24.7127 479.832 26.0773 479.832 27.672C479.832 29.236 480.032 30.5853 480.43 31.72C480.86 32.8547 481.473 33.7287 482.27 34.342C483.098 34.9553 484.064 35.262 485.168 35.262ZM509.734 40.552C507.188 40.552 505.195 39.7393 503.754 38.114C502.343 36.458 501.638 34.158 501.638 31.214V15.344H508.538V29.604C508.538 31.5053 508.829 32.9007 509.412 33.79C509.994 34.6487 510.914 35.078 512.172 35.078C513.582 35.078 514.671 34.6027 515.438 33.652C516.235 32.6707 516.634 31.214 516.634 29.282V15.344H523.534V40H517.232L517.048 32.916L517.922 33.1C517.554 35.5533 516.68 37.4087 515.3 38.666C513.92 39.9233 512.064 40.552 509.734 40.552ZM529.579 40V15.344H535.789L536.065 22.566L535.191 22.336C535.436 20.496 535.927 19.024 536.663 17.92C537.43 16.816 538.38 16.0187 539.515 15.528C540.65 15.0373 541.892 14.792 543.241 14.792C545.02 14.792 546.522 15.1753 547.749 15.942C549.006 16.7087 549.957 17.7973 550.601 19.208C551.276 20.588 551.613 22.2287 551.613 24.13V40H544.713V26.43C544.713 25.1113 544.606 23.992 544.391 23.072C544.176 22.152 543.793 21.462 543.241 21.002C542.689 20.5113 541.922 20.266 540.941 20.266C539.5 20.266 538.396 20.8027 537.629 21.876C536.862 22.9187 536.479 24.4367 536.479 26.43V40H529.579ZM565.902 40.552C563.817 40.552 562.007 40.0307 560.474 38.988C558.971 37.9147 557.806 36.4273 556.978 34.526C556.181 32.594 555.782 30.3093 555.782 27.672C555.782 25.0347 556.196 22.7653 557.024 20.864C557.852 18.932 559.017 17.4447 560.52 16.402C562.053 15.3287 563.847 14.792 565.902 14.792C567.65 14.792 569.153 15.16 570.41 15.896C571.698 16.6013 572.664 17.5827 573.308 18.84V7.34H580.208V40H573.63L573.492 36.366C572.817 37.6847 571.805 38.712 570.456 39.448C569.137 40.184 567.619 40.552 565.902 40.552ZM568.156 35.262C569.26 35.262 570.195 34.9707 570.962 34.388C571.729 33.8053 572.311 32.962 572.71 31.858C573.109 30.7233 573.308 29.328 573.308 27.672C573.308 25.9853 573.109 24.59 572.71 23.486C572.311 22.3513 571.729 21.508 570.962 20.956C570.195 20.3733 569.26 20.082 568.156 20.082C566.531 20.082 565.243 20.772 564.292 22.152C563.341 23.5013 562.866 25.3413 562.866 27.672C562.866 29.972 563.341 31.812 564.292 33.192C565.273 34.572 566.561 35.262 568.156 35.262ZM593.135 40.552C590.59 40.552 588.504 39.9693 586.879 38.804C585.284 37.608 584.487 35.952 584.487 33.836C584.487 31.6587 585.162 29.9873 586.511 28.822C587.891 27.626 589.915 26.752 592.583 26.2L600.541 24.636C600.541 23.0413 600.173 21.8453 599.437 21.048C598.732 20.22 597.704 19.806 596.355 19.806C595.036 19.806 594.009 20.1127 593.273 20.726C592.537 21.3087 592.062 22.1827 591.847 23.348L584.901 23.026C585.361 20.3273 586.572 18.288 588.535 16.908C590.528 15.4973 593.135 14.792 596.355 14.792C600.035 14.792 602.795 15.666 604.635 17.414C606.506 19.162 607.441 21.7227 607.441 25.096V33.514C607.441 34.2193 607.548 34.6947 607.763 34.94C608.008 35.1547 608.361 35.262 608.821 35.262H609.511V40C609.296 40.0613 608.944 40.1227 608.453 40.184C607.993 40.2453 607.533 40.276 607.073 40.276C606.092 40.276 605.172 40.1073 604.313 39.77C603.485 39.4327 602.81 38.8653 602.289 38.068C601.768 37.24 601.507 36.0747 601.507 34.572L602.105 35.032C601.798 36.136 601.246 37.102 600.449 37.93C599.682 38.758 598.67 39.402 597.413 39.862C596.186 40.322 594.76 40.552 593.135 40.552ZM594.791 35.814C595.926 35.814 596.922 35.5993 597.781 35.17C598.64 34.71 599.314 34.0507 599.805 33.192C600.296 32.3333 600.541 31.3213 600.541 30.156V28.96L594.929 30.156C593.825 30.3707 592.982 30.7387 592.399 31.26C591.847 31.7507 591.571 32.3947 591.571 33.192C591.571 34.02 591.847 34.664 592.399 35.124C592.951 35.584 593.748 35.814 594.791 35.814ZM613.134 40V15.344H619.344L619.62 22.566L618.746 22.336C618.991 20.496 619.482 19.024 620.218 17.92C620.984 16.816 621.935 16.0187 623.07 15.528C624.204 15.0373 625.446 14.792 626.796 14.792C628.574 14.792 630.077 15.1753 631.304 15.942C632.561 16.7087 633.512 17.7973 634.156 19.208C634.83 20.588 635.168 22.2287 635.168 24.13V40H628.268V26.43C628.268 25.1113 628.16 23.992 627.946 23.072C627.731 22.152 627.348 21.462 626.796 21.002C626.244 20.5113 625.477 20.266 624.496 20.266C623.054 20.266 621.95 20.8027 621.184 21.876C620.417 22.9187 620.034 24.4367 620.034 26.43V40H613.134ZM651.849 40.552C649.334 40.552 647.141 40.0307 645.271 38.988C643.4 37.9147 641.943 36.412 640.901 34.48C639.858 32.548 639.337 30.2787 639.337 27.672C639.337 25.0653 639.858 22.8113 640.901 20.91C641.943 18.978 643.4 17.4753 645.271 16.402C647.141 15.3287 649.334 14.792 651.849 14.792C654.026 14.792 655.973 15.1753 657.691 15.942C659.439 16.7087 660.849 17.8127 661.923 19.254C662.996 20.6953 663.655 22.428 663.901 24.452L656.771 24.774C656.556 23.2407 656.004 22.0907 655.115 21.324C654.256 20.5267 653.167 20.128 651.849 20.128C650.131 20.128 648.797 20.7873 647.847 22.106C646.896 23.4247 646.421 25.28 646.421 27.672C646.421 30.064 646.896 31.9347 647.847 33.284C648.797 34.6027 650.131 35.262 651.849 35.262C653.167 35.262 654.271 34.8633 655.161 34.066C656.05 33.238 656.587 31.996 656.771 30.34L663.901 30.616C663.686 32.64 663.042 34.4033 661.969 35.906C660.926 37.378 659.531 38.528 657.783 39.356C656.065 40.1533 654.087 40.552 651.849 40.552ZM678.8 40.552C676.285 40.552 674.092 40.0307 672.222 38.988C670.382 37.9147 668.94 36.412 667.898 34.48C666.886 32.548 666.38 30.2787 666.38 27.672C666.38 25.0653 666.886 22.8113 667.898 20.91C668.94 18.978 670.382 17.4753 672.222 16.402C674.062 15.3287 676.239 14.792 678.754 14.792C681.207 14.792 683.338 15.3287 685.148 16.402C686.957 17.4753 688.352 19.0087 689.334 21.002C690.346 22.9953 690.852 25.372 690.852 28.132V29.512H673.51C673.602 31.4747 674.123 32.9313 675.074 33.882C676.055 34.8327 677.343 35.308 678.938 35.308C680.103 35.308 681.069 35.0627 681.836 34.572C682.633 34.0813 683.2 33.33 683.538 32.318L690.484 32.732C689.84 35.1853 688.475 37.102 686.39 38.482C684.304 39.862 681.774 40.552 678.8 40.552ZM673.51 25.28H683.768C683.676 23.4707 683.17 22.1213 682.25 21.232C681.36 20.3427 680.195 19.898 678.754 19.898C677.312 19.898 676.116 20.3733 675.166 21.324C674.246 22.244 673.694 23.5627 673.51 25.28ZM706.4 40V7.34H715.738L724.064 31.122L732.344 7.34H741.682V40H734.69V18.84L727.008 39.908H721.028L713.392 18.84V40H706.4ZM754.989 40.552C752.443 40.552 750.358 39.9693 748.733 38.804C747.138 37.608 746.341 35.952 746.341 33.836C746.341 31.6587 747.015 29.9873 748.365 28.822C749.745 27.626 751.769 26.752 754.437 26.2L762.395 24.636C762.395 23.0413 762.027 21.8453 761.291 21.048C760.585 20.22 759.558 19.806 758.209 19.806C756.89 19.806 755.863 20.1127 755.127 20.726C754.391 21.3087 753.915 22.1827 753.701 23.348L746.755 23.026C747.215 20.3273 748.426 18.288 750.389 16.908C752.382 15.4973 754.989 14.792 758.209 14.792C761.889 14.792 764.649 15.666 766.489 17.414C768.359 19.162 769.295 21.7227 769.295 25.096V33.514C769.295 34.2193 769.402 34.6947 769.617 34.94C769.862 35.1547 770.215 35.262 770.675 35.262H771.365V40C771.15 40.0613 770.797 40.1227 770.307 40.184C769.847 40.2453 769.387 40.276 768.927 40.276C767.945 40.276 767.025 40.1073 766.167 39.77C765.339 39.4327 764.664 38.8653 764.143 38.068C763.621 37.24 763.361 36.0747 763.361 34.572L763.959 35.032C763.652 36.136 763.1 37.102 762.303 37.93C761.536 38.758 760.524 39.402 759.267 39.862C758.04 40.322 756.614 40.552 754.989 40.552ZM756.645 35.814C757.779 35.814 758.776 35.5993 759.635 35.17C760.493 34.71 761.168 34.0507 761.659 33.192C762.149 32.3333 762.395 31.3213 762.395 30.156V28.96L756.783 30.156C755.679 30.3707 754.835 30.7387 754.253 31.26C753.701 31.7507 753.425 32.3947 753.425 33.192C753.425 34.02 753.701 34.664 754.253 35.124C754.805 35.584 755.602 35.814 756.645 35.814ZM785.716 40.552C783.201 40.552 781.009 40.0307 779.138 38.988C777.267 37.9147 775.811 36.412 774.768 34.48C773.725 32.548 773.204 30.2787 773.204 27.672C773.204 25.0653 773.725 22.8113 774.768 20.91C775.811 18.978 777.267 17.4753 779.138 16.402C781.009 15.3287 783.201 14.792 785.716 14.792C787.893 14.792 789.841 15.1753 791.558 15.942C793.306 16.7087 794.717 17.8127 795.79 19.254C796.863 20.6953 797.523 22.428 797.768 24.452L790.638 24.774C790.423 23.2407 789.871 22.0907 788.982 21.324C788.123 20.5267 787.035 20.128 785.716 20.128C783.999 20.128 782.665 20.7873 781.714 22.106C780.763 23.4247 780.288 25.28 780.288 27.672C780.288 30.064 780.763 31.9347 781.714 33.284C782.665 34.6027 783.999 35.262 785.716 35.262C787.035 35.262 788.139 34.8633 789.028 34.066C789.917 33.238 790.454 31.996 790.638 30.34L797.768 30.616C797.553 32.64 796.909 34.4033 795.836 35.906C794.793 37.378 793.398 38.528 791.65 39.356C789.933 40.1533 787.955 40.552 785.716 40.552ZM801.581 40V7.34H808.481V21.094H807.561C807.806 19.6527 808.282 18.472 808.987 17.552C809.723 16.632 810.628 15.942 811.701 15.482C812.805 15.022 814.001 14.792 815.289 14.792C817.129 14.792 818.662 15.1907 819.889 15.988C821.116 16.7853 822.036 17.8893 822.649 19.3C823.293 20.7107 823.615 22.3207 823.615 24.13V40H816.715V25.786C816.715 23.946 816.424 22.566 815.841 21.646C815.289 20.726 814.338 20.266 812.989 20.266C811.578 20.266 810.474 20.7413 809.677 21.692C808.88 22.6427 808.481 24.0687 808.481 25.97V40H801.581ZM829.298 40V15.344H836.198V40H829.298ZM829.16 12.308V6.788H836.29V12.308H829.16ZM842.55 40V15.344H848.76L849.036 22.566L848.162 22.336C848.407 20.496 848.898 19.024 849.634 17.92C850.4 16.816 851.351 16.0187 852.486 15.528C853.62 15.0373 854.862 14.792 856.212 14.792C857.99 14.792 859.493 15.1753 860.72 15.942C861.977 16.7087 862.928 17.7973 863.572 19.208C864.246 20.588 864.584 22.2287 864.584 24.13V40H857.684V26.43C857.684 25.1113 857.576 23.992 857.362 23.072C857.147 22.152 856.764 21.462 856.212 21.002C855.66 20.5113 854.893 20.266 853.912 20.266C852.47 20.266 851.366 20.8027 850.6 21.876C849.833 22.9187 849.45 24.4367 849.45 26.43V40H842.55ZM881.173 40.552C878.658 40.552 876.465 40.0307 874.595 38.988C872.755 37.9147 871.313 36.412 870.271 34.48C869.259 32.548 868.753 30.2787 868.753 27.672C868.753 25.0653 869.259 22.8113 870.271 20.91C871.313 18.978 872.755 17.4753 874.595 16.402C876.435 15.3287 878.612 14.792 881.127 14.792C883.58 14.792 885.711 15.3287 887.521 16.402C889.33 17.4753 890.725 19.0087 891.707 21.002C892.719 22.9953 893.225 25.372 893.225 28.132V29.512H875.883C875.975 31.4747 876.496 32.9313 877.447 33.882C878.428 34.8327 879.716 35.308 881.311 35.308C882.476 35.308 883.442 35.0627 884.209 34.572C885.006 34.0813 885.573 33.33 885.911 32.318L892.857 32.732C892.213 35.1853 890.848 37.102 888.763 38.482C886.677 39.862 884.147 40.552 881.173 40.552ZM875.883 25.28H886.141C886.049 23.4707 885.543 22.1213 884.623 21.232C883.733 20.3427 882.568 19.898 881.127 19.898C879.685 19.898 878.489 20.3733 877.539 21.324C876.619 22.244 876.067 23.5627 875.883 25.28Z" fill="white"/>
</svg>
