<svg width="65" height="64" viewBox="0 0 65 64" fill="none" xmlns="http://www.w3.org/2000/svg">
<path d="M33.1938 10.3259C32.6909 10.7417 32.3652 11.3311 32.2825 11.9756C32.1997 12.62 32.3659 13.2717 32.7475 13.7995C33.6401 15.3502 37.0228 15.1641 36.8443 12.4703C36.6658 9.77656 34.2559 9.31579 33.1938 10.3259ZM35.809 12.3906C35.8212 12.6558 35.7454 12.9177 35.5934 13.136C35.4413 13.3544 35.2214 13.5173 34.9672 13.5998C34.713 13.6822 34.4386 13.6796 34.186 13.5925C33.9334 13.5053 33.7166 13.3384 33.5687 13.1172C33.3624 12.8278 33.2736 12.472 33.3199 12.1205C33.3662 11.769 33.5443 11.4478 33.8186 11.2209C34.3898 10.6715 35.7018 10.9196 35.809 12.3906ZM9.31824 26.2404C9.50568 26.2404 10.2108 26.4974 10.6214 26.1607C11.0319 25.824 10.7731 25.8328 10.8445 24.7961C11.1319 22.7789 11.6809 20.8073 12.4779 18.9301C13.3704 17.0426 16.8692 12.9134 21.7424 10.6538C26.6157 8.39424 32.3816 8.33221 37.6565 9.62593C42.9315 10.9196 48.4474 15.492 51.2143 19.9579C53.9812 24.4239 51.6248 33.1786 50.0629 36.6876C48.5009 40.1966 41.3963 44.2904 36.041 44.5119C33.8165 44.5619 31.6096 44.1093 29.5871 43.1882C27.5647 42.2671 25.7795 40.9017 24.3665 39.1953C22.5814 36.7939 20.9392 30.8127 23.1705 26.7898C23.9468 25.4424 25.0682 24.3229 26.4209 23.5448C27.7737 22.7666 29.3098 22.3577 30.8732 22.3593C32.4351 22.2441 33.6936 23.7239 34.0328 23.8391C34.1871 23.8361 34.3389 23.7991 34.4772 23.7309C34.6153 23.6627 34.7366 23.5649 34.8322 23.4446C34.9278 23.3242 34.9954 23.1843 35.03 23.0349C35.0647 22.8856 35.0655 22.7305 35.0324 22.5808C34.8539 21.7656 31.8014 19.4086 25.4822 22.3947C19.163 25.3809 19.9752 31.4773 20.3322 34.1799C20.6892 36.8825 22.1887 44.1043 31.489 45.8056C34.7093 46.4199 38.0336 46.2172 41.154 45.2166C44.2745 44.216 47.0901 42.4497 49.3399 40.0814C51.3482 37.7952 54.3293 33.8786 54.2132 26.2404C54.0972 18.6022 51.6784 16.2717 45.502 11.3981C39.3256 6.52456 29.4362 6.18784 24.0809 8.0398C18.7256 9.89176 11.9423 14.5704 10.3268 19.0009C8.71131 23.4315 9.13081 26.2404 9.31824 26.2404ZM11.8888 33.8786C11.5139 32.2925 10.1572 31.5659 8.90767 32.1862C7.65811 32.8065 7.83662 34.2508 8.61313 35.5445C9.38965 36.8382 12.2547 35.4648 11.8888 33.8786ZM9.26469 34.7913C8.87197 34.1356 8.75594 33.4001 9.41642 33.0723C9.57408 33.0005 9.74684 32.9676 9.92005 32.9761C10.0933 32.9847 10.2619 33.0345 10.4116 33.1214C10.5613 33.2083 10.6877 33.3298 10.7802 33.4755C10.8726 33.6211 10.9283 33.7868 10.9427 33.9584C11.1301 34.7559 9.66634 35.4559 9.26469 34.7913ZM36.7997 31.3355C37.5137 26.2759 32.7118 26.1075 30.7393 26.5683C25.9106 27.7114 26.464 32.4077 28.3205 34.2154C30.177 36.023 36.0946 36.4306 36.7997 31.3355ZM31.1856 33.5862C30.6122 33.4739 30.0916 33.1784 29.7032 32.7448C29.3148 32.3111 29.08 31.7633 29.0345 31.1849C28.8752 30.4898 28.9961 29.7605 29.3714 29.1527C29.7467 28.545 30.3466 28.1072 31.0428 27.9329C31.8728 27.6139 34.0506 27.8265 34.7914 28.819C35.5323 29.8114 35.1306 31.7343 35.1306 31.7343C35.1306 31.7343 34.6843 30.9634 34.5683 30.9634C34.4523 30.9634 33.9792 31.114 34.0149 31.2558C34.2286 31.7058 34.3903 32.1785 34.4969 32.6647C34.4255 32.8419 33.9435 33.4001 33.8275 33.2495C33.7115 33.0989 32.8636 30.7773 32.6404 30.7418C32.4173 30.7064 31.9353 30.7418 31.971 30.9279C32.0067 31.114 33.2295 33.471 33.051 33.6571C32.8725 33.8432 32.3816 33.9938 32.2655 33.728C32.1495 33.4622 31.373 31.371 31.2659 31.3355C31.1588 31.3001 30.4448 31.5127 30.5162 31.7786C30.5876 32.0444 31.3373 33.5508 31.1856 33.5862ZM36.398 48.0918C35.1306 48.8361 34.72 50.307 35.3895 52.1235C36.0589 53.9401 40.0039 54.2591 40.5573 51.459C40.6797 50.9191 40.648 50.3561 40.4659 49.8331C40.2839 49.3102 39.9587 48.8479 39.5267 48.4982C39.0948 48.1485 38.5733 47.9253 38.0206 47.8534C37.4679 47.7816 36.9061 47.8641 36.398 48.0918ZM39.6112 51.1666C39.2542 52.9388 36.7283 52.7527 36.2999 51.5919C35.8714 50.4311 36.1303 49.4918 36.9425 49.0133C37.2677 48.8659 37.628 48.8116 37.9827 48.8566C38.3374 48.9016 38.6723 49.044 38.9497 49.2679C39.2272 49.4917 39.4362 49.7881 39.5531 50.1236C39.6699 50.4591 39.6901 50.8203 39.6112 51.1666ZM25.8303 35.1015C24.5272 35.7306 24.7503 37.1661 25.5358 38.4598C26.3212 39.7535 29.1773 38.3889 28.8114 36.7939C28.4455 35.1989 27.1156 34.4812 25.8303 35.1015ZM26.1873 37.7066C25.7946 37.0509 25.6786 36.3154 26.3391 35.9964C26.4965 35.9224 26.6697 35.8878 26.8438 35.8953C27.0177 35.903 27.1872 35.9525 27.3376 36.0398C27.4879 36.127 27.6146 36.2494 27.7065 36.3962C27.7985 36.5432 27.853 36.71 27.8653 36.8825C28.0527 37.6712 26.589 38.3712 26.223 37.7066H26.1873ZM48.1439 21.7567C48.1439 20.0909 46.3588 18.9566 45.3235 19.7187C45.0928 19.8691 44.8957 20.0652 44.7447 20.2947C44.5937 20.5242 44.492 20.7821 44.4459 21.0524C44.3999 21.3226 44.4105 21.5994 44.477 21.8655C44.5435 22.1315 44.6646 22.381 44.8326 22.5985C45.618 23.6884 48.1796 23.4315 48.1439 21.7745V21.7567ZM45.8055 20.5428C46.3142 20.1617 47.1889 20.7288 47.2067 21.5529C47.2246 22.377 45.9483 22.5099 45.5645 21.9783C45.482 21.8711 45.4226 21.7482 45.39 21.6173C45.3574 21.4865 45.3522 21.3504 45.3748 21.2174C45.3974 21.0844 45.4473 20.9575 45.5214 20.8445C45.5954 20.7315 45.6922 20.6348 45.8055 20.5605V20.5428ZM17.5832 28.7304C17.4071 28.8452 17.2568 28.9951 17.1418 29.1705C17.027 29.346 16.9498 29.5431 16.9155 29.7496C16.8811 29.956 16.8901 30.1673 16.9421 30.3701C16.994 30.5729 17.0877 30.7628 17.2172 30.9279C17.8063 31.7431 19.761 31.5393 19.7342 30.2811C19.7074 29.0228 18.3597 28.1544 17.5832 28.7304ZM19.0202 30.1304C19.0202 30.7596 18.0652 30.857 17.7617 30.4494C17.695 30.3667 17.6467 30.2708 17.6198 30.1682C17.5929 30.0656 17.5882 29.9585 17.6059 29.854C17.6235 29.7494 17.6633 29.6497 17.7224 29.5615C17.7816 29.4732 17.8588 29.3983 17.9491 29.3418C18.3419 29.0671 19.0023 29.5013 19.0202 30.1304ZM54.2489 36.9091C53.1332 37.3876 52.8655 39.1598 53.4278 40.3383C53.9901 41.5169 56.9266 41.2245 56.998 39.0535C57.0694 36.8825 55.2486 36.4749 54.2489 36.9091ZM54.1597 39.6915C53.9865 39.3761 53.9363 39.0086 54.0186 38.6588C54.1008 38.3091 54.31 38.0017 54.6059 37.7952C54.7861 37.7191 54.9835 37.6926 55.1774 37.7185C55.3715 37.7444 55.5548 37.8217 55.7082 37.9423C55.8618 38.0629 55.9796 38.2223 56.0495 38.4039C56.1194 38.5854 56.1387 38.7823 56.1054 38.9737C56.0876 40.1789 54.4631 40.3384 54.1597 39.6915ZM55.9448 12.7982C55.7573 10.1399 53.3564 9.65251 52.3032 10.6538C51.8003 11.0695 51.4746 11.659 51.3919 12.3034C51.3091 12.9479 51.4753 13.5996 51.8569 14.1274C52.7227 15.678 56.1054 15.492 55.918 12.7982H55.9448ZM52.919 11.5576C53.4992 11.0082 54.8112 11.2475 54.9094 12.7273C54.9257 12.9932 54.8526 13.2569 54.7019 13.4773C54.5511 13.6977 54.331 13.8622 54.0761 13.9452C53.8211 14.0282 53.5457 14.0251 53.2927 13.9361C53.0398 13.8473 52.8236 13.6777 52.678 13.4539C52.4656 13.1695 52.3697 12.8158 52.4094 12.4639C52.4491 12.1121 52.6216 11.7882 52.8923 11.5576H52.919ZM12.2547 48.3576C10.9962 49.0931 10.5857 50.6083 11.2551 52.3805C11.9245 54.1527 15.8695 54.516 16.4229 51.7159C16.5443 51.1756 16.5115 50.6124 16.3283 50.0896C16.145 49.5668 15.8186 49.105 15.3857 48.7562C14.9527 48.4073 14.4304 48.1853 13.8773 48.1148C13.3242 48.0445 12.7623 48.1285 12.2547 48.3576ZM15.45 51.4235C15.093 53.1957 12.5671 53.0097 12.1387 51.8489C11.9039 51.4166 11.8397 50.913 11.9585 50.4363C12.0773 49.9597 12.3706 49.5439 12.7813 49.2703C13.1067 49.1264 13.4658 49.0748 13.8189 49.1212C14.172 49.1677 14.5052 49.3103 14.7817 49.5333C15.0581 49.7563 15.2669 50.051 15.3849 50.3847C15.5028 50.7184 15.5253 51.0779 15.45 51.4235ZM54.0615 45.5486C53.7223 45.5486 53.4635 46.1778 53.1689 46.6208C52.8744 47.0639 49.8219 51.4147 46.3588 53.3375C42.8958 55.2604 36.5408 55.8895 30.4805 54.3743C24.4201 52.859 18.5382 45.9208 16.1997 38.9383C13.8613 31.9558 16.7978 27.6405 18.2794 24.9113C19.761 22.1821 23.2687 18.5224 27.3209 18.1503C31.373 17.7781 37.8261 17.4857 40.7804 21.9162C42.1035 23.7222 42.8667 25.8724 42.9761 28.103C43.0854 30.3335 42.5364 32.5473 41.3963 34.4723C39.281 38.4953 33.8007 37.8041 33.5865 38.0168C33.3723 38.2294 33.3991 39.4966 33.8097 39.6029C36.045 39.608 38.25 39.0889 40.2449 38.0876C42.5477 36.7585 45.377 33.2938 44.3685 26.0898C43.3599 18.8857 37.2281 16.4578 31.6497 16.3426C26.0713 16.2274 20.5732 17.7427 16.8156 23.653C15.2767 25.9258 14.2722 28.513 13.8767 31.2233C13.4811 33.9336 13.7047 36.6975 14.5307 39.3105C15.8249 43.9625 19.1719 51.3083 26.4283 54.9236C33.6847 58.5389 41.6016 56.6958 46.698 54.9236C51.7944 53.1514 55.3646 46.5411 55.32 46.3196C55.2753 46.098 54.3917 45.5486 54.0615 45.5486Z" fill="#F500FF"/>
</svg>
