<svg width="65" height="64" viewBox="0 0 65 64" fill="none" xmlns="http://www.w3.org/2000/svg">
<path d="M47.3306 46.0952C48.1462 40.113 47.6479 34.0251 45.8706 28.2552C42.8706 18.7552 36.7906 18.2552 36.6606 18.2552C36.7419 17.0899 36.7419 15.9204 36.6606 14.7552C36.4106 12.6752 32.8706 11.7552 32.6606 11.7552C32.4506 11.7552 32.6606 10.9252 32.5406 9.67516C32.4206 8.42516 29.9606 6.13516 27.9606 6.42516C25.9606 6.71516 25.4106 8.04516 25.5406 8.42516C25.8711 8.76474 26.2659 9.03513 26.702 9.22055C27.1381 9.40597 27.6067 9.50272 28.0806 9.50516C28.8706 9.42516 29.2106 9.09516 29.6206 9.09516C30.0306 9.09516 30.6206 10.5952 30.7906 12.0952C30.9606 13.5952 32.4106 13.2152 33.7106 13.7152C35.0106 14.2152 34.6606 17.7152 34.6606 17.7152C33.7885 17.5017 32.8976 17.3744 32.0006 17.3352C31.1344 17.2255 30.2551 17.2832 29.4106 17.5052C29.4106 17.5052 27.9606 13.0052 26.8306 11.5052C25.7006 10.0052 22.2506 10.9252 21.8306 11.0052C21.4106 11.0852 18.5006 8.25516 17.7506 8.00516C16.3641 7.89288 14.9748 8.18464 13.7506 8.84516C12.8706 9.46516 13.4506 10.0052 14.0406 10.3852C14.8416 10.7724 15.743 10.9017 16.6206 10.7552C16.9106 10.5552 17.1606 9.75516 17.3706 9.59516C17.5806 9.43516 19.3706 11.5952 20.5806 12.4252C21.7906 13.2552 24.5806 12.4252 25.2906 12.5952C26.0006 12.7652 27.6606 18.1352 27.6606 18.1352C25.7619 18.7034 23.9733 19.5892 22.3706 20.7552C19.8706 22.6352 18.3706 25.5552 16.9506 31.7552C15.5306 37.9552 16.7006 48.6752 16.7006 48.6752C16.1401 48.8347 15.6212 49.1149 15.1802 49.4959C14.7393 49.877 14.3869 50.3499 14.1479 50.8814C13.9088 51.4129 13.7887 51.9902 13.7961 52.573C13.8035 53.1558 13.9381 53.7299 14.1906 54.2552C15.3206 56.2552 18.1106 55.7552 21.1906 55.0052C24.2706 54.2552 27.9406 56.2552 29.9406 56.4652C31.9406 56.6752 33.4806 55.5552 35.7706 55.2152C38.0606 54.8752 41.1506 55.5552 44.2306 56.0952C47.3106 56.6352 51.2306 54.9652 51.1506 51.0952C51.1118 49.9683 50.7232 48.8814 50.0387 47.9854C49.3541 47.0895 48.4077 46.4288 47.3306 46.0952ZM44.2506 54.5052C41.5018 53.8087 38.6567 53.5722 35.8306 53.8052C32.0806 53.9652 31.4106 54.8052 29.2906 54.5952C27.1706 54.3852 26.0806 52.5952 22.2006 53.1752C18.3206 53.7552 16.7006 54.4252 16.2006 53.8052C15.7006 53.1852 14.8306 51.5552 16.2006 50.5052C17.0106 49.8752 19.0806 49.8852 19.1206 49.5952C18.2556 45.0794 18.0167 40.4661 18.4106 35.8852C19.1606 28.5052 20.4906 24.2552 24.1606 21.5952C27.8306 18.9352 32.1606 19.1752 35.8306 19.7552C39.5006 20.3352 43.1906 24.2552 44.6206 30.0052C46.0506 35.7552 45.0406 47.2152 45.2006 47.3452C45.3606 47.4752 48.5806 47.8852 48.7006 50.7152C48.8206 53.5452 47.2506 55.2152 44.2506 54.5052ZM19.2506 51.3452C18.8634 51.3202 18.4751 51.3738 18.109 51.5027C17.743 51.6316 17.4068 51.8331 17.1206 52.0952C17.0557 52.2569 17.0491 52.4362 17.102 52.6023C17.155 52.7683 17.2641 52.9108 17.4106 53.0052C17.6206 53.0052 18.0406 52.7152 18.7906 52.3452C19.5406 51.9752 20.1606 52.5052 20.6206 52.5052C21.0806 52.5052 20.9506 52.3452 21.0406 51.9652C21.1306 51.5852 20.0006 51.4052 19.2506 51.3452ZM29.9106 52.4652C29.0806 52.4652 28.3306 51.5652 28.0406 51.4652C27.7506 51.3652 27.4506 52.0952 27.5006 52.3452C27.5506 52.5952 28.6606 53.0152 29.2506 53.3452C30.1885 53.5798 31.1625 53.6341 32.1206 53.5052C32.3706 53.4252 32.2006 52.8452 32.1206 52.5052C32.0406 52.1652 30.7506 52.4652 29.9106 52.4652ZM45.0006 52.1752C44.0492 52.0124 43.0796 51.9854 42.1206 52.0952C42.0006 52.1752 41.9506 52.8452 42.3706 52.9652C42.7906 53.0852 42.9506 52.9652 43.7006 52.9652C44.4891 53.0529 45.2708 53.1932 46.0406 53.3852C46.2006 53.3852 46.3706 52.8452 46.3706 52.6352C46.3706 52.4252 46.2506 52.4052 45.0006 52.1752ZM35.5006 48.0052C35.1606 48.0052 34.7906 48.0052 34.7906 48.1752C34.7906 48.3452 36.4506 50.9252 36.4506 50.9252C36.79 50.913 37.1263 50.8558 37.4506 50.7552C37.7006 50.6352 35.8106 47.9652 35.5006 48.0052ZM37.6206 47.8452C37.9823 48.8248 38.3996 49.7831 38.8706 50.7152C39.0406 50.8852 39.5806 50.8052 39.7506 50.7152C39.4639 49.7236 39.0253 48.7825 38.4506 47.9252C38.1906 47.8052 37.5406 47.5152 37.6206 47.8452ZM39.8706 47.7152C40.2694 48.5177 40.71 49.2988 41.1906 50.0552C41.3191 50.0994 41.4573 50.107 41.5898 50.0769C41.7223 50.0469 41.8438 49.9805 41.9406 49.8852C41.6279 49.0647 41.2219 48.2829 40.7306 47.5552C40.6206 47.4652 39.7406 47.3152 39.8706 47.7152ZM44.2906 49.1752C43.7161 48.2202 43.009 47.3516 42.1906 46.5952C41.9406 46.4252 41.5706 46.8452 41.5706 46.8452C42.2079 47.8133 42.9166 48.7325 43.6906 49.5952C43.6906 49.5952 44.1906 49.4052 44.2906 49.1752ZM44.5406 46.9652C44.6606 46.9652 44.5406 46.5552 44.5406 46.2552C44.102 45.5234 43.5709 44.8513 42.9606 44.2552C42.7506 44.0452 42.3506 44.7552 42.5006 44.7952C42.6506 44.8352 44.4106 46.9652 44.5406 46.9652ZM23.6606 23.5552C23.3306 23.6752 22.9106 24.2552 22.2506 25.9252C21.5906 27.5952 21.2506 28.5952 21.3706 28.7152C21.4906 28.8352 22.2006 28.8452 22.3706 28.7152C22.4692 28.0371 22.6231 27.3682 22.8306 26.7152C23.2006 25.8852 24.4106 23.8852 24.4506 23.7152C24.4906 23.5452 24.0006 23.4052 23.6606 23.5552ZM39.9406 35.7552C39.4906 30.8852 36.4706 29.1752 33.0206 29.2152C29.5706 29.2552 27.6206 29.5052 26.3206 31.2152C25.1906 32.6752 24.1206 34.8852 24.4606 36.7152C24.8006 38.5452 26.1906 42.4052 31.6306 42.8852C37.0706 43.3652 40.3906 40.6352 39.9406 35.7552ZM31.3106 41.1352C29.9961 40.9536 28.7901 40.307 27.9114 39.3127C27.0326 38.3183 26.5392 37.042 26.5206 35.7152C26.5206 34.0552 27.8006 31.0952 32.8906 30.9652C33.5547 30.9247 34.2202 31.0172 34.8481 31.2372C35.4759 31.4572 36.0536 31.8003 36.5472 32.2464C37.0408 32.6925 37.4404 33.2326 37.7226 33.8351C38.0048 34.4376 38.1639 35.0904 38.1906 35.7552C38.3206 39.5552 34.8406 41.5052 31.3106 41.1352ZM31.4106 34.3052C31.074 34.4241 30.7754 34.6309 30.5457 34.9042C30.3161 35.1775 30.1637 35.5073 30.1046 35.8593C30.0454 36.2114 30.0815 36.5728 30.2092 36.9062C30.3368 37.2396 30.5514 37.5327 30.8306 37.7552C32.1606 39.0952 35.2006 38.1752 34.9506 36.1352C34.899 35.7473 34.7545 35.3777 34.5294 35.0577C34.3043 34.7377 34.0053 34.4768 33.6578 34.2972C33.3102 34.1175 32.9244 34.0244 32.5332 34.0258C32.142 34.0272 31.7569 34.123 31.4106 34.3052Z" fill="#F500FF"/>
</svg>
