<svg width="29" height="28" viewBox="0 0 29 28" fill="none" xmlns="http://www.w3.org/2000/svg">
<g clip-path="url(#clip0_70_60)">
<path fill-rule="evenodd" clip-rule="evenodd" d="M14.4568 0C6.46256 0 0 6.41667 0 14.355C0 20.7005 4.14078 26.0718 9.88515 27.9729C10.6033 28.1158 10.8664 27.664 10.8664 27.284C10.8664 26.9512 10.8427 25.8105 10.8427 24.6219C6.82121 25.4777 5.98376 22.9107 5.98376 22.9107C5.33748 21.247 4.37989 20.8195 4.37989 20.8195C3.06364 19.9401 4.47576 19.9401 4.47576 19.9401C5.93583 20.0352 6.70196 21.4136 6.70196 21.4136C7.99423 23.5999 10.0766 22.9822 10.9144 22.6018C11.0339 21.6749 11.4171 21.0332 11.824 20.6768C8.61655 20.344 5.2419 19.1082 5.2419 13.5943C5.2419 12.0257 5.81598 10.7424 6.72563 9.74429C6.58211 9.38787 6.07935 7.91408 6.86945 5.94154C6.86945 5.94154 8.09011 5.56121 10.8424 7.41504C12.0208 7.10082 13.2361 6.94097 14.4568 6.93962C15.6775 6.93962 16.9218 7.10617 18.0708 7.41504C20.8235 5.56121 22.0441 5.94154 22.0441 5.94154C22.8342 7.91408 22.3312 9.38787 22.1877 9.74429C23.1213 10.7424 23.6717 12.0257 23.6717 13.5943C23.6717 19.1082 20.297 20.3201 17.0656 20.6768C17.5923 21.1283 18.0469 21.9838 18.0469 23.3386C18.0469 25.2636 18.0232 26.8085 18.0232 27.2837C18.0232 27.664 18.2866 28.1158 19.0045 27.9732C24.7488 26.0715 28.8896 20.7005 28.8896 14.355C28.9133 6.41667 22.4271 0 14.4568 0Z" fill="white"/>
</g>
<defs>
<clipPath id="clip0_70_60">
<rect width="29" height="28" fill="white"/>
</clipPath>
</defs>
</svg>
