<svg width="14" height="12" viewBox="0 0 14 12" fill="none" xmlns="http://www.w3.org/2000/svg">
<path d="M3.64999 8.76993C3.53999 9.06993 3.24999 9.25993 2.94999 9.25993C2.85999 9.25993 2.77999 9.24993 2.68999 9.20993C1.87999 8.90993 1.19999 8.31993 0.769988 7.54993C-0.230012 5.74993 0.389988 3.39993 2.13999 2.30993L4.47999 0.859932C5.33999 0.329932 6.34999 0.169932 7.30999 0.419932C8.26999 0.669932 9.07999 1.29993 9.56999 2.17993C10.57 3.97993 9.94999 6.32993 8.19999 7.41993L7.93999 7.60993C7.59999 7.84993 7.12999 7.76993 6.88999 7.43993C6.64999 7.09993 6.72999 6.62993 7.05999 6.38993L7.36999 6.16993C8.48999 5.46993 8.86999 4.01993 8.25999 2.90993C7.96999 2.38993 7.49999 2.01993 6.93999 1.86993C6.37999 1.71993 5.78999 1.80993 5.27999 2.12993L2.91999 3.58993C1.83999 4.25993 1.45999 5.70993 2.06999 6.82993C2.31999 7.27993 2.71999 7.62993 3.19999 7.80993C3.58999 7.94993 3.78999 8.37993 3.64999 8.76993ZM11.92 9.64993L9.57999 11.0999C8.98999 11.4699 8.32999 11.6499 7.65999 11.6499C7.35999 11.6499 7.04999 11.6099 6.74999 11.5299C5.78999 11.2799 4.97999 10.6499 4.49999 9.76993C3.49999 7.96993 4.11999 5.61993 5.86999 4.52993L6.12999 4.33993C6.46999 4.09993 6.93999 4.17993 7.17999 4.50993C7.41999 4.84993 7.33999 5.31993 7.00999 5.55993L6.69999 5.77993C5.57999 6.47993 5.19999 7.92993 5.80999 9.03993C6.09999 9.55993 6.56999 9.92993 7.12999 10.0799C7.68999 10.2299 8.27999 10.1399 8.78999 9.81993L11.13 8.36993C12.21 7.69993 12.59 6.24993 11.98 5.12993C11.73 4.67993 11.33 4.32993 10.85 4.14993C10.46 4.00993 10.26 3.57993 10.41 3.18993C10.55 2.79993 10.99 2.59993 11.37 2.74993C12.18 3.04993 12.86 3.63993 13.29 4.40993C14.28 6.20993 13.67 8.55993 11.92 9.64993Z" fill="white"/>
</svg>
