<svg width="121" height="40" viewBox="0 0 121 40" fill="none" xmlns="http://www.w3.org/2000/svg">
<path d="M14.8656 31.5C12.8648 31.5 11.1195 31.1334 9.6295 30.4003C8.16083 29.6671 7.02208 28.6321 6.21325 27.2951C5.40442 25.9367 5 24.341 5 22.5081V7.98517H11.2578V22.5081C11.2578 23.7588 11.5664 24.7291 12.1837 25.4191C12.801 26.0876 13.695 26.4218 14.8656 26.4218C16.0576 26.4218 16.9622 26.0876 17.5795 25.4191C18.1967 24.7291 18.5054 23.7588 18.5054 22.5081V7.98517H24.7632V22.5081C24.7632 24.341 24.3588 25.9367 23.5499 27.2951C22.7411 28.6321 21.5917 29.6671 20.1018 30.4003C18.6331 31.1334 16.8877 31.5 14.8656 31.5Z" fill="#F500FF"/>
<path d="M34.7022 31.5C32.3182 31.5 30.2642 31.0148 28.5401 30.0445C26.816 29.0741 25.4964 27.6941 24.5811 25.9043C23.6659 24.1146 23.2082 21.9906 23.2082 19.5323C23.2082 17.0741 23.6659 14.9501 24.5811 13.1604C25.4964 11.3491 26.816 9.95822 28.5401 8.98787C30.2642 7.99596 32.3182 7.5 34.7022 7.5C37.1074 7.5 39.1614 7.99596 40.8642 8.98787C42.5883 9.95822 43.908 11.3491 44.8232 13.1604C45.7385 14.9501 46.1961 17.0741 46.1961 19.5323C46.1961 21.9906 45.7385 24.1146 44.8232 25.9043C43.908 27.6941 42.5883 29.0741 40.8642 30.0445C39.1614 31.0148 37.1074 31.5 34.7022 31.5ZM34.7022 26.4218C35.7664 26.4218 36.671 26.1523 37.416 25.6132C38.1823 25.0741 38.7676 24.2978 39.172 23.2844C39.5764 22.2493 39.7787 20.9987 39.7787 19.5323C39.7787 18.066 39.5764 16.8154 39.172 15.7803C38.7676 14.7453 38.1823 13.9582 37.416 13.4191C36.671 12.8585 35.7664 12.5782 34.7022 12.5782C33.6379 12.5782 32.7227 12.8585 31.9564 13.4191C31.2114 13.9582 30.6367 14.7453 30.2323 15.7803C29.8279 16.8154 29.6257 18.066 29.6257 19.5323C29.6257 20.9987 29.8279 22.2493 30.2323 23.2844C30.6367 24.2978 31.2114 25.0741 31.9564 25.6132C32.7227 26.1523 33.6379 26.4218 34.7022 26.4218Z" fill="#F500FF"/>
<path d="M44.5561 30.9825V8.01752H55.3795C57.0824 8.01752 58.5617 8.29784 59.8175 8.85849C61.0946 9.41914 62.0737 10.2062 62.7548 11.2197C63.4572 12.2332 63.8084 13.4299 63.8084 14.81C63.8084 15.8881 63.6062 16.8477 63.2018 17.6887C62.7974 18.5081 62.2121 19.1873 61.4458 19.7264C60.6795 20.2655 59.7536 20.6321 58.6681 20.8261L58.6042 20.5027C60.2006 20.5027 61.3926 20.8477 62.1801 21.5377C62.9677 22.2062 63.404 23.1981 63.4892 24.5135L64 30.9825H57.6145L57.2952 25.6132C57.2526 24.7722 57.0291 24.1577 56.6247 23.7695C56.2203 23.3598 55.5073 23.155 54.4856 23.155H50.8139V30.9825H44.5561ZM50.8139 18.0768H54.2302C55.2731 18.0768 56.0607 17.8612 56.5928 17.4299C57.1462 16.9771 57.4229 16.3518 57.4229 15.5539C57.4229 14.7345 57.1462 14.1199 56.5928 13.7102C56.0607 13.3005 55.2731 13.0957 54.2302 13.0957H50.8139V18.0768Z" fill="#F500FF"/>
<path d="M9.86563 32.5C7.86483 32.5 6.11946 32.1334 4.6295 31.4003C3.16083 30.6671 2.02208 29.6321 1.21325 28.2951C0.404416 26.9367 0 25.341 0 23.5081V8.98517H6.25781V23.5081C6.25781 24.7588 6.56644 25.7291 7.18371 26.4191C7.80098 27.0876 8.69495 27.4218 9.86563 27.4218C11.0576 27.4218 11.9622 27.0876 12.5795 26.4191C13.1967 25.7291 13.5054 24.7588 13.5054 23.5081V8.98517H19.7632V23.5081C19.7632 25.341 19.3588 26.9367 18.5499 28.2951C17.7411 29.6321 16.5917 30.6671 15.1018 31.4003C13.6331 32.1334 11.8877 32.5 9.86563 32.5Z" fill="#01EEFF"/>
<path d="M29.7022 32.5C27.3182 32.5 25.2642 32.0148 23.5401 31.0445C21.816 30.0741 20.4964 28.6941 19.5811 26.9043C18.6659 25.1146 18.2082 22.9906 18.2082 20.5323C18.2082 18.0741 18.6659 15.9501 19.5811 14.1604C20.4964 12.3491 21.816 10.9582 23.5401 9.98787C25.2642 8.99596 27.3182 8.5 29.7022 8.5C32.1074 8.5 34.1614 8.99596 35.8642 9.98787C37.5883 10.9582 38.908 12.3491 39.8232 14.1604C40.7385 15.9501 41.1961 18.0741 41.1961 20.5323C41.1961 22.9906 40.7385 25.1146 39.8232 26.9043C38.908 28.6941 37.5883 30.0741 35.8642 31.0445C34.1614 32.0148 32.1074 32.5 29.7022 32.5ZM29.7022 27.4218C30.7664 27.4218 31.671 27.1523 32.416 26.6132C33.1823 26.0741 33.7676 25.2978 34.172 24.2844C34.5764 23.2493 34.7787 21.9987 34.7787 20.5323C34.7787 19.066 34.5764 17.8154 34.172 16.7803C33.7676 15.7453 33.1823 14.9582 32.416 14.4191C31.671 13.8585 30.7664 13.5782 29.7022 13.5782C28.6379 13.5782 27.7227 13.8585 26.9564 14.4191C26.2114 14.9582 25.6367 15.7453 25.2323 16.7803C24.8279 17.8154 24.6257 19.066 24.6257 20.5323C24.6257 21.9987 24.8279 23.2493 25.2323 24.2844C25.6367 25.2978 26.2114 26.0741 26.9564 26.6132C27.7227 27.1523 28.6379 27.4218 29.7022 27.4218Z" fill="#01EEFF"/>
<path d="M39.5561 31.9825V9.01752H50.3795C52.0824 9.01752 53.5617 9.29784 54.8175 9.85849C56.0946 10.4191 57.0737 11.2062 57.7548 12.2197C58.4572 13.2332 58.8084 14.4299 58.8084 15.81C58.8084 16.8881 58.6062 17.8477 58.2018 18.6887C57.7974 19.5081 57.2121 20.1873 56.4458 20.7264C55.6795 21.2655 54.7536 21.6321 53.6681 21.8261L53.6042 21.5027C55.2006 21.5027 56.3926 21.8477 57.1801 22.5377C57.9677 23.2062 58.404 24.1981 58.4892 25.5135L59 31.9825H52.6145L52.2952 26.6132C52.2526 25.7722 52.0291 25.1577 51.6247 24.7695C51.2203 24.3598 50.5073 24.155 49.4856 24.155H45.8139V31.9825H39.5561ZM45.8139 19.0768H49.2302C50.2731 19.0768 51.0607 18.8612 51.5928 18.4299C52.1462 17.9771 52.4229 17.3518 52.4229 16.5539C52.4229 15.7345 52.1462 15.1199 51.5928 14.7102C51.0607 14.3005 50.2731 14.0957 49.2302 14.0957H45.8139V19.0768Z" fill="#01EEFF"/>
<path d="M11.8656 31.5C9.86483 31.5 8.11946 31.1334 6.6295 30.4003C5.16083 29.6671 4.02208 28.6321 3.21325 27.2951C2.40442 25.9367 2 24.341 2 22.5081V7.98517H8.25781V22.5081C8.25781 23.7588 8.56644 24.7291 9.18371 25.4191C9.80098 26.0876 10.695 26.4218 11.8656 26.4218C13.0576 26.4218 13.9622 26.0876 14.5795 25.4191C15.1967 24.7291 15.5054 23.7588 15.5054 22.5081V7.98517H21.7632V22.5081C21.7632 24.341 21.3588 25.9367 20.5499 27.2951C19.7411 28.6321 18.5917 29.6671 17.1018 30.4003C15.6331 31.1334 13.8877 31.5 11.8656 31.5Z" fill="white"/>
<path d="M31.7022 31.5C29.3182 31.5 27.2642 31.0148 25.5401 30.0445C23.816 29.0741 22.4964 27.6941 21.5811 25.9043C20.6659 24.1146 20.2082 21.9906 20.2082 19.5323C20.2082 17.0741 20.6659 14.9501 21.5811 13.1604C22.4964 11.3491 23.816 9.95822 25.5401 8.98787C27.2642 7.99596 29.3182 7.5 31.7022 7.5C34.1074 7.5 36.1614 7.99596 37.8642 8.98787C39.5883 9.95822 40.908 11.3491 41.8232 13.1604C42.7385 14.9501 43.1961 17.0741 43.1961 19.5323C43.1961 21.9906 42.7385 24.1146 41.8232 25.9043C40.908 27.6941 39.5883 29.0741 37.8642 30.0445C36.1614 31.0148 34.1074 31.5 31.7022 31.5ZM31.7022 26.4218C32.7664 26.4218 33.671 26.1523 34.416 25.6132C35.1823 25.0741 35.7676 24.2978 36.172 23.2844C36.5764 22.2493 36.7787 20.9987 36.7787 19.5323C36.7787 18.066 36.5764 16.8154 36.172 15.7803C35.7676 14.7453 35.1823 13.9582 34.416 13.4191C33.671 12.8585 32.7664 12.5782 31.7022 12.5782C30.6379 12.5782 29.7227 12.8585 28.9564 13.4191C28.2114 13.9582 27.6367 14.7453 27.2323 15.7803C26.8279 16.8154 26.6257 18.066 26.6257 19.5323C26.6257 20.9987 26.8279 22.2493 27.2323 23.2844C27.6367 24.2978 28.2114 25.0741 28.9564 25.6132C29.7227 26.1523 30.6379 26.4218 31.7022 26.4218Z" fill="white"/>
<path d="M41.5561 30.9825V8.01752H52.3795C54.0824 8.01752 55.5617 8.29784 56.8175 8.85849C58.0946 9.41914 59.0737 10.2062 59.7548 11.2197C60.4572 12.2332 60.8084 13.4299 60.8084 14.81C60.8084 15.8881 60.6062 16.8477 60.2018 17.6887C59.7974 18.5081 59.2121 19.1873 58.4458 19.7264C57.6795 20.2655 56.7536 20.6321 55.6681 20.8261L55.6042 20.5027C57.2006 20.5027 58.3926 20.8477 59.1801 21.5377C59.9677 22.2062 60.404 23.1981 60.4892 24.5135L61 30.9825H54.6145L54.2952 25.6132C54.2526 24.7722 54.0291 24.1577 53.6247 23.7695C53.2203 23.3598 52.5073 23.155 51.4856 23.155H47.8139V30.9825H41.5561ZM47.8139 18.0768H51.2302C52.2731 18.0768 53.0607 17.8612 53.5928 17.4299C54.1462 16.9771 54.4229 16.3518 54.4229 15.5539C54.4229 14.7345 54.1462 14.1199 53.5928 13.7102C53.0607 13.3005 52.2731 13.0957 51.2302 13.0957H47.8139V18.0768Z" fill="white"/>
<path d="M72.7119 15.4945C72.187 15.4945 71.7321 15.3982 71.3472 15.2057C70.9681 15.0131 70.6736 14.7389 70.4636 14.3829C70.2537 14.0212 70.1487 13.5981 70.1487 13.1138V9.13129H71.4784V13.1138C71.4784 13.5164 71.5834 13.8286 71.7933 14.0503C72.0091 14.2662 72.3153 14.3742 72.7119 14.3742C73.1085 14.3742 73.4117 14.2662 73.6217 14.0503C73.8316 13.8286 73.9366 13.5164 73.9366 13.1138V9.13129H75.2663V13.1138C75.2663 13.5981 75.1613 14.0212 74.9514 14.3829C74.7473 14.7389 74.4527 15.0131 74.0678 15.2057C73.6829 15.3982 73.2309 15.4945 72.7119 15.4945Z" fill="white"/>
<path d="M76.559 15.3545V9.14004H78.0287L80.4956 13.4289V9.14004H81.8253V15.3545H80.3382L77.8887 11.2144V15.3545H76.559Z" fill="white"/>
<path d="M83.0004 15.3545V9.14004H84.3301V15.3545H83.0004Z" fill="white"/>
<path d="M87.1594 15.3545L84.9199 9.14004H86.2933L87.9467 13.8578L89.6001 9.14004H90.9735L88.7252 15.3545H87.1594Z" fill="white"/>
<path d="M91.552 15.3545V9.14004H95.8735V10.2604H92.8816V11.6871H95.7685V12.7899H92.8816V14.2341H95.9434V15.3545H91.552Z" fill="white"/>
<path d="M96.9682 15.3545V9.14004H99.6888C100.144 9.14004 100.537 9.2159 100.87 9.36761C101.208 9.51933 101.468 9.73523 101.648 10.0153C101.829 10.2896 101.92 10.6163 101.92 10.9956C101.92 11.2815 101.858 11.5354 101.736 11.7571C101.619 11.9788 101.456 12.1597 101.246 12.2998C101.042 12.4398 100.806 12.5274 100.537 12.5624L100.511 12.4836C100.925 12.4836 101.24 12.574 101.456 12.7549C101.672 12.93 101.794 13.2013 101.823 13.5689L101.981 15.3545H100.625L100.511 13.779C100.494 13.5398 100.418 13.3647 100.284 13.2538C100.155 13.1371 99.9338 13.0788 99.6188 13.0788H98.2979V15.3545H96.9682ZM98.2979 11.9672H99.5401C99.8609 11.9672 100.109 11.8942 100.284 11.7484C100.464 11.5966 100.555 11.3837 100.555 11.1094C100.555 10.8293 100.464 10.6193 100.284 10.4792C100.103 10.3333 99.8405 10.2604 99.4964 10.2604H98.2979V11.9672Z" fill="white"/>
<path d="M105.398 15.4945C104.861 15.4945 104.401 15.4041 104.016 15.2232C103.631 15.0423 103.33 14.7885 103.115 14.4617C102.899 14.1349 102.776 13.7498 102.747 13.3063L104.086 13.2451C104.121 13.4902 104.191 13.7002 104.296 13.8753C104.406 14.0445 104.552 14.1729 104.733 14.2604C104.92 14.3479 105.147 14.3917 105.415 14.3917C105.637 14.3917 105.824 14.3654 105.975 14.3129C106.133 14.2604 106.252 14.1816 106.334 14.0766C106.416 13.9657 106.456 13.8315 106.456 13.674C106.456 13.5281 106.421 13.4026 106.351 13.2976C106.281 13.1867 106.147 13.0875 105.949 13C105.751 12.9066 105.459 12.8162 105.074 12.7287C104.544 12.6061 104.115 12.469 103.788 12.3173C103.468 12.1656 103.234 11.9759 103.088 11.7484C102.943 11.515 102.87 11.2232 102.87 10.8731C102.87 10.4996 102.96 10.1729 103.141 9.89278C103.328 9.61269 103.596 9.39387 103.946 9.23632C104.296 9.07877 104.713 9 105.197 9C105.71 9 106.144 9.09044 106.5 9.27133C106.856 9.45222 107.133 9.70022 107.331 10.0153C107.535 10.3304 107.658 10.6922 107.699 11.1007L106.369 11.1707C106.351 10.9548 106.293 10.7681 106.194 10.6105C106.095 10.4471 105.961 10.3217 105.792 10.2341C105.622 10.1466 105.418 10.1028 105.179 10.1028C104.876 10.1028 104.637 10.1699 104.462 10.3042C104.293 10.4384 104.208 10.6134 104.208 10.8293C104.208 10.981 104.246 11.1094 104.322 11.2144C104.404 11.3136 104.535 11.4012 104.716 11.477C104.902 11.5529 105.165 11.6258 105.503 11.6958C106.08 11.8125 106.535 11.9613 106.868 12.1422C107.206 12.3173 107.445 12.5274 107.585 12.7724C107.725 13.0175 107.795 13.2976 107.795 13.6127C107.795 13.9978 107.696 14.3333 107.497 14.6193C107.305 14.8993 107.028 15.1152 106.666 15.267C106.311 15.4187 105.888 15.4945 105.398 15.4945Z" fill="white"/>
<path d="M108.046 15.3545L110.285 9.14004H111.86L114.099 15.3545H112.717L112.262 14.0328H109.874L109.419 15.3545H108.046ZM110.25 12.9387H111.895L111.073 10.5405L110.25 12.9387Z" fill="white"/>
<path d="M114.772 15.3545V9.14004H116.101V14.9956L115.367 14.2341H118.962V15.3545H114.772Z" fill="white"/>
<path d="M73.0268 23.2473C72.397 23.2473 71.8546 23.116 71.3997 22.8534C70.9506 22.5908 70.6036 22.2174 70.3587 21.733C70.1196 21.2487 70 20.674 70 20.0088C70 19.3435 70.1196 18.7688 70.3587 18.2845C70.6036 17.7943 70.9506 17.4179 71.3997 17.1554C71.8546 16.8869 72.397 16.7527 73.0268 16.7527C73.6567 16.7527 74.1961 16.8869 74.6452 17.1554C75.1001 17.4179 75.4471 17.7943 75.6862 18.2845C75.9311 18.7688 76.0536 19.3435 76.0536 20.0088C76.0536 20.674 75.9311 21.2487 75.6862 21.733C75.4471 22.2174 75.1001 22.5908 74.6452 22.8534C74.1961 23.116 73.6567 23.2473 73.0268 23.2473ZM73.0181 22.1269C73.368 22.1269 73.6654 22.0452 73.9104 21.8818C74.1611 21.7126 74.3507 21.4705 74.479 21.1554C74.6131 20.8403 74.6802 20.4581 74.6802 20.0088C74.6802 19.5594 74.6131 19.1772 74.479 18.8621C74.3507 18.5412 74.1611 18.2961 73.9104 18.1269C73.6654 17.9577 73.368 17.8731 73.0181 17.8731C72.674 17.8731 72.3795 17.9577 72.1345 18.1269C71.8896 18.2961 71.7 18.5412 71.5659 18.8621C71.4376 19.1772 71.3734 19.5594 71.3734 20.0088C71.3734 20.4581 71.4376 20.8403 71.5659 21.1554C71.7 21.4705 71.8896 21.7126 72.1345 21.8818C72.3853 22.0452 72.6798 22.1269 73.0181 22.1269Z" fill="white"/>
<path d="M76.9349 23.1072V16.8928H79.3494C80.1192 16.8928 80.7082 17.0299 81.1165 17.3042C81.5247 17.5726 81.7288 17.9985 81.7288 18.5821C81.7288 18.8388 81.6763 19.0635 81.5714 19.256C81.4664 19.4427 81.3118 19.5915 81.1077 19.7024C80.9094 19.8133 80.6674 19.8804 80.3816 19.9037V19.8862C80.9007 19.9212 81.2973 20.0729 81.5714 20.3414C81.8513 20.6039 81.9913 20.954 81.9913 21.3917C81.9913 21.9694 81.7871 22.4012 81.3789 22.6871C80.9765 22.9672 80.3991 23.1072 79.6468 23.1072H76.9349ZM78.2646 22.0219H79.5856C79.9063 22.0219 80.1629 21.9577 80.3554 21.8293C80.5537 21.6951 80.6528 21.4967 80.6528 21.2341C80.6528 20.9716 80.5537 20.7732 80.3554 20.6389C80.1629 20.4989 79.9063 20.4289 79.5856 20.4289H78.2646V22.0219ZM78.2646 19.4661H79.3144C79.641 19.4661 79.9005 19.4019 80.0929 19.2735C80.2912 19.1451 80.3904 18.9613 80.3904 18.7221C80.3904 18.4654 80.2942 18.2786 80.1017 18.1619C79.9151 18.0394 79.6526 17.9781 79.3144 17.9781H78.2646V19.4661Z" fill="white"/>
<path d="M85.1416 23.2473C84.6576 23.2473 84.2464 23.1451 83.9082 22.9409C83.5757 22.7367 83.3191 22.4595 83.1383 22.1094C82.9634 21.7535 82.873 21.3479 82.8672 20.8928L84.2056 20.8315C84.2114 21.275 84.296 21.6018 84.4593 21.8118C84.6226 22.0219 84.85 22.1269 85.1416 22.1269C85.4391 22.1269 85.6694 22.0248 85.8327 21.8206C85.996 21.6163 86.0777 21.3012 86.0777 20.8753V16.8928H87.4074V20.8753C87.4074 21.3596 87.3111 21.7797 87.1187 22.1357C86.9321 22.4916 86.6696 22.7659 86.3314 22.9584C85.9931 23.151 85.5965 23.2473 85.1416 23.2473Z" fill="white"/>
<path d="M88.6986 23.1072V16.8928H93.0201V18.0131H90.0283V19.4398H92.9151V20.5427H90.0283V21.9869H93.0901V23.1072H88.6986Z" fill="white"/>
<path d="M96.7736 23.2473C96.2079 23.2473 95.7034 23.1189 95.2602 22.8621C94.8228 22.6054 94.4787 22.2349 94.228 21.7505C93.983 21.2662 93.8605 20.6856 93.8605 20.0088C93.8605 19.3494 93.9801 18.7775 94.2192 18.2932C94.4583 17.8031 94.7995 17.4238 95.2427 17.1554C95.686 16.8869 96.205 16.7527 96.7999 16.7527C97.6105 16.7527 98.2404 16.954 98.6894 17.3567C99.1443 17.7535 99.4359 18.3224 99.5642 19.0635L98.1821 19.116C98.1121 18.725 97.9604 18.4216 97.7272 18.2057C97.4939 17.984 97.1848 17.8731 96.7999 17.8731C96.4674 17.8731 96.1846 17.9606 95.9513 18.1357C95.718 18.3107 95.5402 18.5587 95.4177 18.8797C95.2952 19.2006 95.234 19.577 95.234 20.0088C95.234 20.4464 95.2952 20.8257 95.4177 21.1466C95.546 21.4617 95.7268 21.7039 95.9601 21.8731C96.1933 22.0423 96.4704 22.1269 96.7911 22.1269C97.211 22.1269 97.5347 22.0102 97.7621 21.7768C97.9954 21.5376 98.1412 21.2079 98.1995 20.7877L99.5905 20.8403C99.5088 21.3479 99.3485 21.7797 99.1093 22.1357C98.8702 22.4916 98.5553 22.7659 98.1646 22.9584C97.7796 23.151 97.316 23.2473 96.7736 23.2473Z" fill="white"/>
<path d="M101.74 23.1072V18.0131H99.8855V16.8928H104.942V18.0131H103.079V23.1072H101.74Z" fill="white"/>
<path d="M70.2799 30.86V24.6455H73.0006C73.4555 24.6455 73.8491 24.7214 74.1815 24.8731C74.5198 25.0248 74.7793 25.2407 74.9601 25.5208C75.1409 25.795 75.2313 26.1218 75.2313 26.5011C75.2313 26.787 75.1701 27.0408 75.0476 27.2626C74.931 27.4843 74.7677 27.6652 74.5577 27.8053C74.3536 27.9453 74.1174 28.0328 73.8491 28.0678L73.8229 27.9891C74.237 27.9891 74.5519 28.0795 74.7677 28.2604C74.9834 28.4354 75.1059 28.7068 75.1351 29.0744L75.2925 30.86H73.9366L73.8229 29.2845C73.8054 29.0452 73.7296 28.8702 73.5954 28.7593C73.4671 28.6426 73.2455 28.5842 72.9306 28.5842H71.6096V30.86H70.2799ZM71.6096 27.4726H72.8519C73.1726 27.4726 73.4205 27.3997 73.5954 27.2538C73.7762 27.1021 73.8666 26.8891 73.8666 26.6149C73.8666 26.3348 73.7762 26.1247 73.5954 25.9847C73.4146 25.8388 73.1522 25.7659 72.8081 25.7659H71.6096V27.4726Z" fill="white"/>
<path d="M76.3796 30.86V24.6455H80.7011V25.7659H77.7093V27.1926H80.5962V28.2954H77.7093V29.7396H80.7711V30.86H76.3796Z" fill="white"/>
<path d="M81.7959 30.86V24.6455H86.0824V25.7659H82.3907L83.1256 25.0044V27.849L82.3907 27.2713H85.9249V28.3742H82.3907L83.1256 27.7965V30.86H81.7959Z" fill="white"/>
<path d="M86.9558 30.86V24.6455H91.2773V25.7659H88.2855V27.1926H91.1724V28.2954H88.2855V29.7396H91.3473V30.86H86.9558Z" fill="white"/>
<path d="M92.3721 30.86V24.6455H95.0927C95.5476 24.6455 95.9413 24.7214 96.2737 24.8731C96.6119 25.0248 96.8715 25.2407 97.0523 25.5208C97.2331 25.795 97.3234 26.1218 97.3234 26.5011C97.3234 26.787 97.2622 27.0408 97.1397 27.2626C97.0231 27.4843 96.8598 27.6652 96.6499 27.8053C96.4457 27.9453 96.2095 28.0328 95.9413 28.0678L95.915 27.9891C96.3291 27.9891 96.644 28.0795 96.8598 28.2604C97.0756 28.4354 97.1981 28.7068 97.2272 29.0744L97.3847 30.86H96.0287L95.915 29.2845C95.8975 29.0452 95.8217 28.8702 95.6876 28.7593C95.5593 28.6426 95.3377 28.5842 95.0227 28.5842H93.7018V30.86H92.3721ZM93.7018 27.4726H94.944C95.2648 27.4726 95.5126 27.3997 95.6876 27.2538C95.8684 27.1021 95.9588 26.8891 95.9588 26.6149C95.9588 26.3348 95.8684 26.1247 95.6876 25.9847C95.5068 25.8388 95.2443 25.7659 94.9003 25.7659H93.7018V27.4726Z" fill="white"/>
<path d="M98.4718 30.86V24.6455H102.793V25.7659H99.8015V27.1926H102.688V28.2954H99.8015V29.7396H102.863V30.86H98.4718Z" fill="white"/>
<path d="M103.862 30.86V24.6455H105.332L107.799 28.9344V24.6455H109.129V30.86H107.642L105.192 26.7199V30.86H103.862Z" fill="white"/>
<path d="M112.92 31C112.354 31 111.85 30.8716 111.406 30.6149C110.969 30.3581 110.625 29.9876 110.374 29.5033C110.129 29.019 110.007 28.4384 110.007 27.7615C110.007 27.1021 110.126 26.5303 110.365 26.046C110.605 25.5558 110.946 25.1765 111.389 24.9081C111.832 24.6397 112.351 24.5055 112.946 24.5055C113.757 24.5055 114.387 24.7068 114.836 25.1094C115.291 25.5062 115.582 26.0751 115.71 26.8162L114.328 26.8687C114.258 26.4778 114.107 26.1743 113.873 25.9584C113.64 25.7367 113.331 25.6258 112.946 25.6258C112.614 25.6258 112.331 25.7133 112.098 25.8884C111.864 26.0635 111.686 26.3115 111.564 26.6324C111.441 26.9533 111.38 27.3297 111.38 27.7615C111.38 28.1991 111.441 28.5784 111.564 28.8993C111.692 29.2144 111.873 29.4566 112.106 29.6258C112.34 29.795 112.617 29.8797 112.937 29.8797C113.357 29.8797 113.681 29.7629 113.908 29.5295C114.142 29.2903 114.287 28.9606 114.346 28.5405L115.737 28.593C115.655 29.1007 115.495 29.5325 115.256 29.8884C115.016 30.2443 114.702 30.5186 114.311 30.7112C113.926 30.9037 113.462 31 112.92 31Z" fill="white"/>
<path d="M116.609 30.86V24.6455H120.93V25.7659H117.938V27.1926H120.825V28.2954H117.938V29.7396H121V30.86H116.609Z" fill="white"/>
</svg>
