<svg width="16" height="16" viewBox="0 0 16 16" fill="none" xmlns="http://www.w3.org/2000/svg">
<path d="M10.4842 5.52941L10.5557 5.66059L10.6875 5.73101L14.0938 7.55095L14.0951 7.55166C14.2576 7.63785 14.3543 7.78876 14.3598 7.96574C14.3451 8.14475 14.2881 8.26195 14.2049 8.34516C14.1646 8.38545 14.1389 8.41089 14.116 8.43094C14.1075 8.43833 14.102 8.44272 14.0991 8.44492L14.093 8.4482L10.6917 10.2968L10.5617 10.3675L10.4911 10.4974L8.64247 13.8988L8.64244 13.8987L8.63971 13.9039C8.55427 14.0656 8.40384 14.1615 8.22607 14.1657C8.02293 14.1506 7.85933 14.0434 7.78375 13.9009L7.78379 13.9009L7.781 13.8958L5.92324 10.4895L5.85281 10.3603L5.72368 10.2899L2.31736 8.43216L2.31738 8.43213L2.31223 8.4294C2.14892 8.34279 2.05213 8.19079 2.04748 8.01266C2.06206 7.80981 2.16845 7.64785 2.30925 7.57345L2.30926 7.57348L2.3144 7.57068L5.71577 5.72204L5.84569 5.65142L5.91631 5.52149L7.76496 2.12013L7.76499 2.12014L7.76772 2.11497C7.85316 1.95329 8.00359 1.85734 8.18136 1.85318C8.3845 1.86832 8.5481 1.97547 8.62368 2.11796L8.62365 2.11798L8.62643 2.12309L10.4842 5.52941Z" stroke="#140032"/>
<path d="M13.6707 2.15772L13.1008 1.11099C13.0485 1.01213 12.9438 0.953974 12.8333 0.948159C12.717 0.948159 12.6181 1.01213 12.5658 1.11099L11.9959 2.15773L10.9492 2.72762C10.8503 2.77995 10.7922 2.88463 10.7864 2.99512C10.7864 3.11142 10.8503 3.21028 10.9492 3.26262L11.9959 3.83251L12.5658 4.87925C12.6182 4.97811 12.7228 5.03626 12.8333 5.04208C12.9496 5.04208 13.0485 4.97811 13.1008 4.87925L13.6707 3.83251L14.7174 3.26262C14.7407 3.25099 14.764 3.22773 14.7872 3.20447C14.8454 3.14631 14.8745 3.07071 14.8803 2.98349C14.8803 2.86718 14.8163 2.76832 14.7174 2.71599L13.6707 2.15772Z" fill="#140032"/>
</svg>
