<svg width="590" height="170" viewBox="0 0 590 170" fill="none" xmlns="http://www.w3.org/2000/svg">
<g clip-path="url(#clip0_70_107)">
<path d="M4.32349 19.7686V0.189636H82.0744V19.7686H55.1673V89.6933H31.2305V19.7686H4.32349Z" fill="#F500FF"/>
<path d="M115.675 51.934V89.6933H91.5638V0.189636H114.802V35.3268H115.5C117.015 31.0439 119.533 27.7079 123.058 25.3188C126.581 22.9006 130.817 21.6915 135.768 21.6915C140.515 21.6915 144.635 22.7695 148.13 24.9256C151.653 27.0815 154.376 30.0533 156.298 33.8409C158.249 37.6285 159.21 41.9697 159.181 46.8644V89.6933H135.069V51.934C135.099 48.6125 134.269 46.0049 132.579 44.1111C130.92 42.2173 128.546 41.2704 125.459 41.2704C123.509 41.2704 121.79 41.7075 120.306 42.5815C118.85 43.4264 117.713 44.6501 116.898 46.2525C116.112 47.8258 115.705 49.7197 115.675 51.934Z" fill="#F500FF"/>
<path d="M203.232 90.9169C196.069 90.9169 189.896 89.5475 184.712 86.8089C179.558 84.041 175.582 80.0786 172.788 74.9217C170.021 69.7356 168.638 63.5297 168.638 56.3042C168.638 49.37 170.036 43.3098 172.83 38.1238C175.626 32.9376 179.573 28.9025 184.668 26.018C189.764 23.1337 195.778 21.6915 202.708 21.6915C207.775 21.6915 212.361 22.4782 216.467 24.0514C220.573 25.6247 224.082 27.9119 226.995 30.9128C229.906 33.8846 232.148 37.4974 233.721 41.7512C235.293 46.0049 236.08 50.7977 236.08 56.1294V61.7233H176.15V48.4377H213.891C213.861 46.5147 213.366 44.8249 212.405 43.3681C211.473 41.8823 210.207 40.7314 208.605 39.9156C207.033 39.0707 205.242 38.6482 203.232 38.6482C201.282 38.6482 199.491 39.0707 197.86 39.9156C196.229 40.7314 194.919 41.8677 193.929 43.3244C192.967 44.7812 192.458 46.4856 192.399 48.4377V62.7722C192.399 64.9282 192.851 66.8512 193.753 68.5411C194.656 70.2309 195.952 71.5565 197.642 72.518C199.33 73.4794 201.368 73.9602 203.756 73.9602C205.416 73.9602 206.93 73.7271 208.299 73.2609C209.697 72.7948 210.891 72.1246 211.881 71.2506C212.871 70.3475 213.599 69.2695 214.065 68.0166H236.08C235.322 72.6782 233.532 76.7281 230.707 80.166C227.883 83.5748 224.141 86.2262 219.481 88.12C214.852 89.9846 209.435 90.9169 203.232 90.9169Z" fill="#F500FF"/>
<path d="M278.242 90.9169C270.962 90.9169 264.731 89.4747 259.547 86.5904C254.364 83.6768 250.388 79.6271 247.623 74.4409C244.856 69.2257 243.473 63.1801 243.473 56.3042C243.473 49.4283 244.856 43.3972 247.623 38.2112C250.388 32.9959 254.364 28.9462 259.547 26.0617C264.731 23.1483 270.962 21.6915 278.242 21.6915C285.523 21.6915 291.754 23.1483 296.938 26.0617C302.121 28.9462 306.095 32.9959 308.862 38.2112C311.628 43.3972 313.012 49.4283 313.012 56.3042C313.012 63.1801 311.628 69.2257 308.862 74.4409C306.095 79.6271 302.121 83.6768 296.938 86.5904C291.754 89.4747 285.523 90.9169 278.242 90.9169ZM278.416 73.0861C280.455 73.0861 282.217 72.4014 283.702 71.0321C285.188 69.6628 286.338 67.7107 287.153 65.1759C287.968 62.6411 288.376 59.6257 288.376 56.1294C288.376 52.604 287.968 49.5885 287.153 47.0829C286.338 44.5481 285.188 42.596 283.702 41.2267C282.217 39.8574 280.455 39.1727 278.416 39.1727C276.262 39.1727 274.413 39.8574 272.87 41.2267C271.326 42.596 270.147 44.5481 269.332 47.0829C268.516 49.5885 268.108 52.604 268.108 56.1294C268.108 59.6257 268.516 62.6411 269.332 65.1759C270.147 67.7107 271.326 69.6628 272.87 71.0321C274.413 72.4014 276.262 73.0861 278.416 73.0861Z" fill="#F500FF"/>
<path d="M322.796 89.6932V22.5656H346.209V35.3268H346.907C348.13 30.6069 350.067 27.1543 352.717 24.9692C355.396 22.7841 358.526 21.6915 362.108 21.6915C363.156 21.6915 364.191 21.7789 365.21 21.9537C366.258 22.0994 367.262 22.3179 368.224 22.6093V43.1933C367.03 42.7854 365.559 42.4795 363.812 42.2755C362.064 42.0717 360.565 41.9697 359.313 41.9697C356.954 41.9697 354.829 42.5086 352.936 43.5866C351.072 44.6355 349.601 46.1214 348.523 48.0444C347.446 49.9382 346.907 52.1669 346.907 54.7309V89.6932H322.796Z" fill="#F500FF"/>
<path d="M404.435 90.9169C397.271 90.9169 391.097 89.5475 385.914 86.8089C380.76 84.041 376.785 80.0786 373.989 74.9217C371.223 69.7356 369.839 63.5297 369.839 56.3042C369.839 49.37 371.237 43.3098 374.033 38.1238C376.829 32.9376 380.774 28.9025 385.87 26.018C390.967 23.1337 396.979 21.6915 403.91 21.6915C408.977 21.6915 413.564 22.4782 417.67 24.0514C421.775 25.6247 425.285 27.9119 428.196 30.9128C431.109 33.8846 433.351 37.4974 434.923 41.7512C436.496 46.0049 437.282 50.7977 437.282 56.1294V61.7233H377.353V48.4377H415.092C415.063 46.5147 414.568 44.8249 413.608 43.3681C412.676 41.8823 411.408 40.7314 409.807 39.9156C408.234 39.0707 406.443 38.6482 404.435 38.6482C402.483 38.6482 400.692 39.0707 399.062 39.9156C397.431 40.7314 396.12 41.8677 395.13 43.3244C394.169 44.7812 393.66 46.4856 393.602 48.4377V62.7722C393.602 64.9282 394.053 66.8512 394.956 68.5411C395.859 70.2309 397.154 71.5565 398.843 72.518C400.532 73.4794 402.571 73.9602 404.959 73.9602C406.618 73.9602 408.133 73.7271 409.502 73.2609C410.9 72.7948 412.093 72.1246 413.083 71.2506C414.074 70.3475 414.801 69.2695 415.267 68.0166H437.282C436.525 72.6782 434.734 76.7281 431.909 80.166C429.084 83.5748 425.343 86.2262 420.684 88.12C416.053 89.9846 410.637 90.9169 404.435 90.9169Z" fill="#F500FF"/>
<path d="M447.121 89.6932V22.5656H470.009V35.3268H470.708C472.106 31.1313 474.493 27.8099 477.872 25.3625C481.249 22.9152 485.269 21.6915 489.927 21.6915C494.645 21.6915 498.707 22.9443 502.114 25.4499C505.522 27.9264 507.574 31.2187 508.274 35.3268H508.972C510.108 31.2187 512.524 27.9264 516.223 25.4499C519.921 22.9443 524.26 21.6915 529.239 21.6915C535.675 21.6915 540.888 23.76 544.878 27.8973C548.896 32.0345 550.905 37.5411 550.905 44.417V89.6932H526.794V50.5355C526.794 47.5928 526.051 45.291 524.566 43.6303C523.081 41.9405 521.086 41.0956 518.582 41.0956C516.106 41.0956 514.141 41.9405 512.685 43.6303C511.258 45.291 510.545 47.5928 510.545 50.5355V89.6932H487.482V50.5355C487.482 47.5928 486.739 45.291 485.254 43.6303C483.769 41.9405 481.774 41.0956 479.27 41.0956C477.61 41.0956 476.183 41.4744 474.989 42.2318C473.795 42.9893 472.863 44.0819 472.193 45.5096C471.553 46.9081 471.233 48.5834 471.233 50.5355V89.6932H447.121Z" fill="#F500FF"/>
<path d="M0.153809 20.8115V1.23257H77.9047V20.8115H50.9977V90.7362H27.0609V20.8115H0.153809Z" fill="#01EEFF"/>
<path d="M111.506 52.9769V90.7362H87.3942V1.23257H110.632V36.3698H111.331C112.845 32.0868 115.364 28.7509 118.888 26.3618C122.411 23.9435 126.648 22.7344 131.598 22.7344C136.345 22.7344 140.466 23.8124 143.96 25.9685C147.483 28.1245 150.206 31.0962 152.128 34.8838C154.08 38.6715 155.041 43.0126 155.011 47.9074V90.7362H130.9V52.9769C130.929 49.6554 130.099 47.0479 128.409 45.1541C126.75 43.2602 124.376 42.3133 121.29 42.3133C119.339 42.3133 117.621 42.7504 116.136 43.6244C114.68 44.4694 113.544 45.6931 112.729 47.2955C111.943 48.8687 111.535 50.7626 111.506 52.9769Z" fill="#01EEFF"/>
<path d="M199.062 91.9599C191.899 91.9599 185.726 90.5905 180.542 87.8518C175.388 85.084 171.413 81.1216 168.618 75.9647C165.852 70.7785 164.468 64.5727 164.468 57.3472C164.468 50.4129 165.866 44.3528 168.661 39.1668C171.457 33.9806 175.403 29.9455 180.498 27.061C185.595 24.1766 191.608 22.7344 198.538 22.7344C203.605 22.7344 208.192 23.5211 212.298 25.0944C216.404 26.6677 219.913 28.9549 222.825 31.9557C225.737 34.9276 227.979 38.5404 229.552 42.7941C231.124 47.0479 231.911 51.8406 231.911 57.1724V62.7663H171.981V49.4806H209.721C209.692 47.5577 209.197 45.8679 208.236 44.4111C207.304 42.9252 206.037 41.7743 204.435 40.9585C202.863 40.1137 201.072 39.6912 199.062 39.6912C197.112 39.6912 195.321 40.1137 193.69 40.9585C192.06 41.7743 190.749 42.9106 189.759 44.3674C188.798 45.8242 188.288 47.5286 188.23 49.4806V63.8152C188.23 65.9712 188.681 67.8942 189.584 69.584C190.487 71.2738 191.782 72.5995 193.472 73.561C195.161 74.5224 197.199 75.0032 199.587 75.0032C201.246 75.0032 202.761 74.7701 204.13 74.3039C205.527 73.8378 206.721 73.1676 207.711 72.2936C208.702 71.3904 209.429 70.3124 209.895 69.0595H231.911C231.153 73.7212 229.362 77.771 226.537 81.209C223.713 84.6178 219.971 87.2691 215.311 89.1629C210.682 91.0276 205.266 91.9599 199.062 91.9599Z" fill="#01EEFF"/>
<path d="M274.073 91.9599C266.793 91.9599 260.561 90.5177 255.377 87.6333C250.194 84.7198 246.219 80.67 243.453 75.4839C240.687 70.2686 239.303 64.2231 239.303 57.3472C239.303 50.4712 240.687 44.4402 243.453 39.2542C246.219 34.0389 250.194 29.9892 255.377 27.1047C260.561 24.1912 266.793 22.7344 274.073 22.7344C281.353 22.7344 287.584 24.1912 292.768 27.1047C297.951 29.9892 301.926 34.0389 304.692 39.2542C307.459 44.4402 308.842 50.4712 308.842 57.3472C308.842 64.2231 307.459 70.2686 304.692 75.4839C301.926 80.67 297.951 84.7198 292.768 87.6333C287.584 90.5177 281.353 91.9599 274.073 91.9599ZM274.247 74.1291C276.286 74.1291 278.047 73.4444 279.533 72.0751C281.018 70.7057 282.168 68.7536 282.983 66.2189C283.798 63.6841 284.206 60.6686 284.206 57.1724C284.206 53.647 283.798 50.6314 282.983 48.1259C282.168 45.5911 281.018 43.639 279.533 42.2696C278.047 40.9003 276.286 40.2157 274.247 40.2157C272.092 40.2157 270.243 40.9003 268.7 42.2696C267.156 43.639 265.977 45.5911 265.162 48.1259C264.346 50.6314 263.938 53.647 263.938 57.1724C263.938 60.6686 264.346 63.6841 265.162 66.2189C265.977 68.7536 267.156 70.7057 268.7 72.0751C270.243 73.4444 272.092 74.1291 274.247 74.1291Z" fill="#01EEFF"/>
<path d="M318.626 90.7362V23.6085H342.04V36.3698H342.738C343.961 31.6498 345.897 28.1973 348.547 26.0122C351.226 23.827 354.357 22.7344 357.938 22.7344C358.987 22.7344 360.021 22.8218 361.04 22.9966C362.088 23.1423 363.093 23.3608 364.054 23.6522V44.2363C362.86 43.8284 361.39 43.5225 359.643 43.3185C357.894 43.1146 356.395 43.0126 355.144 43.0126C352.785 43.0126 350.659 43.5516 348.766 44.6296C346.902 45.6785 345.431 47.1644 344.354 49.0874C343.277 50.9811 342.738 53.2099 342.738 55.7739V90.7362H318.626Z" fill="#01EEFF"/>
<path d="M400.265 91.9599C393.102 91.9599 386.927 90.5905 381.745 87.8518C376.59 85.084 372.615 81.1216 369.819 75.9647C367.053 70.7785 365.67 64.5727 365.67 57.3472C365.67 50.4129 367.068 44.3528 369.863 39.1668C372.659 33.9806 376.604 29.9455 381.701 27.061C386.797 24.1766 392.81 22.7344 399.741 22.7344C404.808 22.7344 409.394 23.5211 413.5 25.0944C417.605 26.6677 421.115 28.9549 424.027 31.9557C426.939 34.9276 429.181 38.5404 430.753 42.7941C432.326 47.0479 433.112 51.8406 433.112 57.1724V62.7663H373.183V49.4806H410.922C410.893 47.5577 410.398 45.8679 409.438 44.4111C408.506 42.9252 407.239 41.7743 405.637 40.9585C404.064 40.1137 402.274 39.6912 400.265 39.6912C398.314 39.6912 396.523 40.1137 394.892 40.9585C393.261 41.7743 391.951 42.9106 390.96 44.3674C389.999 45.8242 389.491 47.5286 389.432 49.4806V63.8152C389.432 65.9712 389.884 67.8942 390.786 69.584C391.689 71.2738 392.985 72.5995 394.673 73.561C396.362 74.5224 398.401 75.0032 400.789 75.0032C402.449 75.0032 403.963 74.7701 405.332 74.3039C406.73 73.8378 407.923 73.1676 408.914 72.2936C409.904 71.3904 410.632 70.3124 411.098 69.0595H433.112C432.355 73.7212 430.564 77.771 427.74 81.209C424.915 84.6178 421.173 87.2691 416.514 89.1629C411.884 91.0276 406.467 91.9599 400.265 91.9599Z" fill="#01EEFF"/>
<path d="M442.951 90.7362V23.6085H465.839V36.3698H466.539C467.937 32.1742 470.324 28.8529 473.702 26.4055C477.08 23.9581 481.099 22.7344 485.758 22.7344C490.476 22.7344 494.538 23.9872 497.944 26.4929C501.352 28.9694 503.405 32.2616 504.104 36.3698H504.802C505.939 32.2616 508.355 28.9694 512.053 26.4929C515.752 23.9872 520.09 22.7344 525.07 22.7344C531.506 22.7344 536.719 24.803 540.708 28.9403C544.726 33.0774 546.735 38.5841 546.735 45.46V90.7362H522.624V51.5784C522.624 48.6358 521.881 46.334 520.397 44.6733C518.911 42.9834 516.916 42.1385 514.412 42.1385C511.937 42.1385 509.972 42.9834 508.515 44.6733C507.088 46.334 506.375 48.6358 506.375 51.5784V90.7362H483.312V51.5784C483.312 48.6358 482.569 46.334 481.085 44.6733C479.599 42.9834 477.604 42.1385 475.1 42.1385C473.441 42.1385 472.014 42.5173 470.819 43.2748C469.625 44.0323 468.694 45.1249 468.023 46.5526C467.383 47.9511 467.063 49.6264 467.063 51.5784V90.7362H442.951Z" fill="#01EEFF"/>
<path d="M2.23865 19.7686V0.189636H79.9895V19.7686H53.0825V89.6933H29.1457V19.7686H2.23865Z" fill="white"/>
<path d="M113.591 51.934V89.6933H89.479V0.189636H112.717V35.3268H113.415C114.93 31.0439 117.449 27.7079 120.973 25.3188C124.496 22.9006 128.733 21.6915 133.683 21.6915C138.43 21.6915 142.551 22.7695 146.045 24.9256C149.568 27.0815 152.291 30.0533 154.213 33.8409C156.164 37.6285 157.126 41.9697 157.096 46.8644V89.6933H132.985V51.934C133.014 48.6125 132.184 46.0049 130.494 44.1111C128.835 42.2173 126.461 41.2704 123.375 41.2704C121.424 41.2704 119.705 41.7075 118.221 42.5815C116.765 43.4264 115.629 44.6501 114.813 46.2525C114.027 47.8258 113.62 49.7197 113.591 51.934Z" fill="white"/>
<path d="M201.147 90.9169C193.984 90.9169 187.811 89.5475 182.627 86.8089C177.473 84.041 173.497 80.0786 170.703 74.9217C167.936 69.7356 166.553 63.5297 166.553 56.3042C166.553 49.37 167.951 43.3098 170.746 38.1238C173.541 32.9376 177.488 28.9025 182.583 26.018C187.679 23.1337 193.693 21.6915 200.623 21.6915C205.69 21.6915 210.277 22.4782 214.383 24.0514C218.489 25.6247 221.997 27.9119 224.91 30.9128C227.821 33.8846 230.063 37.4974 231.636 41.7512C233.208 46.0049 233.995 50.7977 233.995 56.1294V61.7233H174.066V48.4377H211.806C211.777 46.5147 211.281 44.8249 210.32 43.3681C209.388 41.8823 208.122 40.7314 206.52 39.9156C204.948 39.0707 203.157 38.6482 201.147 38.6482C199.197 38.6482 197.406 39.0707 195.775 39.9156C194.144 40.7314 192.834 41.8677 191.844 43.3244C190.883 44.7812 190.373 46.4856 190.315 48.4377V62.7722C190.315 64.9282 190.766 66.8512 191.669 68.5411C192.571 70.2309 193.867 71.5565 195.557 72.518C197.245 73.4794 199.283 73.9602 201.672 73.9602C203.331 73.9602 204.846 73.7271 206.214 73.2609C207.612 72.7948 208.806 72.1246 209.796 71.2506C210.786 70.3475 211.514 69.2695 211.98 68.0166H233.995C233.238 72.6782 231.447 76.7281 228.622 80.166C225.798 83.5748 222.056 86.2262 217.396 88.12C212.767 89.9846 207.351 90.9169 201.147 90.9169Z" fill="white"/>
<path d="M276.158 90.9169C268.877 90.9169 262.646 89.4747 257.462 86.5904C252.279 83.6768 248.303 79.6271 245.538 74.4409C242.771 69.2257 241.388 63.1801 241.388 56.3042C241.388 49.4283 242.771 43.3972 245.538 38.2112C248.303 32.9959 252.279 28.9462 257.462 26.0617C262.646 23.1483 268.877 21.6915 276.158 21.6915C283.438 21.6915 289.669 23.1483 294.853 26.0617C300.036 28.9462 304.011 32.9959 306.777 38.2112C309.544 43.3972 310.927 49.4283 310.927 56.3042C310.927 63.1801 309.544 69.2257 306.777 74.4409C304.011 79.6271 300.036 83.6768 294.853 86.5904C289.669 89.4747 283.438 90.9169 276.158 90.9169ZM276.332 73.0861C278.371 73.0861 280.132 72.4014 281.618 71.0321C283.103 69.6628 284.253 67.7107 285.068 65.1759C285.883 62.6411 286.291 59.6257 286.291 56.1294C286.291 52.604 285.883 49.5885 285.068 47.0829C284.253 44.5481 283.103 42.596 281.618 41.2267C280.132 39.8574 278.371 39.1727 276.332 39.1727C274.177 39.1727 272.328 39.8574 270.785 41.2267C269.241 42.596 268.062 44.5481 267.247 47.0829C266.431 49.5885 266.023 52.604 266.023 56.1294C266.023 59.6257 266.431 62.6411 267.247 65.1759C268.062 67.7107 269.241 69.6628 270.785 71.0321C272.328 72.4014 274.177 73.0861 276.332 73.0861Z" fill="white"/>
<path d="M320.711 89.6932V22.5656H344.124V35.3268H344.823C346.045 30.6069 347.982 27.1543 350.632 24.9692C353.311 22.7841 356.441 21.6915 360.023 21.6915C361.072 21.6915 362.106 21.7789 363.125 21.9537C364.173 22.0994 365.178 22.3179 366.139 22.6093V43.1933C364.945 42.7854 363.474 42.4795 361.727 42.2755C359.979 42.0717 358.48 41.9697 357.228 41.9697C354.869 41.9697 352.744 42.5086 350.851 43.5866C348.987 44.6355 347.516 46.1214 346.438 48.0444C345.362 49.9382 344.823 52.1669 344.823 54.7309V89.6932H320.711Z" fill="white"/>
<path d="M402.35 90.9169C395.186 90.9169 389.012 89.5475 383.829 86.8089C378.675 84.041 374.7 80.0786 371.904 74.9217C369.138 69.7356 367.755 63.5297 367.755 56.3042C367.755 49.37 369.152 43.3098 371.948 38.1238C374.744 32.9376 378.689 28.9025 383.786 26.018C388.882 23.1337 394.895 21.6915 401.825 21.6915C406.893 21.6915 411.479 22.4782 415.585 24.0514C419.69 25.6247 423.2 27.9119 426.111 30.9128C429.024 33.8846 431.266 37.4974 432.838 41.7512C434.411 46.0049 435.197 50.7977 435.197 56.1294V61.7233H375.268V48.4377H413.007C412.978 46.5147 412.483 44.8249 411.523 43.3681C410.591 41.8823 409.323 40.7314 407.722 39.9156C406.149 39.0707 404.358 38.6482 402.35 38.6482C400.398 38.6482 398.608 39.0707 396.977 39.9156C395.346 40.7314 394.036 41.8677 393.045 43.3244C392.084 44.7812 391.575 46.4856 391.517 48.4377V62.7722C391.517 64.9282 391.968 66.8512 392.871 68.5411C393.774 70.2309 395.07 71.5565 396.758 72.518C398.447 73.4794 400.486 73.9602 402.874 73.9602C404.534 73.9602 406.048 73.7271 407.417 73.2609C408.815 72.7948 410.008 72.1246 410.999 71.2506C411.989 70.3475 412.716 69.2695 413.182 68.0166H435.197C434.44 72.6782 432.649 76.7281 429.824 80.166C426.999 83.5748 423.258 86.2262 418.599 88.12C413.968 89.9846 408.552 90.9169 402.35 90.9169Z" fill="white"/>
<path d="M445.036 89.6932V22.5656H467.924V35.3268H468.624C470.022 31.1313 472.409 27.8099 475.787 25.3625C479.164 22.9152 483.184 21.6915 487.842 21.6915C492.56 21.6915 496.623 22.9443 500.029 25.4499C503.437 27.9264 505.489 31.2187 506.189 35.3268H506.887C508.023 31.2187 510.44 27.9264 514.138 25.4499C517.837 22.9443 522.175 21.6915 527.155 21.6915C533.59 21.6915 538.803 23.76 542.793 27.8973C546.811 32.0345 548.82 37.5411 548.82 44.417V89.6932H524.709V50.5355C524.709 47.5928 523.966 45.291 522.481 43.6303C520.996 41.9405 519.001 41.0956 516.497 41.0956C514.021 41.0956 512.056 41.9405 510.6 43.6303C509.173 45.291 508.46 47.5928 508.46 50.5355V89.6932H485.397V50.5355C485.397 47.5928 484.654 45.291 483.169 43.6303C481.684 41.9405 479.689 41.0956 477.185 41.0956C475.525 41.0956 474.098 41.4744 472.904 42.2318C471.71 42.9893 470.778 44.0819 470.108 45.5096C469.468 46.9081 469.148 48.5834 469.148 50.5355V89.6932H445.036Z" fill="white"/>
<path d="M156.233 141.824C151.53 141.824 147.383 140.991 143.791 139.322C140.243 137.61 137.443 135.044 135.39 131.622C133.381 128.157 132.376 123.944 132.376 118.981C132.376 117.099 132.504 115.003 132.76 112.693C133.102 109.785 133.702 106.811 134.556 103.774C135.539 100.266 136.78 97.1436 138.276 94.4059C139.901 91.3259 141.782 88.6738 143.919 86.4493C146.057 84.1821 148.366 82.3213 150.846 80.8669C153.369 79.3698 156.105 78.2361 159.055 77.4662C162.561 76.5678 166.238 76.1187 170.086 76.1187C175.387 76.1187 179.834 77.1025 183.425 79.0704C187.016 80.9953 189.667 83.6902 191.378 87.1552C193.13 90.6201 194.007 94.6411 194.007 99.2183C194.007 104.865 193.067 110.532 191.185 116.223C189.304 121.912 186.696 126.681 183.361 130.531C180.069 134.381 176.157 137.225 171.625 139.065C167.093 140.905 161.962 141.824 156.233 141.824ZM149.628 123.152C149.628 127.174 150.269 130.189 151.552 132.2C152.877 134.168 154.95 135.151 157.772 135.151C159.354 135.151 160.851 134.83 162.261 134.188C163.716 133.504 165.126 132.371 166.495 130.787C167.905 129.162 169.166 127.131 170.279 124.692C171.39 122.211 172.437 119.174 173.42 115.58C174.447 111.944 175.237 108.394 175.794 104.929C176.35 101.464 176.627 98.2345 176.627 95.2401C176.627 90.9623 175.965 87.8182 174.639 85.8077C173.357 83.7972 171.347 82.7919 168.611 82.7919C165.02 82.7919 161.898 84.5458 159.248 88.0534C156.64 91.5184 154.374 96.9084 152.449 104.223C150.568 111.495 149.628 117.805 149.628 123.152Z" fill="#F500FF" fill-opacity="0.6"/>
<path d="M207.155 85.166L208.052 80.931C209.805 80.76 211.108 80.5461 211.964 80.2894C212.862 80.0328 213.631 79.6692 214.273 79.1986C214.914 78.6853 215.513 77.8725 216.068 76.7603C216.624 75.6481 217.223 73.8943 217.864 71.4988C218.933 67.4349 220.28 64.077 221.905 61.4247C223.53 58.7298 225.646 56.3985 228.254 54.4308C230.862 52.4202 233.897 50.9658 237.36 50.0675C240.866 49.1263 244.715 48.6558 248.904 48.6558C250.572 48.6558 252.368 48.72 254.291 48.8483C256.258 48.9767 258.482 49.2975 260.961 49.8108L258.075 62.6439H249.802C249.632 59.9917 249.203 58.1095 248.519 56.9973C247.835 55.8851 246.767 55.329 245.313 55.329C244.33 55.329 243.453 55.5216 242.684 55.9065C241.914 56.2915 241.165 56.976 240.439 57.9598C239.712 58.9437 239.006 60.3767 238.323 62.2589C237.681 64.0983 236.997 66.7077 236.27 70.0871L234.667 77.1454H246.852L245.12 85.166H232.871L221.264 138.809C219.767 145.695 217.651 151.384 214.914 155.876C212.221 160.368 208.715 163.748 204.396 166.015C200.078 168.325 194.798 169.48 188.556 169.48C186.546 169.48 184.516 169.201 182.463 168.645L184.195 161.651C185.392 161.993 186.803 162.164 188.428 162.164C190.351 162.164 191.933 161.887 193.173 161.331C194.371 160.817 195.461 159.897 196.444 158.571C197.427 157.289 198.346 155.384 199.202 152.86C200.057 150.336 200.997 146.786 202.024 142.21L214.85 85.166H207.155Z" fill="#F500FF" fill-opacity="0.6"/>
<path d="M343.885 110.255C342.644 116.03 340.976 120.97 338.882 125.077C336.83 129.183 334.35 132.456 331.442 134.894C328.535 137.29 325.158 139.043 321.309 140.156C317.462 141.268 312.758 141.824 307.2 141.824C303.566 141.824 300.124 141.375 296.875 140.476C293.669 139.536 290.868 138.103 288.474 136.177C286.079 134.253 284.177 131.857 282.766 128.991C281.398 126.083 280.714 122.639 280.714 118.66C280.714 116.565 280.863 114.255 281.163 111.731C281.462 109.207 282.189 105.335 283.343 100.117L290.013 70.5362C290.569 68.0552 290.847 65.5527 290.847 63.0289C290.847 61.2322 290.419 59.9276 289.564 59.1148C288.752 58.2593 287.405 57.7031 285.523 57.4465L286.422 53.2115H318.68L317.782 57.4465C315.987 57.9598 314.597 58.6656 313.613 59.5639C312.673 60.4623 311.861 61.7455 311.177 63.4138C310.492 65.0394 309.808 67.4135 309.125 70.5362L300.466 109.87C299.825 112.736 299.398 115.132 299.184 117.056C298.971 118.938 298.863 120.756 298.863 122.511C298.863 126.36 299.803 129.291 301.685 131.302C303.609 133.311 306.409 134.317 310.087 134.317C313.72 134.317 316.756 133.525 319.193 131.943C321.63 130.36 323.575 128.114 325.03 125.206C326.525 122.254 327.787 118.468 328.813 113.848L338.368 70.5362C338.754 68.8679 338.988 67.4563 339.074 66.3013C339.159 65.1036 339.202 64.0128 339.202 63.0289C339.202 61.2322 338.775 59.9276 337.92 59.1148C337.108 58.2593 335.761 57.7031 333.88 57.4465L334.777 53.2115H362.097L361.2 57.4465C359.318 58.0026 357.886 58.7512 356.903 59.6923C355.962 60.6334 355.15 61.9381 354.466 63.6064C353.825 65.2747 353.183 67.5847 352.542 70.5362L343.885 110.255Z" fill="#F500FF" fill-opacity="0.6"/>
<path d="M423.408 140.798H396.793L404.81 105.891C405.964 100.929 406.67 97.5072 406.926 95.625C407.182 93.7428 407.311 92.267 407.311 91.1976C407.311 89.2726 406.905 87.8396 406.092 86.8985C405.28 85.9574 404.104 85.4869 402.565 85.4869C401.197 85.4869 399.7 86.0002 398.076 87.0269C396.451 88.0534 394.634 89.6576 392.624 91.8392C390.616 94.0209 389.012 96.3309 387.815 98.7691C386.618 101.207 385.656 104.245 384.929 107.88L377.874 140.798H359.469L369.537 95.4967C369.751 94.4701 370.029 93.0156 370.371 91.1335C370.756 89.2085 370.947 87.6044 370.947 86.321C370.947 84.5243 370.435 83.3052 369.409 82.6636C368.425 81.9791 366.864 81.5514 364.727 81.3803L365.689 77.1454L383.325 76.4395H390.059L386.404 90.2993L387.173 90.5559C390.123 86.9199 392.86 84.0752 395.382 82.0219C397.905 79.9259 400.406 78.4286 402.886 77.5303C405.408 76.5892 408.187 76.1187 411.223 76.1187C415.627 76.1187 419.09 77.3592 421.612 79.8403C424.135 82.2786 425.396 85.658 425.396 89.9784C425.396 92.759 424.969 96.0742 424.113 99.9241L418.854 123.665C418.427 125.633 418.128 127.152 417.957 128.221C417.828 129.291 417.765 130.211 417.765 130.98C417.765 132.906 418.235 134.253 419.175 135.023C420.158 135.792 421.826 136.306 424.178 136.562L423.408 140.798Z" fill="#F500FF" fill-opacity="0.6"/>
<path d="M473.303 51.5433L469.968 67.2638H453.358L456.885 51.5433H473.303ZM458.488 123.665C458.018 125.804 457.719 127.387 457.591 128.414C457.463 129.44 457.398 130.296 457.398 130.98C457.398 132.82 457.868 134.146 458.809 134.958C459.792 135.772 461.459 136.306 463.811 136.562L463.106 140.798H436.427L446.431 96.01C446.988 93.4434 447.372 91.4543 447.586 90.0426C447.8 88.5882 447.907 87.3691 447.907 86.3851C447.907 84.7169 447.5 83.5405 446.688 82.856C445.918 82.1289 444.272 81.6369 441.749 81.3803L442.712 77.1454L461.502 76.4395H468.813L458.488 123.665Z" fill="#F500FF" fill-opacity="0.6"/>
<path d="M519.094 129.12C516.057 132.413 513.343 134.937 510.948 136.69C508.554 138.445 506.053 139.749 503.445 140.605C500.837 141.418 497.822 141.824 494.402 141.824C490.939 141.824 488.053 141.204 485.744 139.963C483.479 138.68 481.832 136.991 480.806 134.894C479.78 132.755 479.267 130.36 479.267 127.708C479.267 125.697 479.417 123.793 479.716 121.997C480.015 120.158 480.635 117.163 481.576 113.013L488.181 85.166H479.524L480.422 80.9311C483.072 80.76 485.146 80.3322 486.643 79.6478C488.138 78.9206 489.4 77.8725 490.427 76.5037C491.495 75.1348 492.5 73.2526 493.44 70.8571C494.381 68.4616 495.428 65.2105 496.583 61.1039H511.974L508.255 77.1454H523.839L522.107 85.166H506.395L499.277 114.489C498.977 115.773 498.699 117.035 498.443 118.275C498.186 119.516 497.973 120.714 497.802 121.869C497.631 122.981 497.502 123.922 497.417 124.692C497.374 125.419 497.352 126.083 497.352 126.681C497.352 128.692 497.716 130.168 498.443 131.109C499.169 132.007 500.239 132.456 501.649 132.456C503.573 132.456 505.54 131.772 507.549 130.403C509.602 129.034 511.803 126.916 514.155 124.05L519.094 129.12Z" fill="#F500FF" fill-opacity="0.6"/>
<path d="M540 140.798L534.228 93.1867C533.844 90.064 533.394 87.7326 532.882 86.1927C532.411 84.6099 531.748 83.455 530.894 82.7277C530.082 82.0005 528.798 81.5514 527.045 81.3803L528.007 77.1454H550.583L555.008 125.077C561.463 115.837 566.209 108.116 569.245 101.913C572.323 95.7105 573.863 90.5559 573.863 86.4493C573.863 84.8239 573.477 83.6046 572.708 82.7919C571.938 81.9364 570.591 81.4658 568.667 81.3803L569.565 77.1454H587.65L589.895 81.3803C588.1 86.2141 585.363 91.9247 581.686 98.5125C578.009 105.1 573.413 112.415 567.898 120.457C562.425 128.499 556.632 136.499 550.518 144.455C545.387 151.128 541.09 156.155 537.628 159.534C535.019 162.101 532.54 164.068 530.188 165.437C528.306 166.592 526.319 167.448 524.223 168.004C522.129 168.56 519.713 168.838 516.977 168.838C515.694 168.838 514.219 168.688 512.552 168.389C510.842 168.132 509.323 167.79 507.998 167.362L511.141 152.925H517.939C517.981 154.722 518.345 156.047 519.029 156.903C519.713 157.759 520.718 158.187 522.044 158.187C523.839 158.187 525.442 157.887 526.853 157.289C528.306 156.689 529.781 155.769 531.278 154.529C532.775 153.289 534.549 151.513 536.601 149.204C538.653 146.936 541.005 144.134 543.656 140.798H540Z" fill="#F500FF" fill-opacity="0.6"/>
</g>
<defs>
<clipPath id="clip0_70_107">
<rect width="590" height="170" fill="white"/>
</clipPath>
</defs>
</svg>
