<svg width="709" height="203" viewBox="0 0 709 203" fill="none" xmlns="http://www.w3.org/2000/svg">
<path d="M5.24512 56.0403V37.2676H79.8331V56.0403H54.0211V123.086H31.0581V56.0403H5.24512ZM112.067 86.8813V123.086H88.9371V37.2676H111.229V70.958H111.9C113.352 66.8514 115.769 63.6528 119.149 61.3621C122.529 59.0434 126.594 57.8841 131.343 57.8841C135.896 57.8841 139.849 58.9177 143.202 60.9849C146.582 63.0522 149.194 65.9016 151.038 69.5332C152.909 73.1649 153.831 77.3273 153.803 82.0205V123.086H130.673V86.8813C130.7 83.6966 129.904 81.1964 128.284 79.3805C126.692 77.5647 124.415 76.6568 121.454 76.6568C119.582 76.6568 117.934 77.0759 116.509 77.9139C115.112 78.7241 114.023 79.8974 113.241 81.4338C112.486 82.9423 112.095 84.7581 112.067 86.8813ZM196.063 124.259C189.191 124.259 183.268 122.946 178.296 120.32C173.351 117.666 169.538 113.867 166.856 108.922C164.202 103.95 162.875 97.9996 162.875 91.0716C162.875 84.4229 164.216 78.6123 166.898 73.6398C169.58 68.6672 173.365 64.7982 178.254 62.0325C183.143 59.2669 188.911 57.8841 195.56 57.8841C200.421 57.8841 204.821 58.6384 208.76 60.1469C212.698 61.6554 216.065 63.8483 218.858 66.7257C221.652 69.5751 223.803 73.0392 225.311 77.1178C226.82 81.1964 227.574 85.7918 227.574 90.904V96.2676H170.083V83.529H206.287C206.259 81.6852 205.784 80.065 204.863 78.6682C203.969 77.2435 202.753 76.14 201.217 75.3578C199.708 74.5477 197.99 74.1426 196.063 74.1426C194.191 74.1426 192.473 74.5477 190.909 75.3578C189.344 76.14 188.087 77.2295 187.137 78.6263C186.215 80.0231 185.727 81.6573 185.671 83.529V97.2733C185.671 99.3405 186.104 101.184 186.97 102.805C187.836 104.425 189.079 105.696 190.699 106.618C192.319 107.54 194.275 108.001 196.566 108.001C198.158 108.001 199.611 107.777 200.924 107.33C202.264 106.883 203.41 106.241 204.36 105.403C205.309 104.537 206.008 103.503 206.455 102.302H227.574C226.848 106.771 225.13 110.655 222.42 113.951C219.71 117.219 216.121 119.762 211.651 121.577C207.209 123.365 202.013 124.259 196.063 124.259ZM260.185 123.086V37.2676H297.228C303.597 37.2676 309.171 38.5247 313.948 41.0389C318.725 43.5531 322.44 47.087 325.094 51.6405C327.748 56.194 329.075 61.5157 329.075 67.6057C329.075 73.7515 327.706 79.0733 324.968 83.5709C322.258 88.0685 318.445 91.5325 313.529 93.9629C308.64 96.3933 302.927 97.6085 296.39 97.6085H274.265V79.5063H291.697C294.435 79.5063 296.767 79.0313 298.695 78.0815C300.65 77.1038 302.145 75.721 303.178 73.9331C304.24 72.1452 304.771 70.0361 304.771 67.6057C304.771 65.1473 304.24 63.0522 303.178 61.3202C302.145 59.5602 300.65 58.2193 298.695 57.2974C296.767 56.3476 294.435 55.8727 291.697 55.8727H283.484V123.086H260.185ZM337.958 123.086V58.7222H360.418V70.958H361.089C362.262 66.4324 364.12 63.122 366.662 61.0268C369.232 58.9317 372.235 57.8841 375.671 57.8841C376.677 57.8841 377.669 57.9679 378.646 58.1355C379.652 58.2752 380.616 58.4847 381.538 58.7641V78.5006C380.392 78.1095 378.982 77.8161 377.306 77.6206C375.629 77.4251 374.191 77.3273 372.989 77.3273C370.727 77.3273 368.687 77.8441 366.872 78.8777C365.084 79.8834 363.673 81.3081 362.639 83.1518C361.606 84.9677 361.089 87.1047 361.089 89.5631V123.086H337.958ZM389.122 123.086V58.7222H412.253V123.086H389.122ZM400.688 52.0176C397.559 52.0176 394.877 50.984 392.642 48.9168C390.407 46.8495 389.29 44.3633 389.29 41.458C389.29 38.5527 390.407 36.0664 392.642 33.9992C394.877 31.9319 397.559 30.8983 400.688 30.8983C403.844 30.8983 406.526 31.9319 408.733 33.9992C410.968 36.0664 412.085 38.5527 412.085 41.458C412.085 44.3633 410.968 46.8495 408.733 48.9168C406.526 50.984 403.844 52.0176 400.688 52.0176ZM424.038 123.086V58.7222H445.996V70.958H446.666C448.007 66.9352 450.298 63.7506 453.538 61.404C456.779 59.0574 460.634 57.8841 465.104 57.8841C469.629 57.8841 473.526 59.0853 476.795 61.4878C480.063 63.8623 482.033 67.019 482.703 70.958H483.374C484.463 67.019 486.782 63.8623 490.329 61.4878C493.877 59.0853 498.04 57.8841 502.817 57.8841C508.99 57.8841 513.991 59.8675 517.818 63.8344C521.673 67.8012 523.601 73.0811 523.601 79.6739V123.086H500.47V85.5403C500.47 82.7188 499.758 80.5119 498.333 78.9196C496.908 77.2993 494.995 76.4892 492.592 76.4892C490.218 76.4892 488.332 77.2993 486.935 78.9196C485.566 80.5119 484.882 82.7188 484.882 85.5403V123.086H462.757V85.5403C462.757 82.7188 462.045 80.5119 460.62 78.9196C459.195 77.2993 457.282 76.4892 454.879 76.4892C453.287 76.4892 451.918 76.8524 450.773 77.5787C449.627 78.305 448.733 79.3526 448.091 80.7215C447.476 82.0624 447.169 83.6687 447.169 85.5403V123.086H424.038ZM565.85 124.259C558.978 124.259 553.055 122.946 548.083 120.32C543.138 117.666 539.325 113.867 536.643 108.922C533.989 103.95 532.662 97.9996 532.662 91.0716C532.662 84.4229 534.003 78.6123 536.685 73.6398C539.367 68.6672 543.152 64.7982 548.041 62.0325C552.93 59.2669 558.698 57.8841 565.347 57.8841C570.208 57.8841 574.608 58.6384 578.547 60.1469C582.486 61.6554 585.852 63.8483 588.645 66.7257C591.439 69.5751 593.59 73.0392 595.098 77.1178C596.607 81.1964 597.361 85.7918 597.361 90.904V96.2676H539.87V83.529H576.074C576.046 81.6852 575.571 80.065 574.65 78.6682C573.756 77.2435 572.54 76.14 571.004 75.3578C569.495 74.5477 567.777 74.1426 565.85 74.1426C563.978 74.1426 562.26 74.5477 560.696 75.3578C559.131 76.14 557.874 77.2295 556.924 78.6263C556.003 80.0231 555.514 81.6573 555.458 83.529V97.2733C555.458 99.3405 555.891 101.184 556.757 102.805C557.623 104.425 558.866 105.696 560.486 106.618C562.107 107.54 564.062 108.001 566.353 108.001C567.945 108.001 569.398 107.777 570.711 107.33C572.052 106.883 573.197 106.241 574.147 105.403C575.097 104.537 575.795 103.503 576.242 102.302H597.361C596.635 106.771 594.917 110.655 592.207 113.951C589.497 117.219 585.908 119.762 581.438 121.577C576.996 123.365 571.8 124.259 565.85 124.259Z" fill="#F500FF"/>
<path d="M1.24512 57.0403V38.2676H75.8331V57.0403H50.0211V124.086H27.0581V57.0403H1.24512ZM108.067 87.8813V124.086H84.9371V38.2676H107.229V71.958H107.9C109.352 67.8514 111.769 64.6528 115.149 62.3621C118.529 60.0434 122.594 58.8841 127.343 58.8841C131.896 58.8841 135.849 59.9177 139.202 61.9849C142.582 64.0522 145.194 66.9016 147.038 70.5332C148.909 74.1649 149.831 78.3273 149.803 83.0205V124.086H126.673V87.8813C126.7 84.6966 125.904 82.1964 124.284 80.3805C122.692 78.5647 120.415 77.6568 117.454 77.6568C115.582 77.6568 113.934 78.0759 112.509 78.9139C111.112 79.7241 110.023 80.8974 109.241 82.4338C108.486 83.9423 108.095 85.7581 108.067 87.8813ZM192.063 125.259C185.191 125.259 179.268 123.946 174.296 121.32C169.351 118.666 165.538 114.867 162.856 109.922C160.202 104.95 158.875 98.9996 158.875 92.0716C158.875 85.4229 160.216 79.6123 162.898 74.6398C165.58 69.6672 169.365 65.7982 174.254 63.0325C179.143 60.2669 184.911 58.8841 191.56 58.8841C196.421 58.8841 200.821 59.6384 204.76 61.1469C208.698 62.6554 212.065 64.8483 214.858 67.7257C217.652 70.5751 219.803 74.0392 221.311 78.1178C222.82 82.1964 223.574 86.7918 223.574 91.904V97.2676H166.083V84.529H202.287C202.259 82.6852 201.784 81.065 200.863 79.6682C199.969 78.2435 198.753 77.14 197.217 76.3578C195.708 75.5477 193.99 75.1426 192.063 75.1426C190.191 75.1426 188.473 75.5477 186.909 76.3578C185.344 77.14 184.087 78.2295 183.137 79.6263C182.215 81.0231 181.727 82.6573 181.671 84.529V98.2733C181.671 100.341 182.104 102.184 182.97 103.805C183.836 105.425 185.079 106.696 186.699 107.618C188.319 108.54 190.275 109.001 192.566 109.001C194.158 109.001 195.611 108.777 196.924 108.33C198.264 107.883 199.41 107.241 200.36 106.403C201.309 105.537 202.008 104.503 202.455 103.302H223.574C222.848 107.771 221.13 111.655 218.42 114.951C215.71 118.219 212.121 120.762 207.651 122.577C203.209 124.365 198.013 125.259 192.063 125.259ZM256.185 124.086V38.2676H293.228C299.597 38.2676 305.171 39.5247 309.948 42.0389C314.725 44.5531 318.44 48.087 321.094 52.6405C323.748 57.194 325.075 62.5157 325.075 68.6057C325.075 74.7515 323.706 80.0733 320.968 84.5709C318.258 89.0685 314.445 92.5325 309.529 94.9629C304.64 97.3933 298.927 98.6085 292.39 98.6085H270.265V80.5063H287.697C290.435 80.5063 292.767 80.0313 294.695 79.0815C296.65 78.1038 298.145 76.721 299.178 74.9331C300.24 73.1452 300.771 71.0361 300.771 68.6057C300.771 66.1473 300.24 64.0522 299.178 62.3202C298.145 60.5602 296.65 59.2193 294.695 58.2974C292.767 57.3476 290.435 56.8727 287.697 56.8727H279.484V124.086H256.185ZM333.958 124.086V59.7222H356.418V71.958H357.089C358.262 67.4324 360.12 64.122 362.662 62.0268C365.232 59.9317 368.235 58.8841 371.671 58.8841C372.677 58.8841 373.669 58.9679 374.646 59.1355C375.652 59.2752 376.616 59.4847 377.538 59.7641V79.5006C376.392 79.1095 374.982 78.8161 373.306 78.6206C371.629 78.4251 370.191 78.3273 368.989 78.3273C366.727 78.3273 364.687 78.8441 362.872 79.8777C361.084 80.8834 359.673 82.3081 358.639 84.1518C357.606 85.9677 357.089 88.1047 357.089 90.5631V124.086H333.958ZM385.122 124.086V59.7222H408.253V124.086H385.122ZM396.688 53.0176C393.559 53.0176 390.877 51.984 388.642 49.9168C386.407 47.8495 385.29 45.3633 385.29 42.458C385.29 39.5527 386.407 37.0664 388.642 34.9992C390.877 32.9319 393.559 31.8983 396.688 31.8983C399.844 31.8983 402.526 32.9319 404.733 34.9992C406.968 37.0664 408.085 39.5527 408.085 42.458C408.085 45.3633 406.968 47.8495 404.733 49.9168C402.526 51.984 399.844 53.0176 396.688 53.0176ZM420.038 124.086V59.7222H441.996V71.958H442.666C444.007 67.9352 446.298 64.7506 449.538 62.404C452.779 60.0574 456.634 58.8841 461.104 58.8841C465.629 58.8841 469.526 60.0853 472.795 62.4878C476.063 64.8623 478.033 68.019 478.703 71.958H479.374C480.463 68.019 482.782 64.8623 486.329 62.4878C489.877 60.0853 494.04 58.8841 498.817 58.8841C504.99 58.8841 509.991 60.8675 513.818 64.8344C517.673 68.8012 519.601 74.0811 519.601 80.6739V124.086H496.47V86.5403C496.47 83.7188 495.758 81.5119 494.333 79.9196C492.908 78.2993 490.995 77.4892 488.592 77.4892C486.218 77.4892 484.332 78.2993 482.935 79.9196C481.566 81.5119 480.882 83.7188 480.882 86.5403V124.086H458.757V86.5403C458.757 83.7188 458.045 81.5119 456.62 79.9196C455.195 78.2993 453.282 77.4892 450.879 77.4892C449.287 77.4892 447.918 77.8524 446.773 78.5787C445.627 79.305 444.733 80.3526 444.091 81.7215C443.476 83.0624 443.169 84.6687 443.169 86.5403V124.086H420.038ZM561.85 125.259C554.978 125.259 549.055 123.946 544.083 121.32C539.138 118.666 535.325 114.867 532.643 109.922C529.989 104.95 528.662 98.9996 528.662 92.0716C528.662 85.4229 530.003 79.6123 532.685 74.6398C535.367 69.6672 539.152 65.7982 544.041 63.0325C548.93 60.2669 554.698 58.8841 561.347 58.8841C566.208 58.8841 570.608 59.6384 574.547 61.1469C578.486 62.6554 581.852 64.8483 584.645 67.7257C587.439 70.5751 589.59 74.0392 591.098 78.1178C592.607 82.1964 593.361 86.7918 593.361 91.904V97.2676H535.87V84.529H572.074C572.046 82.6852 571.571 81.065 570.65 79.6682C569.756 78.2435 568.54 77.14 567.004 76.3578C565.495 75.5477 563.777 75.1426 561.85 75.1426C559.978 75.1426 558.26 75.5477 556.696 76.3578C555.131 77.14 553.874 78.2295 552.924 79.6263C552.003 81.0231 551.514 82.6573 551.458 84.529V98.2733C551.458 100.341 551.891 102.184 552.757 103.805C553.623 105.425 554.866 106.696 556.486 107.618C558.107 108.54 560.062 109.001 562.353 109.001C563.945 109.001 565.398 108.777 566.711 108.33C568.052 107.883 569.197 107.241 570.147 106.403C571.097 105.537 571.795 104.503 572.242 103.302H593.361C592.635 107.771 590.917 111.655 588.207 114.951C585.497 118.219 581.908 120.762 577.438 122.577C572.996 124.365 567.8 125.259 561.85 125.259Z" fill="#01EEFF"/>
<path d="M3.24512 56.0403V37.2676H77.8331V56.0403H52.0211V123.086H29.0581V56.0403H3.24512ZM110.067 86.8813V123.086H86.9371V37.2676H109.229V70.958H109.9C111.352 66.8514 113.769 63.6528 117.149 61.3621C120.529 59.0434 124.594 57.8841 129.343 57.8841C133.896 57.8841 137.849 58.9177 141.202 60.9849C144.582 63.0522 147.194 65.9016 149.038 69.5332C150.909 73.1649 151.831 77.3273 151.803 82.0205V123.086H128.673V86.8813C128.7 83.6966 127.904 81.1964 126.284 79.3805C124.692 77.5647 122.415 76.6568 119.454 76.6568C117.582 76.6568 115.934 77.0759 114.509 77.9139C113.112 78.7241 112.023 79.8974 111.241 81.4338C110.486 82.9423 110.095 84.7581 110.067 86.8813ZM194.063 124.259C187.191 124.259 181.268 122.946 176.296 120.32C171.351 117.666 167.538 113.867 164.856 108.922C162.202 103.95 160.875 97.9996 160.875 91.0716C160.875 84.4229 162.216 78.6123 164.898 73.6398C167.58 68.6672 171.365 64.7982 176.254 62.0325C181.143 59.2669 186.911 57.8841 193.56 57.8841C198.421 57.8841 202.821 58.6384 206.76 60.1469C210.698 61.6554 214.065 63.8483 216.858 66.7257C219.652 69.5751 221.803 73.0392 223.311 77.1178C224.82 81.1964 225.574 85.7918 225.574 90.904V96.2676H168.083V83.529H204.287C204.259 81.6852 203.784 80.065 202.863 78.6682C201.969 77.2435 200.753 76.14 199.217 75.3578C197.708 74.5477 195.99 74.1426 194.063 74.1426C192.191 74.1426 190.473 74.5477 188.909 75.3578C187.344 76.14 186.087 77.2295 185.137 78.6263C184.215 80.0231 183.727 81.6573 183.671 83.529V97.2733C183.671 99.3405 184.104 101.184 184.97 102.805C185.836 104.425 187.079 105.696 188.699 106.618C190.319 107.54 192.275 108.001 194.566 108.001C196.158 108.001 197.611 107.777 198.924 107.33C200.264 106.883 201.41 106.241 202.36 105.403C203.309 104.537 204.008 103.503 204.455 102.302H225.574C224.848 106.771 223.13 110.655 220.42 113.951C217.71 117.219 214.121 119.762 209.651 121.577C205.209 123.365 200.013 124.259 194.063 124.259ZM258.185 123.086V37.2676H295.228C301.597 37.2676 307.171 38.5247 311.948 41.0389C316.725 43.5531 320.44 47.087 323.094 51.6405C325.748 56.194 327.075 61.5157 327.075 67.6057C327.075 73.7515 325.706 79.0733 322.968 83.5709C320.258 88.0685 316.445 91.5325 311.529 93.9629C306.64 96.3933 300.927 97.6085 294.39 97.6085H272.265V79.5063H289.697C292.435 79.5063 294.767 79.0313 296.695 78.0815C298.65 77.1038 300.145 75.721 301.178 73.9331C302.24 72.1452 302.771 70.0361 302.771 67.6057C302.771 65.1473 302.24 63.0522 301.178 61.3202C300.145 59.5602 298.65 58.2193 296.695 57.2974C294.767 56.3476 292.435 55.8727 289.697 55.8727H281.484V123.086H258.185ZM335.958 123.086V58.7222H358.418V70.958H359.089C360.262 66.4324 362.12 63.122 364.662 61.0268C367.232 58.9317 370.235 57.8841 373.671 57.8841C374.677 57.8841 375.669 57.9679 376.646 58.1355C377.652 58.2752 378.616 58.4847 379.538 58.7641V78.5006C378.392 78.1095 376.982 77.8161 375.306 77.6206C373.629 77.4251 372.191 77.3273 370.989 77.3273C368.727 77.3273 366.687 77.8441 364.872 78.8777C363.084 79.8834 361.673 81.3081 360.639 83.1518C359.606 84.9677 359.089 87.1047 359.089 89.5631V123.086H335.958ZM387.122 123.086V58.7222H410.253V123.086H387.122ZM398.688 52.0176C395.559 52.0176 392.877 50.984 390.642 48.9168C388.407 46.8495 387.29 44.3633 387.29 41.458C387.29 38.5527 388.407 36.0664 390.642 33.9992C392.877 31.9319 395.559 30.8983 398.688 30.8983C401.844 30.8983 404.526 31.9319 406.733 33.9992C408.968 36.0664 410.085 38.5527 410.085 41.458C410.085 44.3633 408.968 46.8495 406.733 48.9168C404.526 50.984 401.844 52.0176 398.688 52.0176ZM422.038 123.086V58.7222H443.996V70.958H444.666C446.007 66.9352 448.298 63.7506 451.538 61.404C454.779 59.0574 458.634 57.8841 463.104 57.8841C467.629 57.8841 471.526 59.0853 474.795 61.4878C478.063 63.8623 480.033 67.019 480.703 70.958H481.374C482.463 67.019 484.782 63.8623 488.329 61.4878C491.877 59.0853 496.04 57.8841 500.817 57.8841C506.99 57.8841 511.991 59.8675 515.818 63.8344C519.673 67.8012 521.601 73.0811 521.601 79.6739V123.086H498.47V85.5403C498.47 82.7188 497.758 80.5119 496.333 78.9196C494.908 77.2993 492.995 76.4892 490.592 76.4892C488.218 76.4892 486.332 77.2993 484.935 78.9196C483.566 80.5119 482.882 82.7188 482.882 85.5403V123.086H460.757V85.5403C460.757 82.7188 460.045 80.5119 458.62 78.9196C457.195 77.2993 455.282 76.4892 452.879 76.4892C451.287 76.4892 449.918 76.8524 448.773 77.5787C447.627 78.305 446.733 79.3526 446.091 80.7215C445.476 82.0624 445.169 83.6687 445.169 85.5403V123.086H422.038ZM563.85 124.259C556.978 124.259 551.055 122.946 546.083 120.32C541.138 117.666 537.325 113.867 534.643 108.922C531.989 103.95 530.662 97.9996 530.662 91.0716C530.662 84.4229 532.003 78.6123 534.685 73.6398C537.367 68.6672 541.152 64.7982 546.041 62.0325C550.93 59.2669 556.698 57.8841 563.347 57.8841C568.208 57.8841 572.608 58.6384 576.547 60.1469C580.486 61.6554 583.852 63.8483 586.645 66.7257C589.439 69.5751 591.59 73.0392 593.098 77.1178C594.607 81.1964 595.361 85.7918 595.361 90.904V96.2676H537.87V83.529H574.074C574.046 81.6852 573.571 80.065 572.65 78.6682C571.756 77.2435 570.54 76.14 569.004 75.3578C567.495 74.5477 565.777 74.1426 563.85 74.1426C561.978 74.1426 560.26 74.5477 558.696 75.3578C557.131 76.14 555.874 77.2295 554.924 78.6263C554.003 80.0231 553.514 81.6573 553.458 83.529V97.2733C553.458 99.3405 553.891 101.184 554.757 102.805C555.623 104.425 556.866 105.696 558.486 106.618C560.107 107.54 562.062 108.001 564.353 108.001C565.945 108.001 567.398 107.777 568.711 107.33C570.052 106.883 571.197 106.241 572.147 105.403C573.097 104.537 573.795 103.503 574.242 102.302H595.361C594.635 106.771 592.917 110.655 590.207 113.951C587.497 117.219 583.908 119.762 579.438 121.577C574.996 123.365 569.8 124.259 563.85 124.259Z" fill="white"/>
<path d="M77.009 155.475C76.763 156.541 76.5991 157.382 76.5171 157.997C76.4351 158.612 76.3521 159.289 76.2701 160.027C76.2291 160.725 76.2091 161.607 76.2091 162.673C76.2091 164.56 76.6811 165.893 77.6241 166.672C78.6081 167.451 80.126 167.902 82.177 168.025L81.315 172.086H49.5081L50.369 168.025C52.092 167.533 53.4041 166.857 54.3071 165.995C55.2501 165.134 56.0501 163.924 56.7061 162.365C57.3621 160.766 58.018 158.469 58.675 155.475L69.8721 104.718C70.4051 102.298 70.6721 99.8984 70.6721 97.5195C70.6721 95.7968 70.2621 94.5459 69.4411 93.7666C68.6621 92.9463 67.37 92.413 65.565 92.167L66.427 88.1064H124.628L120.26 107.917H112.385C112.18 104.02 111.81 101.293 111.277 99.7343C110.744 98.1757 109.924 97.0478 108.816 96.3505C107.709 95.6533 106.15 95.3047 104.141 95.3047H90.2361L83.4691 126.066H91.7131C93.2711 126.066 94.6251 125.759 95.7731 125.143C96.9221 124.487 97.9881 123.482 98.9731 122.129C99.9571 120.734 101.003 118.745 102.11 116.161H108.878L102.418 143.601H96.0811C96.0811 140.73 95.9171 138.597 95.5891 137.202C95.3021 135.808 94.7681 134.803 93.9891 134.188C93.2101 133.572 92.0001 133.265 90.3591 133.265H81.9311L77.009 155.475ZM173.539 127.789H162.526C162.526 125.041 162.219 123.134 161.603 122.067C161.029 121.001 160.024 120.468 158.589 120.468C157.933 120.468 157.235 120.611 156.497 120.898C155.8 121.144 154.979 121.616 154.036 122.313C153.134 122.97 152.026 124.057 150.714 125.574C149.442 127.092 148.376 128.568 147.515 130.004C146.653 131.44 145.935 132.957 145.361 134.557C144.787 136.115 144.254 138.105 143.762 140.524L136.994 172.086H119.337L128.996 128.65C129.898 124.59 130.35 121.657 130.35 119.852C130.35 118.13 129.857 116.961 128.873 116.346C127.93 115.689 126.433 115.279 124.382 115.115L125.305 111.055L142.224 110.378H149.176L144.561 124.651L145.3 124.897C148.745 120.017 152.375 116.325 156.189 113.823C160.004 111.321 164.126 110.07 168.556 110.07C171.263 110.07 174.134 110.46 177.169 111.239L173.539 127.789ZM227.803 114.5L233.34 110.07L240.23 111.055L230.756 153.937C230.264 156.11 229.894 157.854 229.648 159.166C229.443 160.479 229.341 161.586 229.341 162.488C229.341 164.334 229.792 165.667 230.694 166.487C231.597 167.308 233.196 167.82 235.493 168.025L234.816 172.086H211.191L214.514 159.474L213.714 159.228C210.925 162.837 208.32 165.647 205.9 167.656C203.521 169.625 201.163 171.02 198.825 171.84C196.528 172.66 193.862 173.07 190.827 173.07C187.956 173.07 185.434 172.394 183.26 171.04C181.086 169.687 179.363 167.554 178.092 164.642C176.82 161.689 176.185 157.956 176.185 153.444C176.185 149.138 176.677 144.79 177.661 140.401C178.686 136.013 180.184 131.932 182.152 128.158C184.121 124.344 186.602 121.083 189.597 118.376C192.591 115.669 195.975 113.618 199.748 112.224C203.562 110.788 207.705 110.07 212.176 110.07C218.287 110.07 223.496 111.547 227.803 114.5ZM218.513 133.818C218.8 132.506 219.025 131.05 219.189 129.45C219.394 127.809 219.497 126.23 219.497 124.713C219.497 122.006 218.984 119.955 217.959 118.56C216.934 117.166 215.252 116.469 212.914 116.469C209.1 116.469 205.716 118.396 202.763 122.252C199.809 126.066 197.431 131.214 195.626 137.694C193.821 144.175 192.919 149.979 192.919 155.106C192.919 158.1 193.35 160.335 194.211 161.812C195.113 163.288 196.487 164.026 198.333 164.026C201.04 164.026 203.788 162.714 206.577 160.089C209.407 157.423 211.684 154.306 213.406 150.737C215.129 147.169 216.667 142.288 218.02 136.095L218.513 133.818ZM310.429 122.806C313.915 118.376 317.401 115.156 320.888 113.146C324.374 111.096 328.291 110.07 332.639 110.07C336.863 110.07 340.144 111.26 342.482 113.639C344.861 115.976 346.051 119.217 346.051 123.359C346.051 126.025 345.641 129.204 344.82 132.896L339.775 155.659C339.365 157.546 339.078 159.002 338.914 160.027C338.791 161.053 338.729 161.935 338.729 162.673C338.729 164.519 339.181 165.811 340.083 166.549C341.026 167.287 342.626 167.779 344.882 168.025L344.143 172.086H318.611L327.101 135.11C327.553 133.183 327.881 131.604 328.086 130.373C328.332 129.142 328.496 128.076 328.578 127.174C328.701 126.271 328.763 125.451 328.763 124.713C328.763 122.867 328.373 121.473 327.594 120.529C326.855 119.545 325.727 119.053 324.21 119.053C322.979 119.053 321.564 119.586 319.965 120.652C318.365 121.678 316.622 123.216 314.735 125.267C312.89 127.317 311.393 129.512 310.244 131.85C309.096 134.147 308.173 137.038 307.476 140.524L300.708 172.086H282.989L291.849 133.511C292.259 131.87 292.546 130.558 292.71 129.573C292.874 128.589 292.976 127.748 293.018 127.051C293.1 126.353 293.141 125.718 293.141 125.143C293.141 123.011 292.771 121.473 292.033 120.529C291.295 119.545 290.126 119.053 288.526 119.053C286.599 119.053 284.281 120.304 281.574 122.806C278.908 125.308 276.816 127.871 275.299 130.496C273.822 133.08 272.674 136.423 271.853 140.524L265.086 172.086H247.429L257.088 128.65C257.293 127.666 257.559 126.271 257.888 124.467C258.257 122.621 258.441 121.083 258.441 119.852C258.441 118.13 257.949 116.961 256.965 116.346C256.021 115.689 254.524 115.279 252.474 115.115L253.396 111.055L270.315 110.378H276.775L273.268 123.667L274.007 123.913C276.878 120.386 279.503 117.638 281.882 115.669C284.302 113.659 286.701 112.224 289.08 111.362C291.459 110.501 294.104 110.07 297.017 110.07C301.118 110.07 304.338 111.198 306.676 113.454C309.055 115.71 310.306 118.827 310.429 122.806ZM408.682 159.289C404.539 163.965 400.068 167.431 395.269 169.687C390.512 171.942 385.344 173.07 379.766 173.07C374.967 173.07 370.886 172.23 367.522 170.548C364.159 168.866 361.616 166.385 359.893 163.104C358.212 159.781 357.371 155.823 357.371 151.23C357.371 149.097 357.658 146.369 358.232 143.047C359.012 138.535 360.201 134.516 361.801 130.988C363.81 126.641 366.435 122.908 369.676 119.791C372.916 116.674 376.71 114.274 381.058 112.593C385.446 110.911 390.245 110.07 395.454 110.07C401.606 110.07 406.282 111.198 409.481 113.454C412.681 115.669 414.28 119.073 414.28 123.667C414.28 126.784 413.644 129.532 412.373 131.911C411.143 134.29 409.071 136.443 406.159 138.371C403.247 140.299 399.125 141.857 393.793 143.047C388.502 144.236 382.103 144.913 374.598 145.077C374.064 147.497 373.798 149.999 373.798 152.583C373.798 154.101 373.941 155.557 374.228 156.951C374.516 158.305 375.028 159.515 375.767 160.581C376.505 161.648 377.489 162.509 378.72 163.165C379.95 163.78 381.529 164.088 383.457 164.088C387.066 164.088 390.327 163.37 393.239 161.935C396.151 160.458 399.576 157.854 403.514 154.121L408.682 159.289ZM376.074 138.617C383.621 138.412 389.384 136.977 393.362 134.311C397.382 131.604 399.392 127.789 399.392 122.867C399.392 120.775 398.899 119.196 397.915 118.13C396.972 117.022 395.639 116.469 393.916 116.469C390.101 116.469 386.656 118.355 383.58 122.129C380.545 125.902 378.043 131.398 376.074 138.617ZM512.779 111.055L514.933 115.115C513.005 120.652 508.78 128.732 502.259 139.356C495.778 149.938 488.067 161.155 479.126 173.009H468.728L466.821 154.798C466.288 149.876 465.939 146.164 465.775 143.662C465.611 141.16 465.529 139.171 465.529 137.694H464.914C462.617 142.493 459.643 147.907 455.993 153.937C452.343 159.966 448.118 166.323 443.319 173.009H432.122L427.262 125.697C426.975 122.826 426.605 120.714 426.154 119.36C425.744 117.966 425.129 116.94 424.309 116.284C423.529 115.628 422.36 115.238 420.802 115.115L421.725 111.055H443.196L446.58 155.721C451.297 148.379 454.742 142.555 456.916 138.248C459.131 133.941 460.771 130.004 461.838 126.435C462.904 122.826 463.643 119.053 464.053 115.115L464.914 111.055H478.757L482.571 155.782C488.518 146.8 492.825 139.499 495.491 133.88C498.198 128.261 499.552 123.626 499.552 119.975C499.552 118.417 499.183 117.248 498.444 116.469C497.706 115.648 496.414 115.197 494.568 115.115L495.43 111.055H512.779ZM539.973 173.07C535.461 173.07 531.482 172.271 528.037 170.671C524.633 169.03 521.946 166.569 519.977 163.288C518.05 159.966 517.086 155.926 517.086 151.168C517.086 149.363 517.209 147.354 517.455 145.139C517.783 142.35 518.357 139.499 519.178 136.587C520.121 133.224 521.31 130.23 522.746 127.604C524.305 124.651 526.109 122.108 528.16 119.975C530.211 117.802 532.426 116.017 534.805 114.623C537.225 113.187 539.85 112.1 542.68 111.362C546.043 110.501 549.57 110.07 553.262 110.07C558.348 110.07 562.613 111.014 566.059 112.9C569.504 114.746 572.047 117.33 573.687 120.652C575.369 123.975 576.21 127.83 576.21 132.219C576.21 137.633 575.308 143.067 573.503 148.523C571.698 153.978 569.196 158.551 565.997 162.242C562.839 165.934 559.086 168.661 554.738 170.425C550.391 172.189 545.469 173.07 539.973 173.07ZM533.636 155.167C533.636 159.023 534.251 161.914 535.481 163.842C536.753 165.729 538.742 166.672 541.449 166.672C542.967 166.672 544.402 166.364 545.756 165.749C547.15 165.093 548.504 164.006 549.816 162.488C551.17 160.93 552.38 158.982 553.446 156.644C554.513 154.265 555.518 151.353 556.461 147.907C557.445 144.421 558.204 141.017 558.737 137.694C559.27 134.372 559.537 131.275 559.537 128.404C559.537 124.303 558.901 121.288 557.63 119.36C556.399 117.433 554.472 116.469 551.847 116.469C548.401 116.469 545.407 118.15 542.864 121.514C540.362 124.836 538.188 130.004 536.343 137.018C534.538 143.99 533.636 150.04 533.636 155.167ZM638.533 127.789H627.52C627.52 125.041 627.213 123.134 626.598 122.067C626.023 121.001 625.018 120.468 623.583 120.468C622.927 120.468 622.229 120.611 621.491 120.898C620.794 121.144 619.974 121.616 619.03 122.313C618.128 122.97 617.02 124.057 615.708 125.574C614.436 127.092 613.37 128.568 612.509 130.004C611.647 131.44 610.93 132.957 610.355 134.557C609.781 136.115 609.248 138.105 608.756 140.524L601.988 172.086H584.331L593.99 128.65C594.893 124.59 595.344 121.657 595.344 119.852C595.344 118.13 594.851 116.961 593.867 116.346C592.924 115.689 591.427 115.279 589.376 115.115L590.299 111.055L607.218 110.378H614.17L609.556 124.651L610.294 124.897C613.739 120.017 617.369 116.325 621.184 113.823C624.998 111.321 629.12 110.07 633.55 110.07C636.257 110.07 639.128 110.46 642.163 111.239L638.533 127.789ZM665.788 135.787H667.018C668.29 135.787 669.5 135.603 670.648 135.233C671.838 134.823 673.232 134.106 674.832 133.08C676.432 132.014 678.564 130.414 681.23 128.281C682.912 126.928 684.163 125.718 684.983 124.651C685.845 123.585 686.439 122.58 686.768 121.637C687.137 120.693 687.321 119.709 687.321 118.684C687.321 117.74 687.055 116.94 686.521 116.284C686.029 115.628 685.127 115.238 683.814 115.115L684.799 111.055H706.701L708.239 115.054C705.696 117.843 702.271 120.878 697.965 124.159L684.122 134.557L692.12 157.136C693.063 159.843 693.884 161.873 694.581 163.227C695.278 164.58 696.14 165.647 697.165 166.426C698.19 167.205 699.687 167.738 701.656 168.025L700.733 172.086H678.831L670.587 145.508C670.177 144.236 669.787 143.355 669.418 142.862C669.09 142.37 668.659 142.042 668.126 141.878C667.634 141.673 666.957 141.57 666.096 141.57H664.558L657.851 172.086H640.194L655.76 102.564C656.662 98.5449 657.113 95.6123 657.113 93.7666C657.113 92.8642 657.011 92.167 656.806 91.6748C656.642 91.1416 656.375 90.7109 656.006 90.3828C655.637 90.0547 655.144 89.8086 654.529 89.6445C653.914 89.4394 652.704 89.2138 650.899 88.9677L651.884 84.9687L670.279 83.9843H677.231L665.788 135.787Z" fill="#F500FF" fill-opacity="0.6"/>
</svg>
