<svg width="36" height="9" viewBox="0 0 36 9" fill="none" xmlns="http://www.w3.org/2000/svg">
<path d="M36 4.4675C36 4.2675 35.92 4.0775 35.78 3.9375L32.06 0.2175C31.77 -0.0725 31.29 -0.0725 31 0.2175C30.71 0.5075 30.71 0.9875 31 1.2775L33.45 3.7275H1.25C0.84 3.7275 0.5 4.0675 0.5 4.4775C0.5 4.8875 0.84 5.2175 1.25 5.2175H33.44L31 7.6575C30.71 7.9475 30.71 8.4275 31 8.7175C31.15 8.8675 31.34 8.9375 31.53 8.9375C31.72 8.9375 31.91 8.8675 32.06 8.7175L35.77 5.0075C35.84 4.9375 35.9 4.8475 35.94 4.7475C35.94 4.7375 35.94 4.7275 35.95 4.7175C35.98 4.6375 36 4.5575 36 4.4675Z" fill="white"/>
</svg>
