<svg width="119" height="21" viewBox="0 0 119 21" fill="none" xmlns="http://www.w3.org/2000/svg">
<path d="M2.03385 12.1888C2.02431 14.1367 2.49696 15.6645 3.45182 16.7721C4.40668 17.8798 5.52865 18.4336 6.81771 18.4336C7.67708 18.4336 8.42187 18.1997 9.05208 17.7318C9.69184 17.2543 10.2266 16.4427 10.6562 15.2969L11.1003 15.5833C10.8997 16.8915 10.3173 18.0851 9.35286 19.1641C8.38845 20.2335 7.18055 20.7682 5.72917 20.7682C4.15365 20.7682 2.80252 20.1571 1.67578 18.9349C0.558594 17.7031 0 16.0512 0 13.9792C0 11.7352 0.572917 9.98785 1.71875 8.73698C2.87413 7.47656 4.32075 6.84635 6.05859 6.84635C7.52908 6.84635 8.73698 7.33333 9.68229 8.30729C10.6276 9.2717 11.1003 10.5655 11.1003 12.1888H2.03385ZM2.03385 11.3581H8.10677C8.05903 10.5178 7.95877 9.92578 7.80599 9.58203C7.56727 9.04731 7.2092 8.62717 6.73177 8.32161C6.26389 8.01606 5.77213 7.86328 5.25651 7.86328C4.46397 7.86328 3.7526 8.17361 3.1224 8.79427C2.50174 9.40538 2.13889 10.26 2.03385 11.3581Z" fill="white"/>
<path d="M23.5325 0C23.9336 0 24.2726 0.143229 24.5495 0.429687C24.8359 0.706597 24.9792 1.04557 24.9792 1.44661C24.9792 1.84766 24.8359 2.19141 24.5495 2.47786C24.2726 2.76432 23.9336 2.90755 23.5325 2.90755C23.1315 2.90755 22.7878 2.76432 22.5013 2.47786C22.2148 2.19141 22.0716 1.84766 22.0716 1.44661C22.0716 1.04557 22.2101 0.706597 22.487 0.429687C22.7734 0.143229 23.122 0 23.5325 0ZM24.7214 6.86068V17.4023C24.7214 18.2235 24.7786 18.7726 24.8932 19.0495C25.0174 19.3168 25.194 19.5174 25.4232 19.651C25.6619 19.7847 26.0916 19.8516 26.7122 19.8516V20.3672H20.3385V19.8516C20.9783 19.8516 21.408 19.7895 21.6276 19.6654C21.8472 19.5412 22.0191 19.3359 22.1432 19.0495C22.2769 18.763 22.3437 18.214 22.3437 17.4023V12.3464C22.3437 10.9236 22.3008 10.0022 22.2148 9.58203C22.148 9.27647 22.043 9.06641 21.8997 8.95182C21.7565 8.82769 21.5608 8.76562 21.3125 8.76562C21.0451 8.76562 20.7205 8.83724 20.3385 8.98047L20.138 8.46484L24.0911 6.86068H24.7214Z" fill="white"/>
<path d="M41.6654 7.2474V9.33854H38.3424L38.056 13.6927C37.9987 14.447 37.97 15.1011 37.97 15.6549C37.97 16.9822 38.1228 17.7938 38.4284 18.0898C38.7435 18.3763 39.1207 18.5195 39.5599 18.5195C40.4766 18.5195 41.0208 17.9418 41.1927 16.7865H41.7083C41.3932 19.441 40.3333 20.7682 38.5286 20.7682C37.6884 20.7682 37.0104 20.5104 36.4948 19.9948C35.9887 19.4792 35.7357 18.7153 35.7357 17.7031C35.7357 17.0347 35.8359 15.6215 36.0365 13.4635L36.4232 9.33854H33.3867C33.1862 12.8142 32.9427 15.3542 32.6562 16.9583C32.3793 18.5625 32.069 19.5985 31.7253 20.0664C31.3911 20.5343 30.9327 20.7682 30.3503 20.7682C29.911 20.7682 29.5386 20.6393 29.2331 20.3815C28.9371 20.1237 28.7891 19.7847 28.7891 19.3646C28.7891 18.9635 29.0469 18.4145 29.5625 17.7174C30.3168 16.7053 30.8802 15.6549 31.2526 14.5664C31.625 13.4683 31.9067 11.7257 32.0977 9.33854H31.1237C30.3407 9.33854 29.7391 9.51519 29.319 9.86849C28.9084 10.2122 28.5169 10.7088 28.1445 11.3581H27.6289C27.9058 10.3364 28.2639 9.49609 28.7031 8.83724C29.1424 8.17838 29.5911 7.7487 30.0495 7.54818C30.5174 7.34766 31.3433 7.2474 32.5273 7.2474H41.6654Z" fill="white"/>
<path d="M57.2487 18.3477V11.2005H50.1159V10.026H57.2487V2.90755H58.3945V10.026H65.556V11.2005H58.3945V18.3477H57.2487Z" fill="white"/>
<path d="M69.5807 2.85026L74.3073 0.544271H74.7799V16.944C74.7799 18.0325 74.8229 18.7105 74.9089 18.9779C75.0043 19.2452 75.1953 19.4505 75.4818 19.5937C75.7682 19.737 76.3507 19.8181 77.2292 19.8372V20.3672H69.9245V19.8372C70.8411 19.8181 71.4332 19.7418 71.7005 19.6081C71.9679 19.4648 72.1541 19.2786 72.2591 19.0495C72.3641 18.8108 72.4167 18.1089 72.4167 16.944V6.45963C72.4167 5.04644 72.3689 4.13932 72.2734 3.73828C72.2066 3.43273 72.0825 3.20833 71.901 3.0651C71.7292 2.92187 71.5191 2.85026 71.2708 2.85026C70.9175 2.85026 70.4258 2.99826 69.7956 3.29427L69.5807 2.85026Z" fill="white"/>
<path d="M88.6732 7.72005H104.128V8.89453H88.6732V7.72005ZM88.6732 12.3893H104.128V13.5638H88.6732V12.3893Z" fill="white"/>
<path d="M105.76 10.7708C105.76 8.55555 106.095 6.65061 106.763 5.05599C107.431 3.45182 108.319 2.25825 109.427 1.47526C110.286 0.854601 111.174 0.544271 112.091 0.544271C113.581 0.544271 114.918 1.30339 116.102 2.82161C117.582 4.70269 118.322 7.25217 118.322 10.4701C118.322 12.7235 117.997 14.638 117.348 16.2135C116.698 17.7891 115.868 18.9349 114.855 19.651C113.853 20.3576 112.884 20.7109 111.948 20.7109C110.095 20.7109 108.553 19.6176 107.322 17.431C106.281 15.5881 105.76 13.3681 105.76 10.7708ZM108.568 11.1289C108.568 13.8025 108.897 15.9844 109.556 17.6745C110.1 19.0972 110.912 19.8086 111.991 19.8086C112.506 19.8086 113.041 19.5794 113.595 19.1211C114.149 18.6532 114.569 17.875 114.855 16.7865C115.295 15.1441 115.514 12.8286 115.514 9.83984C115.514 7.62457 115.285 5.77691 114.827 4.29687C114.483 3.19878 114.039 2.42057 113.495 1.96224C113.103 1.64714 112.631 1.48958 112.077 1.48958C111.427 1.48958 110.85 1.78082 110.344 2.36328C109.656 3.15582 109.188 4.40191 108.94 6.10156C108.692 7.80121 108.568 9.477 108.568 11.1289Z" fill="white"/>
</svg>
