<svg width="296" height="67" viewBox="0 0 296 67" fill="none" xmlns="http://www.w3.org/2000/svg">
<path d="M200.452 63.2575C198.535 62.9094 196.966 61.2605 196.593 59.2018C196.196 57.0139 197.338 54.1156 199.315 52.2941C200.185 51.4924 201.389 50.7132 202.201 50.426C203.196 50.0745 204.665 49.9251 205.46 50.0945C206.688 50.356 207.78 51.3939 208.102 52.607C208.175 52.88 208.267 53.1034 208.307 53.1034C208.399 53.1034 208.841 51.1204 208.989 50.0459C209.329 47.5765 208.916 45.7585 207.741 44.559C206.847 43.6471 206.091 43.3674 204.724 43.4424C203.451 43.5123 202.472 43.9436 201.643 44.7991C201.329 45.1233 201.072 45.4239 201.072 45.4673C201.073 45.5106 201.318 45.624 201.618 45.7192C202.092 45.87 202.175 45.9442 202.261 46.2965C202.476 47.1691 201.742 48.0254 200.778 48.0263C199.722 48.0273 199.512 47.1555 200.225 45.7237C201.025 44.1153 202.425 43.0943 204.214 42.8146C206.005 42.5347 207.918 43.1464 209.161 44.3962C209.859 45.0979 210.595 46.485 210.904 47.6806C211.193 48.8 211.165 51.2084 210.844 52.6996C209.702 58.0077 206.907 62.0006 203.612 63.0293C202.761 63.2951 201.257 63.4037 200.452 63.2575ZM203.086 62.3413C203.923 62.0456 204.745 61.4233 205.441 60.5594C206.736 58.951 207.752 56.2269 207.769 54.3148C207.794 51.5779 206.066 50.093 203.598 50.7288C202.614 50.982 201.958 51.3824 201.152 52.2197C200.106 53.3067 199.437 54.8808 198.894 57.5334C198.367 60.1066 198.763 61.5575 200.186 62.2703C200.936 62.646 202.14 62.6755 203.086 62.3413ZM215.202 62.9748C214.207 62.6503 213.587 61.7348 213.583 60.5839C213.581 60.1399 213.909 58.6049 214.604 55.7991C215.168 53.527 215.604 51.6275 215.573 51.578C215.543 51.5286 214.824 51.4881 213.975 51.4881C212.442 51.4881 212.433 51.4865 212.433 51.2227C212.433 50.7334 212.614 50.6804 214.288 50.6804H215.867L215.979 50.2478C216.041 50.0098 216.308 48.9105 216.572 47.8049C217.119 45.5154 217.268 45.2577 218.043 45.2577C218.542 45.2577 218.859 45.487 218.859 45.8475C218.859 46.0319 217.977 49.7392 217.757 50.4752C217.704 50.6554 217.846 50.6768 219.283 50.706L220.868 50.7381V51.0843V51.4304L219.228 51.4624C217.658 51.4931 217.585 51.5053 217.48 51.7509C217.42 51.8919 216.903 53.8962 216.332 56.2049C215.586 59.2197 215.292 60.6109 215.287 61.1422C215.278 62.3375 215.728 62.7491 216.717 62.451C217.782 62.1304 218.632 61.2321 219.5 59.5126C219.842 58.8355 220.036 58.5738 220.217 58.5469C220.412 58.5181 220.466 58.5686 220.465 58.7777C220.462 59.4489 219.261 61.393 218.382 62.1497C217.405 62.9906 216.204 63.3021 215.202 62.9748ZM36.9032 50.2411C36.2039 49.7308 34.8497 48.2138 34.1678 47.1769C32.4773 44.606 31.6149 41.8565 31.328 38.1226C30.9742 33.5169 32.022 29.0187 34.2174 25.7185C35.2524 24.1628 37.2002 22.258 37.5402 22.4692C37.7543 22.6023 37.6625 22.771 36.893 23.6581C34.1434 26.8277 32.8372 30.9415 32.8372 36.4313C32.8372 42.0309 34.2055 46.3403 36.9318 49.3272C37.6166 50.0774 37.7761 50.4292 37.477 50.5293C37.4096 50.5519 37.1514 50.4222 36.9032 50.2411ZM51.1265 50.3955C51.0867 50.2912 51.3602 49.8818 51.8368 49.3325C54.7659 45.9558 56.0317 41.661 55.8725 35.6387C55.7374 30.5243 54.4941 26.7047 52.0416 23.8697C51.0002 22.6659 51.0063 22.6753 51.1639 22.5168C51.3695 22.3101 51.9681 22.7433 53.0183 23.8588C55.6493 26.6533 57.0396 30.1151 57.4088 34.7909C57.7817 39.5134 56.6293 44.3082 54.3493 47.5206C53.4235 48.825 51.6763 50.5651 51.2924 50.5651C51.2367 50.5651 51.1621 50.4887 51.1265 50.3955ZM63.9365 50.4521C63.7854 50.3561 63.7603 48.6893 63.7313 36.8105C63.7132 29.3677 63.7283 23.1099 63.7651 22.9041C63.8138 22.6309 63.9082 22.5108 64.1152 22.4586C64.7778 22.2914 64.7398 21.4383 64.7398 36.48C64.7398 47.0658 64.7077 50.3205 64.6021 50.4266C64.4375 50.5921 64.1727 50.6022 63.9365 50.4521ZM95.7739 50.2411C95.0746 49.7308 93.7203 48.2138 93.0385 47.1769C91.3479 44.606 90.4855 41.8565 90.1987 38.1226C89.8449 33.5169 90.8927 29.0187 93.0881 25.7185C94.1231 24.1628 96.0709 22.258 96.4108 22.4692C96.6249 22.6023 96.5331 22.771 95.7636 23.6581C93.0141 26.8277 91.7079 30.9415 91.7079 36.4313C91.7079 42.0309 93.0761 46.3403 95.8025 49.3272C96.4872 50.0774 96.6468 50.4292 96.3477 50.5293C96.2803 50.5519 96.022 50.4222 95.7739 50.2411ZM109.882 50.3955C109.843 50.2912 110.116 49.8818 110.593 49.3325C113.522 45.9558 114.788 41.661 114.628 35.6387C114.493 30.5243 113.25 26.7047 110.798 23.8697C109.756 22.6659 109.762 22.6753 109.92 22.5168C110.125 22.3101 110.724 22.7433 111.774 23.8588C114.405 26.6533 115.796 30.1151 116.165 34.7909C116.538 39.5134 115.385 44.3082 113.105 47.5206C112.179 48.825 110.432 50.5651 110.048 50.5651C109.993 50.5651 109.918 50.4887 109.882 50.3955ZM120.922 50.3837C120.823 50.284 120.742 50.1353 120.742 50.0533C120.742 49.9713 121.881 46.8868 123.273 43.1989L125.805 36.4935L123.268 29.7705C121.582 25.3007 120.753 22.961 120.796 22.7896C120.878 22.4595 121.383 22.3157 121.62 22.5548C121.775 22.7099 126.938 36.2451 126.938 36.4943C126.938 36.6788 121.877 50.0361 121.705 50.3055C121.512 50.6081 121.178 50.6415 120.922 50.3837ZM228.728 50.4521C228.577 50.3561 228.552 48.6893 228.523 36.8105C228.505 29.3677 228.52 23.1099 228.557 22.9041C228.606 22.6309 228.7 22.5108 228.907 22.4586C229.57 22.2914 229.532 21.4383 229.532 36.48C229.532 47.0658 229.5 50.3205 229.394 50.4266C229.229 50.5921 228.965 50.6022 228.728 50.4521ZM260.566 50.2411C259.867 49.7308 258.512 48.2138 257.83 47.1769C256.14 44.606 255.277 41.8565 254.991 38.1226C254.637 33.5169 255.685 29.0187 257.88 25.7185C258.915 24.1628 260.863 22.258 261.203 22.4692C261.417 22.6023 261.325 22.771 260.556 23.6581C257.806 26.8277 256.5 30.9415 256.5 36.4313C256.5 42.0309 257.868 46.3403 260.594 49.3272C261.279 50.0774 261.439 50.4292 261.14 50.5293C261.072 50.5519 260.814 50.4222 260.566 50.2411ZM274.789 50.3955C274.749 50.2912 275.023 49.8818 275.499 49.3325C278.429 45.9558 279.694 41.661 279.535 35.6387C279.4 30.5243 278.157 26.7047 275.704 23.8697C274.663 22.6659 274.669 22.6753 274.827 22.5168C275.032 22.3101 275.631 22.7433 276.681 23.8588C279.312 26.6533 280.702 30.1151 281.071 34.7909C281.444 39.5134 280.292 44.3082 278.012 47.5206C277.086 48.825 275.339 50.5651 274.955 50.5651C274.899 50.5651 274.825 50.4887 274.789 50.3955ZM285.829 50.3837C285.729 50.284 285.648 50.1353 285.648 50.0533C285.648 49.9713 286.787 46.8868 288.18 43.1989L290.712 36.4935L288.175 29.7705C286.489 25.3007 285.66 22.961 285.703 22.7896C285.784 22.4595 286.289 22.3157 286.527 22.5548C286.681 22.7099 291.845 36.2451 291.845 36.4943C291.845 36.6788 286.784 50.0361 286.612 50.3055C286.419 50.6081 286.085 50.6415 285.829 50.3837ZM74.8748 49.1091C74.8356 49.0064 75.0708 47.8512 75.3975 46.542C75.7242 45.2327 75.9903 44.0824 75.9888 43.9857C75.9868 43.8569 75.7621 43.774 75.15 43.676C73.3229 43.3838 72.1205 42.652 71.5508 41.4856C71.2668 40.904 71.2243 40.6862 71.2291 39.8349C71.2353 38.74 71.4293 38.0138 72.5084 35.0467C73.2158 33.1017 73.3291 32.3017 72.9559 31.8864C72.3972 31.2646 71.167 31.9092 70.3995 33.226C70.2312 33.5148 69.9528 34.1724 69.781 34.6873C69.5083 35.5045 69.4342 35.6236 69.1985 35.6236C68.9552 35.6236 68.9313 35.5779 68.9569 35.1621C68.9918 34.5941 69.776 32.9199 70.3195 32.253C70.953 31.4758 71.6326 31.1335 72.5364 31.1367C73.7026 31.1407 74.456 31.682 74.7325 32.7144C74.9179 33.4063 74.8139 33.9267 74.0947 35.9062C73.0019 38.9142 72.8023 40.0022 73.1373 41.1264C73.4347 42.1242 74.6779 43.053 75.7826 43.1025L76.2449 43.1232L78.6188 33.6701C81.0249 24.0887 81.1328 23.7336 81.52 24.1231C81.6389 24.2428 81.2186 26.0569 79.2896 33.7492C77.9822 38.9625 76.938 43.2534 76.969 43.2845C77 43.3157 77.4178 43.2844 77.8975 43.2149C79.0385 43.0497 80.3665 42.3834 81.4646 41.4252C82.4739 40.5446 83.1462 39.6835 83.7583 38.4873C84.3969 37.2395 84.6356 36.4445 84.6353 35.5659C84.635 34.662 84.374 34.0123 83.6938 33.2225C83.4309 32.9172 83.216 32.5538 83.2162 32.4149C83.2174 31.6916 84.1821 30.9475 84.8637 31.144C85.6998 31.3851 85.9855 32.4989 85.6871 34.3538C85.174 37.5429 84.3781 39.3041 82.5964 41.1928C81.1608 42.7148 79.686 43.5144 77.8268 43.7789L76.7549 43.9313L76.091 46.5157C75.7259 47.937 75.3593 49.1433 75.2763 49.1962C75.0528 49.3386 74.9542 49.3173 74.8748 49.1091ZM239.781 49.1091C239.742 49.0064 239.977 47.8512 240.304 46.542C240.631 45.2327 240.897 44.0824 240.895 43.9857C240.893 43.8569 240.669 43.774 240.057 43.676C238.23 43.3838 237.027 42.652 236.458 41.4856C236.174 40.904 236.131 40.6862 236.136 39.8349C236.142 38.74 236.336 38.0138 237.415 35.0467C238.122 33.1017 238.236 32.3017 237.863 31.8864C237.304 31.2646 236.074 31.9092 235.306 33.226C235.138 33.5148 234.86 34.1724 234.688 34.6873C234.415 35.5045 234.341 35.6236 234.105 35.6236C233.862 35.6236 233.838 35.5779 233.864 35.1621C233.898 34.5941 234.683 32.9199 235.226 32.253C235.86 31.4758 236.539 31.1335 237.443 31.1367C238.609 31.1407 239.363 31.682 239.639 32.7144C239.825 33.4063 239.721 33.9267 239.001 35.9062C237.909 38.9142 237.709 40.0022 238.044 41.1264C238.341 42.1242 239.585 43.053 240.689 43.1025L241.152 43.1232L243.525 33.6701C245.932 24.0887 246.039 23.7336 246.427 24.1231C246.546 24.2428 246.125 26.0569 244.196 33.7492C242.889 38.9625 241.845 43.2534 241.876 43.2845C241.907 43.3157 242.325 43.2844 242.804 43.2149C243.945 43.0497 245.273 42.3834 246.371 41.4252C247.381 40.5446 248.053 39.6835 248.665 38.4873C249.304 37.2395 249.542 36.4445 249.542 35.5659C249.542 34.662 249.281 34.0123 248.601 33.2225C248.338 32.9172 248.123 32.5538 248.123 32.4149C248.124 31.6916 249.089 30.9475 249.77 31.144C250.606 31.3851 250.892 32.4989 250.594 34.3538C250.081 37.5429 249.285 39.3041 247.503 41.1928C246.068 42.7148 244.593 43.5144 242.733 43.7789L241.662 43.9313L240.998 46.5157C240.633 47.937 240.266 49.1433 240.183 49.1962C239.96 49.3386 239.861 49.3173 239.781 49.1091ZM42.8357 43.7067C41.8412 43.3822 41.2215 42.4667 41.217 41.3158C41.2153 40.8718 41.543 39.3368 42.2385 36.531C42.8016 34.2589 43.2375 32.3594 43.2071 32.3099C43.1767 32.2605 42.4577 32.22 41.6094 32.22C40.0764 32.22 40.0669 32.2184 40.0669 31.9546C40.0669 31.4653 40.2481 31.4123 41.9216 31.4123H43.5008L43.6133 30.9797C43.6751 30.7417 43.9419 29.6424 44.2061 28.5368C44.7531 26.2473 44.9019 25.9896 45.6766 25.9896C46.1759 25.9896 46.4934 26.2189 46.4934 26.5794C46.4934 26.7638 45.6107 30.4711 45.3915 31.2071C45.3379 31.3873 45.4798 31.4087 46.917 31.4379L48.5016 31.47V31.8162V32.1623L46.8624 32.1943C45.2925 32.225 45.2186 32.2372 45.114 32.4828C45.0539 32.6238 44.5373 34.6281 43.966 36.9368C43.2198 39.9516 42.9255 41.3428 42.9215 41.8741C42.9124 43.0694 43.3619 43.481 44.3514 43.1829C45.4157 42.8623 46.2665 41.964 47.1342 40.2445C47.4759 39.5674 47.6703 39.3057 47.8514 39.2788C48.0457 39.25 48.0997 39.3005 48.0988 39.5096C48.096 40.1808 46.8951 42.1249 46.0158 42.8816C45.0387 43.7225 43.8383 44.034 42.8357 43.7067ZM101.706 43.7067C100.712 43.3822 100.092 42.4667 100.088 41.3158C100.086 40.8718 100.414 39.3368 101.109 36.531C101.672 34.2589 102.108 32.3594 102.078 32.3099C102.047 32.2605 101.328 32.22 100.48 32.22C98.947 32.22 98.9376 32.2184 98.9376 31.9546C98.9376 31.4653 99.1188 31.4123 100.792 31.4123H102.371L102.484 30.9797C102.546 30.7417 102.813 29.6424 103.077 28.5368C103.624 26.2473 103.773 25.9896 104.547 25.9896C105.047 25.9896 105.364 26.2189 105.364 26.5794C105.364 26.7638 104.481 30.4711 104.262 31.2071C104.209 31.3873 104.35 31.4087 105.788 31.4379L107.372 31.47V31.8162V32.1623L105.733 32.1943C104.163 32.225 104.089 32.2372 103.985 32.4828C103.925 32.6238 103.408 34.6281 102.837 36.9368C102.09 39.9516 101.796 41.3428 101.792 41.8741C101.783 43.0694 102.233 43.481 103.222 43.1829C104.286 42.8623 105.137 41.964 106.005 40.2445C106.347 39.5674 106.541 39.3057 106.722 39.2788C106.916 39.25 106.97 39.3005 106.969 39.5096C106.967 40.1808 105.766 42.1249 104.886 42.8816C103.909 43.7225 102.709 44.034 101.706 43.7067ZM171.092 43.7156C170.4 43.4563 170.129 43.2256 169.858 42.6619C169.464 41.8441 169.569 41.0688 170.366 38.9119C172.555 32.9858 172.636 32.7104 172.367 32.1583C172.151 31.7165 171.916 31.5971 171.439 31.6872C170.55 31.8549 169.676 32.978 169.059 34.7477C168.791 35.5154 168.719 35.6236 168.474 35.6236C168.228 35.6236 168.197 35.5772 168.223 35.2488C168.302 34.2308 169.415 32.283 170.286 31.6392C170.915 31.174 171.806 30.9878 172.493 31.1776C173.524 31.4625 174.214 32.5667 174.061 33.6887C174.024 33.9584 173.394 35.8021 172.66 37.7858C171.178 41.7929 170.995 42.5931 171.45 43.0509C171.757 43.3592 172.063 43.3606 172.688 43.0564C173.482 42.67 174.135 41.6741 174.673 40.0303C174.894 39.3554 174.965 39.25 175.177 39.2804C175.385 39.3103 175.42 39.3836 175.398 39.7544C175.364 40.3153 174.568 42.0297 174.038 42.6793C173.253 43.6433 172.04 44.07 171.092 43.7156ZM178.834 43.6935C178.644 43.5594 178.579 43.3984 178.579 43.0575C178.579 42.8065 179.38 39.3834 180.358 35.4506C181.336 31.5177 182.137 28.2494 182.137 28.1875C182.137 28.125 181.666 28.0603 181.077 28.0419C180.145 28.0127 180.011 27.9824 179.975 27.7918C179.911 27.4554 180.159 27.3778 181.3 27.3759L182.358 27.3741L182.484 26.8838C182.554 26.6141 182.654 26.2277 182.707 26.0252C182.866 25.417 182.652 25.2528 181.632 25.201C180.761 25.1568 180.76 25.1561 180.76 24.83C180.76 24.6503 180.811 24.4712 180.875 24.432C181.117 24.2815 184.794 24 184.916 24.1226C184.999 24.206 184.926 24.6823 184.676 25.6772C184.479 26.4662 184.317 27.1698 184.317 27.2409C184.317 27.3321 185.167 27.3792 187.202 27.401C189.824 27.429 190.099 27.4505 190.215 27.637C190.313 27.7958 190.303 27.8671 190.17 27.9525C190.072 28.0152 188.724 28.0636 187.047 28.0646L184.097 28.0664L183.983 28.499C183.921 28.737 183.659 29.7884 183.4 30.8354C183.142 31.8825 182.9 32.8402 182.863 32.9636C182.819 33.111 183.019 32.9879 183.446 32.6052C184.849 31.348 186.613 30.8858 188.2 31.3596C189.455 31.7345 190.049 32.6204 190.052 34.1237C190.054 35.2953 189.795 36.3736 188.902 38.9119C187.972 41.5554 187.79 42.339 188.003 42.776C188.244 43.2712 188.465 43.3624 189.019 43.1956C189.968 42.9097 190.781 41.8344 191.366 40.0904C191.565 39.4965 191.677 39.3157 191.844 39.3157C192.188 39.3157 192.174 39.8241 191.804 40.782C191.366 41.9169 190.715 42.8795 190.098 43.3066C188.188 44.6277 185.952 43.3119 186.355 41.1041C186.418 40.7551 186.764 39.6388 187.123 38.6234C188.499 34.7348 188.681 32.8688 187.764 32.0469C187.557 31.8617 187.344 31.8162 186.684 31.8162C185.987 31.8162 185.745 31.8736 185.097 32.1946C184.198 32.6395 183.031 33.8268 182.552 34.7843C182.369 35.1498 181.88 36.8906 181.328 39.1427C180.823 41.205 180.352 43.0377 180.281 43.2152C180.149 43.549 179.665 43.8731 179.299 43.8731C179.184 43.8731 178.975 43.7923 178.834 43.6935ZM266.498 43.7067C265.504 43.3822 264.884 42.4667 264.88 41.3158C264.878 40.8718 265.206 39.3368 265.901 36.531C266.464 34.2589 266.9 32.3594 266.87 32.3099C266.839 32.2605 266.12 32.22 265.272 32.22C263.739 32.22 263.73 32.2184 263.73 31.9546C263.73 31.4653 263.911 31.4123 265.584 31.4123H267.163L267.276 30.9797C267.338 30.7417 267.604 29.6424 267.869 28.5368C268.416 26.2473 268.565 25.9896 269.339 25.9896C269.838 25.9896 270.156 26.2189 270.156 26.5794C270.156 26.7638 269.273 30.4711 269.054 31.2071C269 31.3873 269.142 31.4087 270.58 31.4379L272.164 31.47V31.8162V32.1623L270.525 32.1943C268.955 32.225 268.881 32.2372 268.777 32.4828C268.717 32.6238 268.2 34.6281 267.629 36.9368C266.882 39.9516 266.588 41.3428 266.584 41.8741C266.575 43.0694 267.025 43.481 268.014 43.1829C269.078 42.8623 269.929 41.964 270.797 40.2445C271.139 39.5674 271.333 39.3057 271.514 39.2788C271.708 39.25 271.762 39.3005 271.761 39.5096C271.759 40.1808 270.558 42.1249 269.678 42.8816C268.701 43.7225 267.501 44.034 266.498 43.7067ZM4.18086 43.3318C4.152 43.2562 4.14627 43.1005 4.16813 42.9857C4.20171 42.8093 4.37612 42.764 5.29594 42.6929C6.47369 42.6018 6.96557 42.4542 7.13175 42.142C7.23606 41.9461 11.2628 25.8692 11.2628 25.6488C11.2628 25.4271 10.7992 25.2945 9.76645 25.2208C8.6777 25.1431 8.50298 25.0468 8.71795 24.6429C8.82341 24.4448 9.06422 24.4324 12.6877 24.4395C15.2956 24.4446 16.5855 24.4876 16.6696 24.5721C16.738 24.6409 16.7619 24.7988 16.7227 24.9229C16.6601 25.1211 16.5114 25.1564 15.5024 25.2123C14.2077 25.284 13.8621 25.4356 13.6099 26.0424C13.4557 26.4134 11.8366 32.7885 11.8366 33.0246C11.8366 33.1034 13.2538 33.143 16.0782 33.143H20.3198L20.4364 32.7077C20.9866 30.6533 22.1356 25.7013 22.0899 25.5815C22.0028 25.3534 21.7622 25.2949 20.5945 25.2177C19.5866 25.1512 19.5253 25.1324 19.5253 24.8902C19.5253 24.7489 19.5899 24.5862 19.6688 24.5286C19.7486 24.4703 21.5171 24.4286 23.6566 24.4346L27.501 24.4454V24.7848V25.1242L26.3895 25.2039C24.9744 25.3054 24.6501 25.4674 24.4165 26.1893C24.0822 27.222 20.4335 42.0632 20.4686 42.2474C20.5202 42.5181 21.1927 42.7055 22.1397 42.7128C23.0213 42.7197 23.2178 42.8435 22.9917 43.2496C22.8911 43.4303 22.5429 43.4486 19.0132 43.4585C16.4341 43.4657 15.1116 43.4289 15.0448 43.3479C14.9897 43.2812 14.9743 43.1124 15.0106 42.9729C15.07 42.7446 15.1523 42.7189 15.8378 42.7143C16.9151 42.7072 17.5585 42.5576 17.8684 42.2421C18.0834 42.0232 18.3297 41.1909 19.1177 38.0203C19.6575 35.8482 20.0991 34.0434 20.0991 34.0095C20.0991 33.9756 18.178 33.9614 15.8301 33.9781L11.561 34.0083L10.5483 38.0982C9.34298 42.9662 9.30047 42.5993 11.0806 42.6929C12.1362 42.7484 12.1808 42.7616 12.1808 43.0167C12.1808 43.163 12.1232 43.3185 12.0527 43.3623C11.9822 43.4061 10.194 43.4481 8.07891 43.4556C5.19816 43.4659 4.22015 43.4348 4.18086 43.3318ZM139.563 39.548C139.361 39.3034 139.511 38.837 139.819 38.7542C140.158 38.6629 157.327 38.6629 157.666 38.7542C157.973 38.837 158.124 39.3034 157.922 39.548C157.708 39.8074 139.777 39.8074 139.563 39.548ZM195.334 36.489V35.9121H208.646H221.958V36.489V37.0658H208.646H195.334V36.489ZM139.763 34.2173C139.504 34.1494 139.379 33.6534 139.563 33.4299C139.777 33.1705 157.708 33.1705 157.922 33.4299C158.124 33.6745 157.973 34.1409 157.666 34.2237C157.369 34.3038 140.068 34.2975 139.763 34.2173ZM172.954 27.0568C172.279 26.1961 173.487 24.6443 174.539 25.0211C175.347 25.311 175.445 26.2793 174.737 26.9909C174.407 27.3233 174.28 27.3741 173.779 27.3741C173.287 27.3741 173.166 27.3277 172.954 27.0568ZM205.501 24.952C203.584 24.6039 202.015 22.9551 201.642 20.8964C201.245 18.7085 202.388 15.8101 204.364 13.9886C205.234 13.1869 206.438 12.4078 207.251 12.1205C208.245 11.7691 209.714 11.6197 210.51 11.7891C211.738 12.0506 212.829 13.0884 213.152 14.3016C213.224 14.5746 213.317 14.7979 213.357 14.7979C213.448 14.7979 213.89 12.815 214.038 11.7404C214.379 9.27101 213.965 7.45305 212.79 6.25356C211.896 5.34169 211.141 5.06191 209.773 5.13695C208.501 5.20681 207.521 5.63819 206.692 6.49371C206.378 6.81781 206.121 7.11846 206.122 7.16183C206.122 7.20519 206.367 7.31855 206.667 7.41374C207.141 7.56458 207.224 7.63872 207.311 7.99107C207.525 8.86362 206.791 9.71997 205.827 9.72086C204.771 9.72184 204.561 8.85008 205.274 7.41829C206.074 5.80985 207.475 4.78881 209.264 4.50918C211.054 4.22928 212.967 4.84096 214.21 6.09079C214.908 6.79241 215.644 8.17956 215.953 9.37516C216.243 10.4946 216.214 12.9029 215.893 14.3941C214.751 19.7022 211.956 23.6952 208.661 24.7238C207.81 24.9896 206.306 25.0982 205.501 24.952ZM208.135 24.0359C208.972 23.7401 209.795 23.1179 210.49 22.2539C211.786 20.6456 212.801 17.9214 212.819 16.0094C212.843 13.2725 211.115 11.7875 208.647 12.4234C207.664 12.6766 207.007 13.0769 206.201 13.9142C205.155 15.0012 204.486 16.5753 203.943 19.228C203.417 21.8012 203.812 23.252 205.235 23.9648C205.985 24.3405 207.189 24.3701 208.135 24.0359Z" fill="white"/>
</svg>
