<svg width="644" height="97" viewBox="0 0 644 97" fill="none" xmlns="http://www.w3.org/2000/svg">
<path d="M19.192 40.736C16.432 40.736 14.04 40.23 12.016 39.218C10.0227 38.206 8.474 36.7647 7.37 34.894C6.266 32.9927 5.714 30.7693 5.714 28.224V7.294H12.706V28.224C12.706 30.34 13.258 31.9807 14.362 33.146C15.4967 34.2807 17.1067 34.848 19.192 34.848C21.2773 34.848 22.872 34.2807 23.976 33.146C25.08 31.9807 25.632 30.34 25.632 28.224V7.294H32.624V28.224C32.624 30.7693 32.072 32.9927 30.968 34.894C29.8947 36.7647 28.346 38.206 26.322 39.218C24.298 40.23 21.9213 40.736 19.192 40.736ZM38.3797 40V15.344H44.5898L44.8658 22.566L43.9918 22.336C44.2371 20.496 44.7278 19.024 45.4638 17.92C46.2304 16.816 47.1811 16.0187 48.3158 15.528C49.4504 15.0373 50.6924 14.792 52.0418 14.792C53.8204 14.792 55.3231 15.1753 56.5498 15.942C57.8071 16.7087 58.7578 17.7973 59.4018 19.208C60.0764 20.588 60.4138 22.2287 60.4138 24.13V40H53.5138V26.43C53.5138 25.1113 53.4064 23.992 53.1918 23.072C52.9771 22.152 52.5938 21.462 52.0418 21.002C51.4898 20.5113 50.7231 20.266 49.7418 20.266C48.3004 20.266 47.1964 20.8027 46.4298 21.876C45.6631 22.9187 45.2798 24.4367 45.2798 26.43V40H38.3797ZM66.0965 40V15.344H72.9965V40H66.0965ZM65.9585 12.308V6.788H73.0885V12.308H65.9585ZM85.5308 40L76.5148 15.344H83.7368L89.5788 33.054L95.3748 15.344H102.597L93.5348 40H85.5308ZM116.399 40.552C113.885 40.552 111.692 40.0307 109.821 38.988C107.981 37.9147 106.54 36.412 105.497 34.48C104.485 32.548 103.979 30.2787 103.979 27.672C103.979 25.0653 104.485 22.8113 105.497 20.91C106.54 18.978 107.981 17.4753 109.821 16.402C111.661 15.3287 113.839 14.792 116.353 14.792C118.807 14.792 120.938 15.3287 122.747 16.402C124.557 17.4753 125.952 19.0087 126.933 21.002C127.945 22.9953 128.451 25.372 128.451 28.132V29.512H111.109C111.201 31.4747 111.723 32.9313 112.673 33.882C113.655 34.8327 114.943 35.308 116.537 35.308C117.703 35.308 118.669 35.0627 119.435 34.572C120.233 34.0813 120.8 33.33 121.137 32.318L128.083 32.732C127.439 35.1853 126.075 37.102 123.989 38.482C121.904 39.862 119.374 40.552 116.399 40.552ZM111.109 25.28H121.367C121.275 23.4707 120.769 22.1213 119.849 21.232C118.96 20.3427 117.795 19.898 116.353 19.898C114.912 19.898 113.716 20.3733 112.765 21.324C111.845 22.244 111.293 23.5627 111.109 25.28ZM132.716 40V15.344H139.248L139.478 22.52L138.972 22.382C139.37 19.898 140.076 18.104 141.088 17C142.1 15.896 143.495 15.344 145.274 15.344H147.528V21.048H145.274C143.986 21.048 142.928 21.2167 142.1 21.554C141.272 21.8913 140.643 22.428 140.214 23.164C139.815 23.9 139.616 24.8967 139.616 26.154V40H132.716ZM160.949 40.552C158.404 40.552 156.272 40.1993 154.555 39.494C152.838 38.758 151.519 37.7767 150.599 36.55C149.71 35.2927 149.204 33.8513 149.081 32.226L156.073 31.996C156.288 33.1613 156.778 34.066 157.545 34.71C158.312 35.354 159.446 35.676 160.949 35.676C162.176 35.676 163.126 35.4767 163.801 35.078C164.506 34.6793 164.859 34.066 164.859 33.238C164.859 32.7167 164.736 32.2873 164.491 31.95C164.246 31.582 163.755 31.2753 163.019 31.03C162.314 30.754 161.256 30.5087 159.845 30.294C157.238 29.834 155.199 29.2973 153.727 28.684C152.255 28.0707 151.212 27.2733 150.599 26.292C149.986 25.3107 149.679 24.1147 149.679 22.704C149.679 20.3427 150.584 18.4413 152.393 17C154.233 15.528 156.978 14.792 160.627 14.792C162.958 14.792 164.905 15.16 166.469 15.896C168.064 16.632 169.29 17.644 170.149 18.932C171.038 20.1893 171.59 21.6307 171.805 23.256L164.859 23.532C164.767 22.7347 164.522 22.06 164.123 21.508C163.755 20.9253 163.28 20.4807 162.697 20.174C162.114 19.8367 161.409 19.668 160.581 19.668C159.354 19.668 158.404 19.9287 157.729 20.45C157.085 20.9407 156.763 21.6 156.763 22.428C156.763 23.0413 156.901 23.5473 157.177 23.946C157.484 24.314 157.974 24.6207 158.649 24.866C159.324 25.1113 160.228 25.3107 161.363 25.464C164 25.832 166.086 26.3533 167.619 27.028C169.183 27.672 170.302 28.4847 170.977 29.466C171.652 30.4473 171.989 31.6587 171.989 33.1C171.989 34.6947 171.529 36.044 170.609 37.148C169.689 38.252 168.401 39.0953 166.745 39.678C165.12 40.2607 163.188 40.552 160.949 40.552ZM183.784 40.552C181.238 40.552 179.153 39.9693 177.528 38.804C175.933 37.608 175.136 35.952 175.136 33.836C175.136 31.6587 175.81 29.9873 177.16 28.822C178.54 27.626 180.564 26.752 183.232 26.2L191.19 24.636C191.19 23.0413 190.822 21.8453 190.086 21.048C189.38 20.22 188.353 19.806 187.004 19.806C185.685 19.806 184.658 20.1127 183.922 20.726C183.186 21.3087 182.71 22.1827 182.496 23.348L175.55 23.026C176.01 20.3273 177.221 18.288 179.184 16.908C181.177 15.4973 183.784 14.792 187.004 14.792C190.684 14.792 193.444 15.666 195.284 17.414C197.154 19.162 198.09 21.7227 198.09 25.096V33.514C198.09 34.2193 198.197 34.6947 198.412 34.94C198.657 35.1547 199.01 35.262 199.47 35.262H200.16V40C199.945 40.0613 199.592 40.1227 199.102 40.184C198.642 40.2453 198.182 40.276 197.722 40.276C196.74 40.276 195.82 40.1073 194.962 39.77C194.134 39.4327 193.459 38.8653 192.938 38.068C192.416 37.24 192.156 36.0747 192.156 34.572L192.754 35.032C192.447 36.136 191.895 37.102 191.098 37.93C190.331 38.758 189.319 39.402 188.062 39.862C186.835 40.322 185.409 40.552 183.784 40.552ZM185.44 35.814C186.574 35.814 187.571 35.5993 188.43 35.17C189.288 34.71 189.963 34.0507 190.454 33.192C190.944 32.3333 191.19 31.3213 191.19 30.156V28.96L185.578 30.156C184.474 30.3707 183.63 30.7387 183.048 31.26C182.496 31.7507 182.22 32.3947 182.22 33.192C182.22 34.02 182.496 34.664 183.048 35.124C183.6 35.584 184.397 35.814 185.44 35.814ZM209.773 40C207.749 40 206.17 39.494 205.035 38.482C203.9 37.47 203.333 35.8293 203.333 33.56V7.34H210.233V32.824C210.233 33.56 210.402 34.0813 210.739 34.388C211.076 34.6947 211.567 34.848 212.211 34.848H213.867V40H209.773ZM243.032 40.736C239.72 40.736 236.868 40.046 234.476 38.666C232.114 37.286 230.29 35.3233 229.002 32.778C227.744 30.2327 227.116 27.212 227.116 23.716C227.116 20.22 227.744 17.1993 229.002 14.654C230.29 12.078 232.114 10.1 234.476 8.72C236.868 7.30933 239.72 6.604 243.032 6.604C246.344 6.604 249.18 7.30933 251.542 8.72C253.934 10.1 255.758 12.078 257.016 14.654C258.304 17.1993 258.948 20.22 258.948 23.716C258.948 27.212 258.304 30.2327 257.016 32.778C255.758 35.3233 253.934 37.286 251.542 38.666C249.18 40.046 246.344 40.736 243.032 40.736ZM242.986 34.848C244.826 34.848 246.39 34.4187 247.678 33.56C248.996 32.6707 249.993 31.398 250.668 29.742C251.373 28.086 251.726 26.0773 251.726 23.716C251.726 21.3547 251.373 19.346 250.668 17.69C249.993 16.0033 248.996 14.7153 247.678 13.826C246.39 12.9367 244.826 12.492 242.986 12.492C241.176 12.492 239.628 12.9367 238.34 13.826C237.052 14.7153 236.055 16.0033 235.35 17.69C234.675 19.346 234.338 21.3547 234.338 23.716C234.338 26.0773 234.675 28.086 235.35 29.742C236.055 31.398 237.052 32.6707 238.34 33.56C239.658 34.4187 241.207 34.848 242.986 34.848ZM277.382 40.552C275.664 40.552 274.162 40.184 272.874 39.448C271.616 38.712 270.635 37.6847 269.93 36.366L269.792 40H263.214V7.34H270.114V18.84C270.758 17.7053 271.708 16.7547 272.966 15.988C274.223 15.1907 275.695 14.792 277.382 14.792C279.467 14.792 281.276 15.3287 282.81 16.402C284.343 17.4447 285.524 18.932 286.352 20.864C287.21 22.796 287.64 25.0653 287.64 27.672C287.64 30.2787 287.21 32.548 286.352 34.48C285.524 36.412 284.343 37.9147 282.81 38.988C281.276 40.0307 279.467 40.552 277.382 40.552ZM275.45 35.262C276.983 35.262 278.21 34.6027 279.13 33.284C280.08 31.9347 280.556 30.064 280.556 27.672C280.556 25.28 280.096 23.4247 279.176 22.106C278.256 20.7567 277.029 20.082 275.496 20.082C274.361 20.082 273.38 20.3887 272.552 21.002C271.754 21.5847 271.141 22.4433 270.712 23.578C270.313 24.7127 270.114 26.0773 270.114 27.672C270.114 29.236 270.313 30.5853 270.712 31.72C271.141 32.8547 271.754 33.7287 272.552 34.342C273.38 34.9553 274.346 35.262 275.45 35.262ZM287.622 46.9V41.748H290.336C291.256 41.748 291.93 41.564 292.36 41.196C292.82 40.828 293.05 40.092 293.05 38.988V15.344H299.996V39.172C299.996 41.932 299.367 43.91 298.11 45.106C296.883 46.302 294.767 46.9 291.762 46.9H287.622ZM292.958 12.308V6.788H300.088V12.308H292.958ZM316.661 40.552C314.146 40.552 311.954 40.0307 310.083 38.988C308.243 37.9147 306.802 36.412 305.759 34.48C304.747 32.548 304.241 30.2787 304.241 27.672C304.241 25.0653 304.747 22.8113 305.759 20.91C306.802 18.978 308.243 17.4753 310.083 16.402C311.923 15.3287 314.1 14.792 316.615 14.792C319.068 14.792 321.2 15.3287 323.009 16.402C324.818 17.4753 326.214 19.0087 327.195 21.002C328.207 22.9953 328.713 25.372 328.713 28.132V29.512H311.371C311.463 31.4747 311.984 32.9313 312.935 33.882C313.916 34.8327 315.204 35.308 316.799 35.308C317.964 35.308 318.93 35.0627 319.697 34.572C320.494 34.0813 321.062 33.33 321.399 32.318L328.345 32.732C327.701 35.1853 326.336 37.102 324.251 38.482C322.166 39.862 319.636 40.552 316.661 40.552ZM311.371 25.28H321.629C321.537 23.4707 321.031 22.1213 320.111 21.232C319.222 20.3427 318.056 19.898 316.615 19.898C315.174 19.898 313.978 20.3733 313.027 21.324C312.107 22.244 311.555 23.5627 311.371 25.28ZM344.155 40.552C341.641 40.552 339.448 40.0307 337.577 38.988C335.707 37.9147 334.25 36.412 333.207 34.48C332.165 32.548 331.643 30.2787 331.643 27.672C331.643 25.0653 332.165 22.8113 333.207 20.91C334.25 18.978 335.707 17.4753 337.577 16.402C339.448 15.3287 341.641 14.792 344.155 14.792C346.333 14.792 348.28 15.1753 349.997 15.942C351.745 16.7087 353.156 17.8127 354.229 19.254C355.303 20.6953 355.962 22.428 356.207 24.452L349.077 24.774C348.863 23.2407 348.311 22.0907 347.421 21.324C346.563 20.5267 345.474 20.128 344.155 20.128C342.438 20.128 341.104 20.7873 340.153 22.106C339.203 23.4247 338.727 25.28 338.727 27.672C338.727 30.064 339.203 31.9347 340.153 33.284C341.104 34.6027 342.438 35.262 344.155 35.262C345.474 35.262 346.578 34.8633 347.467 34.066C348.357 33.238 348.893 31.996 349.077 30.34L356.207 30.616C355.993 32.64 355.349 34.4033 354.275 35.906C353.233 37.378 351.837 38.528 350.089 39.356C348.372 40.1533 346.394 40.552 344.155 40.552ZM369.469 40C366.923 40 365.053 39.4173 363.857 38.252C362.661 37.056 362.063 35.17 362.063 32.594V9.548H368.963V31.766C368.963 32.962 369.208 33.7747 369.699 34.204C370.22 34.6333 370.987 34.848 371.999 34.848H375.449V40H369.469ZM358.107 20.496V15.344H375.449V20.496H358.107ZM390.576 40V7.34H404.882C407.274 7.34 409.344 7.73867 411.092 8.536C412.871 9.33333 414.235 10.468 415.186 11.94C416.137 13.3813 416.612 15.0987 416.612 17.092C416.612 18.5947 416.29 19.9287 415.646 21.094C415.033 22.2593 414.174 23.21 413.07 23.946C411.997 24.682 410.755 25.142 409.344 25.326L409.206 24.912C411.383 24.912 413.039 25.3873 414.174 26.338C415.309 27.258 415.953 28.684 416.106 30.616L416.934 40H409.804L409.206 31.72C409.114 30.4627 408.715 29.5427 408.01 28.96C407.335 28.3467 406.17 28.04 404.514 28.04H397.568V40H390.576ZM397.568 22.198H404.1C405.787 22.198 407.09 21.8147 408.01 21.048C408.961 20.2507 409.436 19.1313 409.436 17.69C409.436 16.218 408.961 15.114 408.01 14.378C407.059 13.6113 405.679 13.228 403.87 13.228H397.568V22.198ZM432.56 40.552C430.045 40.552 427.852 40.0307 425.982 38.988C424.142 37.9147 422.7 36.412 421.658 34.48C420.646 32.548 420.14 30.2787 420.14 27.672C420.14 25.0653 420.646 22.8113 421.658 20.91C422.7 18.978 424.142 17.4753 425.982 16.402C427.822 15.3287 429.999 14.792 432.514 14.792C434.967 14.792 437.098 15.3287 438.908 16.402C440.717 17.4753 442.112 19.0087 443.094 21.002C444.106 22.9953 444.612 25.372 444.612 28.132V29.512H427.27C427.362 31.4747 427.883 32.9313 428.834 33.882C429.815 34.8327 431.103 35.308 432.698 35.308C433.863 35.308 434.829 35.0627 435.596 34.572C436.393 34.0813 436.96 33.33 437.298 32.318L444.244 32.732C443.6 35.1853 442.235 37.102 440.15 38.482C438.064 39.862 435.534 40.552 432.56 40.552ZM427.27 25.28H437.528C437.436 23.4707 436.93 22.1213 436.01 21.232C435.12 20.3427 433.955 19.898 432.514 19.898C431.072 19.898 429.876 20.3733 428.926 21.324C428.006 22.244 427.454 23.5627 427.27 25.28ZM450.6 40V15.022C450.6 12.5687 451.26 10.6827 452.578 9.364C453.897 8.01467 455.952 7.34 458.742 7.34H463.986V12.492H460.214C459.264 12.492 458.574 12.7373 458.144 13.228C457.715 13.688 457.5 14.3933 457.5 15.344V40H450.6ZM447.012 21.416V16.264H463.618V21.416H447.012ZM477.841 40.552C475.326 40.552 473.133 40.0307 471.263 38.988C469.423 37.9147 467.981 36.412 466.939 34.48C465.927 32.548 465.421 30.2787 465.421 27.672C465.421 25.0653 465.927 22.8113 466.939 20.91C467.981 18.978 469.423 17.4753 471.263 16.402C473.103 15.3287 475.28 14.792 477.795 14.792C480.248 14.792 482.379 15.3287 484.189 16.402C485.998 17.4753 487.393 19.0087 488.375 21.002C489.387 22.9953 489.893 25.372 489.893 28.132V29.512H472.551C472.643 31.4747 473.164 32.9313 474.115 33.882C475.096 34.8327 476.384 35.308 477.979 35.308C479.144 35.308 480.11 35.0627 480.877 34.572C481.674 34.0813 482.241 33.33 482.579 32.318L489.525 32.732C488.881 35.1853 487.516 37.102 485.431 38.482C483.345 39.862 480.815 40.552 477.841 40.552ZM472.551 25.28H482.809C482.717 23.4707 482.211 22.1213 481.291 21.232C480.401 20.3427 479.236 19.898 477.795 19.898C476.353 19.898 475.157 20.3733 474.207 21.324C473.287 22.244 472.735 23.5627 472.551 25.28ZM494.157 40V15.344H500.689L500.919 22.52L500.413 22.382C500.812 19.898 501.517 18.104 502.529 17C503.541 15.896 504.936 15.344 506.715 15.344H508.969V21.048H506.715C505.427 21.048 504.369 21.2167 503.541 21.554C502.713 21.8913 502.084 22.428 501.655 23.164C501.256 23.9 501.057 24.8967 501.057 26.154V40H494.157ZM522.942 40.552C520.428 40.552 518.235 40.0307 516.364 38.988C514.524 37.9147 513.083 36.412 512.04 34.48C511.028 32.548 510.522 30.2787 510.522 27.672C510.522 25.0653 511.028 22.8113 512.04 20.91C513.083 18.978 514.524 17.4753 516.364 16.402C518.204 15.3287 520.382 14.792 522.896 14.792C525.35 14.792 527.481 15.3287 529.29 16.402C531.1 17.4753 532.495 19.0087 533.476 21.002C534.488 22.9953 534.994 25.372 534.994 28.132V29.512H517.652C517.744 31.4747 518.266 32.9313 519.216 33.882C520.198 34.8327 521.486 35.308 523.08 35.308C524.246 35.308 525.212 35.0627 525.978 34.572C526.776 34.0813 527.343 33.33 527.68 32.318L534.626 32.732C533.982 35.1853 532.618 37.102 530.532 38.482C528.447 39.862 525.917 40.552 522.942 40.552ZM517.652 25.28H527.91C527.818 23.4707 527.312 22.1213 526.392 21.232C525.503 20.3427 524.338 19.898 522.896 19.898C521.455 19.898 520.259 20.3733 519.308 21.324C518.388 22.244 517.836 23.5627 517.652 25.28ZM539.259 40V15.344H545.469L545.745 22.566L544.871 22.336C545.116 20.496 545.607 19.024 546.343 17.92C547.109 16.816 548.06 16.0187 549.195 15.528C550.329 15.0373 551.571 14.792 552.921 14.792C554.699 14.792 556.202 15.1753 557.429 15.942C558.686 16.7087 559.637 17.7973 560.281 19.208C560.955 20.588 561.293 22.2287 561.293 24.13V40H554.393V26.43C554.393 25.1113 554.285 23.992 554.071 23.072C553.856 22.152 553.473 21.462 552.921 21.002C552.369 20.5113 551.602 20.266 550.621 20.266C549.179 20.266 548.075 20.8027 547.309 21.876C546.542 22.9187 546.159 24.4367 546.159 26.43V40H539.259ZM577.974 40.552C575.459 40.552 573.266 40.0307 571.396 38.988C569.525 37.9147 568.068 36.412 567.026 34.48C565.983 32.548 565.462 30.2787 565.462 27.672C565.462 25.0653 565.983 22.8113 567.026 20.91C568.068 18.978 569.525 17.4753 571.396 16.402C573.266 15.3287 575.459 14.792 577.974 14.792C580.151 14.792 582.098 15.1753 583.816 15.942C585.564 16.7087 586.974 17.8127 588.048 19.254C589.121 20.6953 589.78 22.428 590.026 24.452L582.896 24.774C582.681 23.2407 582.129 22.0907 581.24 21.324C580.381 20.5267 579.292 20.128 577.974 20.128C576.256 20.128 574.922 20.7873 573.972 22.106C573.021 23.4247 572.546 25.28 572.546 27.672C572.546 30.064 573.021 31.9347 573.972 33.284C574.922 34.6027 576.256 35.262 577.974 35.262C579.292 35.262 580.396 34.8633 581.286 34.066C582.175 33.238 582.712 31.996 582.896 30.34L590.026 30.616C589.811 32.64 589.167 34.4033 588.094 35.906C587.051 37.378 585.656 38.528 583.908 39.356C582.19 40.1533 580.212 40.552 577.974 40.552ZM604.925 40.552C602.41 40.552 600.217 40.0307 598.347 38.988C596.507 37.9147 595.065 36.412 594.023 34.48C593.011 32.548 592.505 30.2787 592.505 27.672C592.505 25.0653 593.011 22.8113 594.023 20.91C595.065 18.978 596.507 17.4753 598.347 16.402C600.187 15.3287 602.364 14.792 604.879 14.792C607.332 14.792 609.463 15.3287 611.273 16.402C613.082 17.4753 614.477 19.0087 615.459 21.002C616.471 22.9953 616.977 25.372 616.977 28.132V29.512H599.635C599.727 31.4747 600.248 32.9313 601.199 33.882C602.18 34.8327 603.468 35.308 605.063 35.308C606.228 35.308 607.194 35.0627 607.961 34.572C608.758 34.0813 609.325 33.33 609.663 32.318L616.609 32.732C615.965 35.1853 614.6 37.102 612.515 38.482C610.429 39.862 607.899 40.552 604.925 40.552ZM599.635 25.28H609.893C609.801 23.4707 609.295 22.1213 608.375 21.232C607.485 20.3427 606.32 19.898 604.879 19.898C603.437 19.898 602.241 20.3733 601.291 21.324C600.371 22.244 599.819 23.5627 599.635 25.28ZM20.25 88.736C17.2753 88.736 14.6227 88.0613 12.292 86.712C9.992 85.3627 8.18267 83.4153 6.864 80.87C5.576 78.3247 4.932 75.2733 4.932 71.716C4.932 68.2507 5.56067 65.2453 6.818 62.7C8.07533 60.124 9.86933 58.1307 12.2 56.72C14.5307 55.3093 17.26 54.604 20.388 54.604C24.6507 54.604 27.9627 55.662 30.324 57.778C32.716 59.8633 34.2493 62.8533 34.924 66.748L27.656 67.024C27.288 64.9693 26.4907 63.3747 25.264 62.24C24.0373 61.0747 22.412 60.492 20.388 60.492C18.64 60.492 17.1527 60.952 15.926 61.872C14.6993 62.792 13.764 64.0953 13.12 65.782C12.476 67.4687 12.154 69.4467 12.154 71.716C12.154 74.016 12.476 76.0093 13.12 77.696C13.7947 79.352 14.7453 80.6247 15.972 81.514C17.1987 82.4033 18.6553 82.848 20.342 82.848C22.55 82.848 24.252 82.2347 25.448 81.008C26.6747 79.7507 27.4413 78.018 27.748 75.81L35.062 76.086C34.6327 78.754 33.7893 81.0233 32.532 82.894C31.2747 84.7647 29.6187 86.206 27.564 87.218C25.54 88.23 23.102 88.736 20.25 88.736ZM50.591 88.552C48.0763 88.552 45.8836 88.0307 44.013 86.988C42.1423 85.9147 40.6856 84.412 39.643 82.48C38.6003 80.548 38.079 78.2787 38.079 75.672C38.079 73.0653 38.6003 70.8113 39.643 68.91C40.6856 66.978 42.1423 65.4753 44.013 64.402C45.8836 63.3287 48.0763 62.792 50.591 62.792C53.1056 62.792 55.2983 63.3287 57.169 64.402C59.0396 65.4753 60.4963 66.978 61.539 68.91C62.5816 70.8113 63.103 73.0653 63.103 75.672C63.103 78.2787 62.5816 80.548 61.539 82.48C60.4963 84.412 59.0396 85.9147 57.169 86.988C55.2983 88.0307 53.1056 88.552 50.591 88.552ZM50.591 83.262C52.3083 83.262 53.6423 82.6027 54.593 81.284C55.5436 79.9347 56.019 78.064 56.019 75.672C56.019 73.28 55.5436 71.4247 54.593 70.106C53.6423 68.7567 52.3083 68.082 50.591 68.082C48.8736 68.082 47.5396 68.7567 46.589 70.106C45.6383 71.4247 45.163 73.28 45.163 75.672C45.163 78.064 45.6383 79.9347 46.589 81.284C47.5396 82.6027 48.8736 83.262 50.591 83.262ZM67.3993 88V63.344H73.6093L73.8853 70.566L73.0113 70.336C73.2566 68.496 73.7473 67.024 74.4833 65.92C75.2499 64.816 76.2006 64.0187 77.3353 63.528C78.4699 63.0373 79.7119 62.792 81.0613 62.792C82.8399 62.792 84.3426 63.1753 85.5693 63.942C86.8266 64.7087 87.7773 65.7973 88.4213 67.208C89.0959 68.588 89.4333 70.2287 89.4333 72.13V88H82.5333V74.43C82.5333 73.1113 82.4259 71.992 82.2113 71.072C81.9966 70.152 81.6133 69.462 81.0613 69.002C80.5093 68.5113 79.7426 68.266 78.7613 68.266C77.3199 68.266 76.2159 68.8027 75.4493 69.876C74.6826 70.9187 74.2993 72.4367 74.2993 74.43V88H67.3993ZM106.114 88.552C103.6 88.552 101.407 88.0307 99.5364 86.988C97.6657 85.9147 96.2091 84.412 95.1664 82.48C94.1237 80.548 93.6024 78.2787 93.6024 75.672C93.6024 73.0653 94.1237 70.8113 95.1664 68.91C96.2091 66.978 97.6657 65.4753 99.5364 64.402C101.407 63.3287 103.6 62.792 106.114 62.792C108.292 62.792 110.239 63.1753 111.956 63.942C113.704 64.7087 115.115 65.8127 116.188 67.254C117.262 68.6953 117.921 70.428 118.166 72.452L111.036 72.774C110.822 71.2407 110.27 70.0907 109.38 69.324C108.522 68.5267 107.433 68.128 106.114 68.128C104.397 68.128 103.063 68.7873 102.112 70.106C101.162 71.4247 100.686 73.28 100.686 75.672C100.686 78.064 101.162 79.9347 102.112 81.284C103.063 82.6027 104.397 83.262 106.114 83.262C107.433 83.262 108.537 82.8633 109.426 82.066C110.316 81.238 110.852 79.996 111.036 78.34L118.166 78.616C117.952 80.64 117.308 82.4033 116.234 83.906C115.192 85.378 113.796 86.528 112.048 87.356C110.331 88.1533 108.353 88.552 106.114 88.552ZM133.065 88.552C130.551 88.552 128.358 88.0307 126.487 86.988C124.647 85.9147 123.206 84.412 122.163 82.48C121.151 80.548 120.645 78.2787 120.645 75.672C120.645 73.0653 121.151 70.8113 122.163 68.91C123.206 66.978 124.647 65.4753 126.487 64.402C128.327 63.3287 130.505 62.792 133.019 62.792C135.473 62.792 137.604 63.3287 139.413 64.402C141.223 65.4753 142.618 67.0087 143.599 69.002C144.611 70.9953 145.117 73.372 145.117 76.132V77.512H127.775C127.867 79.4747 128.389 80.9313 129.339 81.882C130.321 82.8327 131.609 83.308 133.203 83.308C134.369 83.308 135.335 83.0627 136.101 82.572C136.899 82.0813 137.466 81.33 137.803 80.318L144.749 80.732C144.105 83.1853 142.741 85.102 140.655 86.482C138.57 87.862 136.04 88.552 133.065 88.552ZM127.775 73.28H138.033C137.941 71.4707 137.435 70.1213 136.515 69.232C135.626 68.3427 134.461 67.898 133.019 67.898C131.578 67.898 130.382 68.3733 129.431 69.324C128.511 70.244 127.959 71.5627 127.775 73.28ZM149.382 94.9V63.344H156.006L156.144 68.542L155.592 68.312C156.205 66.5333 157.202 65.1687 158.582 64.218C159.962 63.2673 161.572 62.792 163.412 62.792C165.712 62.792 167.628 63.3593 169.162 64.494C170.695 65.6287 171.845 67.1773 172.612 69.14C173.409 71.072 173.808 73.2493 173.808 75.672C173.808 78.064 173.409 80.2413 172.612 82.204C171.845 84.1667 170.68 85.7153 169.116 86.85C167.582 87.9847 165.666 88.552 163.366 88.552C162.17 88.552 161.05 88.3373 160.008 87.908C158.965 87.448 158.06 86.8193 157.294 86.022C156.558 85.2247 156.021 84.274 155.684 83.17L156.282 82.802V94.9H149.382ZM161.48 83.262C163.105 83.262 164.378 82.5873 165.298 81.238C166.248 79.8887 166.724 78.0333 166.724 75.672C166.724 73.3107 166.248 71.4553 165.298 70.106C164.378 68.7567 163.105 68.082 161.48 68.082C160.406 68.082 159.471 68.3733 158.674 68.956C157.907 69.508 157.309 70.3513 156.88 71.486C156.481 72.6207 156.282 74.016 156.282 75.672C156.282 77.328 156.481 78.7233 156.88 79.858C157.309 80.9927 157.907 81.8513 158.674 82.434C159.471 82.986 160.406 83.262 161.48 83.262ZM187.535 88C184.99 88 183.119 87.4173 181.923 86.252C180.727 85.056 180.129 83.17 180.129 80.594V57.548H187.029V79.766C187.029 80.962 187.274 81.7747 187.765 82.204C188.286 82.6333 189.053 82.848 190.065 82.848H193.515V88H187.535ZM176.173 68.496V63.344H193.515V68.496H176.173ZM205.859 88.552C203.313 88.552 201.32 87.7393 199.879 86.114C198.468 84.458 197.763 82.158 197.763 79.214V63.344H204.663V77.604C204.663 79.5053 204.954 80.9007 205.537 81.79C206.119 82.6487 207.039 83.078 208.297 83.078C209.707 83.078 210.796 82.6027 211.563 81.652C212.36 80.6707 212.759 79.214 212.759 77.282V63.344H219.659V88H213.357L213.173 80.916L214.047 81.1C213.679 83.5533 212.805 85.4087 211.425 86.666C210.045 87.9233 208.189 88.552 205.859 88.552ZM233.018 88.552C230.473 88.552 228.387 87.9693 226.762 86.804C225.167 85.608 224.37 83.952 224.37 81.836C224.37 79.6587 225.045 77.9873 226.394 76.822C227.774 75.626 229.798 74.752 232.466 74.2L240.424 72.636C240.424 71.0413 240.056 69.8453 239.32 69.048C238.615 68.22 237.587 67.806 236.238 67.806C234.919 67.806 233.892 68.1127 233.156 68.726C232.42 69.3087 231.945 70.1827 231.73 71.348L224.784 71.026C225.244 68.3273 226.455 66.288 228.418 64.908C230.411 63.4973 233.018 62.792 236.238 62.792C239.918 62.792 242.678 63.666 244.518 65.414C246.389 67.162 247.324 69.7227 247.324 73.096V81.514C247.324 82.2193 247.431 82.6947 247.646 82.94C247.891 83.1547 248.244 83.262 248.704 83.262H249.394V88C249.179 88.0613 248.827 88.1227 248.336 88.184C247.876 88.2453 247.416 88.276 246.956 88.276C245.975 88.276 245.055 88.1073 244.196 87.77C243.368 87.4327 242.693 86.8653 242.172 86.068C241.651 85.24 241.39 84.0747 241.39 82.572L241.988 83.032C241.681 84.136 241.129 85.102 240.332 85.93C239.565 86.758 238.553 87.402 237.296 87.862C236.069 88.322 234.643 88.552 233.018 88.552ZM234.674 83.814C235.809 83.814 236.805 83.5993 237.664 83.17C238.523 82.71 239.197 82.0507 239.688 81.192C240.179 80.3333 240.424 79.3213 240.424 78.156V76.96L234.812 78.156C233.708 78.3707 232.865 78.7387 232.282 79.26C231.73 79.7507 231.454 80.3947 231.454 81.192C231.454 82.02 231.73 82.664 232.282 83.124C232.834 83.584 233.631 83.814 234.674 83.814ZM259.007 88C256.983 88 255.404 87.494 254.269 86.482C253.135 85.47 252.567 83.8293 252.567 81.56V55.34H259.467V80.824C259.467 81.56 259.636 82.0813 259.973 82.388C260.311 82.6947 260.801 82.848 261.445 82.848H263.101V88H259.007ZM266.628 88V63.344H273.528V88H266.628ZM266.49 60.308V54.788H273.62V60.308H266.49ZM279.105 88V82.572L292.675 68.496H279.657V63.344H300.955V68.772L287.155 82.848H301.323V88H279.105ZM316.616 88.552C314.101 88.552 311.909 88.0307 310.038 86.988C308.198 85.9147 306.757 84.412 305.714 82.48C304.702 80.548 304.196 78.2787 304.196 75.672C304.196 73.0653 304.702 70.8113 305.714 68.91C306.757 66.978 308.198 65.4753 310.038 64.402C311.878 63.3287 314.055 62.792 316.57 62.792C319.023 62.792 321.155 63.3287 322.964 64.402C324.773 65.4753 326.169 67.0087 327.15 69.002C328.162 70.9953 328.668 73.372 328.668 76.132V77.512H311.326C311.418 79.4747 311.939 80.9313 312.89 81.882C313.871 82.8327 315.159 83.308 316.754 83.308C317.919 83.308 318.885 83.0627 319.652 82.572C320.449 82.0813 321.017 81.33 321.354 80.318L328.3 80.732C327.656 83.1853 326.291 85.102 324.206 86.482C322.121 87.862 319.591 88.552 316.616 88.552ZM311.326 73.28H321.584C321.492 71.4707 320.986 70.1213 320.066 69.232C319.177 68.3427 318.011 67.898 316.57 67.898C315.129 67.898 313.933 68.3733 312.982 69.324C312.062 70.244 311.51 71.5627 311.326 73.28ZM341.718 88.552C339.633 88.552 337.824 88.0307 336.29 86.988C334.788 85.9147 333.622 84.4273 332.794 82.526C331.997 80.594 331.598 78.3093 331.598 75.672C331.598 73.0347 332.012 70.7653 332.84 68.864C333.668 66.932 334.834 65.4447 336.336 64.402C337.87 63.3287 339.664 62.792 341.718 62.792C343.466 62.792 344.969 63.16 346.226 63.896C347.514 64.6013 348.48 65.5827 349.124 66.84V55.34H356.024V88H349.446L349.308 84.366C348.634 85.6847 347.622 86.712 346.272 87.448C344.954 88.184 343.436 88.552 341.718 88.552ZM343.972 83.262C345.076 83.262 346.012 82.9707 346.778 82.388C347.545 81.8053 348.128 80.962 348.526 79.858C348.925 78.7233 349.124 77.328 349.124 75.672C349.124 73.9853 348.925 72.59 348.526 71.486C348.128 70.3513 347.545 69.508 346.778 68.956C346.012 68.3733 345.076 68.082 343.972 68.082C342.347 68.082 341.059 68.772 340.108 70.152C339.158 71.5013 338.682 73.3413 338.682 75.672C338.682 77.972 339.158 79.812 340.108 81.192C341.09 82.572 342.378 83.262 343.972 83.262Z" fill="#F500FF"/>
<path d="M16.192 41.736C13.432 41.736 11.04 41.23 9.016 40.218C7.02267 39.206 5.474 37.7647 4.37 35.894C3.266 33.9927 2.714 31.7693 2.714 29.224V8.294H9.706V29.224C9.706 31.34 10.258 32.9807 11.362 34.146C12.4967 35.2807 14.1067 35.848 16.192 35.848C18.2773 35.848 19.872 35.2807 20.976 34.146C22.08 32.9807 22.632 31.34 22.632 29.224V8.294H29.624V29.224C29.624 31.7693 29.072 33.9927 27.968 35.894C26.8947 37.7647 25.346 39.206 23.322 40.218C21.298 41.23 18.9213 41.736 16.192 41.736ZM35.3797 41V16.344H41.5898L41.8658 23.566L40.9918 23.336C41.2371 21.496 41.7278 20.024 42.4638 18.92C43.2304 17.816 44.1811 17.0187 45.3158 16.528C46.4504 16.0373 47.6924 15.792 49.0418 15.792C50.8204 15.792 52.3231 16.1753 53.5498 16.942C54.8071 17.7087 55.7578 18.7973 56.4018 20.208C57.0764 21.588 57.4138 23.2287 57.4138 25.13V41H50.5138V27.43C50.5138 26.1113 50.4064 24.992 50.1918 24.072C49.9771 23.152 49.5938 22.462 49.0418 22.002C48.4898 21.5113 47.7231 21.266 46.7418 21.266C45.3004 21.266 44.1964 21.8027 43.4298 22.876C42.6631 23.9187 42.2798 25.4367 42.2798 27.43V41H35.3797ZM63.0965 41V16.344H69.9965V41H63.0965ZM62.9585 13.308V7.788H70.0885V13.308H62.9585ZM82.5308 41L73.5148 16.344H80.7368L86.5788 34.054L92.3748 16.344H99.5968L90.5348 41H82.5308ZM113.399 41.552C110.885 41.552 108.692 41.0307 106.821 39.988C104.981 38.9147 103.54 37.412 102.497 35.48C101.485 33.548 100.979 31.2787 100.979 28.672C100.979 26.0653 101.485 23.8113 102.497 21.91C103.54 19.978 104.981 18.4753 106.821 17.402C108.661 16.3287 110.839 15.792 113.353 15.792C115.807 15.792 117.938 16.3287 119.747 17.402C121.557 18.4753 122.952 20.0087 123.933 22.002C124.945 23.9953 125.451 26.372 125.451 29.132V30.512H108.109C108.201 32.4747 108.723 33.9313 109.673 34.882C110.655 35.8327 111.943 36.308 113.537 36.308C114.703 36.308 115.669 36.0627 116.435 35.572C117.233 35.0813 117.8 34.33 118.137 33.318L125.083 33.732C124.439 36.1853 123.075 38.102 120.989 39.482C118.904 40.862 116.374 41.552 113.399 41.552ZM108.109 26.28H118.367C118.275 24.4707 117.769 23.1213 116.849 22.232C115.96 21.3427 114.795 20.898 113.353 20.898C111.912 20.898 110.716 21.3733 109.765 22.324C108.845 23.244 108.293 24.5627 108.109 26.28ZM129.716 41V16.344H136.248L136.478 23.52L135.972 23.382C136.37 20.898 137.076 19.104 138.088 18C139.1 16.896 140.495 16.344 142.274 16.344H144.528V22.048H142.274C140.986 22.048 139.928 22.2167 139.1 22.554C138.272 22.8913 137.643 23.428 137.214 24.164C136.815 24.9 136.616 25.8967 136.616 27.154V41H129.716ZM157.949 41.552C155.404 41.552 153.272 41.1993 151.555 40.494C149.838 39.758 148.519 38.7767 147.599 37.55C146.71 36.2927 146.204 34.8513 146.081 33.226L153.073 32.996C153.288 34.1613 153.778 35.066 154.545 35.71C155.312 36.354 156.446 36.676 157.949 36.676C159.176 36.676 160.126 36.4767 160.801 36.078C161.506 35.6793 161.859 35.066 161.859 34.238C161.859 33.7167 161.736 33.2873 161.491 32.95C161.246 32.582 160.755 32.2753 160.019 32.03C159.314 31.754 158.256 31.5087 156.845 31.294C154.238 30.834 152.199 30.2973 150.727 29.684C149.255 29.0707 148.212 28.2733 147.599 27.292C146.986 26.3107 146.679 25.1147 146.679 23.704C146.679 21.3427 147.584 19.4413 149.393 18C151.233 16.528 153.978 15.792 157.627 15.792C159.958 15.792 161.905 16.16 163.469 16.896C165.064 17.632 166.29 18.644 167.149 19.932C168.038 21.1893 168.59 22.6307 168.805 24.256L161.859 24.532C161.767 23.7347 161.522 23.06 161.123 22.508C160.755 21.9253 160.28 21.4807 159.697 21.174C159.114 20.8367 158.409 20.668 157.581 20.668C156.354 20.668 155.404 20.9287 154.729 21.45C154.085 21.9407 153.763 22.6 153.763 23.428C153.763 24.0413 153.901 24.5473 154.177 24.946C154.484 25.314 154.974 25.6207 155.649 25.866C156.324 26.1113 157.228 26.3107 158.363 26.464C161 26.832 163.086 27.3533 164.619 28.028C166.183 28.672 167.302 29.4847 167.977 30.466C168.652 31.4473 168.989 32.6587 168.989 34.1C168.989 35.6947 168.529 37.044 167.609 38.148C166.689 39.252 165.401 40.0953 163.745 40.678C162.12 41.2607 160.188 41.552 157.949 41.552ZM180.784 41.552C178.238 41.552 176.153 40.9693 174.528 39.804C172.933 38.608 172.136 36.952 172.136 34.836C172.136 32.6587 172.81 30.9873 174.16 29.822C175.54 28.626 177.564 27.752 180.232 27.2L188.19 25.636C188.19 24.0413 187.822 22.8453 187.086 22.048C186.38 21.22 185.353 20.806 184.004 20.806C182.685 20.806 181.658 21.1127 180.922 21.726C180.186 22.3087 179.71 23.1827 179.496 24.348L172.55 24.026C173.01 21.3273 174.221 19.288 176.184 17.908C178.177 16.4973 180.784 15.792 184.004 15.792C187.684 15.792 190.444 16.666 192.284 18.414C194.154 20.162 195.09 22.7227 195.09 26.096V34.514C195.09 35.2193 195.197 35.6947 195.412 35.94C195.657 36.1547 196.01 36.262 196.47 36.262H197.16V41C196.945 41.0613 196.592 41.1227 196.102 41.184C195.642 41.2453 195.182 41.276 194.722 41.276C193.74 41.276 192.82 41.1073 191.962 40.77C191.134 40.4327 190.459 39.8653 189.938 39.068C189.416 38.24 189.156 37.0747 189.156 35.572L189.754 36.032C189.447 37.136 188.895 38.102 188.098 38.93C187.331 39.758 186.319 40.402 185.062 40.862C183.835 41.322 182.409 41.552 180.784 41.552ZM182.44 36.814C183.574 36.814 184.571 36.5993 185.43 36.17C186.288 35.71 186.963 35.0507 187.454 34.192C187.944 33.3333 188.19 32.3213 188.19 31.156V29.96L182.578 31.156C181.474 31.3707 180.63 31.7387 180.048 32.26C179.496 32.7507 179.22 33.3947 179.22 34.192C179.22 35.02 179.496 35.664 180.048 36.124C180.6 36.584 181.397 36.814 182.44 36.814ZM206.773 41C204.749 41 203.17 40.494 202.035 39.482C200.9 38.47 200.333 36.8293 200.333 34.56V8.34H207.233V33.824C207.233 34.56 207.402 35.0813 207.739 35.388C208.076 35.6947 208.567 35.848 209.211 35.848H210.867V41H206.773ZM240.032 41.736C236.72 41.736 233.868 41.046 231.476 39.666C229.114 38.286 227.29 36.3233 226.002 33.778C224.744 31.2327 224.116 28.212 224.116 24.716C224.116 21.22 224.744 18.1993 226.002 15.654C227.29 13.078 229.114 11.1 231.476 9.72C233.868 8.30933 236.72 7.604 240.032 7.604C243.344 7.604 246.18 8.30933 248.542 9.72C250.934 11.1 252.758 13.078 254.016 15.654C255.304 18.1993 255.948 21.22 255.948 24.716C255.948 28.212 255.304 31.2327 254.016 33.778C252.758 36.3233 250.934 38.286 248.542 39.666C246.18 41.046 243.344 41.736 240.032 41.736ZM239.986 35.848C241.826 35.848 243.39 35.4187 244.678 34.56C245.996 33.6707 246.993 32.398 247.668 30.742C248.373 29.086 248.726 27.0773 248.726 24.716C248.726 22.3547 248.373 20.346 247.668 18.69C246.993 17.0033 245.996 15.7153 244.678 14.826C243.39 13.9367 241.826 13.492 239.986 13.492C238.176 13.492 236.628 13.9367 235.34 14.826C234.052 15.7153 233.055 17.0033 232.35 18.69C231.675 20.346 231.338 22.3547 231.338 24.716C231.338 27.0773 231.675 29.086 232.35 30.742C233.055 32.398 234.052 33.6707 235.34 34.56C236.658 35.4187 238.207 35.848 239.986 35.848ZM274.382 41.552C272.664 41.552 271.162 41.184 269.874 40.448C268.616 39.712 267.635 38.6847 266.93 37.366L266.792 41H260.214V8.34H267.114V19.84C267.758 18.7053 268.708 17.7547 269.966 16.988C271.223 16.1907 272.695 15.792 274.382 15.792C276.467 15.792 278.276 16.3287 279.81 17.402C281.343 18.4447 282.524 19.932 283.352 21.864C284.21 23.796 284.64 26.0653 284.64 28.672C284.64 31.2787 284.21 33.548 283.352 35.48C282.524 37.412 281.343 38.9147 279.81 39.988C278.276 41.0307 276.467 41.552 274.382 41.552ZM272.45 36.262C273.983 36.262 275.21 35.6027 276.13 34.284C277.08 32.9347 277.556 31.064 277.556 28.672C277.556 26.28 277.096 24.4247 276.176 23.106C275.256 21.7567 274.029 21.082 272.496 21.082C271.361 21.082 270.38 21.3887 269.552 22.002C268.754 22.5847 268.141 23.4433 267.712 24.578C267.313 25.7127 267.114 27.0773 267.114 28.672C267.114 30.236 267.313 31.5853 267.712 32.72C268.141 33.8547 268.754 34.7287 269.552 35.342C270.38 35.9553 271.346 36.262 272.45 36.262ZM284.622 47.9V42.748H287.336C288.256 42.748 288.93 42.564 289.36 42.196C289.82 41.828 290.05 41.092 290.05 39.988V16.344H296.996V40.172C296.996 42.932 296.367 44.91 295.11 46.106C293.883 47.302 291.767 47.9 288.762 47.9H284.622ZM289.958 13.308V7.788H297.088V13.308H289.958ZM313.661 41.552C311.146 41.552 308.954 41.0307 307.083 39.988C305.243 38.9147 303.802 37.412 302.759 35.48C301.747 33.548 301.241 31.2787 301.241 28.672C301.241 26.0653 301.747 23.8113 302.759 21.91C303.802 19.978 305.243 18.4753 307.083 17.402C308.923 16.3287 311.1 15.792 313.615 15.792C316.068 15.792 318.2 16.3287 320.009 17.402C321.818 18.4753 323.214 20.0087 324.195 22.002C325.207 23.9953 325.713 26.372 325.713 29.132V30.512H308.371C308.463 32.4747 308.984 33.9313 309.935 34.882C310.916 35.8327 312.204 36.308 313.799 36.308C314.964 36.308 315.93 36.0627 316.697 35.572C317.494 35.0813 318.062 34.33 318.399 33.318L325.345 33.732C324.701 36.1853 323.336 38.102 321.251 39.482C319.166 40.862 316.636 41.552 313.661 41.552ZM308.371 26.28H318.629C318.537 24.4707 318.031 23.1213 317.111 22.232C316.222 21.3427 315.056 20.898 313.615 20.898C312.174 20.898 310.978 21.3733 310.027 22.324C309.107 23.244 308.555 24.5627 308.371 26.28ZM341.155 41.552C338.641 41.552 336.448 41.0307 334.577 39.988C332.707 38.9147 331.25 37.412 330.207 35.48C329.165 33.548 328.643 31.2787 328.643 28.672C328.643 26.0653 329.165 23.8113 330.207 21.91C331.25 19.978 332.707 18.4753 334.577 17.402C336.448 16.3287 338.641 15.792 341.155 15.792C343.333 15.792 345.28 16.1753 346.997 16.942C348.745 17.7087 350.156 18.8127 351.229 20.254C352.303 21.6953 352.962 23.428 353.207 25.452L346.077 25.774C345.863 24.2407 345.311 23.0907 344.421 22.324C343.563 21.5267 342.474 21.128 341.155 21.128C339.438 21.128 338.104 21.7873 337.153 23.106C336.203 24.4247 335.727 26.28 335.727 28.672C335.727 31.064 336.203 32.9347 337.153 34.284C338.104 35.6027 339.438 36.262 341.155 36.262C342.474 36.262 343.578 35.8633 344.467 35.066C345.357 34.238 345.893 32.996 346.077 31.34L353.207 31.616C352.993 33.64 352.349 35.4033 351.275 36.906C350.233 38.378 348.837 39.528 347.089 40.356C345.372 41.1533 343.394 41.552 341.155 41.552ZM366.469 41C363.923 41 362.053 40.4173 360.857 39.252C359.661 38.056 359.063 36.17 359.063 33.594V10.548H365.963V32.766C365.963 33.962 366.208 34.7747 366.699 35.204C367.22 35.6333 367.987 35.848 368.999 35.848H372.449V41H366.469ZM355.107 21.496V16.344H372.449V21.496H355.107ZM387.576 41V8.34H401.882C404.274 8.34 406.344 8.73867 408.092 9.536C409.871 10.3333 411.235 11.468 412.186 12.94C413.137 14.3813 413.612 16.0987 413.612 18.092C413.612 19.5947 413.29 20.9287 412.646 22.094C412.033 23.2593 411.174 24.21 410.07 24.946C408.997 25.682 407.755 26.142 406.344 26.326L406.206 25.912C408.383 25.912 410.039 26.3873 411.174 27.338C412.309 28.258 412.953 29.684 413.106 31.616L413.934 41H406.804L406.206 32.72C406.114 31.4627 405.715 30.5427 405.01 29.96C404.335 29.3467 403.17 29.04 401.514 29.04H394.568V41H387.576ZM394.568 23.198H401.1C402.787 23.198 404.09 22.8147 405.01 22.048C405.961 21.2507 406.436 20.1313 406.436 18.69C406.436 17.218 405.961 16.114 405.01 15.378C404.059 14.6113 402.679 14.228 400.87 14.228H394.568V23.198ZM429.56 41.552C427.045 41.552 424.852 41.0307 422.982 39.988C421.142 38.9147 419.7 37.412 418.658 35.48C417.646 33.548 417.14 31.2787 417.14 28.672C417.14 26.0653 417.646 23.8113 418.658 21.91C419.7 19.978 421.142 18.4753 422.982 17.402C424.822 16.3287 426.999 15.792 429.514 15.792C431.967 15.792 434.098 16.3287 435.908 17.402C437.717 18.4753 439.112 20.0087 440.094 22.002C441.106 23.9953 441.612 26.372 441.612 29.132V30.512H424.27C424.362 32.4747 424.883 33.9313 425.834 34.882C426.815 35.8327 428.103 36.308 429.698 36.308C430.863 36.308 431.829 36.0627 432.596 35.572C433.393 35.0813 433.96 34.33 434.298 33.318L441.244 33.732C440.6 36.1853 439.235 38.102 437.15 39.482C435.064 40.862 432.534 41.552 429.56 41.552ZM424.27 26.28H434.528C434.436 24.4707 433.93 23.1213 433.01 22.232C432.12 21.3427 430.955 20.898 429.514 20.898C428.072 20.898 426.876 21.3733 425.926 22.324C425.006 23.244 424.454 24.5627 424.27 26.28ZM447.6 41V16.022C447.6 13.5687 448.26 11.6827 449.578 10.364C450.897 9.01467 452.952 8.34 455.742 8.34H460.986V13.492H457.214C456.264 13.492 455.574 13.7373 455.144 14.228C454.715 14.688 454.5 15.3933 454.5 16.344V41H447.6ZM444.012 22.416V17.264H460.618V22.416H444.012ZM474.841 41.552C472.326 41.552 470.133 41.0307 468.263 39.988C466.423 38.9147 464.981 37.412 463.939 35.48C462.927 33.548 462.421 31.2787 462.421 28.672C462.421 26.0653 462.927 23.8113 463.939 21.91C464.981 19.978 466.423 18.4753 468.263 17.402C470.103 16.3287 472.28 15.792 474.795 15.792C477.248 15.792 479.379 16.3287 481.189 17.402C482.998 18.4753 484.393 20.0087 485.375 22.002C486.387 23.9953 486.893 26.372 486.893 29.132V30.512H469.551C469.643 32.4747 470.164 33.9313 471.115 34.882C472.096 35.8327 473.384 36.308 474.979 36.308C476.144 36.308 477.11 36.0627 477.877 35.572C478.674 35.0813 479.241 34.33 479.579 33.318L486.525 33.732C485.881 36.1853 484.516 38.102 482.431 39.482C480.345 40.862 477.815 41.552 474.841 41.552ZM469.551 26.28H479.809C479.717 24.4707 479.211 23.1213 478.291 22.232C477.401 21.3427 476.236 20.898 474.795 20.898C473.353 20.898 472.157 21.3733 471.207 22.324C470.287 23.244 469.735 24.5627 469.551 26.28ZM491.157 41V16.344H497.689L497.919 23.52L497.413 23.382C497.812 20.898 498.517 19.104 499.529 18C500.541 16.896 501.936 16.344 503.715 16.344H505.969V22.048H503.715C502.427 22.048 501.369 22.2167 500.541 22.554C499.713 22.8913 499.084 23.428 498.655 24.164C498.256 24.9 498.057 25.8967 498.057 27.154V41H491.157ZM519.942 41.552C517.428 41.552 515.235 41.0307 513.364 39.988C511.524 38.9147 510.083 37.412 509.04 35.48C508.028 33.548 507.522 31.2787 507.522 28.672C507.522 26.0653 508.028 23.8113 509.04 21.91C510.083 19.978 511.524 18.4753 513.364 17.402C515.204 16.3287 517.382 15.792 519.896 15.792C522.35 15.792 524.481 16.3287 526.29 17.402C528.1 18.4753 529.495 20.0087 530.476 22.002C531.488 23.9953 531.994 26.372 531.994 29.132V30.512H514.652C514.744 32.4747 515.266 33.9313 516.216 34.882C517.198 35.8327 518.486 36.308 520.08 36.308C521.246 36.308 522.212 36.0627 522.978 35.572C523.776 35.0813 524.343 34.33 524.68 33.318L531.626 33.732C530.982 36.1853 529.618 38.102 527.532 39.482C525.447 40.862 522.917 41.552 519.942 41.552ZM514.652 26.28H524.91C524.818 24.4707 524.312 23.1213 523.392 22.232C522.503 21.3427 521.338 20.898 519.896 20.898C518.455 20.898 517.259 21.3733 516.308 22.324C515.388 23.244 514.836 24.5627 514.652 26.28ZM536.259 41V16.344H542.469L542.745 23.566L541.871 23.336C542.116 21.496 542.607 20.024 543.343 18.92C544.109 17.816 545.06 17.0187 546.195 16.528C547.329 16.0373 548.571 15.792 549.921 15.792C551.699 15.792 553.202 16.1753 554.429 16.942C555.686 17.7087 556.637 18.7973 557.281 20.208C557.955 21.588 558.293 23.2287 558.293 25.13V41H551.393V27.43C551.393 26.1113 551.285 24.992 551.071 24.072C550.856 23.152 550.473 22.462 549.921 22.002C549.369 21.5113 548.602 21.266 547.621 21.266C546.179 21.266 545.075 21.8027 544.309 22.876C543.542 23.9187 543.159 25.4367 543.159 27.43V41H536.259ZM574.974 41.552C572.459 41.552 570.266 41.0307 568.396 39.988C566.525 38.9147 565.068 37.412 564.026 35.48C562.983 33.548 562.462 31.2787 562.462 28.672C562.462 26.0653 562.983 23.8113 564.026 21.91C565.068 19.978 566.525 18.4753 568.396 17.402C570.266 16.3287 572.459 15.792 574.974 15.792C577.151 15.792 579.098 16.1753 580.816 16.942C582.564 17.7087 583.974 18.8127 585.048 20.254C586.121 21.6953 586.78 23.428 587.026 25.452L579.896 25.774C579.681 24.2407 579.129 23.0907 578.24 22.324C577.381 21.5267 576.292 21.128 574.974 21.128C573.256 21.128 571.922 21.7873 570.972 23.106C570.021 24.4247 569.546 26.28 569.546 28.672C569.546 31.064 570.021 32.9347 570.972 34.284C571.922 35.6027 573.256 36.262 574.974 36.262C576.292 36.262 577.396 35.8633 578.286 35.066C579.175 34.238 579.712 32.996 579.896 31.34L587.026 31.616C586.811 33.64 586.167 35.4033 585.094 36.906C584.051 38.378 582.656 39.528 580.908 40.356C579.19 41.1533 577.212 41.552 574.974 41.552ZM601.925 41.552C599.41 41.552 597.217 41.0307 595.347 39.988C593.507 38.9147 592.065 37.412 591.023 35.48C590.011 33.548 589.505 31.2787 589.505 28.672C589.505 26.0653 590.011 23.8113 591.023 21.91C592.065 19.978 593.507 18.4753 595.347 17.402C597.187 16.3287 599.364 15.792 601.879 15.792C604.332 15.792 606.463 16.3287 608.273 17.402C610.082 18.4753 611.477 20.0087 612.459 22.002C613.471 23.9953 613.977 26.372 613.977 29.132V30.512H596.635C596.727 32.4747 597.248 33.9313 598.199 34.882C599.18 35.8327 600.468 36.308 602.063 36.308C603.228 36.308 604.194 36.0627 604.961 35.572C605.758 35.0813 606.325 34.33 606.663 33.318L613.609 33.732C612.965 36.1853 611.6 38.102 609.515 39.482C607.429 40.862 604.899 41.552 601.925 41.552ZM596.635 26.28H606.893C606.801 24.4707 606.295 23.1213 605.375 22.232C604.485 21.3427 603.32 20.898 601.879 20.898C600.437 20.898 599.241 21.3733 598.291 22.324C597.371 23.244 596.819 24.5627 596.635 26.28ZM17.25 89.736C14.2753 89.736 11.6227 89.0613 9.292 87.712C6.992 86.3627 5.18267 84.4153 3.864 81.87C2.576 79.3247 1.932 76.2733 1.932 72.716C1.932 69.2507 2.56067 66.2453 3.818 63.7C5.07533 61.124 6.86933 59.1307 9.2 57.72C11.5307 56.3093 14.26 55.604 17.388 55.604C21.6507 55.604 24.9627 56.662 27.324 58.778C29.716 60.8633 31.2493 63.8533 31.924 67.748L24.656 68.024C24.288 65.9693 23.4907 64.3747 22.264 63.24C21.0373 62.0747 19.412 61.492 17.388 61.492C15.64 61.492 14.1527 61.952 12.926 62.872C11.6993 63.792 10.764 65.0953 10.12 66.782C9.476 68.4687 9.154 70.4467 9.154 72.716C9.154 75.016 9.476 77.0093 10.12 78.696C10.7947 80.352 11.7453 81.6247 12.972 82.514C14.1987 83.4033 15.6553 83.848 17.342 83.848C19.55 83.848 21.252 83.2347 22.448 82.008C23.6747 80.7507 24.4413 79.018 24.748 76.81L32.062 77.086C31.6327 79.754 30.7893 82.0233 29.532 83.894C28.2747 85.7647 26.6187 87.206 24.564 88.218C22.54 89.23 20.102 89.736 17.25 89.736ZM47.591 89.552C45.0763 89.552 42.8836 89.0307 41.013 87.988C39.1423 86.9147 37.6856 85.412 36.643 83.48C35.6003 81.548 35.079 79.2787 35.079 76.672C35.079 74.0653 35.6003 71.8113 36.643 69.91C37.6856 67.978 39.1423 66.4753 41.013 65.402C42.8836 64.3287 45.0763 63.792 47.591 63.792C50.1056 63.792 52.2983 64.3287 54.169 65.402C56.0396 66.4753 57.4963 67.978 58.539 69.91C59.5816 71.8113 60.103 74.0653 60.103 76.672C60.103 79.2787 59.5816 81.548 58.539 83.48C57.4963 85.412 56.0396 86.9147 54.169 87.988C52.2983 89.0307 50.1056 89.552 47.591 89.552ZM47.591 84.262C49.3083 84.262 50.6423 83.6027 51.593 82.284C52.5436 80.9347 53.019 79.064 53.019 76.672C53.019 74.28 52.5436 72.4247 51.593 71.106C50.6423 69.7567 49.3083 69.082 47.591 69.082C45.8736 69.082 44.5396 69.7567 43.589 71.106C42.6383 72.4247 42.163 74.28 42.163 76.672C42.163 79.064 42.6383 80.9347 43.589 82.284C44.5396 83.6027 45.8736 84.262 47.591 84.262ZM64.3993 89V64.344H70.6093L70.8853 71.566L70.0113 71.336C70.2566 69.496 70.7473 68.024 71.4833 66.92C72.2499 65.816 73.2006 65.0187 74.3353 64.528C75.4699 64.0373 76.7119 63.792 78.0613 63.792C79.8399 63.792 81.3426 64.1753 82.5693 64.942C83.8266 65.7087 84.7773 66.7973 85.4213 68.208C86.0959 69.588 86.4333 71.2287 86.4333 73.13V89H79.5333V75.43C79.5333 74.1113 79.4259 72.992 79.2113 72.072C78.9966 71.152 78.6133 70.462 78.0613 70.002C77.5093 69.5113 76.7426 69.266 75.7613 69.266C74.3199 69.266 73.2159 69.8027 72.4493 70.876C71.6826 71.9187 71.2993 73.4367 71.2993 75.43V89H64.3993ZM103.114 89.552C100.6 89.552 98.4071 89.0307 96.5364 87.988C94.6657 86.9147 93.2091 85.412 92.1664 83.48C91.1237 81.548 90.6024 79.2787 90.6024 76.672C90.6024 74.0653 91.1237 71.8113 92.1664 69.91C93.2091 67.978 94.6657 66.4753 96.5364 65.402C98.4071 64.3287 100.6 63.792 103.114 63.792C105.292 63.792 107.239 64.1753 108.956 64.942C110.704 65.7087 112.115 66.8127 113.188 68.254C114.262 69.6953 114.921 71.428 115.166 73.452L108.036 73.774C107.822 72.2407 107.27 71.0907 106.38 70.324C105.522 69.5267 104.433 69.128 103.114 69.128C101.397 69.128 100.063 69.7873 99.1124 71.106C98.1617 72.4247 97.6864 74.28 97.6864 76.672C97.6864 79.064 98.1617 80.9347 99.1124 82.284C100.063 83.6027 101.397 84.262 103.114 84.262C104.433 84.262 105.537 83.8633 106.426 83.066C107.316 82.238 107.852 80.996 108.036 79.34L115.166 79.616C114.952 81.64 114.308 83.4033 113.234 84.906C112.192 86.378 110.796 87.528 109.048 88.356C107.331 89.1533 105.353 89.552 103.114 89.552ZM130.065 89.552C127.551 89.552 125.358 89.0307 123.487 87.988C121.647 86.9147 120.206 85.412 119.163 83.48C118.151 81.548 117.645 79.2787 117.645 76.672C117.645 74.0653 118.151 71.8113 119.163 69.91C120.206 67.978 121.647 66.4753 123.487 65.402C125.327 64.3287 127.505 63.792 130.019 63.792C132.473 63.792 134.604 64.3287 136.413 65.402C138.223 66.4753 139.618 68.0087 140.599 70.002C141.611 71.9953 142.117 74.372 142.117 77.132V78.512H124.775C124.867 80.4747 125.389 81.9313 126.339 82.882C127.321 83.8327 128.609 84.308 130.203 84.308C131.369 84.308 132.335 84.0627 133.101 83.572C133.899 83.0813 134.466 82.33 134.803 81.318L141.749 81.732C141.105 84.1853 139.741 86.102 137.655 87.482C135.57 88.862 133.04 89.552 130.065 89.552ZM124.775 74.28H135.033C134.941 72.4707 134.435 71.1213 133.515 70.232C132.626 69.3427 131.461 68.898 130.019 68.898C128.578 68.898 127.382 69.3733 126.431 70.324C125.511 71.244 124.959 72.5627 124.775 74.28ZM146.382 95.9V64.344H153.006L153.144 69.542L152.592 69.312C153.205 67.5333 154.202 66.1687 155.582 65.218C156.962 64.2673 158.572 63.792 160.412 63.792C162.712 63.792 164.628 64.3593 166.162 65.494C167.695 66.6287 168.845 68.1773 169.612 70.14C170.409 72.072 170.808 74.2493 170.808 76.672C170.808 79.064 170.409 81.2413 169.612 83.204C168.845 85.1667 167.68 86.7153 166.116 87.85C164.582 88.9847 162.666 89.552 160.366 89.552C159.17 89.552 158.05 89.3373 157.008 88.908C155.965 88.448 155.06 87.8193 154.294 87.022C153.558 86.2247 153.021 85.274 152.684 84.17L153.282 83.802V95.9H146.382ZM158.48 84.262C160.105 84.262 161.378 83.5873 162.298 82.238C163.248 80.8887 163.724 79.0333 163.724 76.672C163.724 74.3107 163.248 72.4553 162.298 71.106C161.378 69.7567 160.105 69.082 158.48 69.082C157.406 69.082 156.471 69.3733 155.674 69.956C154.907 70.508 154.309 71.3513 153.88 72.486C153.481 73.6207 153.282 75.016 153.282 76.672C153.282 78.328 153.481 79.7233 153.88 80.858C154.309 81.9927 154.907 82.8513 155.674 83.434C156.471 83.986 157.406 84.262 158.48 84.262ZM184.535 89C181.99 89 180.119 88.4173 178.923 87.252C177.727 86.056 177.129 84.17 177.129 81.594V58.548H184.029V80.766C184.029 81.962 184.274 82.7747 184.765 83.204C185.286 83.6333 186.053 83.848 187.065 83.848H190.515V89H184.535ZM173.173 69.496V64.344H190.515V69.496H173.173ZM202.859 89.552C200.313 89.552 198.32 88.7393 196.879 87.114C195.468 85.458 194.763 83.158 194.763 80.214V64.344H201.663V78.604C201.663 80.5053 201.954 81.9007 202.537 82.79C203.119 83.6487 204.039 84.078 205.297 84.078C206.707 84.078 207.796 83.6027 208.563 82.652C209.36 81.6707 209.759 80.214 209.759 78.282V64.344H216.659V89H210.357L210.173 81.916L211.047 82.1C210.679 84.5533 209.805 86.4087 208.425 87.666C207.045 88.9233 205.189 89.552 202.859 89.552ZM230.018 89.552C227.473 89.552 225.387 88.9693 223.762 87.804C222.167 86.608 221.37 84.952 221.37 82.836C221.37 80.6587 222.045 78.9873 223.394 77.822C224.774 76.626 226.798 75.752 229.466 75.2L237.424 73.636C237.424 72.0413 237.056 70.8453 236.32 70.048C235.615 69.22 234.587 68.806 233.238 68.806C231.919 68.806 230.892 69.1127 230.156 69.726C229.42 70.3087 228.945 71.1827 228.73 72.348L221.784 72.026C222.244 69.3273 223.455 67.288 225.418 65.908C227.411 64.4973 230.018 63.792 233.238 63.792C236.918 63.792 239.678 64.666 241.518 66.414C243.389 68.162 244.324 70.7227 244.324 74.096V82.514C244.324 83.2193 244.431 83.6947 244.646 83.94C244.891 84.1547 245.244 84.262 245.704 84.262H246.394V89C246.179 89.0613 245.827 89.1227 245.336 89.184C244.876 89.2453 244.416 89.276 243.956 89.276C242.975 89.276 242.055 89.1073 241.196 88.77C240.368 88.4327 239.693 87.8653 239.172 87.068C238.651 86.24 238.39 85.0747 238.39 83.572L238.988 84.032C238.681 85.136 238.129 86.102 237.332 86.93C236.565 87.758 235.553 88.402 234.296 88.862C233.069 89.322 231.643 89.552 230.018 89.552ZM231.674 84.814C232.809 84.814 233.805 84.5993 234.664 84.17C235.523 83.71 236.197 83.0507 236.688 82.192C237.179 81.3333 237.424 80.3213 237.424 79.156V77.96L231.812 79.156C230.708 79.3707 229.865 79.7387 229.282 80.26C228.73 80.7507 228.454 81.3947 228.454 82.192C228.454 83.02 228.73 83.664 229.282 84.124C229.834 84.584 230.631 84.814 231.674 84.814ZM256.007 89C253.983 89 252.404 88.494 251.269 87.482C250.135 86.47 249.567 84.8293 249.567 82.56V56.34H256.467V81.824C256.467 82.56 256.636 83.0813 256.973 83.388C257.311 83.6947 257.801 83.848 258.445 83.848H260.101V89H256.007ZM263.628 89V64.344H270.528V89H263.628ZM263.49 61.308V55.788H270.62V61.308H263.49ZM276.105 89V83.572L289.675 69.496H276.657V64.344H297.955V69.772L284.155 83.848H298.323V89H276.105ZM313.616 89.552C311.101 89.552 308.909 89.0307 307.038 87.988C305.198 86.9147 303.757 85.412 302.714 83.48C301.702 81.548 301.196 79.2787 301.196 76.672C301.196 74.0653 301.702 71.8113 302.714 69.91C303.757 67.978 305.198 66.4753 307.038 65.402C308.878 64.3287 311.055 63.792 313.57 63.792C316.023 63.792 318.155 64.3287 319.964 65.402C321.773 66.4753 323.169 68.0087 324.15 70.002C325.162 71.9953 325.668 74.372 325.668 77.132V78.512H308.326C308.418 80.4747 308.939 81.9313 309.89 82.882C310.871 83.8327 312.159 84.308 313.754 84.308C314.919 84.308 315.885 84.0627 316.652 83.572C317.449 83.0813 318.017 82.33 318.354 81.318L325.3 81.732C324.656 84.1853 323.291 86.102 321.206 87.482C319.121 88.862 316.591 89.552 313.616 89.552ZM308.326 74.28H318.584C318.492 72.4707 317.986 71.1213 317.066 70.232C316.177 69.3427 315.011 68.898 313.57 68.898C312.129 68.898 310.933 69.3733 309.982 70.324C309.062 71.244 308.51 72.5627 308.326 74.28ZM338.718 89.552C336.633 89.552 334.824 89.0307 333.29 87.988C331.788 86.9147 330.622 85.4273 329.794 83.526C328.997 81.594 328.598 79.3093 328.598 76.672C328.598 74.0347 329.012 71.7653 329.84 69.864C330.668 67.932 331.834 66.4447 333.336 65.402C334.87 64.3287 336.664 63.792 338.718 63.792C340.466 63.792 341.969 64.16 343.226 64.896C344.514 65.6013 345.48 66.5827 346.124 67.84V56.34H353.024V89H346.446L346.308 85.366C345.634 86.6847 344.622 87.712 343.272 88.448C341.954 89.184 340.436 89.552 338.718 89.552ZM340.972 84.262C342.076 84.262 343.012 83.9707 343.778 83.388C344.545 82.8053 345.128 81.962 345.526 80.858C345.925 79.7233 346.124 78.328 346.124 76.672C346.124 74.9853 345.925 73.59 345.526 72.486C345.128 71.3513 344.545 70.508 343.778 69.956C343.012 69.3733 342.076 69.082 340.972 69.082C339.347 69.082 338.059 69.772 337.108 71.152C336.158 72.5013 335.682 74.3413 335.682 76.672C335.682 78.972 336.158 80.812 337.108 82.192C338.09 83.572 339.378 84.262 340.972 84.262Z" fill="#01EEFF"/>
<path d="M17.192 40.736C14.432 40.736 12.04 40.23 10.016 39.218C8.02267 38.206 6.474 36.7647 5.37 34.894C4.266 32.9927 3.714 30.7693 3.714 28.224V7.294H10.706V28.224C10.706 30.34 11.258 31.9807 12.362 33.146C13.4967 34.2807 15.1067 34.848 17.192 34.848C19.2773 34.848 20.872 34.2807 21.976 33.146C23.08 31.9807 23.632 30.34 23.632 28.224V7.294H30.624V28.224C30.624 30.7693 30.072 32.9927 28.968 34.894C27.8947 36.7647 26.346 38.206 24.322 39.218C22.298 40.23 19.9213 40.736 17.192 40.736ZM36.3797 40V15.344H42.5898L42.8658 22.566L41.9918 22.336C42.2371 20.496 42.7278 19.024 43.4638 17.92C44.2304 16.816 45.1811 16.0187 46.3158 15.528C47.4504 15.0373 48.6924 14.792 50.0418 14.792C51.8204 14.792 53.3231 15.1753 54.5498 15.942C55.8071 16.7087 56.7578 17.7973 57.4018 19.208C58.0764 20.588 58.4138 22.2287 58.4138 24.13V40H51.5138V26.43C51.5138 25.1113 51.4064 23.992 51.1918 23.072C50.9771 22.152 50.5938 21.462 50.0418 21.002C49.4898 20.5113 48.7231 20.266 47.7418 20.266C46.3004 20.266 45.1964 20.8027 44.4298 21.876C43.6631 22.9187 43.2798 24.4367 43.2798 26.43V40H36.3797ZM64.0965 40V15.344H70.9965V40H64.0965ZM63.9585 12.308V6.788H71.0885V12.308H63.9585ZM83.5308 40L74.5148 15.344H81.7368L87.5788 33.054L93.3748 15.344H100.597L91.5348 40H83.5308ZM114.399 40.552C111.885 40.552 109.692 40.0307 107.821 38.988C105.981 37.9147 104.54 36.412 103.497 34.48C102.485 32.548 101.979 30.2787 101.979 27.672C101.979 25.0653 102.485 22.8113 103.497 20.91C104.54 18.978 105.981 17.4753 107.821 16.402C109.661 15.3287 111.839 14.792 114.353 14.792C116.807 14.792 118.938 15.3287 120.747 16.402C122.557 17.4753 123.952 19.0087 124.933 21.002C125.945 22.9953 126.451 25.372 126.451 28.132V29.512H109.109C109.201 31.4747 109.723 32.9313 110.673 33.882C111.655 34.8327 112.943 35.308 114.537 35.308C115.703 35.308 116.669 35.0627 117.435 34.572C118.233 34.0813 118.8 33.33 119.137 32.318L126.083 32.732C125.439 35.1853 124.075 37.102 121.989 38.482C119.904 39.862 117.374 40.552 114.399 40.552ZM109.109 25.28H119.367C119.275 23.4707 118.769 22.1213 117.849 21.232C116.96 20.3427 115.795 19.898 114.353 19.898C112.912 19.898 111.716 20.3733 110.765 21.324C109.845 22.244 109.293 23.5627 109.109 25.28ZM130.716 40V15.344H137.248L137.478 22.52L136.972 22.382C137.37 19.898 138.076 18.104 139.088 17C140.1 15.896 141.495 15.344 143.274 15.344H145.528V21.048H143.274C141.986 21.048 140.928 21.2167 140.1 21.554C139.272 21.8913 138.643 22.428 138.214 23.164C137.815 23.9 137.616 24.8967 137.616 26.154V40H130.716ZM158.949 40.552C156.404 40.552 154.272 40.1993 152.555 39.494C150.838 38.758 149.519 37.7767 148.599 36.55C147.71 35.2927 147.204 33.8513 147.081 32.226L154.073 31.996C154.288 33.1613 154.778 34.066 155.545 34.71C156.312 35.354 157.446 35.676 158.949 35.676C160.176 35.676 161.126 35.4767 161.801 35.078C162.506 34.6793 162.859 34.066 162.859 33.238C162.859 32.7167 162.736 32.2873 162.491 31.95C162.246 31.582 161.755 31.2753 161.019 31.03C160.314 30.754 159.256 30.5087 157.845 30.294C155.238 29.834 153.199 29.2973 151.727 28.684C150.255 28.0707 149.212 27.2733 148.599 26.292C147.986 25.3107 147.679 24.1147 147.679 22.704C147.679 20.3427 148.584 18.4413 150.393 17C152.233 15.528 154.978 14.792 158.627 14.792C160.958 14.792 162.905 15.16 164.469 15.896C166.064 16.632 167.29 17.644 168.149 18.932C169.038 20.1893 169.59 21.6307 169.805 23.256L162.859 23.532C162.767 22.7347 162.522 22.06 162.123 21.508C161.755 20.9253 161.28 20.4807 160.697 20.174C160.114 19.8367 159.409 19.668 158.581 19.668C157.354 19.668 156.404 19.9287 155.729 20.45C155.085 20.9407 154.763 21.6 154.763 22.428C154.763 23.0413 154.901 23.5473 155.177 23.946C155.484 24.314 155.974 24.6207 156.649 24.866C157.324 25.1113 158.228 25.3107 159.363 25.464C162 25.832 164.086 26.3533 165.619 27.028C167.183 27.672 168.302 28.4847 168.977 29.466C169.652 30.4473 169.989 31.6587 169.989 33.1C169.989 34.6947 169.529 36.044 168.609 37.148C167.689 38.252 166.401 39.0953 164.745 39.678C163.12 40.2607 161.188 40.552 158.949 40.552ZM181.784 40.552C179.238 40.552 177.153 39.9693 175.528 38.804C173.933 37.608 173.136 35.952 173.136 33.836C173.136 31.6587 173.81 29.9873 175.16 28.822C176.54 27.626 178.564 26.752 181.232 26.2L189.19 24.636C189.19 23.0413 188.822 21.8453 188.086 21.048C187.38 20.22 186.353 19.806 185.004 19.806C183.685 19.806 182.658 20.1127 181.922 20.726C181.186 21.3087 180.71 22.1827 180.496 23.348L173.55 23.026C174.01 20.3273 175.221 18.288 177.184 16.908C179.177 15.4973 181.784 14.792 185.004 14.792C188.684 14.792 191.444 15.666 193.284 17.414C195.154 19.162 196.09 21.7227 196.09 25.096V33.514C196.09 34.2193 196.197 34.6947 196.412 34.94C196.657 35.1547 197.01 35.262 197.47 35.262H198.16V40C197.945 40.0613 197.592 40.1227 197.102 40.184C196.642 40.2453 196.182 40.276 195.722 40.276C194.74 40.276 193.82 40.1073 192.962 39.77C192.134 39.4327 191.459 38.8653 190.938 38.068C190.416 37.24 190.156 36.0747 190.156 34.572L190.754 35.032C190.447 36.136 189.895 37.102 189.098 37.93C188.331 38.758 187.319 39.402 186.062 39.862C184.835 40.322 183.409 40.552 181.784 40.552ZM183.44 35.814C184.574 35.814 185.571 35.5993 186.43 35.17C187.288 34.71 187.963 34.0507 188.454 33.192C188.944 32.3333 189.19 31.3213 189.19 30.156V28.96L183.578 30.156C182.474 30.3707 181.63 30.7387 181.048 31.26C180.496 31.7507 180.22 32.3947 180.22 33.192C180.22 34.02 180.496 34.664 181.048 35.124C181.6 35.584 182.397 35.814 183.44 35.814ZM207.773 40C205.749 40 204.17 39.494 203.035 38.482C201.9 37.47 201.333 35.8293 201.333 33.56V7.34H208.233V32.824C208.233 33.56 208.402 34.0813 208.739 34.388C209.076 34.6947 209.567 34.848 210.211 34.848H211.867V40H207.773ZM241.032 40.736C237.72 40.736 234.868 40.046 232.476 38.666C230.114 37.286 228.29 35.3233 227.002 32.778C225.744 30.2327 225.116 27.212 225.116 23.716C225.116 20.22 225.744 17.1993 227.002 14.654C228.29 12.078 230.114 10.1 232.476 8.72C234.868 7.30933 237.72 6.604 241.032 6.604C244.344 6.604 247.18 7.30933 249.542 8.72C251.934 10.1 253.758 12.078 255.016 14.654C256.304 17.1993 256.948 20.22 256.948 23.716C256.948 27.212 256.304 30.2327 255.016 32.778C253.758 35.3233 251.934 37.286 249.542 38.666C247.18 40.046 244.344 40.736 241.032 40.736ZM240.986 34.848C242.826 34.848 244.39 34.4187 245.678 33.56C246.996 32.6707 247.993 31.398 248.668 29.742C249.373 28.086 249.726 26.0773 249.726 23.716C249.726 21.3547 249.373 19.346 248.668 17.69C247.993 16.0033 246.996 14.7153 245.678 13.826C244.39 12.9367 242.826 12.492 240.986 12.492C239.176 12.492 237.628 12.9367 236.34 13.826C235.052 14.7153 234.055 16.0033 233.35 17.69C232.675 19.346 232.338 21.3547 232.338 23.716C232.338 26.0773 232.675 28.086 233.35 29.742C234.055 31.398 235.052 32.6707 236.34 33.56C237.658 34.4187 239.207 34.848 240.986 34.848ZM275.382 40.552C273.664 40.552 272.162 40.184 270.874 39.448C269.616 38.712 268.635 37.6847 267.93 36.366L267.792 40H261.214V7.34H268.114V18.84C268.758 17.7053 269.708 16.7547 270.966 15.988C272.223 15.1907 273.695 14.792 275.382 14.792C277.467 14.792 279.276 15.3287 280.81 16.402C282.343 17.4447 283.524 18.932 284.352 20.864C285.21 22.796 285.64 25.0653 285.64 27.672C285.64 30.2787 285.21 32.548 284.352 34.48C283.524 36.412 282.343 37.9147 280.81 38.988C279.276 40.0307 277.467 40.552 275.382 40.552ZM273.45 35.262C274.983 35.262 276.21 34.6027 277.13 33.284C278.08 31.9347 278.556 30.064 278.556 27.672C278.556 25.28 278.096 23.4247 277.176 22.106C276.256 20.7567 275.029 20.082 273.496 20.082C272.361 20.082 271.38 20.3887 270.552 21.002C269.754 21.5847 269.141 22.4433 268.712 23.578C268.313 24.7127 268.114 26.0773 268.114 27.672C268.114 29.236 268.313 30.5853 268.712 31.72C269.141 32.8547 269.754 33.7287 270.552 34.342C271.38 34.9553 272.346 35.262 273.45 35.262ZM285.622 46.9V41.748H288.336C289.256 41.748 289.93 41.564 290.36 41.196C290.82 40.828 291.05 40.092 291.05 38.988V15.344H297.996V39.172C297.996 41.932 297.367 43.91 296.11 45.106C294.883 46.302 292.767 46.9 289.762 46.9H285.622ZM290.958 12.308V6.788H298.088V12.308H290.958ZM314.661 40.552C312.146 40.552 309.954 40.0307 308.083 38.988C306.243 37.9147 304.802 36.412 303.759 34.48C302.747 32.548 302.241 30.2787 302.241 27.672C302.241 25.0653 302.747 22.8113 303.759 20.91C304.802 18.978 306.243 17.4753 308.083 16.402C309.923 15.3287 312.1 14.792 314.615 14.792C317.068 14.792 319.2 15.3287 321.009 16.402C322.818 17.4753 324.214 19.0087 325.195 21.002C326.207 22.9953 326.713 25.372 326.713 28.132V29.512H309.371C309.463 31.4747 309.984 32.9313 310.935 33.882C311.916 34.8327 313.204 35.308 314.799 35.308C315.964 35.308 316.93 35.0627 317.697 34.572C318.494 34.0813 319.062 33.33 319.399 32.318L326.345 32.732C325.701 35.1853 324.336 37.102 322.251 38.482C320.166 39.862 317.636 40.552 314.661 40.552ZM309.371 25.28H319.629C319.537 23.4707 319.031 22.1213 318.111 21.232C317.222 20.3427 316.056 19.898 314.615 19.898C313.174 19.898 311.978 20.3733 311.027 21.324C310.107 22.244 309.555 23.5627 309.371 25.28ZM342.155 40.552C339.641 40.552 337.448 40.0307 335.577 38.988C333.707 37.9147 332.25 36.412 331.207 34.48C330.165 32.548 329.643 30.2787 329.643 27.672C329.643 25.0653 330.165 22.8113 331.207 20.91C332.25 18.978 333.707 17.4753 335.577 16.402C337.448 15.3287 339.641 14.792 342.155 14.792C344.333 14.792 346.28 15.1753 347.997 15.942C349.745 16.7087 351.156 17.8127 352.229 19.254C353.303 20.6953 353.962 22.428 354.207 24.452L347.077 24.774C346.863 23.2407 346.311 22.0907 345.421 21.324C344.563 20.5267 343.474 20.128 342.155 20.128C340.438 20.128 339.104 20.7873 338.153 22.106C337.203 23.4247 336.727 25.28 336.727 27.672C336.727 30.064 337.203 31.9347 338.153 33.284C339.104 34.6027 340.438 35.262 342.155 35.262C343.474 35.262 344.578 34.8633 345.467 34.066C346.357 33.238 346.893 31.996 347.077 30.34L354.207 30.616C353.993 32.64 353.349 34.4033 352.275 35.906C351.233 37.378 349.837 38.528 348.089 39.356C346.372 40.1533 344.394 40.552 342.155 40.552ZM367.469 40C364.923 40 363.053 39.4173 361.857 38.252C360.661 37.056 360.063 35.17 360.063 32.594V9.548H366.963V31.766C366.963 32.962 367.208 33.7747 367.699 34.204C368.22 34.6333 368.987 34.848 369.999 34.848H373.449V40H367.469ZM356.107 20.496V15.344H373.449V20.496H356.107ZM388.576 40V7.34H402.882C405.274 7.34 407.344 7.73867 409.092 8.536C410.871 9.33333 412.235 10.468 413.186 11.94C414.137 13.3813 414.612 15.0987 414.612 17.092C414.612 18.5947 414.29 19.9287 413.646 21.094C413.033 22.2593 412.174 23.21 411.07 23.946C409.997 24.682 408.755 25.142 407.344 25.326L407.206 24.912C409.383 24.912 411.039 25.3873 412.174 26.338C413.309 27.258 413.953 28.684 414.106 30.616L414.934 40H407.804L407.206 31.72C407.114 30.4627 406.715 29.5427 406.01 28.96C405.335 28.3467 404.17 28.04 402.514 28.04H395.568V40H388.576ZM395.568 22.198H402.1C403.787 22.198 405.09 21.8147 406.01 21.048C406.961 20.2507 407.436 19.1313 407.436 17.69C407.436 16.218 406.961 15.114 406.01 14.378C405.059 13.6113 403.679 13.228 401.87 13.228H395.568V22.198ZM430.56 40.552C428.045 40.552 425.852 40.0307 423.982 38.988C422.142 37.9147 420.7 36.412 419.658 34.48C418.646 32.548 418.14 30.2787 418.14 27.672C418.14 25.0653 418.646 22.8113 419.658 20.91C420.7 18.978 422.142 17.4753 423.982 16.402C425.822 15.3287 427.999 14.792 430.514 14.792C432.967 14.792 435.098 15.3287 436.908 16.402C438.717 17.4753 440.112 19.0087 441.094 21.002C442.106 22.9953 442.612 25.372 442.612 28.132V29.512H425.27C425.362 31.4747 425.883 32.9313 426.834 33.882C427.815 34.8327 429.103 35.308 430.698 35.308C431.863 35.308 432.829 35.0627 433.596 34.572C434.393 34.0813 434.96 33.33 435.298 32.318L442.244 32.732C441.6 35.1853 440.235 37.102 438.15 38.482C436.064 39.862 433.534 40.552 430.56 40.552ZM425.27 25.28H435.528C435.436 23.4707 434.93 22.1213 434.01 21.232C433.12 20.3427 431.955 19.898 430.514 19.898C429.072 19.898 427.876 20.3733 426.926 21.324C426.006 22.244 425.454 23.5627 425.27 25.28ZM448.6 40V15.022C448.6 12.5687 449.26 10.6827 450.578 9.364C451.897 8.01467 453.952 7.34 456.742 7.34H461.986V12.492H458.214C457.264 12.492 456.574 12.7373 456.144 13.228C455.715 13.688 455.5 14.3933 455.5 15.344V40H448.6ZM445.012 21.416V16.264H461.618V21.416H445.012ZM475.841 40.552C473.326 40.552 471.133 40.0307 469.263 38.988C467.423 37.9147 465.981 36.412 464.939 34.48C463.927 32.548 463.421 30.2787 463.421 27.672C463.421 25.0653 463.927 22.8113 464.939 20.91C465.981 18.978 467.423 17.4753 469.263 16.402C471.103 15.3287 473.28 14.792 475.795 14.792C478.248 14.792 480.379 15.3287 482.189 16.402C483.998 17.4753 485.393 19.0087 486.375 21.002C487.387 22.9953 487.893 25.372 487.893 28.132V29.512H470.551C470.643 31.4747 471.164 32.9313 472.115 33.882C473.096 34.8327 474.384 35.308 475.979 35.308C477.144 35.308 478.11 35.0627 478.877 34.572C479.674 34.0813 480.241 33.33 480.579 32.318L487.525 32.732C486.881 35.1853 485.516 37.102 483.431 38.482C481.345 39.862 478.815 40.552 475.841 40.552ZM470.551 25.28H480.809C480.717 23.4707 480.211 22.1213 479.291 21.232C478.401 20.3427 477.236 19.898 475.795 19.898C474.353 19.898 473.157 20.3733 472.207 21.324C471.287 22.244 470.735 23.5627 470.551 25.28ZM492.157 40V15.344H498.689L498.919 22.52L498.413 22.382C498.812 19.898 499.517 18.104 500.529 17C501.541 15.896 502.936 15.344 504.715 15.344H506.969V21.048H504.715C503.427 21.048 502.369 21.2167 501.541 21.554C500.713 21.8913 500.084 22.428 499.655 23.164C499.256 23.9 499.057 24.8967 499.057 26.154V40H492.157ZM520.942 40.552C518.428 40.552 516.235 40.0307 514.364 38.988C512.524 37.9147 511.083 36.412 510.04 34.48C509.028 32.548 508.522 30.2787 508.522 27.672C508.522 25.0653 509.028 22.8113 510.04 20.91C511.083 18.978 512.524 17.4753 514.364 16.402C516.204 15.3287 518.382 14.792 520.896 14.792C523.35 14.792 525.481 15.3287 527.29 16.402C529.1 17.4753 530.495 19.0087 531.476 21.002C532.488 22.9953 532.994 25.372 532.994 28.132V29.512H515.652C515.744 31.4747 516.266 32.9313 517.216 33.882C518.198 34.8327 519.486 35.308 521.08 35.308C522.246 35.308 523.212 35.0627 523.978 34.572C524.776 34.0813 525.343 33.33 525.68 32.318L532.626 32.732C531.982 35.1853 530.618 37.102 528.532 38.482C526.447 39.862 523.917 40.552 520.942 40.552ZM515.652 25.28H525.91C525.818 23.4707 525.312 22.1213 524.392 21.232C523.503 20.3427 522.338 19.898 520.896 19.898C519.455 19.898 518.259 20.3733 517.308 21.324C516.388 22.244 515.836 23.5627 515.652 25.28ZM537.259 40V15.344H543.469L543.745 22.566L542.871 22.336C543.116 20.496 543.607 19.024 544.343 17.92C545.109 16.816 546.06 16.0187 547.195 15.528C548.329 15.0373 549.571 14.792 550.921 14.792C552.699 14.792 554.202 15.1753 555.429 15.942C556.686 16.7087 557.637 17.7973 558.281 19.208C558.955 20.588 559.293 22.2287 559.293 24.13V40H552.393V26.43C552.393 25.1113 552.285 23.992 552.071 23.072C551.856 22.152 551.473 21.462 550.921 21.002C550.369 20.5113 549.602 20.266 548.621 20.266C547.179 20.266 546.075 20.8027 545.309 21.876C544.542 22.9187 544.159 24.4367 544.159 26.43V40H537.259ZM575.974 40.552C573.459 40.552 571.266 40.0307 569.396 38.988C567.525 37.9147 566.068 36.412 565.026 34.48C563.983 32.548 563.462 30.2787 563.462 27.672C563.462 25.0653 563.983 22.8113 565.026 20.91C566.068 18.978 567.525 17.4753 569.396 16.402C571.266 15.3287 573.459 14.792 575.974 14.792C578.151 14.792 580.098 15.1753 581.816 15.942C583.564 16.7087 584.974 17.8127 586.048 19.254C587.121 20.6953 587.78 22.428 588.026 24.452L580.896 24.774C580.681 23.2407 580.129 22.0907 579.24 21.324C578.381 20.5267 577.292 20.128 575.974 20.128C574.256 20.128 572.922 20.7873 571.972 22.106C571.021 23.4247 570.546 25.28 570.546 27.672C570.546 30.064 571.021 31.9347 571.972 33.284C572.922 34.6027 574.256 35.262 575.974 35.262C577.292 35.262 578.396 34.8633 579.286 34.066C580.175 33.238 580.712 31.996 580.896 30.34L588.026 30.616C587.811 32.64 587.167 34.4033 586.094 35.906C585.051 37.378 583.656 38.528 581.908 39.356C580.19 40.1533 578.212 40.552 575.974 40.552ZM602.925 40.552C600.41 40.552 598.217 40.0307 596.347 38.988C594.507 37.9147 593.065 36.412 592.023 34.48C591.011 32.548 590.505 30.2787 590.505 27.672C590.505 25.0653 591.011 22.8113 592.023 20.91C593.065 18.978 594.507 17.4753 596.347 16.402C598.187 15.3287 600.364 14.792 602.879 14.792C605.332 14.792 607.463 15.3287 609.273 16.402C611.082 17.4753 612.477 19.0087 613.459 21.002C614.471 22.9953 614.977 25.372 614.977 28.132V29.512H597.635C597.727 31.4747 598.248 32.9313 599.199 33.882C600.18 34.8327 601.468 35.308 603.063 35.308C604.228 35.308 605.194 35.0627 605.961 34.572C606.758 34.0813 607.325 33.33 607.663 32.318L614.609 32.732C613.965 35.1853 612.6 37.102 610.515 38.482C608.429 39.862 605.899 40.552 602.925 40.552ZM597.635 25.28H607.893C607.801 23.4707 607.295 22.1213 606.375 21.232C605.485 20.3427 604.32 19.898 602.879 19.898C601.437 19.898 600.241 20.3733 599.291 21.324C598.371 22.244 597.819 23.5627 597.635 25.28ZM18.25 88.736C15.2753 88.736 12.6227 88.0613 10.292 86.712C7.992 85.3627 6.18267 83.4153 4.864 80.87C3.576 78.3247 2.932 75.2733 2.932 71.716C2.932 68.2507 3.56067 65.2453 4.818 62.7C6.07533 60.124 7.86933 58.1307 10.2 56.72C12.5307 55.3093 15.26 54.604 18.388 54.604C22.6507 54.604 25.9627 55.662 28.324 57.778C30.716 59.8633 32.2493 62.8533 32.924 66.748L25.656 67.024C25.288 64.9693 24.4907 63.3747 23.264 62.24C22.0373 61.0747 20.412 60.492 18.388 60.492C16.64 60.492 15.1527 60.952 13.926 61.872C12.6993 62.792 11.764 64.0953 11.12 65.782C10.476 67.4687 10.154 69.4467 10.154 71.716C10.154 74.016 10.476 76.0093 11.12 77.696C11.7947 79.352 12.7453 80.6247 13.972 81.514C15.1987 82.4033 16.6553 82.848 18.342 82.848C20.55 82.848 22.252 82.2347 23.448 81.008C24.6747 79.7507 25.4413 78.018 25.748 75.81L33.062 76.086C32.6327 78.754 31.7893 81.0233 30.532 82.894C29.2747 84.7647 27.6187 86.206 25.564 87.218C23.54 88.23 21.102 88.736 18.25 88.736ZM48.591 88.552C46.0763 88.552 43.8836 88.0307 42.013 86.988C40.1423 85.9147 38.6856 84.412 37.643 82.48C36.6003 80.548 36.079 78.2787 36.079 75.672C36.079 73.0653 36.6003 70.8113 37.643 68.91C38.6856 66.978 40.1423 65.4753 42.013 64.402C43.8836 63.3287 46.0763 62.792 48.591 62.792C51.1056 62.792 53.2983 63.3287 55.169 64.402C57.0396 65.4753 58.4963 66.978 59.539 68.91C60.5816 70.8113 61.103 73.0653 61.103 75.672C61.103 78.2787 60.5816 80.548 59.539 82.48C58.4963 84.412 57.0396 85.9147 55.169 86.988C53.2983 88.0307 51.1056 88.552 48.591 88.552ZM48.591 83.262C50.3083 83.262 51.6423 82.6027 52.593 81.284C53.5436 79.9347 54.019 78.064 54.019 75.672C54.019 73.28 53.5436 71.4247 52.593 70.106C51.6423 68.7567 50.3083 68.082 48.591 68.082C46.8736 68.082 45.5396 68.7567 44.589 70.106C43.6383 71.4247 43.163 73.28 43.163 75.672C43.163 78.064 43.6383 79.9347 44.589 81.284C45.5396 82.6027 46.8736 83.262 48.591 83.262ZM65.3993 88V63.344H71.6093L71.8853 70.566L71.0113 70.336C71.2566 68.496 71.7473 67.024 72.4833 65.92C73.2499 64.816 74.2006 64.0187 75.3353 63.528C76.4699 63.0373 77.7119 62.792 79.0613 62.792C80.8399 62.792 82.3426 63.1753 83.5693 63.942C84.8266 64.7087 85.7773 65.7973 86.4213 67.208C87.0959 68.588 87.4333 70.2287 87.4333 72.13V88H80.5333V74.43C80.5333 73.1113 80.4259 71.992 80.2113 71.072C79.9966 70.152 79.6133 69.462 79.0613 69.002C78.5093 68.5113 77.7426 68.266 76.7613 68.266C75.3199 68.266 74.2159 68.8027 73.4493 69.876C72.6826 70.9187 72.2993 72.4367 72.2993 74.43V88H65.3993ZM104.114 88.552C101.6 88.552 99.4071 88.0307 97.5364 86.988C95.6657 85.9147 94.2091 84.412 93.1664 82.48C92.1237 80.548 91.6024 78.2787 91.6024 75.672C91.6024 73.0653 92.1237 70.8113 93.1664 68.91C94.2091 66.978 95.6657 65.4753 97.5364 64.402C99.4071 63.3287 101.6 62.792 104.114 62.792C106.292 62.792 108.239 63.1753 109.956 63.942C111.704 64.7087 113.115 65.8127 114.188 67.254C115.262 68.6953 115.921 70.428 116.166 72.452L109.036 72.774C108.822 71.2407 108.27 70.0907 107.38 69.324C106.522 68.5267 105.433 68.128 104.114 68.128C102.397 68.128 101.063 68.7873 100.112 70.106C99.1617 71.4247 98.6864 73.28 98.6864 75.672C98.6864 78.064 99.1617 79.9347 100.112 81.284C101.063 82.6027 102.397 83.262 104.114 83.262C105.433 83.262 106.537 82.8633 107.426 82.066C108.316 81.238 108.852 79.996 109.036 78.34L116.166 78.616C115.952 80.64 115.308 82.4033 114.234 83.906C113.192 85.378 111.796 86.528 110.048 87.356C108.331 88.1533 106.353 88.552 104.114 88.552ZM131.065 88.552C128.551 88.552 126.358 88.0307 124.487 86.988C122.647 85.9147 121.206 84.412 120.163 82.48C119.151 80.548 118.645 78.2787 118.645 75.672C118.645 73.0653 119.151 70.8113 120.163 68.91C121.206 66.978 122.647 65.4753 124.487 64.402C126.327 63.3287 128.505 62.792 131.019 62.792C133.473 62.792 135.604 63.3287 137.413 64.402C139.223 65.4753 140.618 67.0087 141.599 69.002C142.611 70.9953 143.117 73.372 143.117 76.132V77.512H125.775C125.867 79.4747 126.389 80.9313 127.339 81.882C128.321 82.8327 129.609 83.308 131.203 83.308C132.369 83.308 133.335 83.0627 134.101 82.572C134.899 82.0813 135.466 81.33 135.803 80.318L142.749 80.732C142.105 83.1853 140.741 85.102 138.655 86.482C136.57 87.862 134.04 88.552 131.065 88.552ZM125.775 73.28H136.033C135.941 71.4707 135.435 70.1213 134.515 69.232C133.626 68.3427 132.461 67.898 131.019 67.898C129.578 67.898 128.382 68.3733 127.431 69.324C126.511 70.244 125.959 71.5627 125.775 73.28ZM147.382 94.9V63.344H154.006L154.144 68.542L153.592 68.312C154.205 66.5333 155.202 65.1687 156.582 64.218C157.962 63.2673 159.572 62.792 161.412 62.792C163.712 62.792 165.628 63.3593 167.162 64.494C168.695 65.6287 169.845 67.1773 170.612 69.14C171.409 71.072 171.808 73.2493 171.808 75.672C171.808 78.064 171.409 80.2413 170.612 82.204C169.845 84.1667 168.68 85.7153 167.116 86.85C165.582 87.9847 163.666 88.552 161.366 88.552C160.17 88.552 159.05 88.3373 158.008 87.908C156.965 87.448 156.06 86.8193 155.294 86.022C154.558 85.2247 154.021 84.274 153.684 83.17L154.282 82.802V94.9H147.382ZM159.48 83.262C161.105 83.262 162.378 82.5873 163.298 81.238C164.248 79.8887 164.724 78.0333 164.724 75.672C164.724 73.3107 164.248 71.4553 163.298 70.106C162.378 68.7567 161.105 68.082 159.48 68.082C158.406 68.082 157.471 68.3733 156.674 68.956C155.907 69.508 155.309 70.3513 154.88 71.486C154.481 72.6207 154.282 74.016 154.282 75.672C154.282 77.328 154.481 78.7233 154.88 79.858C155.309 80.9927 155.907 81.8513 156.674 82.434C157.471 82.986 158.406 83.262 159.48 83.262ZM185.535 88C182.99 88 181.119 87.4173 179.923 86.252C178.727 85.056 178.129 83.17 178.129 80.594V57.548H185.029V79.766C185.029 80.962 185.274 81.7747 185.765 82.204C186.286 82.6333 187.053 82.848 188.065 82.848H191.515V88H185.535ZM174.173 68.496V63.344H191.515V68.496H174.173ZM203.859 88.552C201.313 88.552 199.32 87.7393 197.879 86.114C196.468 84.458 195.763 82.158 195.763 79.214V63.344H202.663V77.604C202.663 79.5053 202.954 80.9007 203.537 81.79C204.119 82.6487 205.039 83.078 206.297 83.078C207.707 83.078 208.796 82.6027 209.563 81.652C210.36 80.6707 210.759 79.214 210.759 77.282V63.344H217.659V88H211.357L211.173 80.916L212.047 81.1C211.679 83.5533 210.805 85.4087 209.425 86.666C208.045 87.9233 206.189 88.552 203.859 88.552ZM231.018 88.552C228.473 88.552 226.387 87.9693 224.762 86.804C223.167 85.608 222.37 83.952 222.37 81.836C222.37 79.6587 223.045 77.9873 224.394 76.822C225.774 75.626 227.798 74.752 230.466 74.2L238.424 72.636C238.424 71.0413 238.056 69.8453 237.32 69.048C236.615 68.22 235.587 67.806 234.238 67.806C232.919 67.806 231.892 68.1127 231.156 68.726C230.42 69.3087 229.945 70.1827 229.73 71.348L222.784 71.026C223.244 68.3273 224.455 66.288 226.418 64.908C228.411 63.4973 231.018 62.792 234.238 62.792C237.918 62.792 240.678 63.666 242.518 65.414C244.389 67.162 245.324 69.7227 245.324 73.096V81.514C245.324 82.2193 245.431 82.6947 245.646 82.94C245.891 83.1547 246.244 83.262 246.704 83.262H247.394V88C247.179 88.0613 246.827 88.1227 246.336 88.184C245.876 88.2453 245.416 88.276 244.956 88.276C243.975 88.276 243.055 88.1073 242.196 87.77C241.368 87.4327 240.693 86.8653 240.172 86.068C239.651 85.24 239.39 84.0747 239.39 82.572L239.988 83.032C239.681 84.136 239.129 85.102 238.332 85.93C237.565 86.758 236.553 87.402 235.296 87.862C234.069 88.322 232.643 88.552 231.018 88.552ZM232.674 83.814C233.809 83.814 234.805 83.5993 235.664 83.17C236.523 82.71 237.197 82.0507 237.688 81.192C238.179 80.3333 238.424 79.3213 238.424 78.156V76.96L232.812 78.156C231.708 78.3707 230.865 78.7387 230.282 79.26C229.73 79.7507 229.454 80.3947 229.454 81.192C229.454 82.02 229.73 82.664 230.282 83.124C230.834 83.584 231.631 83.814 232.674 83.814ZM257.007 88C254.983 88 253.404 87.494 252.269 86.482C251.135 85.47 250.567 83.8293 250.567 81.56V55.34H257.467V80.824C257.467 81.56 257.636 82.0813 257.973 82.388C258.311 82.6947 258.801 82.848 259.445 82.848H261.101V88H257.007ZM264.628 88V63.344H271.528V88H264.628ZM264.49 60.308V54.788H271.62V60.308H264.49ZM277.105 88V82.572L290.675 68.496H277.657V63.344H298.955V68.772L285.155 82.848H299.323V88H277.105ZM314.616 88.552C312.101 88.552 309.909 88.0307 308.038 86.988C306.198 85.9147 304.757 84.412 303.714 82.48C302.702 80.548 302.196 78.2787 302.196 75.672C302.196 73.0653 302.702 70.8113 303.714 68.91C304.757 66.978 306.198 65.4753 308.038 64.402C309.878 63.3287 312.055 62.792 314.57 62.792C317.023 62.792 319.155 63.3287 320.964 64.402C322.773 65.4753 324.169 67.0087 325.15 69.002C326.162 70.9953 326.668 73.372 326.668 76.132V77.512H309.326C309.418 79.4747 309.939 80.9313 310.89 81.882C311.871 82.8327 313.159 83.308 314.754 83.308C315.919 83.308 316.885 83.0627 317.652 82.572C318.449 82.0813 319.017 81.33 319.354 80.318L326.3 80.732C325.656 83.1853 324.291 85.102 322.206 86.482C320.121 87.862 317.591 88.552 314.616 88.552ZM309.326 73.28H319.584C319.492 71.4707 318.986 70.1213 318.066 69.232C317.177 68.3427 316.011 67.898 314.57 67.898C313.129 67.898 311.933 68.3733 310.982 69.324C310.062 70.244 309.51 71.5627 309.326 73.28ZM339.718 88.552C337.633 88.552 335.824 88.0307 334.29 86.988C332.788 85.9147 331.622 84.4273 330.794 82.526C329.997 80.594 329.598 78.3093 329.598 75.672C329.598 73.0347 330.012 70.7653 330.84 68.864C331.668 66.932 332.834 65.4447 334.336 64.402C335.87 63.3287 337.664 62.792 339.718 62.792C341.466 62.792 342.969 63.16 344.226 63.896C345.514 64.6013 346.48 65.5827 347.124 66.84V55.34H354.024V88H347.446L347.308 84.366C346.634 85.6847 345.622 86.712 344.272 87.448C342.954 88.184 341.436 88.552 339.718 88.552ZM341.972 83.262C343.076 83.262 344.012 82.9707 344.778 82.388C345.545 81.8053 346.128 80.962 346.526 79.858C346.925 78.7233 347.124 77.328 347.124 75.672C347.124 73.9853 346.925 72.59 346.526 71.486C346.128 70.3513 345.545 69.508 344.778 68.956C344.012 68.3733 343.076 68.082 341.972 68.082C340.347 68.082 339.059 68.772 338.108 70.152C337.158 71.5013 336.682 73.3413 336.682 75.672C336.682 77.972 337.158 79.812 338.108 81.192C339.09 82.572 340.378 83.262 341.972 83.262Z" fill="white"/>
</svg>
